<svg id="레이어_1" data-name="레이어 1" xmlns="http://www.w3.org/2000/svg" viewBox="0 0 302.97 333.01"><defs><style>.cls-1{fill:#e5e5e4;}.cls-2,.cls-9{fill:#fff;}.cls-3{fill:#cbcbcb;}.cls-4{fill:#3c3d3d;}.cls-12,.cls-20,.cls-5{fill:#c38855;}.cls-11,.cls-20,.cls-5,.cls-6,.cls-7,.cls-8{stroke:#0a0305;stroke-linecap:round;stroke-linejoin:round;}.cls-11,.cls-15,.cls-5,.cls-6,.cls-7,.cls-8{stroke-width:6px;}.cls-6{fill:#be8145;}.cls-7{fill:#ed7534;}.cls-10,.cls-8{fill:#00a552;}.cls-9{opacity:0.7;}.cls-11{fill:none;}.cls-13{fill:#0a0305;}.cls-14{fill:#efd3b2;}.cls-15,.cls-18{fill:#f29500;}.cls-15,.cls-16{stroke:#040000;stroke-miterlimit:10;}.cls-16{fill:#9da3a9;stroke-width:4px;}.cls-17{fill:#f9eed8;}.cls-19{fill:#f4c400;}.cls-20{stroke-width:5.07px;}</style></defs><path class="cls-1" d="M79.84,66.27h25.38a0,0,0,0,1,0,0v17a0,0,0,0,1,0,0H79.84A7.29,7.29,0,0,1,72.55,76v-2.4a7.29,7.29,0,0,1,7.29-7.29Z"/><path class="cls-1" d="M321.06,100.27h25.38a0,0,0,0,1,0,0v17a0,0,0,0,1,0,0H321.06a7.29,7.29,0,0,1-7.29-7.29v-2.4a7.29,7.29,0,0,1,7.29-7.29Z" transform="translate(613.18 183.52) rotate(180)"/><path class="cls-1" d="M260.33,226.5H198.77s-6.58,52.58-5,78.53h71.6C266.91,279.08,260.33,226.5,260.33,226.5Z" transform="translate(-47.02 -33.99)"/><path class="cls-2" d="M201.3,114.93l-7.54,112.65a3.1,3.1,0,0,0,1.67,3c4.51,2.33,19.35,7.28,35.44,14.59,17.13,7.78,24.6,12.34,33.5,18.94,1.56,1.15,3.72.3,3.61-1.64l-5.15-147.56Z" transform="translate(-47.02 -33.99)"/><path class="cls-2" d="M262.83,100.27h58.75a47.27,47.27,0,0,1-1.62,7.61c-5.3,18.36-13.59,36.82-40.76,40.92l-12.76,1.54Z" transform="translate(-47.02 -33.99)"/><path class="cls-2" d="M184.48,100.27H142.59s15.88,45.44,58.43,48.35V100.27Z" transform="translate(-47.02 -33.99)"/><path class="cls-2" d="M179.18,3.55h6.75A20.55,20.55,0,0,1,206.48,24.1v47a0,0,0,0,1,0,0H158.63a0,0,0,0,1,0,0v-47A20.55,20.55,0,0,1,179.18,3.55Z"/><path class="cls-2" d="M229.57,47.36A12.18,12.18,0,0,0,217.4,59.54v18.7a12.18,12.18,0,0,0,24.35,0V59.54A12.18,12.18,0,0,0,229.57,47.36Z" transform="translate(-47.02 -33.99)"/><path class="cls-3" d="M241.75,78.24V76.15a19.93,19.93,0,0,0-2.95-2,19.46,19.46,0,0,0-18.45,0,18.94,18.94,0,0,0-2.95,2v2.09a12.18,12.18,0,0,0,24.35,0Z" transform="translate(-47.02 -33.99)"/><path class="cls-1" d="M274.25,226.05l-20.68,12.53a1.92,1.92,0,0,1-2.91-1.64V203h19L275,224.36A1.55,1.55,0,0,1,274.25,226.05Z" transform="translate(-47.02 -33.99)"/><path class="cls-2" d="M193.58,108.53v58.6a7.35,7.35,0,0,0,3.89,6.48l11,5.85V108.53Z" transform="translate(-47.02 -33.99)"/><path class="cls-2" d="M208.45,108.53v85.1a2.6,2.6,0,0,0,1.16,2.16l11.73,7.9a2.6,2.6,0,0,0,4.06-2.16v-93Z" transform="translate(-47.02 -33.99)"/><path class="cls-2" d="M264.82,305H194.1a9.16,9.16,0,0,0-9.17,9.17v5.7H274v-5.7A9.17,9.17,0,0,0,264.82,305Z" transform="translate(-47.02 -33.99)"/><path class="cls-2" d="M274.38,319.9H184.54a12.84,12.84,0,0,0-12.84,12.85v29.7H287.22v-29.7A12.84,12.84,0,0,0,274.38,319.9Z" transform="translate(-47.02 -33.99)"/><path class="cls-2" d="M229.6,100.27h-54a.28.28,0,0,0-.12.54c4,1.85,17,8.42,25.94,18.55a43.81,43.81,0,0,0,20.91,13.27c10.23,2.88,23.55,2.88,36-8.64V100.27Z" transform="translate(-47.02 -33.99)"/><path class="cls-2" d="M247.55,100.27V202.51a9.68,9.68,0,0,0,4.47,8.16l21.42,13.66a1.08,1.08,0,0,0,1.65-1l-7.83-123.08Z" transform="translate(-47.02 -33.99)"/><path class="cls-3" d="M247.55,123.09c-13.41,5.77-32,0-40.24-10.34-4.3-5.42-10.69-9.3-15.85-12.48h-15.9a.28.28,0,0,0-.12.54c4,1.85,17,8.42,25.94,18.55a43.81,43.81,0,0,0,20.91,13.27,36.49,36.49,0,0,0,25.26-1.43Z" transform="translate(-47.02 -33.99)"/><path class="cls-3" d="M265.59,138.63l.85,11.71,12.76-1.54c27.17-4.1,35.46-22.56,40.76-40.92a47.27,47.27,0,0,0,1.62-7.61H311.32C304.57,144,265.59,138.63,265.59,138.63Z" transform="translate(-47.02 -33.99)"/><path class="cls-3" d="M193.51,136.14C171.33,132,159.38,111,154.67,100.27H142.59s14,40.05,50.92,47.36Z" transform="translate(-47.02 -33.99)"/><path class="cls-3" d="M193.76,225.32a3.32,3.32,0,0,0,1.67,3.2c4.51,2.47,19.35,7.73,35.44,15.48,17.13,8.26,24.6,13.09,33.5,20.09a2.14,2.14,0,0,0,3.61-1.73l.51-6.33C244,236.72,211.41,225.16,194,220.92Z" transform="translate(-47.02 -33.99)"/><path class="cls-3" d="M247.55,202.51a9.68,9.68,0,0,0,4.47,8.16l21.42,13.66a1.08,1.08,0,0,0,1.65-1l-.72-11.3L247.55,196Z" transform="translate(-47.02 -33.99)"/><path class="cls-4" d="M229.57,43.81a15.74,15.74,0,0,0-15.72,15.73v18.7a15.73,15.73,0,1,0,31.45,0V59.54A15.75,15.75,0,0,0,229.57,43.81Zm8.63,34.43a8.63,8.63,0,0,1-17.25,0v-.3c.36-.25.73-.47,1.09-.67a15.92,15.92,0,0,1,15.06,0c.36.2.73.42,1.1.67ZM221,70V59.54a8.63,8.63,0,1,1,17.25,0V70A23.17,23.17,0,0,0,221,70Z" transform="translate(-47.02 -33.99)"/><path class="cls-4" d="M337.94,96.72H257.05V60a26,26,0,0,0-26-26h-3a26,26,0,0,0-26,26V96.72h-74a12,12,0,0,0,0,24.08h21.4c8,11.58,21,24.91,40.57,29.69v16.64a10.89,10.89,0,0,0,3.67,8.14l-3.48,52a6.63,6.63,0,0,0,3.58,6.5l.51.24c-1.69,15-5,47.68-4.25,68.19a12.69,12.69,0,0,0-8.68,12v2.47a16.42,16.42,0,0,0-13.23,16.09V366H290.77V332.75a16.42,16.42,0,0,0-13.23-16.09v-2.47a12.71,12.71,0,0,0-8.5-11.94c.35-9.79-.22-22.36-1.09-34.46a6,6,0,0,0,.7-.27,5.47,5.47,0,0,0,2.88-5.15l-1-29.89,5.6-3.39a5,5,0,0,0,2.39-4.54,4.49,4.49,0,0,0,.15-1.42L274.17,153l5.56-.68C302.51,148.88,313,136,319.28,120.8h18.66a12,12,0,1,0,0-24.08ZM209.2,60A18.88,18.88,0,0,1,228.07,41.1h3A18.89,18.89,0,0,1,250,60V96.72H209.2Zm50.71,196.66c-6.7-4.47-14.34-8.66-27.57-14.67-9.38-4.26-18.44-7.77-25.05-10.33l-4.06-1.58c-5.89-2.29-5.6-7.1-5.6-7.1l2.92-43.68,4.35,2.32v12a6.17,6.17,0,0,0,2.72,5.11l11.73,7.9a6.17,6.17,0,0,0,9.61-5.11v-64a41.21,41.21,0,0,0,4.41.26,38.06,38.06,0,0,0,10.62-1.5v66.23a13.12,13.12,0,0,0,3.12,8.49v25.94a5.45,5.45,0,0,0,5.46,5.46,5.38,5.38,0,0,0,2.83-.79l2.88-1.74,5.25-3.18.8,23C262.87,258.64,261.41,257.63,259.91,256.63Zm2,44.85H197.14c-.6-19,2.32-49.13,4-64.62,1.1.43,2.29.9,3.58,1.39,6.53,2.53,15.48,6,24.67,10.17,16.1,7.32,23.35,11.64,31.26,17.39C261.61,278.28,262.28,291.44,262,301.48ZM197.13,167.13V120l.26.28.07.08c.43.45.85.89,1.25,1.35a48.47,48.47,0,0,0,5.35,5.19l.51.41.33.27v46l-3.83-2-1.93-1A3.79,3.79,0,0,1,197.13,167.13Zm14.87,26V132.29a46.59,46.59,0,0,0,9.33,3.76l.52.13v63.58ZM128.06,113.7a4.94,4.94,0,0,1,0-9.88h12.1A90.23,90.23,0,0,0,145,113.7Zm62,29.37c-16-4.59-27.19-15.84-34.24-25.85a89.1,89.1,0,0,1-7.1-11.94c-.25-.5-.51-1-.72-1.46h25.67c.1.06.18.15.3.21A91.64,91.64,0,0,1,190,113.74Zm0-38c-.61-.41-1.24-.86-1.84-1.24H244v25a31.3,31.3,0,0,1-15,1.51,39.82,39.82,0,0,1-5.7-1.12c-.48-.14-.94-.3-1.41-.46A39.2,39.2,0,0,1,212,124a41.22,41.22,0,0,1-6.57-5.5c-.18-.18-.35-.37-.53-.56l-.33-.36c-.17-.18-.36-.36-.52-.55a60.7,60.7,0,0,0-5-4.93l-.81-.7-.82-.72A84.07,84.07,0,0,0,190,105.06Zm84.35,218.39a9.31,9.31,0,0,1,9.29,9.3V358.9H175.25V332.75a9.31,9.31,0,0,1,9.29-9.3Zm-3.94-9.26v2.16h-82v-2.16a5.62,5.62,0,0,1,5.62-5.61h70.72A5.62,5.62,0,0,1,270.44,314.19ZM264.1,228l-.85.52-5.83,3.53L254.21,234V216.28l8.8,5.61,5.48,3.49ZM270,217.91l-.33-.21-6.94-4.42-8.5-5.42-.28-.18a6.12,6.12,0,0,1-2.83-5.17V103.82h12.83l.48,7.56,2.7,42.46,1.4,22,1.5,23.62,1.22,19.29Zm47.33-114v-.12c-1.09,6.2-5.74,17-5.74,17-5.35,11.59-14.28,21.68-32.79,24.48l-5.06.61-2.67-42.07h46.29A.53.53,0,0,1,317.31,103.94Zm20.63,9.76H321.88c.52-1.6,1-3.21,1.5-4.83.57-2,.95-3.69,1.22-5.05h13.34a4.94,4.94,0,0,1,0,9.88Z" transform="translate(-47.02 -33.99)"/><path class="cls-5" d="M93.77,326l-.83,17.8s-9.44.24-9.43,10c0,9.93,10.09,10.18,12.66,10.18h17.71c7.21,0,7.61-2.83,7.61-14.23,0-15,.13-22.14.13-22.14Z" transform="translate(-47.02 -33.99)"/><path class="cls-6" d="M92.94,343.84a14.79,14.79,0,0,1,3.78.58" transform="translate(-47.02 -33.99)"/><path class="cls-6" d="M94.34,337.5" transform="translate(-47.02 -33.99)"/><path class="cls-5" d="M158.23,326l.83,17.8s9.44.24,9.43,10c0,9.93-10.09,10.18-12.66,10.18H138.12c-8.18,0-7.62-2.83-7.62-14.23,0-15-.12-22.14-.12-22.14Z" transform="translate(-47.02 -33.99)"/><path class="cls-6" d="M159.06,343.84a14.79,14.79,0,0,0-3.78.58" transform="translate(-47.02 -33.99)"/><path class="cls-6" d="M157.66,337.5" transform="translate(-47.02 -33.99)"/><path class="cls-5" d="M166.36,272.92s11.65,10.43,16.35,29.74-.47,31.15-13.24,31.54c-13.58.41-13.57-10-13.57-10" transform="translate(-47.02 -33.99)"/><path class="cls-5" d="M165.23,284.41s6.44,8.89,6.06,25.73-15.76,29.68-45.93,29-44.93-14.22-44.55-31.05S88,282.65,88,282.65" transform="translate(-47.02 -33.99)"/><path class="cls-7" d="M168.1,286.34s-31.21,20-42.1,20-42.11-20-42.11-20" transform="translate(-47.02 -33.99)"/><path class="cls-8" d="M77.07,285.19s3.24-3,9.56.5c0,0-7.12,12.58-5.9,25.29C80.73,311,73.89,297.29,77.07,285.19Z" transform="translate(-47.02 -33.99)"/><path class="cls-8" d="M174.93,285.19s-3.24-3-9.56.5c0,0,7.12,12.58,5.9,25.29C171.27,311,178.11,297.29,174.93,285.19Z" transform="translate(-47.02 -33.99)"/><path class="cls-5" d="M96.86,180.46a19.07,19.07,0,1,1-19.07-19.07A19.07,19.07,0,0,1,96.86,180.46Z" transform="translate(-47.02 -33.99)"/><path class="cls-9" d="M87,180.46a9.23,9.23,0,1,1-9.23-9.23A9.23,9.23,0,0,1,87,180.46Z" transform="translate(-47.02 -33.99)"/><path class="cls-5" d="M155.14,180.46a19.07,19.07,0,1,0,19.07-19.07A19.07,19.07,0,0,0,155.14,180.46Z" transform="translate(-47.02 -33.99)"/><path class="cls-9" d="M165,180.46a9.23,9.23,0,1,0,9.23-9.23A9.23,9.23,0,0,0,165,180.46Z" transform="translate(-47.02 -33.99)"/><path class="cls-5" d="M126,291.88c30.33,0,76-7.56,76-54.13,0-49.64-31.25-72.72-76-72.72s-76,23.08-76,72.72C50,284.32,95.67,291.88,126,291.88Z" transform="translate(-47.02 -33.99)"/><path class="cls-7" d="M131.64,164c0,2.51-2.52,4.54-5.64,4.54s-5.64-2-5.64-4.54,2.53-4.55,5.64-4.55S131.64,161.48,131.64,164Z" transform="translate(-47.02 -33.99)"/><path class="cls-10" d="M127.09,165.06c-.36,0-.72,0-1.09,0s-.73,0-1.1,0c-24.67.22-46.75,7.93-62.63,27.59,0,0,21.8,1.57,63.73,1.57s63.73-1.57,63.73-1.57C173.85,173,151.76,165.28,127.09,165.06Z" transform="translate(-47.02 -33.99)"/><path class="cls-5" d="M148.67,193.82s-2.1-11.41-22.67-11.41-22.67,11.41-22.67,11.41" transform="translate(-47.02 -33.99)"/><path class="cls-11" d="M127.09,165.06c-.36,0-.72,0-1.09,0s-.73,0-1.1,0c-24.67.22-46.75,7.93-62.63,27.59,0,0,21.8,1.57,63.73,1.57s63.73-1.57,63.73-1.57C173.85,173,151.76,165.28,127.09,165.06Z" transform="translate(-47.02 -33.99)"/><path class="cls-12" d="M112.5,191.19c1.18,3.5,4.47,7.49,12.1,7.65,7.92.16,7.61-3.68,7.61-3.68a14.32,14.32,0,0,0,11,3.52c6.91-.65,6.33-5.35,2.69-7.56" transform="translate(-47.02 -33.99)"/><path class="cls-11" d="M112.5,191.19c1.18,3.5,4.47,7.49,12.1,7.65,7.92.16,7.61-3.68,7.61-3.68a14.32,14.32,0,0,0,11,3.52c6.91-.65,6.33-5.35,2.69-7.56" transform="translate(-47.02 -33.99)"/><path class="cls-5" d="M132.33,195.5a10.61,10.61,0,0,1-1.63-2.85" transform="translate(-47.02 -33.99)"/><path class="cls-13" d="M111.42,230.69c0,3.16-2.15,5.73-4.79,5.73s-4.79-2.57-4.79-5.73S104,225,106.63,225,111.42,227.53,111.42,230.69Z" transform="translate(-47.02 -33.99)"/><path class="cls-13" d="M140.58,230.69c0,3.16,2.15,5.73,4.79,5.73s4.79-2.57,4.79-5.73S148,225,145.37,225,140.58,227.53,140.58,230.69Z" transform="translate(-47.02 -33.99)"/><path class="cls-9" d="M139.5,238.17c0,6.15-6.05,11.13-13.5,11.13s-13.5-5-13.5-11.13,6-11.12,13.5-11.12S139.5,232,139.5,238.17Z" transform="translate(-47.02 -33.99)"/><path class="cls-11" d="M123.66,242.55s5.7,1.15,8.13-1.94" transform="translate(-47.02 -33.99)"/><path class="cls-13" d="M129.51,234.67c0,2-2.11,3.65-4.71,3.65s-4.72-1.63-4.72-3.65,2.11-3.66,4.72-3.66S129.51,232.65,129.51,234.67Z" transform="translate(-47.02 -33.99)"/><line class="cls-11" x1="67.1" y1="183.34" x2="68.45" y2="184.5"/><line class="cls-11" x1="90.87" y1="183.34" x2="89.52" y2="184.5"/><path class="cls-14" d="M71.81,276.79l-4.38-6a2.49,2.49,0,0,1,.55-3.48l28.17-20.43a2.5,2.5,0,0,1,3.48.55l4.37,6Z" transform="translate(-47.02 -33.99)"/><path class="cls-15" d="M87.91,265.12,104,253.44l26.27,36.23.41.55a4.29,4.29,0,0,1-1,6l-25.26,18.31a4.28,4.28,0,0,1-6-.95l-.4-.55L71.81,276.79Z" transform="translate(-47.02 -33.99)"/><path class="cls-16" d="M89.12,313.37l6-4.38-2.92-4-6,4.38a2.49,2.49,0,0,1-3.47-.56l-14.6-20.12a2.49,2.49,0,0,1,.56-3.47l6-4.38-2.91-4-6,4.38a7.48,7.48,0,0,0-1.66,10.42L78.7,311.71A7.48,7.48,0,0,0,89.12,313.37Z" transform="translate(-47.02 -33.99)"/><path class="cls-17" d="M63.21,252.57H98a0,0,0,0,1,0,0V253a4.54,4.54,0,0,1-4.54,4.54H67.74A4.54,4.54,0,0,1,63.21,253v-.43a0,0,0,0,1,0,0Z" transform="translate(248.59 380.21) rotate(144.05)"/><path class="cls-17" d="M80.61,255.06,95.2,275.18a2.48,2.48,0,0,1-.55,3.47h0a2.48,2.48,0,0,1-3.47-.55l-2.92-4a2.48,2.48,0,0,0-3.47-.55h0a2.49,2.49,0,0,0-.56,3.47h0a2.48,2.48,0,0,1-.55,3.47h0a2.48,2.48,0,0,1-3.47-.55l-11.68-16.1a2.48,2.48,0,0,1,.56-3.47l8-5.84A2.48,2.48,0,0,1,80.61,255.06Z" transform="translate(-47.02 -33.99)"/><circle class="cls-18" cx="51.79" cy="233.45" r="4.97"/><circle class="cls-18" cx="60.18" cy="247.84" r="2.49"/><circle class="cls-19" cx="41.44" cy="253.76" r="3.73"/><circle class="cls-19" cx="52.48" cy="262.64" r="2.49"/><rect class="cls-2" x="111.01" y="259.17" width="3.59" height="35.87" rx="1.64" transform="translate(319.8 401.2) rotate(144.05)"/><path class="cls-20" d="M62.62,289.92c3.32-4.47,9.64-3.47,15.26.7s8.4,9.93,5.07,14.4-10.92,5.21-16.54,1S59.3,294.4,62.62,289.92Z" transform="translate(-47.02 -33.99)"/></svg>