<svg id="레이어_1" data-name="레이어 1" xmlns="http://www.w3.org/2000/svg" viewBox="0 0 351.99 357.56"><defs><style>.cls-1{fill:#eac8af;}.cls-2{fill:#f4e4d3;}.cls-3{fill:#ceb49b;}.cls-4,.cls-8{fill:#fff;}.cls-5{fill:#df8486;}.cls-6{fill:#3c3d3d;}.cls-7{fill:#f2b700;}.cls-10,.cls-11,.cls-12,.cls-15,.cls-7,.cls-8,.cls-9{stroke:#0a0305;}.cls-10,.cls-11,.cls-12,.cls-14,.cls-15,.cls-17,.cls-19,.cls-22,.cls-23,.cls-7,.cls-8,.cls-9{stroke-linecap:round;stroke-linejoin:round;}.cls-10,.cls-14,.cls-15,.cls-17,.cls-19,.cls-22,.cls-23,.cls-7,.cls-8,.cls-9{stroke-width:5px;}.cls-9{fill:#327eac;}.cls-10{fill:#035b7f;}.cls-11{fill:#e8ae00;}.cls-11,.cls-12{stroke-width:2px;}.cls-12,.cls-15,.cls-17,.cls-19,.cls-22,.cls-23{fill:none;}.cls-13{fill:#0a0305;}.cls-14{fill:#7e6866;stroke:#7e6866;}.cls-16{fill:#52b675;}.cls-17{stroke:#009c50;}.cls-17,.cls-19{opacity:0.6;}.cls-18{opacity:0.4;}.cls-19{stroke:#d4d4d4;}.cls-20{fill:#00ce7c;}.cls-21{fill:#2f91ca;}.cls-22{stroke:#127eac;}.cls-23{stroke:#f2bc3e;}.cls-24{fill:#f2bc3e;}</style></defs><path class="cls-1" d="M93,178c-18.56,29.07-52.41,45.89-52.41,45.89v59.62H145.45V223.93S111.59,207.11,93,178Z" transform="translate(-19.81 -19)"/><path class="cls-2" d="M260.64,149.85S236,157,218.18,135.47a95.89,95.89,0,0,0-21.1-19.4c-10.84-7.09-26.48-15.18-45.32-18.73v15.41l93.34,71.62,15.54,3.22Z" transform="translate(-19.81 -19)"/><path class="cls-1" d="M132.44,143.46s36,4.46,48.68,41.06c13.57,39.09,60.09,50.39,79.52,50.39V169.5s-36.49,1.83-54.75-31.83c-7.19-13.26-17.79-24.87-31.73-32.3-10.6-5.65-24.37-10-41.72-10Z" transform="translate(-19.81 -19)"/><polygon class="cls-2" points="114.4 232.56 114.4 254.23 86.95 254.23 86.95 232.56 59.49 232.56 59.49 254.23 32.04 254.23 32.04 232.56 4.59 232.56 4.59 352.75 141.85 352.75 141.85 232.56 114.4 232.56"/><polygon class="cls-2" points="326.08 64.26 326.08 81.09 304.77 81.09 304.77 64.26 283.46 64.26 283.46 81.09 262.14 81.09 262.14 64.26 240.83 64.26 240.83 215.91 347.4 215.91 347.4 64.26 326.08 64.26"/><polygon class="cls-2" points="88.16 27.31 88.16 39 63.69 39 63.69 27.31 39.22 27.31 39.22 124.17 112.63 124.17 112.63 27.31 88.16 27.31"/><rect class="cls-3" x="265.63" y="102.26" width="60.85" height="113.65"/><path class="cls-1" d="M161.67,371.75s137.25,0,180-139V178s-50.95,89.9-180,101.91Z" transform="translate(-19.81 -19)"/><path class="cls-2" d="M340.08,183.47H289.92S267.45,267.4,161.67,278v13.55S299.39,295.5,341.13,185A1.13,1.13,0,0,0,340.08,183.47Z" transform="translate(-19.81 -19)"/><path class="cls-4" d="M93,166v0Z" transform="translate(-19.81 -19)"/><path class="cls-4" d="M145.45,223.93a70,70,0,0,0,12.63,4Z" transform="translate(-19.81 -19)"/><polygon class="cls-5" points="294.11 7.75 294.11 22.16 294.11 36.59 320.43 22.16 294.11 7.75"/><rect class="cls-3" x="35.1" y="277.29" width="75.02" height="75.45"/><path class="cls-6" d="M371.8,223.46V78.67H341.31V95.5H329.17V78.67H318.51V58.3l31.28-17.14L309.34,19V78.67H298.68V95.5H286.54V78.67H256.05v67.4a37.13,37.13,0,0,1-34.33-13.52,99.8,99.8,0,0,0-22.13-20.32,134.05,134.05,0,0,0-43.84-18.7l-1-.22c-.72-.15-1.4-.34-2.13-.48l-1.89-.35-1.12-.21-2.42-.46v.11A98.85,98.85,0,0,0,137,91V41.72H103.39v11.7H88.09V41.72H54.45v106h75.34l2.09.26c.33,0,33.27,4.5,44.91,38,12.31,35.48,48.82,48.61,71.15,52.28-18.07,15.74-44.26,29.82-81.69,34.54V247H150V230.53a51.59,51.59,0,0,0,7.3,1.9l1.5-9.05a64.53,64.53,0,0,1-11.46-3.61c-1.39-.71-32.25-16.6-49.75-43.15V166H88.45v10.61C71,203.13,40,219.08,38.69,219.77a64.17,64.17,0,0,1-11.46,3.61l1.51,9.05A50.19,50.19,0,0,0,36,230.52V247H19.81V376.33H166.25v-.2c24.1-1.57,137.5-15.49,178-136.63H371.8v-16M318.51,47.84V34.49l12.18,6.67ZM214.65,138.4a46.07,46.07,0,0,0,41.4,16.91v9.45c-9.62-.75-33-5.11-46.12-29.27-1.13-2.09-2.35-4.09-3.61-6.05A107.06,107.06,0,0,1,214.65,138.4Zm-151-87.5h15.3V62.59h33.64V50.9h15.3v87.68H63.62ZM185.45,183c-11-31.82-38.11-41-48.42-43.35V100.11a93,93,0,0,1,10.15,1.06,83,83,0,0,1,9.17,2A77.61,77.61,0,0,1,172,109.41c12.28,6.55,22.61,17.08,29.86,30.45A67,67,0,0,0,210,151.69a62.67,62.67,0,0,0,20.36,15.62A70.62,70.62,0,0,0,256.05,174v56.14C235.24,228.5,197,216.14,185.45,183Zm74.12,56.48,0,0q3-2.91,5.64-5.84c1-1.11,2-2.21,2.92-3.32a139,139,0,0,0,25.09-42.26H335a144.8,144.8,0,0,1-8.82,17.62,139.62,139.62,0,0,1-18.35,24.64c-3,3.25-6.2,6.29-9.43,9.18C250.9,281.89,184,286.52,166.25,287v-4.82c31.11-3.75,55-13.89,73.29-26.27A144.79,144.79,0,0,0,259.57,239.5ZM45.21,226.7C53,222.44,76.66,208.34,93,186.14c16.37,22.2,40,36.3,47.83,40.56V247H129.62v21.67H111.35V247H74.72v21.67H56.44V247H45.21ZM157.08,367.16H131V345.07a38,38,0,0,0-76,0v22.09H29v-111H47.26v21.68H83.89V256.14h18.28v21.68H138.8V256.14h18.28v111Zm9.17-.21V296.13c19.47-.48,95.29-5.76,145.43-56.63,2.87-2.92,5.67-6,8.36-9.18A148.56,148.56,0,0,0,337.11,205V232c-.8,2.55-1.67,5-2.53,7.46C295.31,351.8,189.6,365.34,166.25,367ZM362.62,230.32H346.28V160.65l-.1.17c-1-15.35-14.21-27.53-30.29-27.53-16.76,0-30.39,13.22-30.39,29.48v19.5c-.41,1.52-5.33,18.69-20.26,37.82V87.85h12.14v16.83h30.49V87.85H320v16.83h30.49V87.85h12.14Z" transform="translate(-19.81 -19)"/><path class="cls-6" d="M95.74,73.26A14.41,14.41,0,0,0,81.35,87.65V102h28.78V87.65A14.41,14.41,0,0,0,95.74,73.26Z" transform="translate(-19.81 -19)"/><path class="cls-6" d="M107.42,222.92a14.39,14.39,0,0,0-28.78,0V237.3h28.78Z" transform="translate(-19.81 -19)"/><path class="cls-7" d="M252.65,334.21V357.7l2.69-.22c-8.46,0-12,5.93-11.45,11.25s4.92,5.33,7.83,5.33h14.94c9.95,0,8.74-7.09,8.74-7.09V334.21" transform="translate(-19.81 -19)"/><path class="cls-7" d="M306.17,334.21V357.7l-2.69-.22c8.47,0,12,5.93,11.45,11.25s-4.92,5.33-7.82,5.33H292.16c-10,0-8.74-7.09-8.74-7.09V334.21" transform="translate(-19.81 -19)"/><path class="cls-8" d="M316.35,291.67s6.35,9.07,6.35,26.53-14.43,31.15-43.29,31.15-43.29-13.68-43.29-31.15,6.36-26.53,6.36-26.53" transform="translate(-19.81 -19)"/><path class="cls-9" d="M278.23,295.86s4.4,10.44-5.27,22.22c0,0-4.69-5-3.68-11.79S278.23,295.86,278.23,295.86Z" transform="translate(-19.81 -19)"/><path class="cls-9" d="M280.52,295.86s-4.38,10.44,5.28,22.22c0,0,4.69-5,3.68-11.79S280.52,295.86,280.52,295.86Z" transform="translate(-19.81 -19)"/><path class="cls-9" d="M317.58,290.06s-6.53,15.31-38.17,11c-31.64,4.32-38.17-11-38.17-11" transform="translate(-19.81 -19)"/><path class="cls-10" d="M258,273.41h3.12a3.42,3.42,0,0,1,3.42,3.42v4.36a3.43,3.43,0,0,1-3.43,3.43H258a3.42,3.42,0,0,1-3.42-3.42v-4.37A3.42,3.42,0,0,1,258,273.41Z"/><path class="cls-4" d="M279.41,294.58c31.66,0,79.33-7.89,79.32-56.51,0-51.81-32.63-75.9-79.32-75.9s-79.3,24.09-79.31,75.9C200.08,286.69,247.75,294.58,279.41,294.58Z" transform="translate(-19.81 -19)"/><path class="cls-11" d="M279.41,242.73c6.87,0,12.5-2.9,12.5-7s-6-8.27-12.5-8.27-12.49,4.13-12.49,8.27S272.54,242.73,279.41,242.73Z" transform="translate(-19.81 -19)"/><path class="cls-12" d="M286.61,234.45s-1.57,2.73-7.2,2.73-7.2-2.73-7.2-2.73" transform="translate(-19.81 -19)"/><path class="cls-13" d="M266,222.22c0,3.92-2,7.09-4.55,7.09s-4.54-3.17-4.54-7.09,2-7.08,4.54-7.08S266,218.31,266,222.22Z" transform="translate(-19.81 -19)"/><path class="cls-13" d="M292.81,222.22c0,3.92,2,7.09,4.55,7.09s4.54-3.17,4.54-7.09-2-7.08-4.54-7.08S292.81,218.31,292.81,222.22Z" transform="translate(-19.81 -19)"/><path class="cls-14" d="M358.72,236.52c-7-13.32-25.69-11.08-25.69-11.08s-2.11-30.77-33-30.88a24.44,24.44,0,0,0-20.61,10.77,24.42,24.42,0,0,0-20.61-10.77c-30.89.11-33,30.88-33,30.88s-18.71-2.24-25.68,11.08c0,0-5.51-74.35,79.3-74.35S358.72,236.52,358.72,236.52Z" transform="translate(-19.81 -19)"/><path class="cls-15" d="M279.41,294.58c31.66,0,79.33-7.89,79.32-56.51,0-51.81-32.63-75.9-79.32-75.9s-79.3,24.09-79.31,75.9C200.08,286.69,247.75,294.58,279.41,294.58Z" transform="translate(-19.81 -19)"/><path class="cls-15" d="M280.78,162.17s-8.64-4.18-6.08-12.34" transform="translate(-19.81 -19)"/><path class="cls-16" d="M231.49,309s28.42-8.18,35.4-11.23l10.76,39.7-39.29,11.44-7.64-5.9Z" transform="translate(-19.81 -19)"/><polyline class="cls-17" points="257.84 318.45 250.36 311.67 247.07 278.75"/><path class="cls-17" d="M230.72,343s28.46-9.33,39.11-12.19" transform="translate(-19.81 -19)"/><path class="cls-15" d="M231.49,309s28.42-8.18,35.4-11.23l10.76,39.7-39.29,11.44-7.64-5.9Z" transform="translate(-19.81 -19)"/><path class="cls-15" d="M239.34,308.4s-3.07-12.7,6.07-16.45,13.16,8.11,13.68,11.31" transform="translate(-19.81 -19)"/><g class="cls-18"><path class="cls-4" d="M245.83,317a1.61,1.61,0,0,0,.58,0,1.57,1.57,0,0,0,.5-.25,1.49,1.49,0,0,0,.56-1,1.4,1.4,0,0,0-.29-1.08,1.46,1.46,0,0,0-2.61.7A1.47,1.47,0,0,0,245.83,317Zm-.6-1.56a.8.8,0,0,1,.58-.67,1.08,1.08,0,0,1,.31,0,.8.8,0,0,1,.69.89.81.81,0,0,1-.89.69.81.81,0,0,1-.53-.3A.79.79,0,0,1,245.23,315.42Z" transform="translate(-19.81 -19)"/><path class="cls-4" d="M250.9,326.4a4.41,4.41,0,0,1-3.43-8,4.68,4.68,0,0,1,.07-1.23,5.47,5.47,0,1,0,7.63,4.52,4.08,4.08,0,0,1-1,.57A4.4,4.4,0,0,1,250.9,326.4Z" transform="translate(-19.81 -19)"/><path class="cls-4" d="M251.25,313.54a4.74,4.74,0,0,0-1.43.69.51.51,0,0,1,.15.32.55.55,0,0,1-.51.59A.57.57,0,0,1,249,315a4.43,4.43,0,0,0-.9,1.56,3,3,0,0,0-.12.45,4.63,4.63,0,0,0-.11,1.18,4.4,4.4,0,0,0,.11.8c0,.08,0,.15.05.23a4.6,4.6,0,0,0,5.64,3.2c.15-.05.29-.09.43-.15a4.24,4.24,0,0,0-.12-1.11l0-.14a4.29,4.29,0,0,0-.55-1.21h0l-.07-.13,0-.07a.54.54,0,0,1,.38-.66l.09,0a.56.56,0,0,1,.48.23l0,0a5.36,5.36,0,0,1,.63,1.32c0,.07,0,.14.07.22a5.37,5.37,0,0,1,.17,1,4.58,4.58,0,0,0-3.92-8.12Zm.44,2.25a.19.19,0,0,1,.17-.19.18.18,0,1,1,0,.36A.19.19,0,0,1,251.69,315.79Zm-1.62,0a.36.36,0,1,1,.72,0,.36.36,0,0,1-.72,0Zm3.63,1-.63,1-.07.11a.07.07,0,0,1-.07,0l-1.74-.07,1.51.53s0,0,.05.05l.21.67.09.33-.38-.42c0-.05-.1,0-.13,0l-.5,1.3a.07.07,0,0,1-.12,0l-2.56-2.65-.36-.38-.09-.09a.08.08,0,0,1,.05-.13h.09l2.32-.22,2.26-.21A.07.07,0,0,1,253.7,316.84Z" transform="translate(-19.81 -19)"/></g><path class="cls-4" d="M219,302.12s32.25-.31,40.47-1.47l-.27,44.84-44.62.57-6.31-8.43Z" transform="translate(-19.81 -19)"/><polyline class="cls-19" points="239.35 326.5 233.47 317.19 239.61 281.65"/><path class="cls-19" d="M208.23,337.63s32.62-1.51,44.65-1.4" transform="translate(-19.81 -19)"/><path class="cls-15" d="M219,302.12s32.25-.31,40.47-1.47l-.27,44.84-44.62.57-6.31-8.43Z" transform="translate(-19.81 -19)"/><path class="cls-15" d="M227.38,303.81s.47-14.25,11.17-15.52,11.46,12.35,11.07,15.87" transform="translate(-19.81 -19)"/><path class="cls-20" d="M231.69,314.7a1.5,1.5,0,0,0,.62.13,1.62,1.62,0,0,0,.61-.12,1.6,1.6,0,0,0,.88-2.08,1.63,1.63,0,0,0-.86-.87,1.6,1.6,0,0,0-1.25,2.94Zm-.17-1.81a.86.86,0,0,1,.8-.53.88.88,0,0,1,.33.07.87.87,0,0,1,.47,1.14A.89.89,0,0,1,232,314a.88.88,0,0,1-.47-.48A.84.84,0,0,1,231.52,312.89Z" transform="translate(-19.81 -19)"/><path class="cls-20" d="M234.27,326.08a4.8,4.8,0,0,1-1.26-9.43,5.07,5.07,0,0,1,.43-1.27,6,6,0,1,0,6.7,7,4.82,4.82,0,0,1-1.26.29A4.82,4.82,0,0,1,234.27,326.08Z" transform="translate(-19.81 -19)"/><path class="cls-20" d="M238.4,312.67a5.39,5.39,0,0,0-1.71.31.55.55,0,0,1,.06.38.6.6,0,0,1-1.12.15,5.07,5.07,0,0,0-1.39,1.38,4.92,4.92,0,0,0-.26.43,4.72,4.72,0,0,0-.46,1.22,4.93,4.93,0,0,0-.13.87v.25a5,5,0,0,0,5,5,4.36,4.36,0,0,0,.51,0,4.7,4.7,0,0,0,.19-1.2.76.76,0,0,0,0-.15,4.92,4.92,0,0,0-.22-1.44h0l0-.16s0-.05,0-.08a.58.58,0,0,1,.59-.58h.1a.59.59,0,0,1,.44.37.43.43,0,0,0,0,0,5.88,5.88,0,0,1,.28,1.57,2.26,2.26,0,0,1,0,.26,6.14,6.14,0,0,1-.1,1.06,5,5,0,0,0-1.74-9.68Zm-.2,2.5a.19.19,0,0,1,.23-.15.19.19,0,0,1,.15.23.2.2,0,0,1-.23.15A.2.2,0,0,1,238.2,315.17Zm-1.72-.42a.39.39,0,0,1,.46-.3.39.39,0,1,1-.16.76A.39.39,0,0,1,236.48,314.75Zm3.52,2.11-.95.85-.11.1a.07.07,0,0,1-.07,0l-1.82-.58,1.44,1a.09.09,0,0,1,0,.07l0,.77v.37l-.28-.56a.08.08,0,0,0-.14,0l-.9,1.22a.08.08,0,0,1-.14,0l-1.91-3.53-.28-.5-.06-.13a.08.08,0,0,1,.08-.12h.1l2.51.45,2.43.44A.08.08,0,0,1,240,316.86Z" transform="translate(-19.81 -19)"/><path class="cls-8" d="M253.82,287.17c1.07,5.28-3.77,9.19-10.46,10.56s-12.68-.35-13.76-5.63,3.36-11.24,10-12.6S252.74,281.89,253.82,287.17Z" transform="translate(-19.81 -19)"/><path class="cls-8" d="M240.12,292.33s1.13,3.6,4.41,4.77" transform="translate(-19.81 -19)"/><path class="cls-4" d="M331.31,297s-31.75-.48-41.38-.35l7.22,56.49,46.38,2.76,5.24-10.33Z" transform="translate(-19.81 -19)"/><polyline class="cls-19" points="277.34 334.16 282 322.71 270.12 277.67"/><path class="cls-19" d="M348.77,345.59s-34.08-3.39-46.54-3.82" transform="translate(-19.81 -19)"/><path class="cls-15" d="M331.31,297s-31.55.47-41.38-.35l7.22,56.49,46.38,2.76,5.24-10.33Z" transform="translate(-19.81 -19)"/><path class="cls-15" d="M322.37,299.07s-3.07-16.54-13.84-16.14S299,296.3,299.9,299.72" transform="translate(-19.81 -19)"/><path class="cls-21" d="M333,288.72s-37-.49-46.36-1.86l.11,51.39,51.12.84,7.27-9.64Z" transform="translate(-19.81 -19)"/><polyline class="cls-22" points="266.91 319.25 273.69 308.62 266.8 267.86"/><path class="cls-22" d="M345.11,329.45s-37.38-1.86-51.16-1.79" transform="translate(-19.81 -19)"/><path class="cls-15" d="M333,288.72s-37-.49-46.36-1.86l.11,51.39,51.12.84,7.27-9.64Z" transform="translate(-19.81 -19)"/><path class="cls-15" d="M323.32,290.62s-.49-16.32-12.74-17.82-13.18,14.09-12.76,18.13" transform="translate(-19.81 -19)"/><path class="cls-4" d="M310.4,304.55a1.42,1.42,0,0,0,.58,0,1.35,1.35,0,0,0,.51-.21,1.47,1.47,0,0,0,.63-.93,1.45,1.45,0,0,0-.22-1.09,1.47,1.47,0,0,0-.93-.63,1.46,1.46,0,0,0-.57,2.86Zm-.49-1.58a.78.78,0,0,1,.62-.62.81.81,0,0,1,.31,0,.79.79,0,0,1,.62.93.74.74,0,0,1-.34.5.79.79,0,0,1-1.21-.81Z" transform="translate(-19.81 -19)"/><path class="cls-4" d="M314.79,314.24a4.37,4.37,0,0,1-2.85-8.19,4.57,4.57,0,0,1,.14-1.21,5.43,5.43,0,1,0,7.27,5,5,5,0,0,1-1.07.49A4.39,4.39,0,0,1,314.79,314.24Z" transform="translate(-19.81 -19)"/><path class="cls-4" d="M316,301.51a4.57,4.57,0,0,0-1.46.59.53.53,0,0,1,.12.33.55.55,0,0,1-.55.55.59.59,0,0,1-.42-.21,4.63,4.63,0,0,0-1,1.48c-.06.15-.11.29-.16.44a4.6,4.6,0,0,0-.18,1.17,4.35,4.35,0,0,0,.05.8,1.85,1.85,0,0,0,0,.23,4.56,4.56,0,0,0,5.37,3.55,3.69,3.69,0,0,0,.45-.11,4.64,4.64,0,0,0,0-1.11l0-.14a4.38,4.38,0,0,0-.45-1.24h0l-.07-.14a.19.19,0,0,1,0-.07.52.52,0,0,1,.41-.62h.1a.51.51,0,0,1,.46.25l0,0a5.3,5.3,0,0,1,.54,1.35,1.55,1.55,0,0,1,.05.23,5.34,5.34,0,0,1,.11,1,4.56,4.56,0,0,0-3.34-8.33Zm.29,2.27a.18.18,0,0,1,.18-.18.18.18,0,0,1,.17.18.17.17,0,0,1-.18.17A.17.17,0,0,1,316.3,303.78Zm-1.62-.06a.37.37,0,0,1,.36-.36.36.36,0,0,1,.36.36.36.36,0,1,1-.72,0Zm3.54,1.24-.69.93-.08.11a.09.09,0,0,1-.07,0l-1.73-.18,1.47.62a.07.07,0,0,1,0,0l.16.69.08.33-.35-.45a.07.07,0,0,0-.13,0l-.59,1.27a.07.07,0,0,1-.12,0l-2.36-2.8-.33-.39-.09-.11a.07.07,0,0,1,.06-.12h.09l2.32-.06,2.26-.06A.07.07,0,0,1,318.22,305Z" transform="translate(-19.81 -19)"/><path class="cls-8" d="M306.3,284.51c-1.08,5.28,3.77,9.19,10.45,10.55s12.68-.34,13.76-5.62-3.36-11.24-10-12.6S307.37,279.22,306.3,284.51Z" transform="translate(-19.81 -19)"/><path class="cls-8" d="M320,289.67s-1.13,3.6-4.41,4.76" transform="translate(-19.81 -19)"/><line class="cls-23" x1="335.65" y1="254.99" x2="335.65" y2="273.65"/><path class="cls-23" d="M352.13,283.32h6.66" transform="translate(-19.81 -19)"/><line class="cls-23" x1="338.22" y1="261.75" x2="333.08" y2="266.89"/><line class="cls-23" x1="333.08" y1="261.75" x2="338.22" y2="266.89"/><line class="cls-23" x1="170.31" y1="181.58" x2="170.31" y2="200.25"/><path class="cls-23" d="M186.79,209.91h6.66" transform="translate(-19.81 -19)"/><line class="cls-23" x1="172.88" y1="188.34" x2="167.74" y2="193.48"/><line class="cls-23" x1="167.74" y1="188.34" x2="172.88" y2="193.48"/><path class="cls-24" d="M348.13,296.67a.72.72,0,1,1-.72-.72A.71.71,0,0,1,348.13,296.67Z" transform="translate(-19.81 -19)"/><path class="cls-24" d="M368,275.6a.64.64,0,1,1-.64-.64A.64.64,0,0,1,368,275.6Z" transform="translate(-19.81 -19)"/><path class="cls-24" d="M190.76,243.37a.64.64,0,0,1-1.28,0,.64.64,0,0,1,1.28,0Z" transform="translate(-19.81 -19)"/></svg>