<svg id="레이어_1" data-name="레이어 1" xmlns="http://www.w3.org/2000/svg" viewBox="0 0 248.62 379.1"><defs><style>.cls-1{fill:#ead6c6;}.cls-2{fill:#d3b69d;}.cls-3{fill:#b08b6f;}.cls-4{fill:#3c3d3d;}.cls-5{fill:#eb7c66;}.cls-12,.cls-13,.cls-16,.cls-5,.cls-6,.cls-7,.cls-8{stroke:#0a0305;}.cls-12,.cls-13,.cls-15,.cls-16,.cls-5,.cls-6,.cls-7,.cls-8,.cls-9{stroke-linecap:round;stroke-linejoin:round;stroke-width:3px;}.cls-6{fill:#7d473f;}.cls-7{fill:#eb6953;}.cls-8{fill:#91bd28;}.cls-12,.cls-15,.cls-9{fill:none;}.cls-9{stroke:#6a3732;}.cls-10{fill:#fff;}.cls-11{fill:#bb402a;}.cls-13{fill:#ed7300;}.cls-14{fill:#0a0305;}.cls-15{stroke:#91bd28;}.cls-16{fill:#acdaf1;}</style></defs><polygon class="cls-1" points="131.46 241.09 56.85 241.09 56.85 261.82 131.46 261.82 206.07 261.82 206.07 241.09 131.46 241.09"/><path class="cls-2" d="M267.77,269.82H133l-43.54,113h45.09L148.86,346a55.29,55.29,0,0,1,103.07,0l14.29,36.77h45.09Z" transform="translate(-68.93 -8)"/><polygon class="cls-2" points="165.98 171.1 131.46 171.1 96.94 171.1 73.43 241.09 106.3 241.09 121.91 193.02 131.46 193.02 141.02 193.02 156.63 241.09 189.5 241.09 165.98 171.1"/><polygon class="cls-1" points="131.46 154.93 90.22 154.93 90.22 171.1 131.46 171.1 172.71 171.1 172.71 154.93 131.46 154.93"/><path class="cls-2" d="M211.35,56.21H189.44s-2,48.65-18.06,106.72h58C213.39,104.86,211.35,56.21,211.35,56.21Z" transform="translate(-68.93 -8)"/><path class="cls-1" d="M200.39,28.42H188.74a4.47,4.47,0,0,0-4.47,4.46V51.74a4.47,4.47,0,0,0,4.47,4.47h23.31a4.47,4.47,0,0,0,4.47-4.47V32.88a4.47,4.47,0,0,0-4.47-4.46Z" transform="translate(-68.93 -8)"/><polygon class="cls-3" points="92.87 183.22 170.06 183.22 165.98 171.1 131.46 171.1 96.94 171.1 92.87 183.22"/><path class="cls-3" d="M188.74,66.31h23.31c-.54-6.45-.7-10.1-.7-10.1H189.44S189.28,59.86,188.74,66.31Z" transform="translate(-68.93 -8)"/><polygon class="cls-3" points="204.39 276.21 198.84 261.82 131.46 261.82 64.08 261.82 58.54 276.21 204.39 276.21"/><path class="cls-4" d="M134.57,387.1h2.93l1.07-2.74h0l.06-.16,14.22-36.6a51,51,0,0,1,95.09,0l15.35,39.51h54.26L301.9,346.48v0L274,274.11h5.27v-29.3H261.51l-20.64-61.43h5V158.65H232.69a544.37,544.37,0,0,1-16.85-99.06,8.73,8.73,0,0,0,5-7.85V32.88a8.76,8.76,0,0,0-8.74-8.75h-7.38V8h-8.57V24.13h-7.37A8.77,8.77,0,0,0,180,32.88V51.74a8.72,8.72,0,0,0,5,7.85,544.37,544.37,0,0,1-16.85,99.06H154.87v24.73h5l-20.64,61.43H121.5v29.3h5.27l-43.53,113Zm-29.49-8.57,12.85-7.63,6.95,7.63Zm24.35-87.48,5.42,5.39-9.21,4.44Zm11.87,11.79L152,313.49,134.61,324l-10.2-13Zm-15.85,63.59,14.06-8.35-6.44,16.72Zm21.29-27.08L140,330.74l13.15-7.9Zm2.74-40.46,15.79-7.62-6.5,16.85Zm-7.77,47.92L119.57,360l-10-11,23-13.8Zm58.68-40.33A59.34,59.34,0,0,0,163.76,319l17.31-44.9H220l17.27,45.05A59.33,59.33,0,0,0,200.39,306.48Zm74.76-5.6-9.21-4.44,5.42-5.39ZM276.38,311l-10.2,13-17.41-10.46,10.72-10.65Zm-28.53,11.95,13,7.8-6.72,8.53Zm19.88,51.85-6.39-16.67,14,8.31Zm-8.65-28,9.16-11.63,23,13.8-10,11ZM242.13,308l-6.37-16.63,15.55,7.51Zm33.78,70.52,6.95-7.63,12.85,7.63Zm12.83-14.1L296.4,356l6.47,16.8Zm-15.16-36L281.75,318l7.67,19.89ZM268,282.32l-10.24,10.17-26.48-12.78-2.15-5.6h35.7ZM200.26,135.05l-14.13-11.37,14.47-13.33,14.26,12.84Zm16.9-4.89c1.5,7.28,3.22,14.86,5.18,22.68l-16.62-13.39Zm-11.5-24.48L211.8,100q.93,6.24,2.13,13.1Zm-5.12-4.61-10-9L200.39,83l9.85,9.17Zm4.88-22.78,3.21-3c.21,2.07.46,4.31.74,6.66ZM207.8,66.7l-7.4,6.9L193,66.7c.21-2.49.37-4.59.48-6.21h13.85C207.43,62.11,207.59,64.21,207.8,66.7Zm-15.63,8.6,3.2,3-4,3.67C191.7,79.61,192,77.37,192.17,75.3ZM189,99.91l6.47,5.83-8.73,8.05Q188,106.51,189,99.91Zm-5.44,30.51,11.25,9.05-16.35,13.28C180.4,145.06,182.09,137.59,183.57,130.42Zm16.71,13.45,18.35,14.78H182.09ZM188.74,32.7h11.65l11.85.18-.18,19H200.39l-11.84-.18ZM163.43,167.21h73.92v7.6H163.43ZM169,183.38h62.89l20.63,61.43h-23.8l-15.6-48.07H187.72l-15.6,48.07h-23.8Zm50.72,61.43H181.12L194,205.31h12.89Zm-89.6,20.73V253.37H270.72v12.17H130.07Zm41.82,8.57-2.11,5.47L143,292.49l-10.24-10.17,3.17-8.21ZM119,318l8.17,10.38-15.84,9.51Zm-14.65,38,7.66,8.41-14.13,8.39Z" transform="translate(-68.93 -8)"/><path class="cls-5" d="M120.3,194.49s-9.08,9.62-13.68,29.9c-3.05,13.45.33,21.62,9.19,21.89,9.42.29,9.42-7,9.42-7" transform="translate(-68.93 -8)"/><path class="cls-6" d="M130.89,193.2C127.07,193,121,191,121,191S111.89,198,107,215c-3.83,13.16-2.66,17.25-2.66,17.25a35.49,35.49,0,0,0,15.93,1.87" transform="translate(-68.93 -8)"/><path class="cls-5" d="M190.31,194.49s9.08,9.62,13.68,29.9c3,13.45-.33,21.62-9.19,21.89-9.43.29-9.42-7-9.42-7" transform="translate(-68.93 -8)"/><path class="cls-6" d="M179.71,193.2c3.83-.22,9.95-2.25,9.95-2.25s9.05,7.09,14,24.06c3.83,13.16,2.65,17.25,2.65,17.25a35.46,35.46,0,0,1-15.93,1.87" transform="translate(-68.93 -8)"/><path class="cls-6" d="M188.64,190.34s6.76,20.11,6.64,54.83c0,0-15,6.62-40,6.62s-40-6.62-40-6.62c-.12-34.72,6.65-54.83,6.65-54.83" transform="translate(-68.93 -8)"/><path class="cls-7" d="M141.9,197.32a68.17,68.17,0,0,0,0,15.5" transform="translate(-68.93 -8)"/><path class="cls-8" d="M145.32,212.82a3.42,3.42,0,1,1-3.42-3.42A3.42,3.42,0,0,1,145.32,212.82Z" transform="translate(-68.93 -8)"/><path class="cls-7" d="M168.61,197.32a67.51,67.51,0,0,1,0,15.5" transform="translate(-68.93 -8)"/><path class="cls-8" d="M165.2,212.82a3.42,3.42,0,1,0,3.41-3.42A3.41,3.41,0,0,0,165.2,212.82Z" transform="translate(-68.93 -8)"/><line class="cls-9" x1="55.34" y1="206.69" x2="55.11" y2="209.06"/><line class="cls-9" x1="117.41" y1="206.69" x2="117.63" y2="209.06"/><path class="cls-6" d="M129.29,222.94s-.95,10.34-5.14,16.38" transform="translate(-68.93 -8)"/><path class="cls-6" d="M181.31,222.94s.95,10.34,5.14,16.38" transform="translate(-68.93 -8)"/><path class="cls-5" d="M84.72,114.81s21.49-62.19,34.46-63.76S151,88,151,88" transform="translate(-68.93 -8)"/><path class="cls-10" d="M97.44,109.09s14.65-42.37,23.48-43.44S142.6,90.82,142.6,90.82" transform="translate(-68.93 -8)"/><path class="cls-5" d="M225.89,114.81S204.4,52.62,191.43,51.05,159.61,88,159.61,88" transform="translate(-68.93 -8)"/><path class="cls-10" d="M213.17,109.09s-14.64-42.37-23.48-43.44S168,90.82,168,90.82" transform="translate(-68.93 -8)"/><path class="cls-6" d="M155.3,197.32c74.5,0,84.88-52,84.88-52-1.93-.24-7.43-73.81-84.88-73.81S72.36,145,70.43,145.27C70.43,145.27,80.81,197.32,155.3,197.32Z" transform="translate(-68.93 -8)"/><path class="cls-5" d="M156.94,196.46c55.28,0,66.55-34.59,67.65-43.37,1.82-14.5-20.38-53.62-67.65-53.62s-69.47,39.12-67.66,53.62C90.38,161.87,101.65,196.46,156.94,196.46Z" transform="translate(-68.93 -8)"/><path class="cls-11" d="M162.15,146.61s-.06,7.93-6.85,7.93-6.85-7.93-6.85-7.93l6.85-2.07Z" transform="translate(-68.93 -8)"/><path class="cls-12" d="M162.15,146.61s-.06,7.93-6.85,7.93-6.85-7.93-6.85-7.93" transform="translate(-68.93 -8)"/><path class="cls-13" d="M155.3,140.87c2-.9,1.14-1.41,0-1.41S153.3,140,155.3,140.87Z" transform="translate(-68.93 -8)"/><line class="cls-7" x1="86.37" y1="132.95" x2="86.37" y2="135.64"/><path class="cls-12" d="M141.61,144.72s1.06,5.39,13.69-.64" transform="translate(-68.93 -8)"/><path class="cls-12" d="M169,144.72s-1.07,5.39-13.7-.64" transform="translate(-68.93 -8)"/><path class="cls-13" d="M182.91,128.76s-7.11,1.66-27.61,1.66-27.61-1.66-27.61-1.66" transform="translate(-68.93 -8)"/><path class="cls-14" d="M182,138.38a1.09,1.09,0,1,1-1.09-1.09A1.08,1.08,0,0,1,182,138.38Z" transform="translate(-68.93 -8)"/><path class="cls-13" d="M142.88,136.46a20,20,0,0,0-9.24-2.82" transform="translate(-68.93 -8)"/><path class="cls-13" d="M167.73,136.46a19.91,19.91,0,0,1,9.23-2.82" transform="translate(-68.93 -8)"/><path class="cls-5" d="M148.89,254.13s-5.47,3.5-6.21,18.87c-.7,14.48-5.8,15.19-9,15.19H117.34c-2.63,0-13-.26-13-10.43,0-10,9.67-10.23,9.67-10.23l7.91-18.08" transform="translate(-68.93 -8)"/><path class="cls-10" d="M115,260.29l-1,6.07s-9.67.24-9.67,10.23c0,10.17,10.35,10.43,13,10.43h16.35c3.19,0,8.29-.71,9-15.19.16-3.35.28-6.26.38-8.8A140,140,0,0,1,115,260.29Z" transform="translate(-68.93 -8)"/><path class="cls-15" d="M115,265.25s6,3.82,27.85,3.44" transform="translate(-68.93 -8)"/><path class="cls-16" d="M114,266.36a15.31,15.31,0,0,1,3.88.59" transform="translate(-68.93 -8)"/><path class="cls-12" d="M150.06,253s-6.64,3.49-7.38,18.87c-.7,14.48-5.8,15.19-9,15.19H117.34c-2.63,0-13-.26-13-10.43,0-10,9.67-10.23,9.67-10.23l7.91-16.91" transform="translate(-68.93 -8)"/><path class="cls-12" d="M117.25,260s8.31,3.12,25.83,3.07" transform="translate(-68.93 -8)"/><path class="cls-5" d="M188.77,249.45s-10.2,6.28-10.94,21.66c-.7,14.48-5.8,15.18-9,15.18H152.49c-2.63,0-13-.25-13-10.42,0-10,9.66-10.24,9.66-10.24l6.79-11.5" transform="translate(-68.93 -8)"/><path class="cls-10" d="M151.28,260l-2.1,5.64s-9.67.25-9.66,10.24c0,10.17,10.34,10.42,13,10.42h16.35c3.19,0,8.29-.7,9-15.18.16-3.35.29-6.26.39-8.81C163.67,262.18,155,260.82,151.28,260Z" transform="translate(-68.93 -8)"/><path class="cls-15" d="M150.16,264.52s6,3.82,27.85,3.44" transform="translate(-68.93 -8)"/><path class="cls-16" d="M149.08,265.63a16.44,16.44,0,0,1,4.13.62" transform="translate(-68.93 -8)"/><path class="cls-12" d="M156,254.13l-6.37,11.5s-9.53.25-9.53,10.24c0,10.17,10.2,10.42,12.79,10.42H169c3.14,0,8.17-.7,8.86-15.18a30.11,30.11,0,0,1,12.1-22.84" transform="translate(-68.93 -8)"/><path class="cls-12" d="M153.62,260s7.09,2.39,24.61,2.35" transform="translate(-68.93 -8)"/></svg>