<svg id="레이어_1" data-name="레이어 1" xmlns="http://www.w3.org/2000/svg" viewBox="0 0 340.36 356.35"><defs><style>.cls-1{fill:#f4e4d3;}.cls-2{fill:#f7d1ab;}.cls-3{fill:#adcecc;}.cls-4{fill:#d2ac87;}.cls-5{fill:#3c3d3d;}.cls-16,.cls-6{fill:#eb7c66;}.cls-10,.cls-11,.cls-13,.cls-14,.cls-17,.cls-6,.cls-9{stroke:#0a0305;}.cls-10,.cls-11,.cls-12,.cls-13,.cls-14,.cls-17,.cls-6,.cls-8,.cls-9{stroke-linecap:round;stroke-linejoin:round;stroke-width:3px;}.cls-7{fill:#fff;}.cls-10,.cls-12,.cls-8{fill:none;}.cls-8{stroke:#91bd28;}.cls-9{fill:#acdaf1;}.cls-11{fill:#7d473f;}.cls-12{stroke:#6a3732;}.cls-13{fill:#eb6953;}.cls-14{fill:#91bd28;}.cls-15{fill:#0a0305;}.cls-17{fill:#ed7300;}.cls-18{fill:#e6305d;}.cls-19,.cls-20{fill:#f29800;}.cls-19{stroke:#231e1f;stroke-miterlimit:10;stroke-width:4px;}.cls-21{fill:#f5c600;}.cls-22{fill:#f9edd6;}.cls-23{fill:#efd4b3;}.cls-24{fill:#eeba82;}</style></defs><rect class="cls-1" x="19.14" y="79.26" width="92.59" height="48.77"/><rect class="cls-1" x="228.64" y="79.26" width="92.59" height="48.77"/><rect class="cls-2" x="39.29" y="113.59" width="72.44" height="14.44"/><rect class="cls-2" x="70.35" y="99.14" width="41.38" height="14.44"/><rect class="cls-1" x="112.87" y="173.03" width="23.44" height="179.17"/><rect class="cls-1" x="66.01" y="173.03" width="23.44" height="179.17"/><rect class="cls-1" x="19.14" y="173.03" width="23.44" height="179.17"/><polygon class="cls-1" points="170.18 142.48 19.14 142.48 19.14 173.03 170.18 173.03 321.23 173.03 321.23 142.48 170.18 142.48"/><polygon class="cls-2" points="170.18 128.03 4.14 128.03 4.14 142.48 170.18 142.48 336.23 142.48 336.23 128.03 170.18 128.03"/><polygon class="cls-1" points="170.18 79.26 111.73 79.26 111.73 128.03 170.18 128.03 228.64 128.03 228.64 79.26 170.18 79.26"/><rect class="cls-2" x="254.86" y="129.59" width="72.44" height="14.44" transform="translate(555.94 257.62) rotate(180)"/><rect class="cls-2" x="254.86" y="115.14" width="41.38" height="14.44" transform="translate(524.88 228.73) rotate(180)"/><polygon class="cls-1" points="170.18 64.81 105.57 64.81 105.57 79.26 170.18 79.26 234.8 79.26 234.8 64.81 170.18 64.81"/><rect class="cls-1" x="230.27" y="189.03" width="23.44" height="179.17" transform="translate(457.77 541.24) rotate(180)"/><rect class="cls-1" x="277.14" y="189.03" width="23.44" height="179.17" transform="translate(551.5 541.24) rotate(180)"/><rect class="cls-1" x="324.01" y="189.03" width="23.44" height="179.17" transform="translate(645.23 541.24) rotate(180)"/><rect class="cls-2" x="112.87" y="331.37" width="23.44" height="20.84"/><rect class="cls-2" x="66.01" y="331.37" width="23.44" height="20.84"/><rect class="cls-2" x="19.14" y="331.37" width="23.44" height="20.84"/><rect class="cls-2" x="204.05" y="331.37" width="23.44" height="20.84"/><rect class="cls-2" x="250.92" y="331.37" width="23.44" height="20.84"/><rect class="cls-2" x="297.78" y="331.37" width="23.44" height="20.84"/><path class="cls-3" d="M164.27,53.18h-.55a6.44,6.44,0,0,0-6.06,8.61l6.84,19h14.23l-8.4-23.37A6.43,6.43,0,0,0,164.27,53.18Z" transform="translate(-26.22 -16)"/><path class="cls-3" d="M228.54,53.18h.55a6.43,6.43,0,0,1,6.06,8.61l-6.84,19H214.08l8.4-23.37A6.44,6.44,0,0,1,228.54,53.18Z" transform="translate(-26.22 -16)"/><path class="cls-3" d="M201.81,80.81v-28a6.4,6.4,0,0,0-6.4-6.4h0a6.39,6.39,0,0,0-6.4,6.4v28Z" transform="translate(-26.22 -16)"/><rect class="cls-4" x="19.14" y="173.03" width="23.44" height="25.57"/><rect class="cls-4" x="66.01" y="173.03" width="23.44" height="25.57"/><rect class="cls-4" x="112.87" y="173.03" width="23.44" height="25.57"/><rect class="cls-4" x="204.05" y="173.03" width="23.44" height="25.57"/><rect class="cls-4" x="250.92" y="173.03" width="23.44" height="25.57"/><rect class="cls-4" x="297.78" y="173.03" width="23.44" height="25.57"/><rect class="cls-5" x="136.32" y="91.43" width="8.28" height="23.72"/><rect class="cls-5" x="165.05" y="91.43" width="8.28" height="23.72"/><rect class="cls-5" x="194.77" y="91.43" width="8.28" height="23.72"/><rect class="cls-5" x="42.58" y="153.62" width="42.71" height="8.28"/><rect class="cls-5" x="99.93" y="153.62" width="23.6" height="8.28"/><rect class="cls-5" x="255.19" y="153.62" width="42.7" height="8.28"/><rect class="cls-5" x="215.77" y="153.62" width="23.6" height="8.28"/><path class="cls-5" d="M41.22,184.9V372.35H72.94V193.17H88.09V372.35h31.72V193.17H135V372.35h31.72V193.17h59.45V372.35h31.72V193.17H273V372.35h31.72V193.17h15.15V372.35h31.72V162.62h15V139.89h-15V99.4h10.86V91.12H265.16V76.68h-31l4.85-13.49a10.58,10.58,0,0,0-10-14.15h-.55a10.6,10.6,0,0,0-9.95,7l-7.42,20.64H206V52.79a10.55,10.55,0,0,0-6.4-9.69V29.69l11.86-6.33-3.9-7.3-11.7,6.24L183.11,16l-3.68,7.41,11.84,5.88V43.1a10.55,10.55,0,0,0-6.4,9.69V76.68h-3.23L174.22,56a10.59,10.59,0,0,0-9.95-7h-.55a10.57,10.57,0,0,0-9.95,14.15l4.85,13.49h-31V91.12H30.36V99.4H41.22v40.49h-15v22.73h15ZM64.67,364.07H49.5V351.51H64.67ZM49.5,343.23V193.17H64.67V343.23Zm62,20.84H96.37V351.51h15.16ZM96.37,343.23V193.17h15.16V343.23Zm62,20.84H143.23V351.51H158.4Zm-15.17-20.84V193.17H158.4V343.23Zm106.35,20.84H234.41V351.51h15.17Zm-15.17-20.84V193.17h15.17V343.23Zm62,20.84H281.28V351.51h15.16Zm-15.16-20.84V193.17h15.16V343.23Zm62,20.84H328.15V351.51h15.16Zm-15.16-20.84V193.17h15.16V343.23ZM343.31,99.4v40.49H331.44V125.45H300.38V111H259V99.4h84.31Zm-209.5,26.05h-33.1v-6.17h33.1Zm0,8.28v6.16H69.65v-6.16h64.16Zm8.28,0V99.4H250.72v40.49H142.09Zm150-8.28H259v-6.17h33.1ZM259,133.73h64.16v6.16H259ZM226.38,58.84a2.31,2.31,0,0,1,2.16-1.52h.55a2.29,2.29,0,0,1,2.16,3.07L225.4,76.68H220Zm-33.23-6.05a2.26,2.26,0,1,1,4.52,0V76.68h-4.52Zm-31.59,7.6a2.29,2.29,0,0,1,2.16-3.07h.55a2.31,2.31,0,0,1,2.17,1.52l6.41,17.84h-5.44ZM135.93,85h121v6.17H135.93ZM49.5,99.4h84.31V111H92.43v14.44H61.38v14.44H49.5Zm-15,54.94v-6.17H358.31v6.17H34.5Zm308.81,8.28V184.9H49.5V162.62Z" transform="translate(-26.22 -16)"/><path class="cls-6" d="M161.1,336.53s0,6.15-.68,20.26c-.64,13.3-5.32,13.94-8.25,13.94h-15c-2.42,0-11.9-.23-11.91-9.57,0-9.17,8.87-9.39,8.87-9.39L137,334.1" transform="translate(-26.22 -16)"/><path class="cls-7" d="M135,346.21l-.89,5.56s-8.87.22-8.87,9.39c0,9.34,9.49,9.57,11.91,9.57h15c2.93,0,7.61-.64,8.25-13.94.15-3.07.27-5.74.36-8.07A129.71,129.71,0,0,1,135,346.21Z" transform="translate(-26.22 -16)"/><path class="cls-8" d="M135,350.75s5.52,3.51,25.56,3.16" transform="translate(-26.22 -16)"/><path class="cls-9" d="M134.13,351.77a14.08,14.08,0,0,1,3.56.54" transform="translate(-26.22 -16)"/><path class="cls-10" d="M161.1,336.53s0,6.15-.68,20.26c-.64,13.3-5.32,13.94-8.25,13.94h-15c-2.42,0-11.9-.23-11.91-9.57,0-9.17,8.87-9.39,8.87-9.39L137,334.1" transform="translate(-26.22 -16)"/><path class="cls-10" d="M135.45,345.81s9.27,3,25.34,2.93" transform="translate(-26.22 -16)"/><path class="cls-6" d="M181.9,336.53s0,6.15.68,20.26c.64,13.3,5.32,13.94,8.25,13.94h15c2.41,0,11.9-.23,11.9-9.57,0-9.17-8.87-9.39-8.87-9.39L206,334.1" transform="translate(-26.22 -16)"/><path class="cls-7" d="M208,346.21l.89,5.56s8.88.22,8.87,9.39c0,9.34-9.49,9.57-11.9,9.57h-15c-2.93,0-7.61-.64-8.25-13.94-.15-3.07-.26-5.74-.36-8.07A129.61,129.61,0,0,0,208,346.21Z" transform="translate(-26.22 -16)"/><path class="cls-8" d="M208,350.75s-5.51,3.51-25.56,3.16" transform="translate(-26.22 -16)"/><path class="cls-9" d="M208.87,351.77a14.08,14.08,0,0,0-3.56.54" transform="translate(-26.22 -16)"/><path class="cls-10" d="M181.9,336.53s0,6.15.68,20.26c.64,13.3,5.32,13.94,8.25,13.94h15c2.41,0,11.9-.23,11.9-9.57,0-9.17-8.87-9.39-8.87-9.39L206,334.1" transform="translate(-26.22 -16)"/><path class="cls-10" d="M207.55,345.81s-9.26,3-25.34,2.93" transform="translate(-26.22 -16)"/><path class="cls-11" d="M206.23,277.16s7,21,6.92,57.13c0,0-15.66,6.9-41.65,6.9s-41.64-6.9-41.64-6.9c-.13-36.17,6.92-57.13,6.92-57.13" transform="translate(-26.22 -16)"/><path class="cls-11" d="M205.52,328s20.19,1,19.55-17.38-17.77-30.68-17.77-30.68-6.38,2.12-10.37,2.35" transform="translate(-26.22 -16)"/><line class="cls-12" x1="177.61" y1="286.53" x2="177.85" y2="289"/><path class="cls-11" d="M198.6,311.13s1,10.77,5.35,17.06" transform="translate(-26.22 -16)"/><path class="cls-13" d="M157.54,284.44a70.58,70.58,0,0,0,0,16.15" transform="translate(-26.22 -16)"/><path class="cls-14" d="M161.1,300.59a3.56,3.56,0,1,1-3.56-3.56A3.55,3.55,0,0,1,161.1,300.59Z" transform="translate(-26.22 -16)"/><path class="cls-13" d="M185.37,284.44a71.23,71.23,0,0,1,0,16.15" transform="translate(-26.22 -16)"/><path class="cls-14" d="M181.81,300.59a3.56,3.56,0,1,0,3.56-3.56A3.55,3.55,0,0,0,181.81,300.59Z" transform="translate(-26.22 -16)"/><path class="cls-6" d="M98,198.48s22.38-64.79,35.9-66.43S167,170.53,167,170.53" transform="translate(-26.22 -16)"/><path class="cls-7" d="M111.22,192.52s15.25-44.14,24.46-45.25,22.59,26.21,22.59,26.21" transform="translate(-26.22 -16)"/><path class="cls-6" d="M245,198.48s-22.39-64.79-35.9-66.43S176,170.53,176,170.53" transform="translate(-26.22 -16)"/><path class="cls-7" d="M231.78,192.52s-15.25-44.14-24.45-45.25-22.59,26.21-22.59,26.21" transform="translate(-26.22 -16)"/><path class="cls-11" d="M171.5,284.44c77.61,0,88.43-54.23,88.43-54.23-2-.25-7.74-76.89-88.43-76.89S85.09,230,83.08,230.21C83.08,230.21,93.9,284.44,171.5,284.44Z" transform="translate(-26.22 -16)"/><path class="cls-6" d="M171.5,284.44c57.6,0,69.34-36,70.49-45.18,1.89-15.11-21.24-55.86-70.49-55.86S99.12,224.15,101,239.26C102.16,248.41,113.91,284.44,171.5,284.44Z" transform="translate(-26.22 -16)"/><path class="cls-15" d="M159.63,223.22c0,3.86-2.26,7-5,7s-5.05-3.13-5.05-7,2.26-7,5.05-7S159.63,219.36,159.63,223.22Z" transform="translate(-26.22 -16)"/><path class="cls-15" d="M183.37,223.22c0,3.86,2.26,7,5.06,7s5-3.13,5-7-2.26-7-5-7S183.37,219.36,183.37,223.22Z" transform="translate(-26.22 -16)"/><path class="cls-16" d="M198.8,217.89s-7,1.64-27.3,1.64-27.29-1.64-27.29-1.64,3.29-5.37,27.29-5.37S198.8,217.89,198.8,217.89Z" transform="translate(-26.22 -16)"/><path class="cls-17" d="M198.8,217.89s-7,1.64-27.3,1.64-27.29-1.64-27.29-1.64" transform="translate(-26.22 -16)"/><path class="cls-17" d="M171.5,230.91c2-.89,1.13-1.39,0-1.39S169.52,230,171.5,230.91Z" transform="translate(-26.22 -16)"/><line class="cls-13" x1="145.28" y1="214.98" x2="145.28" y2="218.44"/><path class="cls-10" d="M158,234.71s1.06,5.33,13.54-.63" transform="translate(-26.22 -16)"/><path class="cls-10" d="M185,234.71s-1,5.33-13.54-.63" transform="translate(-26.22 -16)"/><path class="cls-15" d="M197.88,228.44a1.08,1.08,0,1,1-1.07-1.08A1.08,1.08,0,0,1,197.88,228.44Z" transform="translate(-26.22 -16)"/><ellipse class="cls-18" cx="106.05" cy="217.02" rx="12.05" ry="3.71"/><ellipse class="cls-18" cx="187.61" cy="217.02" rx="12.05" ry="3.71"/><path class="cls-19" d="M116.13,227.64l-3.24-3.8-.17-.18a3.13,3.13,0,0,0-2.41-.9l-.25,0a3.57,3.57,0,0,0-.47.11l-.24.09L97,228l-12.35,5a3.11,3.11,0,0,0-2,3.08l.32,5a76.65,76.65,0,0,0,5.44,24l2.37,5.84a10,10,0,0,0,8.44,6.2h0a9.94,9.94,0,0,1,7.79,4.88l.27.49h0A9.75,9.75,0,0,1,108,284h0a8.44,8.44,0,0,1,.32,1.34L111.75,306l1.16,2.88a3.11,3.11,0,0,0,4.06,1.72l5.77-2.33,17.32-7a3.13,3.13,0,0,0,1.72-4.06l-1.17-2.89-11.87-17.24a9.94,9.94,0,0,1,.74-12.23,10,10,0,0,0,1.76-10.32l-2.36-5.84h0A76.78,76.78,0,0,0,116.13,227.64Z" transform="translate(-26.22 -16)"/><circle class="cls-20" cx="77.1" cy="255.32" r="3.11"/><circle class="cls-20" cx="64.84" cy="235.36" r="2.34"/><circle class="cls-20" cx="79.56" cy="242.01" r="1.56"/><circle class="cls-21" cx="92.42" cy="226.73" r="3.11"/><circle class="cls-21" cx="91.99" cy="254.06" r="2.34"/><circle class="cls-21" cx="89.96" cy="240.04" r="1.56"/><path class="cls-7" d="M112.61,285.48h0a1.51,1.51,0,0,0-.93,1.66l2.44,14.6a28,28,0,0,0,1.11,4.42,1.56,1.56,0,0,0,2,.94h0a1.56,1.56,0,0,0,.89-2,28.72,28.72,0,0,1-1.16-4.58l-2.33-13.94A1.52,1.52,0,0,0,112.61,285.48Z" transform="translate(-26.22 -16)"/><path class="cls-7" d="M88,243.21l.17,2.42a66,66,0,0,0,4.65,20.1l2,4.81a1.31,1.31,0,0,0,1.6.8,1.28,1.28,0,0,0,.77-1.72l-2-4.84a66.47,66.47,0,0,1-4.65-20.11l-.11-1.59A1.25,1.25,0,0,0,88.73,242h0A1.22,1.22,0,0,0,88,243.21Z" transform="translate(-26.22 -16)"/><path class="cls-22" d="M99.11,214.31a5.12,5.12,0,0,0-.62.31,5.33,5.33,0,0,0-5.27-.64,5.4,5.4,0,0,0-2.92,2.81,5.65,5.65,0,0,0-1.53.39A5.45,5.45,0,0,0,85.85,220a5.56,5.56,0,0,0-1.52.38,5.11,5.11,0,1,0,3.88,9.45L103,223.76a5.11,5.11,0,1,0-3.88-9.45Z" transform="translate(-26.22 -16)"/><path class="cls-23" d="M95.07,223l1.49,3.61-14.56,6c0-.33.1-.66.16-1l.45-2.45a3.06,3.06,0,0,1,2-1.82Z" transform="translate(-26.22 -16)"/><path class="cls-24" d="M110,220.74l-14.55,6L94,223.1l10.48-4.31a3.13,3.13,0,0,1,2.69-.08l2,1.43Z" transform="translate(-26.22 -16)"/><path class="cls-22" d="M90.68,226.14l6,14.63a2.64,2.64,0,0,0,3.44,1.44h0a2.64,2.64,0,0,0,1.44-3.44l-2-4.88a2.62,2.62,0,0,1,1.43-3.43h0a2.63,2.63,0,0,1,3.44,1.43h0a2.64,2.64,0,0,0,3.44,1.44h0a2.64,2.64,0,0,0,1.44-3.44l-4-9.75a2.64,2.64,0,0,0-3.44-1.44l-9.75,4A2.62,2.62,0,0,0,90.68,226.14Z" transform="translate(-26.22 -16)"/><ellipse class="cls-6" cx="129.39" cy="307.56" rx="10.02" ry="7.79" transform="translate(-154.37 79.4) rotate(-27.7)"/></svg>