<svg id="레이어_1" data-name="레이어 1" xmlns="http://www.w3.org/2000/svg" viewBox="0 0 389.61 274.96"><defs><style>.cls-1{fill:#fdf1e6;}.cls-2{fill:#f6d9ac;}.cls-10,.cls-3{fill:#fff;}.cls-4{fill:#d6bea5;}.cls-5{fill:#3c3d3d;}.cls-13,.cls-6{fill:#c38855;}.cls-12,.cls-6,.cls-7,.cls-8,.cls-9{stroke:#0a0305;}.cls-12,.cls-15,.cls-16,.cls-6,.cls-7,.cls-8,.cls-9{stroke-linecap:round;stroke-linejoin:round;stroke-width:6px;}.cls-7{fill:#be8145;}.cls-8{fill:#ed7534;}.cls-11,.cls-9{fill:#00a552;}.cls-10{opacity:0.7;}.cls-12{fill:none;}.cls-14{fill:#0a0305;}.cls-15{fill:#fad96e;}.cls-15,.cls-16{stroke:#040000;}.cls-16{fill:#f9d4b7;}.cls-17{fill:#ea6a75;}.cls-18{fill:#e73d53;}</style></defs><path class="cls-1" d="M306.64,211.47H183.15L148,158.57a14.21,14.21,0,0,0-11.84-6.35h-8L88.87,93H22.27V330H377.73V211.47Z" transform="translate(-5.2 -77.11)"/><rect class="cls-2" x="4.36" y="252.85" width="380.89" height="17.75"/><path class="cls-2" d="M377.73,211.47V169.55h-91.8a24,24,0,0,0-21.36,13l-.49.94a15.36,15.36,0,0,1-9.66,7.89c-6.25,1.65-15.61,6.41-19.34,20.08Z" transform="translate(-5.2 -77.11)"/><path class="cls-3" d="M52.94,149.29h0A14.91,14.91,0,0,1,67.85,164.2V193.6a0,0,0,0,1,0,0H38a0,0,0,0,1,0,0V164.2A14.91,14.91,0,0,1,52.94,149.29Z"/><path class="cls-3" d="M52.94,90h0A14.91,14.91,0,0,1,67.85,105v29.41a0,0,0,0,1,0,0H38a0,0,0,0,1,0,0V105A14.91,14.91,0,0,1,52.94,90Z"/><path class="cls-3" d="M123.71,149.29h0a14.91,14.91,0,0,1,14.91,14.91V193.6a0,0,0,0,1,0,0H108.8a0,0,0,0,1,0,0V164.2A14.91,14.91,0,0,1,123.71,149.29Z"/><path class="cls-3" d="M123.71,90h0A14.91,14.91,0,0,1,138.62,105v29.41a0,0,0,0,1,0,0H108.8a0,0,0,0,1,0,0V105A14.91,14.91,0,0,1,123.71,90Z"/><path class="cls-3" d="M200,226.39h0a14.92,14.92,0,0,0-14.91,14.91v29.41h29.82V241.3A14.92,14.92,0,0,0,200,226.39Z" transform="translate(-5.2 -77.11)"/><path class="cls-3" d="M271.09,226.39h0a14.92,14.92,0,0,0-14.91,14.91v29.41H286V241.3A14.91,14.91,0,0,0,271.09,226.39Z" transform="translate(-5.2 -77.11)"/><path class="cls-3" d="M342.18,226.39h0a14.92,14.92,0,0,0-14.91,14.91v29.41h29.82V241.3A14.91,14.91,0,0,0,342.18,226.39Z" transform="translate(-5.2 -77.11)"/><rect class="cls-2" x="6.92" y="4.36" width="96.9" height="18.23"/><polygon class="cls-4" points="17.07 34.29 95.9 34.29 88.13 22.59 17.07 22.59 17.07 34.29"/><path class="cls-4" d="M22.27,152.22v9.25H150l-1.93-2.9a14.21,14.21,0,0,0-11.84-6.35h-8l-.32-.49H22.27Z" transform="translate(-5.2 -77.11)"/><polygon class="cls-4" points="17.07 134.36 17.07 142.84 372.53 142.84 372.53 134.36 301.44 134.36 230.35 134.36 177.96 134.36 176.64 132.38 17.07 132.38 17.07 134.36"/><polygon class="cls-4" points="17.07 192.61 17.07 193.6 17.07 201.81 372.53 201.81 372.53 193.6 372.53 192.61 17.07 192.61"/><rect class="cls-5" x="30.18" y="44.93" width="7.86" height="7.86"/><rect class="cls-5" x="54.48" y="44.93" width="7.86" height="7.86"/><rect class="cls-5" x="79.87" y="44.93" width="7.86" height="7.86"/><rect class="cls-5" x="284.29" y="111" width="7.86" height="7.86"/><rect class="cls-5" x="308.59" y="111" width="7.86" height="7.86"/><rect class="cls-5" x="333.98" y="111" width="7.86" height="7.86"/><path class="cls-3" d="M52.94,208.53h0a14.91,14.91,0,0,1,14.91,14.91v29.41a0,0,0,0,1,0,0H38a0,0,0,0,1,0,0V223.44A14.91,14.91,0,0,1,52.94,208.53Z"/><path class="cls-3" d="M123.71,208.53h0a14.91,14.91,0,0,1,14.91,14.91v29.41a0,0,0,0,1,0,0H108.8a0,0,0,0,1,0,0V223.44A14.91,14.91,0,0,1,123.71,208.53Z"/><path class="cls-3" d="M200,285.64h0a14.91,14.91,0,0,0-14.91,14.91V330h29.82v-29.4A14.91,14.91,0,0,0,200,285.64Z" transform="translate(-5.2 -77.11)"/><path class="cls-3" d="M271.09,285.64h0a14.91,14.91,0,0,0-14.91,14.91V330H286v-29.4A14.9,14.9,0,0,0,271.09,285.64Z" transform="translate(-5.2 -77.11)"/><path class="cls-3" d="M342.18,285.64h0a14.91,14.91,0,0,0-14.91,14.91V330h29.82v-29.4A14.9,14.9,0,0,0,342.18,285.64Z" transform="translate(-5.2 -77.11)"/><path class="cls-5" d="M394.8,325.59H382.09V275.07h6.19v-8.72h-6.19V215.83h6.19v-8.72h-6.19V165.19H285.93a28.3,28.3,0,0,0-25.24,15.38l-.48.93a11,11,0,0,1-6.9,5.67c-6,1.6-16.44,6.3-21.41,19.94H185.49l-33.82-51a18.53,18.53,0,0,0-15.48-8.3h-5.65l-29.08-43.8h11.92V77.11H7.75v27H17.91v43.8H12.12v8.72h5.79v50.53H12.12v8.72h5.79v50.52H12.12v8.72h5.79v50.52H5.2v26.47H394.8Zm-21.43,0H361.45v-25a19.27,19.27,0,1,0-38.54,0v25H311V275.07h62.37Zm-20.64,0h-21.1v-25a10.55,10.55,0,1,1,21.1,0Zm-71.09,0h-21.1v-25a10.55,10.55,0,1,1,21.1,0Zm-10.55-44.31a19.29,19.29,0,0,0-19.27,19.27v25H239.91V275.07h62.37v50.52H290.36v-25A19.29,19.29,0,0,0,271.09,281.28Zm-60.54,44.31h-21.1v-25a10.55,10.55,0,1,1,21.1,0ZM200,281.28a19.29,19.29,0,0,0-19.27,19.27v25H168.81V275.07h62.38v50.52H219.27v-25A19.29,19.29,0,0,0,200,281.28Zm-60.54,44.31h-21.1v-25a10.55,10.55,0,0,1,21.1,0Zm-10.55-44.31a19.29,19.29,0,0,0-19.27,19.27v25H97.72V275.07h62.37v50.52H148.18v-25A19.29,19.29,0,0,0,128.91,281.28ZM97.72,215.83h62.37v50.52H148.18V241.3a19.27,19.27,0,0,0-38.54,0v25.05H97.72Zm41.74-8.72h-21.1V182.06a10.55,10.55,0,0,1,21.1,0Zm0,59.24h-21.1V241.3a10.55,10.55,0,0,1,21.1,0Zm71.09,0h-21.1V241.3a10.55,10.55,0,0,1,21.1,0Zm29.36-50.52h62.37v50.52H290.36V241.3a19.27,19.27,0,0,0-38.54,0v25.05H239.91Zm41.73,50.52h-21.1V241.3a10.55,10.55,0,1,1,21.1,0Zm71.09,0h-21.1V241.3a10.55,10.55,0,1,1,21.1,0Zm20.64,0H361.45V241.3a19.27,19.27,0,1,0-38.54,0v25.05H311V215.83h62.37ZM255.54,195.6A19.78,19.78,0,0,0,268,185.49l.47-.93a19.59,19.59,0,0,1,17.49-10.64h87.44v33.19h-132A21.68,21.68,0,0,1,255.54,195.6Zm-64.26,20.23h39.91v50.52H219.27V241.3a19.27,19.27,0,0,0-38.54,0v25.05H168.81V215.83Zm-55.09-59.25A9.83,9.83,0,0,1,144.4,161L175,207.11H148.18V182.06a19.27,19.27,0,0,0-38.54,0v25.05H97.72V156.58ZM16.48,95.33v-9.5h88.18v9.5H16.48Zm10.15,8.73H91l29.09,43.8H26.63Zm0,52.52H89v50.53H77.41V182.06a19.27,19.27,0,0,0-38.54,0v25.05H26.63Zm42.06,50.53H47.59V182.06a10.55,10.55,0,0,1,21.1,0Zm-42.06,8.72H89v50.52H77.41V241.3a19.27,19.27,0,1,0-38.54,0v25.05H26.63Zm42.06,50.52H47.59V241.3a10.55,10.55,0,0,1,21.1,0Zm-42.06,8.72H89v50.52H77.41v-25a19.27,19.27,0,1,0-38.54,0v25H26.63Zm42.06,50.52H47.59v-25a10.55,10.55,0,1,1,21.1,0Zm317.39,17.75H13.92v-9H386.08Z" transform="translate(-5.2 -77.11)"/><path class="cls-6" d="M263.86,307.57,263,325.14s-9.32.24-9.32,9.87c0,9.81,10,10.05,12.51,10.05h17.5c7.11,0,7.52-2.79,7.52-14.05,0-14.84.12-21.87.12-21.87Z" transform="translate(-5.2 -77.11)"/><path class="cls-7" d="M263,325.14a14.6,14.6,0,0,1,3.74.58" transform="translate(-5.2 -77.11)"/><path class="cls-7" d="M264.42,318.89" transform="translate(-5.2 -77.11)"/><path class="cls-6" d="M327.54,307.57l.82,17.57s9.31.24,9.31,9.87c0,9.81-10,10.05-12.51,10.05h-17.5c-8.07,0-7.52-2.79-7.52-14.05,0-14.84-.12-21.87-.12-21.87Z" transform="translate(-5.2 -77.11)"/><path class="cls-7" d="M328.36,325.14a14.5,14.5,0,0,0-3.74.58" transform="translate(-5.2 -77.11)"/><path class="cls-7" d="M327,318.89" transform="translate(-5.2 -77.11)"/><path class="cls-6" d="M335.57,255.09s11.5,10.31,16.15,29.38-.47,30.77-13.08,31.15c-13.42.41-13.41-9.92-13.41-9.92" transform="translate(-5.2 -77.11)"/><path class="cls-6" d="M334.45,266.44s6.36,8.79,6,25.42-15.57,29.32-45.36,28.64-44.39-14.05-44-30.68,7.14-25.12,7.14-25.12" transform="translate(-5.2 -77.11)"/><path class="cls-8" d="M337.29,268.35s-30.84,19.79-41.6,19.79-41.58-19.79-41.58-19.79" transform="translate(-5.2 -77.11)"/><path class="cls-9" d="M247.36,267.22s3.2-3,9.45.48c0,0-7,12.43-5.83,25C251,292.69,244.22,279.17,247.36,267.22Z" transform="translate(-5.2 -77.11)"/><path class="cls-9" d="M344,267.22s-3.2-3-9.45.48c0,0,7,12.43,5.83,25C340.41,292.69,347.17,279.17,344,267.22Z" transform="translate(-5.2 -77.11)"/><path class="cls-6" d="M266.91,163.76a18.84,18.84,0,1,1-18.83-18.83A18.84,18.84,0,0,1,266.91,163.76Z" transform="translate(-5.2 -77.11)"/><path class="cls-10" d="M257.19,163.76a9.12,9.12,0,1,1-9.11-9.11A9.11,9.11,0,0,1,257.19,163.76Z" transform="translate(-5.2 -77.11)"/><path class="cls-6" d="M324.48,163.76a18.84,18.84,0,1,0,18.83-18.83A18.84,18.84,0,0,0,324.48,163.76Z" transform="translate(-5.2 -77.11)"/><path class="cls-10" d="M334.2,163.76a9.12,9.12,0,1,0,9.11-9.11A9.11,9.11,0,0,0,334.2,163.76Z" transform="translate(-5.2 -77.11)"/><path class="cls-6" d="M295.69,273.82c30,0,75.08-7.47,75.06-53.47,0-49-30.87-71.83-75.06-71.83s-75,22.79-75.05,71.83C220.62,266.35,265.73,273.82,295.69,273.82Z" transform="translate(-5.2 -77.11)"/><path class="cls-8" d="M301.27,147.49c0,2.48-2.5,4.49-5.58,4.49s-5.56-2-5.56-4.49,2.49-4.49,5.56-4.49S301.27,145,301.27,147.49Z" transform="translate(-5.2 -77.11)"/><path class="cls-11" d="M296.78,148.55c-.36,0-.72,0-1.09,0s-.72,0-1.08,0c-24.37.21-46.18,7.83-61.86,27.25,0,0,21.53,1.55,62.94,1.55s63-1.55,63-1.55C343,156.38,321.15,148.76,296.78,148.55Z" transform="translate(-5.2 -77.11)"/><path class="cls-6" d="M318.09,177s-2.07-11.28-22.4-11.28S273.3,177,273.3,177" transform="translate(-5.2 -77.11)"/><path class="cls-12" d="M296.78,148.55c-.36,0-.72,0-1.09,0s-.72,0-1.08,0c-24.37.21-46.18,7.83-61.86,27.25,0,0,21.53,1.55,62.94,1.55s63-1.55,63-1.55C343,156.38,321.15,148.76,296.78,148.55Z" transform="translate(-5.2 -77.11)"/><path class="cls-13" d="M282.37,174.36c1.16,3.46,4.4,7.4,11.94,7.55,7.83.16,7.52-3.63,7.52-3.63a14.14,14.14,0,0,0,10.9,3.48c6.83-.64,6.26-5.28,2.67-7.47" transform="translate(-5.2 -77.11)"/><path class="cls-12" d="M282.37,174.36c1.16,3.46,4.4,7.4,11.94,7.55,7.83.16,7.52-3.63,7.52-3.63a14.14,14.14,0,0,0,10.9,3.48c6.83-.64,6.26-5.28,2.67-7.47" transform="translate(-5.2 -77.11)"/><path class="cls-6" d="M301.94,178.61a10.52,10.52,0,0,1-1.6-2.81" transform="translate(-5.2 -77.11)"/><path class="cls-14" d="M281.29,213.38c0,3.12-2.12,5.66-4.73,5.66s-4.73-2.54-4.73-5.66,2.12-5.65,4.73-5.65S281.29,210.26,281.29,213.38Z" transform="translate(-5.2 -77.11)"/><path class="cls-14" d="M310.1,213.38c0,3.12,2.12,5.66,4.73,5.66s4.73-2.54,4.73-5.66-2.11-5.65-4.73-5.65S310.1,210.26,310.1,213.38Z" transform="translate(-5.2 -77.11)"/><path class="cls-10" d="M309,220.77c0,6.07-6,11-13.34,11s-13.32-4.92-13.32-11,6-11,13.32-11S309,214.7,309,220.77Z" transform="translate(-5.2 -77.11)"/><path class="cls-12" d="M293.38,225.09s5.64,1.14,8-1.91" transform="translate(-5.2 -77.11)"/><path class="cls-14" d="M299.16,217.31c0,2-2.08,3.61-4.65,3.61s-4.66-1.62-4.66-3.61,2.08-3.61,4.66-3.61S299.16,215.32,299.16,217.31Z" transform="translate(-5.2 -77.11)"/><line class="cls-12" x1="278.76" y1="123.08" x2="280.1" y2="124.22"/><line class="cls-12" x1="302.24" y1="123.08" x2="300.9" y2="124.22"/><path class="cls-15" d="M285.24,231.6l6.29-3.09-3.16,46.92a47,47,0,0,1-39.19-26.14l8.91-4.39Z" transform="translate(-5.2 -77.11)"/><path class="cls-16" d="M287.72,285.25l.67-9.91a47.1,47.1,0,0,1-39.16-26.13l-8.82,4.29a56.7,56.7,0,0,0,47.31,31.75Z" transform="translate(-5.2 -77.11)"/><path class="cls-17" d="M282.57,249.63a5.93,5.93,0,0,0,1.62,8.25,5.85,5.85,0,0,0,3.07,1l.8-11.82A5.89,5.89,0,0,0,282.57,249.63Z" transform="translate(-5.2 -77.11)"/><path class="cls-17" d="M271.39,249.75a4.91,4.91,0,1,1,6.82-1.34,4.94,4.94,0,0,1-6.82,1.34Z" transform="translate(-5.2 -77.11)"/><path class="cls-17" d="M260.56,260.58a4.91,4.91,0,1,1,3.7.74A4.92,4.92,0,0,1,260.56,260.58Z" transform="translate(-5.2 -77.11)"/><path class="cls-18" d="M278.81,265.17l-2.28-11.61a5.92,5.92,0,1,0,2.28,11.61Z" transform="translate(-5.2 -77.11)"/><path class="cls-6" d="M249.18,288s-8.91-3.85-7.6-19.61,8.84-23,19.6-19.37c11.45,3.84,8.61,11.6,8.61,11.6S265.79,289.79,249.18,288Z" transform="translate(-5.2 -77.11)"/></svg>