<?xml version="1.0" encoding="utf-8"?>
<!-- Generator: Adobe Illustrator 25.1.0, SVG Export Plug-In . SVG Version: 6.00 Build 0)  -->
<svg version="1.1" id="레이어_1" xmlns="http://www.w3.org/2000/svg" xmlns:xlink="http://www.w3.org/1999/xlink" x="0px"
	 y="0px" viewBox="0 0 356.3 369.5" style="enable-background:new 0 0 356.3 369.5;" xml:space="preserve">
<style type="text/css">
	.st0{fill:#DDAD6D;}
	.st1{fill:#F6D9AC;}
	.st2{fill:#FDF1E6;}
	.st3{fill:#3C3D3D;}
	.st4{fill:#EB7C66;stroke:#0A0305;stroke-width:5;stroke-linecap:round;stroke-linejoin:round;}
	.st5{fill:#FFFFFF;}
	.st6{fill:none;stroke:#91BD28;stroke-width:5;stroke-linecap:round;stroke-linejoin:round;}
	.st7{fill:#ACDAF1;stroke:#0A0305;stroke-width:5;stroke-linecap:round;stroke-linejoin:round;}
	.st8{fill:none;stroke:#0A0305;stroke-width:5;stroke-linecap:round;stroke-linejoin:round;}
	.st9{fill:#7D473F;stroke:#0A0305;stroke-width:5;stroke-linecap:round;stroke-linejoin:round;}
	.st10{fill:none;stroke:#6A3732;stroke-width:5;stroke-linecap:round;stroke-linejoin:round;}
	.st11{fill:#EB6953;stroke:#0A0305;stroke-width:5;stroke-linecap:round;stroke-linejoin:round;}
	.st12{fill:#91BD28;stroke:#0A0305;stroke-width:5;stroke-linecap:round;stroke-linejoin:round;}
	.st13{fill:#BB402A;}
	.st14{fill:#ED7300;stroke:#0A0305;stroke-width:5;stroke-linecap:round;stroke-linejoin:round;}
	.st15{fill:#0A0305;}
	.st16{fill:#A8D0E3;}
	.st17{fill:#6AB3CE;}
	.st18{fill:#FFDEFD;}
	.st19{fill:#090304;}
	.st20{fill:#FCBD00;}
	.st21{fill:#3384B6;}
	.st22{fill:#045F82;}
	.st23{fill:#7F6967;}
	.st24{fill:#F4B400;}
	.st25{fill:#F7DEB5;}
	.st26{fill:#E2C08F;}
	.st27{fill:#FFF4E9;}
	.st28{fill:#D3BFAE;}
	.st29{fill:#C98B56;}
	.st30{fill:#C48445;}
	.st31{fill:#C48445;stroke:#090304;stroke-width:4;stroke-linecap:round;stroke-linejoin:round;stroke-miterlimit:10;}
	.st32{fill:#FC782F;}
	.st33{fill:#00B053;}
	.st34{opacity:0.7;}
	.st35{fill:#E0A77F;}
	.st36{fill:#FFEFDF;}
	.st37{fill:#00CE7C;}
	.st38{fill:#CD8F6A;}
	.st39{fill:#FFFFFF;stroke:#090304;stroke-width:3;stroke-linecap:round;stroke-linejoin:round;stroke-miterlimit:10;}
	.st40{fill:#FCBD00;stroke:#090304;stroke-width:3;stroke-linecap:round;stroke-linejoin:round;stroke-miterlimit:10;}
	.st41{fill:#3384B6;stroke:#090304;stroke-width:3;stroke-linecap:round;stroke-linejoin:round;stroke-miterlimit:10;}
	.st42{fill:#045F82;stroke:#090304;stroke-width:3;stroke-linecap:round;stroke-linejoin:round;stroke-miterlimit:10;}
	.st43{fill:#7F6967;stroke:#7F6967;stroke-width:3;stroke-linecap:round;stroke-linejoin:round;stroke-miterlimit:10;}
	.st44{fill:none;stroke:#090304;stroke-width:3;stroke-linecap:round;stroke-linejoin:round;stroke-miterlimit:10;}
	.st45{fill:#F4B400;stroke:#090304;stroke-width:3;stroke-linecap:round;stroke-linejoin:round;stroke-miterlimit:10;}
	.st46{fill:#FFFFFF;stroke:#000000;stroke-width:7;stroke-miterlimit:10;}
</style>
<path class="st0" d="M-1019.2,137.6h-24.9v26c0,0.5,0.4,0.9,0.9,0.9c0.3,0,0.6-0.2,0.8-0.4c2.8-4.6,9.4-12.5,22.9-12.6
	c13.6,0.1,21,8,23.8,12.6c0.2,0.4,0.8,0.6,1.2,0.3c0.3-0.2,0.5-0.5,0.4-0.8v-26H-1019.2z"/>
<path class="st1" d="M-1046.2,90.3h-35.7c-7.4,60-4.7,145.1-4.7,145.1h45C-1041.6,235.4-1038.8,150.3-1046.2,90.3z"/>
<path class="st2" d="M-1055.9,46.6h-15.4c-2.6,0-4.9,1.9-5.4,4.5l-7.1,34.7c-0.4,2.1,0.9,4.1,3,4.5c0.2,0,0.5,0.1,0.8,0.1h32.1
	c2.1,0,3.9-1.7,3.9-3.9c0-0.2,0-0.5-0.1-0.7l-6.3-34.6C-1050.9,48.5-1053.2,46.6-1055.9,46.6z"/>
<circle class="st1" cx="-1064" cy="14.8" r="10.7"/>
<path class="st1" d="M-1109.8,143.4h-35.7c-7.4,60-4.7,145.1-4.7,145.1h45C-1105.1,288.5-1102.3,203.4-1109.8,143.4z"/>
<path class="st2" d="M-1119.4,99.7h-15.5c-2.6,0-4.9,1.9-5.4,4.4l-7.1,34.7c-0.4,2.1,0.9,4.1,3,4.6c0.3,0.1,0.5,0.1,0.8,0.1h32.1
	c2.1,0,3.9-1.7,3.9-3.9c0-0.2,0-0.5-0.1-0.7l-6.3-34.6C-1114.5,101.7-1116.8,99.8-1119.4,99.7z"/>
<circle class="st1" cx="-1127.6" cy="67.9" r="10.7"/>
<path class="st1" d="M-992,90.3h35.7c7.4,60,4.7,145.1,4.7,145.1h-45C-996.7,235.4-999.4,150.3-992,90.3z"/>
<path class="st2" d="M-982.3,46.6h15.4c2.6,0,4.9,1.9,5.5,4.5l7,34.7c0.4,2.1-0.9,4.1-3,4.5c-0.3,0.1-0.5,0.1-0.8,0.1h-32.1
	c-2.1,0-3.9-1.7-3.9-3.8c0-0.2,0-0.5,0.1-0.7l6.3-34.6C-987.3,48.5-985,46.6-982.3,46.6z"/>
<circle class="st1" cx="-974.2" cy="14.8" r="10.7"/>
<path class="st1" d="M-928.4,143.4h35.7c7.4,60,4.7,145.1,4.7,145.1h-45C-933.1,288.5-935.9,203.4-928.4,143.4z"/>
<path class="st2" d="M-918.8,99.7h15.4c2.6,0,4.9,1.9,5.5,4.4l7.1,34.7c0.4,2.1-0.9,4.1-3,4.6c-0.3,0.1-0.5,0.1-0.8,0.1h-32.1
	c-2.1,0-3.9-1.7-3.9-3.8c0-0.2,0-0.5,0.1-0.7l6.3-34.6C-923.7,101.6-921.4,99.7-918.8,99.7z"/>
<circle class="st1" cx="-910.7" cy="67.9" r="10.7"/>
<path class="st1" d="M-1019.2,186.1h-0.3c-39.4,21-76.8,45.6-111.7,73.5l-24.8,93.4h275.8l-24.7-88
	C-928.9,245-964.6,215.4-1019.2,186.1z"/>
<path class="st0" d="M-904.8,265c-24.1-20-59.8-49.6-114.4-78.9h-0.3c-39.4,21-76.8,45.6-111.7,73.5l-23.1,87
	c55.7-61.9,103.7-93.2,124.3-105c6.7-3.8,14.9-3.8,21.6,0c21,12,70.4,44.3,127.4,108.5L-904.8,265z"/>
<path class="st2" d="M-853.2,362.4c-6.9-6.9-29.8-31.4-37.4-59.9c-1.6-6.1,2.3-12,8.9-14.7c1.7-0.7,2.5-2.6,1.8-4.3
	c-0.2-0.5-0.5-0.9-0.9-1.2c-16.2-14.4-73.1-63.1-138.3-96.4c-65.2,33.3-122.1,82-138.3,96.4c-1.4,1.2-1.5,3.3-0.3,4.6
	c0.3,0.4,0.7,0.7,1.2,0.9c6.7,2.7,10.6,8.6,8.9,14.7c-7.6,28.5-30.5,53-37.4,59.9c-0.8,0.8-0.1,1.9,1.2,1.9h29.5
	c0.6,0,1.2-0.3,1.5-0.9c24.8-66,52.3-97.3,66-108c2.9-2.3,7.8-0.4,7.5,2.8c-6.5,60.1-29,96.3-34.5,104.4c-0.5,0.8,0.2,1.7,1.4,1.7
	h31.5c0.7,0.1,1.4-0.4,1.5-1.1c5.6-42.3,11.5-70.9,16.5-90c5.5-21.1,19.3-40.2,39.4-54.9l0,0c2.6-1.5,5.8-1.5,8.5-0.1l0.2,0.1
	c20.1,14.7,33.9,33.8,39.4,54.9c5,19.1,10.9,47.7,16.5,90c0.2,0.7,0.8,1.1,1.5,1.1h31.5c1.2,0,1.9-0.9,1.4-1.7
	c-5.5-8.1-27.9-44.3-34.5-104.4c-0.3-3.2,4.6-5.1,7.5-2.8c13.7,10.7,41.2,42,66,108c0.3,0.6,0.8,0.9,1.5,0.9h29.5
	C-853.2,364.4-852.4,363.2-853.2,362.4z"/>
<path class="st0" d="M-993.5,103.8h38.6c-0.4-4.6-0.9-9.1-1.5-13.5H-992C-992.6,94.7-993.1,99.2-993.5,103.8z"/>
<path class="st0" d="M-1083.4,103.8h38.6c-0.4-4.6-0.9-9.1-1.5-13.5h-35.7C-1082.4,94.7-1082.9,99.2-1083.4,103.8z"/>
<path class="st0" d="M-1146.9,156.9h38.6c-0.4-4.6-0.9-9.1-1.5-13.4h-35.7C-1146,147.8-1146.5,152.3-1146.9,156.9z"/>
<path class="st0" d="M-929.9,156.9h38.6c-0.4-4.6-0.9-9.1-1.5-13.4h-35.7C-929,147.8-929.5,152.3-929.9,156.9z"/>
<polygon class="st3" points="-903.7,284.4 -903.6,284.4 -903.7,284.1 "/>
<path class="st3" d="M-1187.9,359.5c-1.5,1.5-1.9,3.6-1.2,5.6c0.9,2.1,3,3.4,5.2,3.4h29.5c2.3,0,4.4-1.4,5.3-3.5c1-2.7,2-5.3,3-7.8
	h30.9c-0.9,1.4-1.6,2.5-2.1,3.2c-1.1,1.5-1.2,3.5-0.3,5.2c1,1.8,2.9,2.9,5,2.9h31.5c2.8,0.1,5.1-1.9,5.6-4.6
	c0.3-2.3,0.6-4.5,0.9-6.7h110.8c0.3,2.2,0.6,4.4,0.9,6.7c0.4,2.7,2.8,4.7,5.6,4.6h31.5c2.1,0,4-1.1,5-2.9c0.9-1.7,0.8-3.7-0.3-5.2
	c-0.5-0.7-1.2-1.8-2.1-3.2h30.9c1,2.6,2,5.1,3,7.8c0.9,2.2,3,3.6,5.3,3.5h29.6c2.3,0,4.3-1.3,5.2-3.4c0.8-1.9,0.3-4.1-1.1-5.6
	c-6.7-6.7-29.1-30.5-36.4-58c-1-3.9,1.6-7.9,6.5-9.9c2.4-0.9,4-3,4.5-5.5c0.5-2.5-0.4-5.1-2.4-6.8c-1.5-1.3-3.4-3-5.6-4.9
	c0.4-26.5,0.6-85-4.8-129.7c0,0,0,0,0,0c1.5-1.8,2.1-4.3,1.6-6.6l-7.1-34.7c-0.9-4.5-4.9-7.7-9.5-7.7h-3.2V82
	c7.8-2.3,12.4-10.4,10.1-18.3c-2.3-7.8-10.4-12.4-18.3-10.1s-12.4,10.4-10.1,18.3c1.4,4.9,5.2,8.7,10.1,10.1v13.7h-4
	c-4.7,0-8.7,3.3-9.5,7.9l-6.3,34.6c-0.4,2.3,0.2,4.7,1.7,6.5c0,0,0.1,0.1,0.1,0.1c-3.3,27.4-4.5,59.9-4.8,87.1
	c-3.2-2.3-6.4-4.6-9.8-6.9c0.5-24.5,0.9-86.4-4.7-133.3c0,0,0,0,0,0c1.5-1.9,2.1-4.3,1.6-6.7l-7-34.7c-0.9-4.5-4.9-7.7-9.5-7.7h-3.2
	V28.9c7.8-2.3,12.4-10.4,10.1-18.3c-2.3-7.8-10.4-12.4-18.3-10.1s-12.4,10.4-10.1,18.3c1.4,4.9,5.2,8.7,10.1,10.1v13.7h-4
	c-4.7,0-8.7,3.3-9.5,7.9l-6.3,34.6c-0.4,2.3,0.2,4.7,1.7,6.5c0,0,0.1,0.1,0.1,0.1c-1.6,13.2-2.7,27.5-3.4,41.9h-38.8
	c-0.8-14.4-1.8-28.7-3.4-41.9c0,0,0.1-0.1,0.1-0.1c1.5-1.8,2.1-4.2,1.7-6.5l-6.3-34.6c-0.8-4.6-4.8-7.9-9.5-7.9h-4V28.9
	c7.8-2.3,12.3-10.4,10.1-18.3s-10.4-12.3-18.3-10.1c-7.8,2.3-12.3,10.4-10.1,18.3c1.4,4.9,5.2,8.7,10.1,10.1v13.7h-3.2
	c-4.6,0-8.5,3.2-9.4,7.7l-7.1,34.6c-0.5,2.3,0.1,4.8,1.6,6.6c0,0,0,0,0,0c-5.6,46.8-5.2,108.6-4.7,133.2c-3.4,2.3-6.6,4.6-9.8,6.8
	c-0.4-27.1-1.6-59.5-4.8-86.8l0.1-0.1c1.5-1.8,2.1-4.2,1.7-6.5l-6.3-34.6c-0.8-4.5-4.8-7.9-9.4-7.9h-4V82
	c7.8-2.3,12.4-10.4,10.1-18.3c-2.3-7.8-10.4-12.4-18.3-10.1c-7.8,2.3-12.4,10.4-10.1,18.3c1.4,4.9,5.2,8.7,10.1,10.1v13.7h-3.3
	c-4.6,0-8.5,3.2-9.4,7.7l-7.1,34.6c-0.5,2.3,0.1,4.8,1.6,6.6l0.1,0.1c-5.4,44.8-5.2,103.2-4.8,129.7c-2.2,1.9-4.1,3.6-5.6,4.9
	c-1.9,1.7-2.8,4.3-2.4,6.8c0.4,2.5,2.1,4.6,4.5,5.5c4.9,2,7.5,6,6.5,9.9C-1158.8,329-1181.2,352.9-1187.9,359.5z M-917.3,67.9
	c0-3.6,2.9-6.6,6.6-6.6c3.6,0,6.6,2.9,6.6,6.6c0,3.6-2.9,6.6-6.6,6.6c0,0,0,0,0,0C-914.3,74.4-917.3,71.5-917.3,67.9z M-980.8,14.8
	c0-3.6,3-6.6,6.6-6.6c3.6,0,6.6,3,6.6,6.6s-3,6.6-6.6,6.6l0,0C-977.9,21.3-980.8,18.4-980.8,14.8z M-1070.6,14.8
	c0-3.6,3-6.6,6.6-6.6c3.6,0,6.6,3,6.6,6.6s-3,6.6-6.6,6.6l0,0C-1067.6,21.3-1070.6,18.4-1070.6,14.8z M-1134.2,67.9
	c0-3.6,2.9-6.6,6.6-6.6s6.6,2.9,6.6,6.6c0,3.6-2.9,6.6-6.6,6.6c0,0,0,0,0,0C-1131.2,74.4-1134.1,71.5-1134.2,67.9z M-1142.6,348.9
	c9.6-23,19.7-41.7,29.4-56.3c3.9-5.9,8.1-11.7,12.5-17.2c4.9-6.1,10.4-11.7,16.4-16.7c0.2-0.2,0.5-0.2,0.8-0.1
	c-4.9,43.6-18.3,74.4-26.9,90.3H-1142.6z M-980.2,348.9v-14.7c0-19.8-16-35.8-35.8-35.8h-6.4c-19.8,0-35.8,16-35.8,35.8v14.7h-15.1
	c4.3-29.7,9.1-54.8,14.3-74.6c3.5-12.8,9.8-24.7,18.5-34.8c0.9-1.1,1.9-2.1,2.9-3.2c4.9-5.3,10.4-10.2,16.2-14.5
	c1.4-0.7,3-0.7,4.4,0c5.8,4.3,11.3,9.2,16.2,14.5c1,1.1,2,2.1,2.9,3.2c8.7,10.1,15.1,22,18.5,34.8c5.2,19.9,10,45,14.4,74.6
	L-980.2,348.9z M-927.8,348.9c-8.6-16-22-46.8-26.9-90.3c0.3-0.1,0.6,0,0.8,0.1c6,5,11.5,10.6,16.4,16.7c4.5,5.5,8.6,11.2,12.5,17.2
	c9.6,14.6,19.8,33.4,29.4,56.3H-927.8z M-860.9,360.3h-21.3c-0.4-1.1-0.8-2.1-1.2-3.2c-1.1-2.8-2.2-5.5-3.2-8.2
	c-9.7-23.8-19.5-42.2-28.5-56.3c-1.8-2.9-3.6-5.6-5.4-8.2l-1.2-1.7c-2.7-3.8-5.2-7.2-7.6-10.2c-3-3.8-5.8-7-8.3-9.6
	c-3.5-3.8-7.2-7.3-11.2-10.5c-2.9-2.2-6.9-2.5-10.2-0.7c-2.6,1.4-4.2,4.2-3.9,7.1c4.6,42,16.7,72.4,25.8,90.2
	c1.6,3.1,3.1,5.8,4.4,8.2c0.7,1.1,1.3,2.2,1.9,3.2h-24.3c-0.1-1.1-0.3-2.1-0.4-3.2c-0.4-2.8-0.8-5.5-1.2-8.2
	c-4.4-30.5-9.3-56.3-14.7-76.7c-3.2-11.8-8.6-22.9-16-32.7c-4.1-5.4-8.6-10.5-13.6-15.1c-3.6-3.3-7.4-6.4-11.3-9.3l-0.7-0.4
	c-3.9-2.1-8.5-2-12.4,0.1l-0.5,0.3c-4,2.9-7.8,6-11.3,9.3c-5,4.6-9.5,9.7-13.6,15.1c-7.4,9.8-12.8,20.9-16,32.7
	c-5.4,20.5-10.3,46.2-14.7,76.7c-0.4,2.7-0.8,5.4-1.1,8.2c-0.2,1.1-0.3,2.1-0.5,3.2h-24.3c0.6-1,1.2-2,1.9-3.2
	c1.4-2.3,2.9-5.1,4.4-8.2c9.1-17.8,21.3-48.2,25.8-90.2c0.3-3-1.3-5.8-3.9-7.1c-3.2-1.8-7.2-1.5-10.2,0.7c-4,3.2-7.8,6.7-11.2,10.5
	c-2.5,2.7-5.3,5.9-8.3,9.6c-2.4,3-5,6.5-7.6,10.2c-0.4,0.6-0.8,1.1-1.2,1.7c-1.8,2.5-3.6,5.3-5.4,8.2c-10,16.1-18.7,32.9-25.9,50.3
	c-1.9,4.5-3.8,9.2-5.8,14.2l-1.2,3.2h-21.3c9.3-10.1,17.3-21.2,24-33.1c4.2-7.4,7.4-15.4,9.7-23.6c0.9-3.3,0.6-6.7-0.8-9.8
	c-0.2-0.4-0.3-0.8-0.5-1.2c-2-3.5-5.1-6.3-8.8-8c2-1.8,4.5-4,7.5-6.5c2.3-2,4.8-4.1,7.6-6.5v0.2l0.1-0.3l4-3.3
	c1.3-1.1,2.7-2.2,4.1-3.3l2.7-2.2c1-0.8,2-1.6,3.1-2.5l4.1-3.3l4.1-3.2c2.5-1.9,5.1-3.9,7.8-6c2.6-2,5.4-4,8.1-6.1v-0.4
	c3.2-2.3,6.5-4.6,9.9-7c2.6-1.8,5.3-3.6,8-5.5c2.2-1.5,4.5-3,6.8-4.6l0.7-0.5l0,0c1.3-0.9,2.7-1.8,4.1-2.7l4.1-2.7
	c1.9-1.2,3.9-2.5,5.8-3.7c1.3-0.9,2.7-1.7,4.1-2.6l4.1-2.5c2.6-1.6,5.2-3.1,7.8-4.7s5.4-3.2,8.2-4.8c5.9-3.3,11.8-6.6,17.9-9.7
	c6,3.1,12,6.4,17.9,9.7c2.8,1.6,5.5,3.2,8.2,4.8c2.6,1.6,5.2,3.1,7.8,4.7l4.1,2.5c1.4,0.8,2.7,1.7,4.1,2.6c2,1.2,3.9,2.5,5.8,3.7
	l4.1,2.7l4.1,2.7c2.6,1.7,5.1,3.4,7.6,5.1c2.7,1.9,5.4,3.8,8,5.6c3.4,2.4,6.7,4.8,9.9,7.1c2.8,2,5.5,4.1,8.1,6.1s5.3,4,7.8,6
	l4.1,3.2l4.1,3.2c2,1.6,3.9,3.2,5.8,4.7c1.4,1.1,2.8,2.2,4.1,3.3s2.8,2.3,4.1,3.4l1.2,1c2.4,2,4.5,3.8,6.5,5.5
	c3,2.5,5.5,4.8,7.5,6.5c-3.5,1.6-6.5,4.2-8.5,7.5c-0.1,0.2-0.2,0.3-0.3,0.5c-1.9,3.4-2.3,7.3-1.4,11c3,10.5,7.5,20.5,13.3,29.8
	C-875.5,342.9-868.6,352-860.9,360.3L-860.9,360.3z M-1037.4,163.9c2.9-3.8,8.4-8.3,17.8-8.4c10.2,0,16,5.1,18.8,8.4
	c-0.2,9.5-0.3,18.6-0.4,27c-5.3-2.9-10.6-5.8-16-8.6l-1.8-0.9l-1.3,0.6h-0.1l-0.9,0.5l-1.6,0.9c-4.7,2.4-9.3,4.9-13.9,7.5
	C-1037,182.5-1037.1,173.4-1037.4,163.9z M-920.2,105c0.1-0.7,0.7-1.2,1.5-1.2h15.4c0.7,0,1.3,0.5,1.4,1.2l7,34.4h-31.5L-920.2,105z
	 M-924.8,147.5h28.4c4.7,40.6,4.9,91.8,4.6,120c-2.4-2-5-4.2-7.8-6.5v-33.6c0.2-6.1-4.6-11.2-10.7-11.4c-6.1-0.2-11.2,4.6-11.4,10.7
	c0,0.2,0,0.4,0,0.7v16.1c-2.5-1.9-5.1-3.8-7.7-5.8C-929.2,210.3-928.2,176.2-924.8,147.5L-924.8,147.5z M-983.8,51.9
	c0.1-0.7,0.7-1.2,1.4-1.2h15.4c0.7,0,1.3,0.5,1.5,1.2l7,34.4H-990L-983.8,51.9z M-988.4,94.4h28.5c5,43,4.9,98.2,4.5,124.9
	c-2.5-1.7-5.1-3.5-7.7-5.2v-39.8c0.2-6.1-4.6-11.2-10.7-11.4c-6.1-0.2-11.2,4.6-11.4,10.7c0,0.2,0,0.4,0,0.7v25.8
	c-2.6-1.6-5.2-3.1-7.8-4.6c0-8.4,0.1-17.8,0.3-27.6c0.2-11.1,0.6-22.8,1.2-34.4C-990.8,120.2-989.8,106.8-988.4,94.4z
	 M-1000.1,141.7c-0.2,3.8-0.3,7.6-0.4,11.4c-5.6-3.9-12.3-5.9-19.1-5.9c-6.5-0.1-12.8,1.9-18.1,5.6c-0.1-3.7-0.3-7.4-0.4-11.2
	H-1000.1z M-1072.8,51.9c0.1-0.7,0.7-1.2,1.4-1.2h15.4c0.7,0,1.4,0.5,1.5,1.2l6.3,34.3h-31.6L-1072.8,51.9z M-1078.3,94.4h28.5
	c1.4,12.4,2.4,25.7,3.1,39.1c0.6,11.6,1,23.3,1.2,34.4c0.2,9.8,0.3,19.1,0.3,27.6c-2.6,1.5-5.2,3.1-7.8,4.6v-25.8
	c0.2-6.1-4.6-11.2-10.7-11.4c-6.1-0.2-11.2,4.6-11.4,10.7c0,0.2,0,0.4,0,0.7v39.8c-1.7,1.1-3.4,2.3-5.1,3.4l-2.6,1.8
	C-1083.2,192.6-1083.2,137.4-1078.3,94.4z M-1136.3,105c0.1-0.7,0.7-1.2,1.4-1.2h15.5c0.7,0,1.3,0.5,1.4,1.2l6.2,34.3h-31.6
	L-1136.3,105z M-1141.8,147.5h28.4c3.3,28.6,4.4,62.4,4.6,89.8c-2.7,2-5.2,3.9-7.7,5.7v-15.6c0.2-6.1-4.6-11.2-10.7-11.4
	c-6.1-0.2-11.2,4.6-11.4,10.7c0,0.2,0,0.4,0,0.7V261c-2.8,2.3-5.4,4.5-7.8,6.5C-1146.8,239.4-1146.5,188.1-1141.8,147.5
	L-1141.8,147.5z"/>
<rect x="-1074.7" y="119.7" class="st3" width="7.4" height="7.4"/>
<rect x="-1060.7" y="119.7" class="st3" width="7.4" height="7.4"/>
<rect x="-1074.7" y="132.8" class="st3" width="7.4" height="7.4"/>
<rect x="-1060.7" y="132.8" class="st3" width="7.4" height="7.4"/>
<rect x="-1138.2" y="172.8" class="st3" width="7.4" height="7.4"/>
<rect x="-1124.3" y="172.8" class="st3" width="7.4" height="7.4"/>
<rect x="-1138.2" y="185.9" class="st3" width="7.4" height="7.4"/>
<rect x="-1124.3" y="185.9" class="st3" width="7.4" height="7.4"/>
<rect x="-970.9" y="119.7" class="st3" width="7.4" height="7.4"/>
<rect x="-984.9" y="119.7" class="st3" width="7.4" height="7.4"/>
<rect x="-970.9" y="132.8" class="st3" width="7.4" height="7.4"/>
<rect x="-984.9" y="132.8" class="st3" width="7.4" height="7.4"/>
<rect x="-907.4" y="172.8" class="st3" width="7.4" height="7.4"/>
<rect x="-921.3" y="172.8" class="st3" width="7.4" height="7.4"/>
<rect x="-907.4" y="185.9" class="st3" width="7.4" height="7.4"/>
<rect x="-921.3" y="185.9" class="st3" width="7.4" height="7.4"/>
<path class="st3" d="M-1009.8,260.1l4.4-1.8l-3.1-7.5l-4.4,1.8c-4.2,1.7-8.8,1.6-12.9-0.2l-3.4-1.6l-3.4,7.4l3.4,1.6
	c2,0.9,4,1.5,6.2,1.8v12.2h-8.4v8.2h25.1v-8.2h-8.5v-12.3C-1013.1,261.3-1011.4,260.8-1009.8,260.1z"/>
<path class="st4" d="M-957.6,333.5c0,0,0,6-0.7,19.9c-0.6,13-5.2,13.7-8.1,13.7h-14.7c-2.4,0-11.7-0.2-11.7-9.4c0-9,8.7-9.2,8.7-9.2
	l2.8-17.3"/>
<path class="st5" d="M-983.2,343l-0.9,5.5c0,0-8.7,0.2-8.7,9.2c0,9.1,9.3,9.4,11.7,9.4h14.7c2.9,0,7.5-0.6,8.1-13.7
	c0.1-3,0.3-5.6,0.3-7.9C-966.5,345.5-974.9,344.7-983.2,343z"/>
<path class="st6" d="M-983.2,347.5c0,0,5.4,3.4,25.1,3.1"/>
<path class="st7" d="M-984.1,348.5c1.2,0,2.4,0.2,3.5,0.5"/>
<path class="st8" d="M-957.6,333.5c0,0,0,6-0.7,19.9c-0.6,13-5.2,13.7-8.1,13.7h-14.7c-2.4,0-11.7-0.2-11.7-9.4c0-9,8.7-9.2,8.7-9.2
	l2.8-17.3"/>
<path class="st8" d="M-982.8,342.6c0,0,9.1,2.9,24.8,2.9"/>
<path class="st4" d="M-937.2,333.5c0,0,0,6,0.7,19.9c0.6,13,5.2,13.7,8.1,13.7h14.7c2.4,0,11.7-0.2,11.7-9.4c0-9-8.7-9.2-8.7-9.2
	l-2.8-17.3"/>
<path class="st5" d="M-911.7,343l0.9,5.5c0,0,8.7,0.2,8.7,9.2c0,9.1-9.3,9.4-11.7,9.4h-14.7c-2.9,0-7.5-0.6-8.1-13.7
	c-0.2-3-0.3-5.6-0.4-7.9C-928.5,345.5-920,344.7-911.7,343z"/>
<path class="st6" d="M-911.7,347.5c0,0-5.4,3.4-25,3.1"/>
<path class="st7" d="M-910.8,348.5c-1.2,0-2.4,0.2-3.5,0.5"/>
<path class="st8" d="M-937.2,333.5c0,0,0,6,0.7,19.9c0.6,13,5.2,13.7,8.1,13.7h14.7c2.4,0,11.7-0.2,11.7-9.4c0-9-8.7-9.2-8.7-9.2
	l-2.8-17.3"/>
<path class="st8" d="M-912.1,342.6c0,0-9.1,2.9-24.8,2.9"/>
<path class="st9" d="M-913.4,275.3c0,0,6.9,20.5,6.8,56c0,0-15.4,6.8-40.8,6.8s-40.8-6.8-40.8-6.8c-0.1-35.5,6.8-56,6.8-56"/>
<path class="st9" d="M-983.7,283.8c1.9-3.4-5.9-8.6-5.9-8.6s-20.5-2.5-33.2,10.3c-12.7,12.8,2.5,25.5,2.5,25.5
	S-1004.7,321-983.7,283.8z"/>
<line class="st10" x1="-979.1" y1="300.2" x2="-979.4" y2="302.6"/>
<path class="st9" d="M-916.1,290.1"/>
<line class="st10" x1="-892.6" y1="273.4" x2="-890.5" y2="272.2"/>
<path class="st9" d="M-871.6,259.6c-7.5-0.2-16.8,4.8-16.8,4.8l-24.5,14.2c2,3.4,3.7,9.8,3.7,9.8s19.3,7.4,34.7-2
	c15.4-9.4,3.7-25.4,3.7-25.4"/>
<path class="st11" d="M-961.1,282.5c-0.6,5.3-0.6,10.6,0,15.8"/>
<path class="st12" d="M-957.6,298.3c0,1.9-1.6,3.5-3.5,3.5c-1.9,0-3.5-1.6-3.5-3.5c0-1.9,1.6-3.5,3.5-3.5c0,0,0,0,0,0
	C-959.2,294.8-957.6,296.3-957.6,298.3z"/>
<path class="st11" d="M-933.8,282.5c0.6,5.3,0.6,10.6,0,15.8"/>
<path class="st12" d="M-937.3,298.3c0,1.9,1.6,3.5,3.5,3.5c1.9,0,3.5-1.6,3.5-3.5c0-1.9-1.6-3.5-3.5-3.5c0,0,0,0,0,0
	C-935.8,294.8-937.3,296.3-937.3,298.3z"/>
<path class="st4" d="M-1019.5,198.2c0,0,21.9-63.5,35.2-65.1c13.2-1.6,32.5,37.7,32.5,37.7"/>
<path class="st5" d="M-1006.5,192.3c0,0,15-43.3,24-44.4s22.1,25.7,22.1,25.7"/>
<path class="st4" d="M-875.3,198.2c0,0-22-63.5-35.2-65.1s-32.5,37.7-32.5,37.7"/>
<path class="st5" d="M-888.3,192.3c0,0-15-43.3-24-44.4s-22.1,25.7-22.1,25.7"/>
<path class="st9" d="M-947.4,282.5c76.1,0,86.7-53.2,86.7-53.2c-2-0.2-7.6-75.4-86.7-75.4s-84.7,75.1-86.7,75.4
	C-1034.1,229.3-1023.5,282.5-947.4,282.5z"/>
<path class="st4" d="M-947.4,282.5c56.5,0,68-35.3,69.1-44.3c1.9-14.8-20.8-54.8-69.1-54.8c-48.3,0-71,40-69.1,54.8
	C-1015.4,247.1-1003.9,282.5-947.4,282.5z"/>
<path class="st13" d="M-940.8,235.2c0,0-0.1,7.7-6.6,7.7s-6.6-7.7-6.6-7.7l6.6-2L-940.8,235.2z"/>
<path class="st8" d="M-940.8,235.2c0,0-0.1,7.7-6.6,7.7s-6.6-7.7-6.6-7.7"/>
<path class="st14" d="M-947.4,229.6c1.9-0.9,1.1-1.4,0-1.4C-948.5,228.3-949.4,228.8-947.4,229.6z"/>
<line class="st8" x1="-947.4" y1="229.7" x2="-947.4" y2="232.3"/>
<path class="st8" d="M-960.7,233.4c0,0,1,5.2,13.3-0.6"/>
<path class="st8" d="M-934.2,233.4c0,0-1,5.2-13.3-0.6"/>
<path class="st14" d="M-920.7,217.9c0,0-6.9,1.6-26.8,1.6c-19.9,0-26.8-1.6-26.8-1.6"/>
<path class="st15" d="M-921.6,227.2c-0.1,0.6-0.6,1-1.2,1c-0.5,0-0.9-0.4-1-1c-0.1-0.6,0.4-1.1,1-1.2c0.6-0.1,1.1,0.4,1.2,1
	C-921.6,227.1-921.6,227.1-921.6,227.2z"/>
<path class="st14" d="M-959.4,225.4c-2.7-1.6-5.8-2.6-9-2.7"/>
<path class="st14" d="M-935.4,225.4c2.7-1.6,5.8-2.6,9-2.7"/>
<g>
	<g>
		<path class="st16" d="M-484.9,339c-11.6-11.9-64-67.1-90.9-123.1c-4.2-8.7-8.7-17-13.3-25.2c-6.1-10.7-13.9-23.9-21.6-35
			c-3.6-5.1-8.3-8-13.4-8h-5.4h-5.4c-5,0-9.8,2.9-13.4,8c-7.6,11-15.5,24.3-21.6,35c-4.6,8.2-9.2,16.5-13.3,25.2
			c-26.9,55.9-79.3,111.2-90.9,123.1c-1.5,1.5-2.3,3.9-2.3,6.5c0,4.4,2.5,8,5.5,8h141.4h141.4c3.1,0,5.5-3.6,5.5-8
			C-482.6,342.9-483.4,340.5-484.9,339z"/>
	</g>
	<g>
		<path class="st5" d="M-589.2,190.7c-6.1-10.7-14-24-21.6-35c-3.5-5.1-8.3-7.9-13.3-7.9h-5.4h-5.4c-5,0-9.8,2.9-13.3,7.9
			c-7.7,11.1-15.5,24.3-21.6,35c-2.5,4.4-4.9,8.8-7.3,13.3h8.9c4.2,0,8.2-2.4,11.1-6.6l6.3-8.9c1.1-1.5,2.5-2.4,4.1-2.4
			c2.5,0,4.8,2.4,5.5,5.9l0.3,1.3c1.4,6.4,5.5,10.7,10.1,10.7h1.3h1.3c4.6,0,8.7-4.3,10.1-10.7l0.3-1.3c0.8-3.5,3-5.9,5.5-5.9
			c1.5,0,3,0.9,4.1,2.4l6.3,8.9c3,4.2,7,6.6,11.1,6.6h8.9C-584.2,199.5-586.7,195.1-589.2,190.7z"/>
	</g>
	<g>
		<path class="st17" d="M-737.4,353.6h31.5c9.1-25.7,19.1-56,26.2-78c1.4-4.2-3-7.5-5.2-3.9C-701.4,299.3-723.1,332.3-737.4,353.6z"
			/>
	</g>
	<g>
		<path class="st17" d="M-576.4,271.6c-2.2-3.6-6.6-0.3-5.2,3.9c7.1,22,17.1,52.4,26.2,78h31.5
			C-538.2,332.3-559.9,299.3-576.4,271.6z"/>
	</g>
	<g>
		<path class="st17" d="M-629.5,353.6h11.4l-9-94.6c-0.3-3.5-4.3-3.5-4.6,0l-8.7,94.6H-629.5z"/>
	</g>
	<g>
		<path class="st18" d="M-486.8,323.1c-0.1-0.2-0.2-0.4-0.3-0.7c-9.7-21.9-29.8-28.5-45.5-15.6c-6.7,5.5-11.4,10.9-11.4,10.9h-11.8
			c-15.3,0-27.9,11.2-34.7,18.8c-4,4.5-8.9,6.8-14,6.8h-25.1h-24.9c-5.2,0-10.2-2.5-14.3-7.1c-6.6-7.6-18.9-18.5-34.6-18.5H-715
			c0,0-4.8-5.4-11.4-10.9c-15.6-12.9-35.8-6.3-45.5,15.6c-0.1,0.2-0.2,0.4-0.3,0.7c0,0-22.6,7.7-22.6,40.5h165.3h165.3
			C-464.2,330.9-486.8,323.1-486.8,323.1z"/>
	</g>
	<g>
		<path d="M-484.3,319.1c-5.3-11.4-13.4-19.3-22.9-22.4c-3.6-1.1-7.2-1.5-10.8-1.2c-18.7-22.8-40.5-52.5-54.7-82.2
			c-0.7-1.5-1.5-3-2.3-4.6h0.1l-2.9-5.4c-2.5-4.8-5.2-9.8-8.5-15.5c-0.9-1.5-1.7-3-2.5-4.4c-0.5-0.8-0.9-1.6-1.4-2.4
			c-0.3-0.6-0.7-1.2-1-1.7c-0.7-1.1-1.3-2.3-2-3.5c-0.1-0.2-0.2-0.4-0.4-0.6c-0.8-1.4-1.7-2.8-2.5-4.2c0,0-0.1-0.1-0.1-0.1
			c-0.9-1.5-1.8-3-2.8-4.5c0-0.1-0.1-0.1-0.1-0.2c-0.9-1.4-1.8-2.8-2.7-4.2c-0.1-0.2-0.3-0.4-0.4-0.6c-0.8-1.3-1.6-2.5-2.5-3.8
			c-0.2-0.3-0.4-0.6-0.5-0.8c-0.9-1.4-1.9-2.8-2.8-4.1c0,0-0.1-0.1-0.1-0.1c0,0,0,0,0,0c0,0,0-0.1-0.1-0.1c-0.4-0.6-0.9-1.2-1.3-1.7
			c-0.1-0.1-0.2-0.3-0.3-0.4c-0.2-0.3-0.4-0.5-0.7-0.7c-4-4.3-8.7-6.7-13.8-6.7h-10.9c-1.2,0-2.4,0.1-3.5,0.4
			c-0.1,0-0.3,0.1-0.4,0.1c-1,0.3-2,0.6-2.9,1c-0.3,0.1-0.5,0.3-0.8,0.4c-0.9,0.5-1.8,1-2.6,1.6c-0.2,0.1-0.4,0.3-0.6,0.4
			c-1,0.8-1.9,1.6-2.8,2.6c-0.9,0.9-1.7,1.9-2.5,3c-1,1.4-2,2.9-3,4.4c-0.1,0.2-0.2,0.3-0.3,0.5c-0.9,1.3-1.8,2.7-2.7,4.1
			c-0.1,0.1-0.2,0.2-0.2,0.4c-0.9,1.5-1.9,2.9-2.8,4.4c0,0,0,0.1-0.1,0.1c-1,1.5-1.9,3.1-2.8,4.6c0,0,0,0.1,0,0.1
			c-0.9,1.4-1.7,2.8-2.5,4.2c-0.1,0.2-0.3,0.5-0.4,0.7c-0.7,1.2-1.4,2.3-2,3.4c-0.4,0.6-0.7,1.2-1.1,1.8c-0.5,0.8-0.9,1.6-1.4,2.3
			c-0.8,1.5-1.7,2.9-2.5,4.5c-3.3,5.8-6,10.8-8.5,15.5l-2.9,5.4h0.1c-0.8,1.5-1.5,3.1-2.3,4.6c-14.2,29.7-36,59.3-54.7,82.2
			c-3.6-0.3-7.2,0.1-10.8,1.2c-9.5,3-17.6,10.9-22.9,22.4c-5.6,2.7-23.8,13.8-23.8,44.5v4.8h338.1v-4.8
			C-460.5,332.9-478.7,321.8-484.3,319.1z M-664.2,189c0.3-0.5,0.6-1,0.8-1.4c0.6-1,1.2-2.1,1.8-3.1c0.4-0.6,0.7-1.2,1.1-1.8
			c0.5-0.9,1-1.8,1.6-2.6c0.4-0.7,0.8-1.4,1.2-2c0.5-0.8,1-1.6,1.4-2.4c0.4-0.7,0.9-1.5,1.3-2.2c0.5-0.7,0.9-1.5,1.4-2.2
			c0.5-0.8,1-1.6,1.5-2.3c0.4-0.6,0.8-1.3,1.2-1.9c0.6-0.9,1.2-1.8,1.7-2.7c0.3-0.5,0.6-1,1-1.4c0.9-1.4,1.8-2.7,2.7-4
			c2.9-4.1,6.6-6.4,10.6-6.4h10.9c3.9,0,7.7,2.3,10.5,6.4c0.2,0.3,0.4,0.6,0.6,0.8c0.7,1,1.4,2,2.1,3.1c0.4,0.6,0.8,1.2,1.2,1.8
			c0.5,0.8,1,1.6,1.5,2.3c0.4,0.7,0.9,1.4,1.4,2.1c0.5,0.7,0.9,1.4,1.4,2.1c0.5,0.8,1,1.5,1.4,2.3c0.4,0.7,0.9,1.4,1.3,2.1
			c0.5,0.8,1,1.6,1.5,2.5c0.4,0.7,0.8,1.3,1.2,1.9c0.5,0.9,1.1,1.8,1.6,2.7c0.3,0.6,0.7,1.2,1,1.7c0.6,1,1.2,2.1,1.9,3.2
			c0.3,0.4,0.5,0.9,0.8,1.3c0.9,1.5,1.7,3,2.6,4.6l0,0c1.1,2,2.1,3.8,3.1,5.6h-1.7c-3.1,0-6.1-1.8-8.4-5l-6.3-8.9
			c-1.8-2.5-4.3-4-6.8-4c-4.2,0-7.9,3.8-9.1,9.4l-0.3,1.3c-0.9,4.3-3.5,7.2-6.5,7.2h-2.5c-2.9,0-5.6-2.9-6.5-7.2l-0.3-1.3
			c-1.2-5.6-4.9-9.4-9.1-9.4c-2.6,0-5,1.4-6.8,4l-6.3,8.9c-2.3,3.2-5.2,5-8.4,5h-1.7c1-1.8,2-3.6,3.1-5.6
			C-666,192-665.1,190.5-664.2,189z M-680,218.5c1.5-3.1,3.1-6.3,4.9-9.7h6.9c5.3,0,10.2-2.9,13.9-8.1l6.3-8.9
			c1.1-1.5,2.8-0.6,3.2,1.5l0.3,1.3c1.9,8.5,7.4,14.2,13.7,14.2h2.5c6.3,0,11.8-5.7,13.7-14.2l0.3-1.3c0.5-2.1,2.2-3,3.2-1.5
			l6.3,8.9c3.7,5.3,8.7,8.1,13.9,8.1h6.9c1.7,3.3,3.4,6.5,4.9,9.7c13.7,28.5,34,56.9,52.2,79.5c-2.7,1.2-5.3,2.8-7.8,4.8
			c-5,4.1-9,8.2-10.8,10.1h-10.4c-16.8,0-30.5,12.5-37.1,20c-3.2,3.6-7.3,5.6-11.5,5.6h-50c-4.3,0-8.4-2.1-11.8-5.9
			c-6.4-7.4-19.8-19.7-37.1-19.7h-10.4c-1.8-2-5.8-6-10.8-10.1c-2.5-2-5.1-3.6-7.8-4.8C-714,275.4-693.7,247-680,218.5z
			 M-790.9,358.8c2-24.5,18.9-30.7,19.6-31l1.5-0.5l1-2.4c4.2-9.6,10.8-16.2,18.6-18.7c0,0,0.1,0,0.1,0c3.8-1.2,7.6-1.3,11.4-0.4
			c3.5,0.8,6.9,2.6,10.1,5.2c6.3,5.2,10.9,10.4,11,10.5l1.1,1.2h13.2c14.8,0,26.5,10.8,32.1,17.3c4.7,5.4,10.6,8.3,16.7,8.3h50
			c6,0,11.8-2.8,16.5-8c5.9-6.6,17.8-17.6,32.2-17.6h13.2l1.1-1.2c0-0.1,4.6-5.3,11-10.5c3.2-2.6,6.6-4.3,10.1-5.2
			c3.7-0.9,7.6-0.8,11.4,0.4c0,0,0.1,0,0.1,0c7.7,2.5,14.3,9.1,18.5,18.6l0.2,0.4l3.4-2l-3.3,2.3l0.8,1.8l1.5,0.5
			c0.8,0.3,17.7,6.5,19.7,31H-790.9z"/>
	</g>
</g>
<g>
	<g>
		<path class="st16" d="M314.7,339c-11.6-11.9-64-67.1-90.9-123.1c-4.2-8.7-8.7-17-13.3-25.2c-6.1-10.7-13.9-23.9-21.6-35
			c-3.6-5.1-8.3-8-13.4-8h-5.4h-5.4c-5,0-9.8,2.9-13.4,8c-7.6,11-15.5,24.3-21.6,35c-4.6,8.2-9.2,16.5-13.3,25.2
			C89.6,271.9,37.2,327.1,25.5,339c-1.5,1.5-2.3,3.9-2.3,6.5c0,4.4,2.5,8,5.5,8h141.4h141.4c3.1,0,5.5-3.6,5.5-8
			C317,342.9,316.2,340.5,314.7,339z"/>
	</g>
	<g>
		<path class="st5" d="M210.5,190.7c-6.1-10.7-14-24-21.6-35c-3.5-5.1-8.3-7.9-13.3-7.9h-5.4h-5.4c-5,0-9.8,2.9-13.3,7.9
			c-7.7,11.1-15.5,24.3-21.6,35c-2.5,4.4-4.9,8.8-7.3,13.3h8.9c4.2,0,8.2-2.4,11.1-6.6l6.3-8.9c1.1-1.5,2.5-2.4,4.1-2.4
			c2.5,0,4.8,2.4,5.5,5.9l0.3,1.3c1.4,6.4,5.5,10.7,10.1,10.7h1.3h1.3c4.6,0,8.7-4.3,10.1-10.7l0.3-1.3c0.8-3.5,3-5.9,5.5-5.9
			c1.5,0,3,0.9,4.1,2.4l6.3,8.9c3,4.2,7,6.6,11.1,6.6h8.9C215.4,199.5,213,195.1,210.5,190.7z"/>
	</g>
	<g>
		<path class="st17" d="M62.2,353.6h31.5c9.1-25.7,19.1-56,26.2-78c1.4-4.2-3-7.5-5.2-3.9C98.3,299.3,76.5,332.3,62.2,353.6z"/>
	</g>
	<g>
		<path class="st17" d="M223.2,271.6c-2.2-3.6-6.6-0.3-5.2,3.9c7.1,22,17.1,52.4,26.2,78h31.5C261.5,332.3,239.7,299.3,223.2,271.6z
			"/>
	</g>
	<g>
		<path class="st17" d="M170.1,353.6h11.4l-9-94.6c-0.3-3.5-4.3-3.5-4.6,0l-8.7,94.6H170.1z"/>
	</g>
	<g>
		<path class="st18" d="M312.8,323.1c-0.1-0.2-0.2-0.4-0.3-0.7c-9.7-21.9-29.8-28.5-45.5-15.6c-6.7,5.5-11.4,10.9-11.4,10.9h-11.8
			c-15.3,0-27.9,11.2-34.7,18.8c-4,4.5-8.9,6.8-14,6.8h-25.1h-24.9c-5.2,0-10.2-2.5-14.3-7.1c-6.6-7.6-18.9-18.5-34.6-18.5H84.6
			c0,0-4.8-5.4-11.4-10.9c-15.6-12.9-35.8-6.3-45.5,15.6c-0.1,0.2-0.2,0.4-0.3,0.7c0,0-22.6,7.7-22.6,40.5h165.3h165.3
			C335.4,330.9,312.8,323.1,312.8,323.1z"/>
	</g>
	<g>
		<path d="M315.3,319.1c-5.3-11.4-13.4-19.3-22.9-22.4c-3.6-1.1-7.2-1.5-10.8-1.2c-18.7-22.8-40.5-52.5-54.7-82.2
			c-0.7-1.5-1.5-3-2.3-4.6h0.1l-2.9-5.4c-2.5-4.8-5.2-9.8-8.5-15.5c-0.9-1.5-1.7-3-2.5-4.4c-0.5-0.8-0.9-1.6-1.4-2.4
			c-0.3-0.6-0.7-1.2-1-1.7c-0.7-1.1-1.3-2.3-2-3.5c-0.1-0.2-0.2-0.4-0.4-0.6c-0.8-1.4-1.7-2.8-2.5-4.2c0,0-0.1-0.1-0.1-0.1
			c-0.9-1.5-1.8-3-2.8-4.5c0-0.1-0.1-0.1-0.1-0.2c-0.9-1.4-1.8-2.8-2.7-4.2c-0.1-0.2-0.3-0.4-0.4-0.6c-0.8-1.3-1.6-2.5-2.5-3.8
			c-0.2-0.3-0.4-0.6-0.5-0.8c-0.9-1.4-1.9-2.8-2.8-4.1c0,0-0.1-0.1-0.1-0.1c0,0,0,0,0,0c0,0,0-0.1-0.1-0.1c-0.4-0.6-0.9-1.2-1.3-1.7
			c-0.1-0.1-0.2-0.3-0.3-0.4c-0.2-0.3-0.4-0.5-0.7-0.7c-4-4.3-8.7-6.7-13.8-6.7h-10.9c-1.2,0-2.4,0.1-3.5,0.4
			c-0.1,0-0.3,0.1-0.4,0.1c-1,0.3-2,0.6-2.9,1c-0.3,0.1-0.5,0.3-0.8,0.4c-0.9,0.5-1.8,1-2.6,1.6c-0.2,0.1-0.4,0.3-0.6,0.4
			c-1,0.8-1.9,1.6-2.8,2.6c-0.9,0.9-1.7,1.9-2.5,3c-1,1.4-2,2.9-3,4.4c-0.1,0.2-0.2,0.3-0.3,0.5c-0.9,1.3-1.8,2.7-2.7,4.1
			c-0.1,0.1-0.2,0.2-0.2,0.4c-0.9,1.5-1.9,2.9-2.8,4.4c0,0,0,0.1-0.1,0.1c-1,1.5-1.9,3.1-2.8,4.6c0,0,0,0.1,0,0.1
			c-0.9,1.4-1.7,2.8-2.5,4.2c-0.1,0.2-0.3,0.5-0.4,0.7c-0.7,1.2-1.4,2.3-2,3.4c-0.4,0.6-0.7,1.2-1.1,1.8c-0.5,0.8-0.9,1.6-1.4,2.3
			c-0.8,1.5-1.7,2.9-2.5,4.5c-3.3,5.8-6,10.8-8.5,15.5l-2.9,5.4h0.1c-0.8,1.5-1.5,3.1-2.3,4.6c-14.2,29.7-36,59.3-54.7,82.2
			c-3.6-0.3-7.2,0.1-10.8,1.2c-9.5,3-17.6,10.9-22.9,22.4c-5.6,2.7-23.8,13.8-23.8,44.5v4.8h338.1v-4.8
			C339.2,332.9,320.9,321.8,315.3,319.1z M135.4,189c0.3-0.5,0.6-1,0.8-1.4c0.6-1,1.2-2.1,1.8-3.1c0.4-0.6,0.7-1.2,1.1-1.8
			c0.5-0.9,1-1.8,1.6-2.6c0.4-0.7,0.8-1.4,1.2-2c0.5-0.8,1-1.6,1.4-2.4c0.4-0.7,0.9-1.5,1.3-2.2c0.5-0.7,0.9-1.5,1.4-2.2
			c0.5-0.8,1-1.6,1.5-2.3c0.4-0.6,0.8-1.3,1.2-1.9c0.6-0.9,1.2-1.8,1.7-2.7c0.3-0.5,0.6-1,1-1.4c0.9-1.4,1.8-2.7,2.7-4
			c2.9-4.1,6.6-6.4,10.6-6.4h10.9c3.9,0,7.7,2.3,10.5,6.4c0.2,0.3,0.4,0.6,0.6,0.8c0.7,1,1.4,2,2.1,3.1c0.4,0.6,0.8,1.2,1.2,1.8
			c0.5,0.8,1,1.6,1.5,2.3c0.4,0.7,0.9,1.4,1.4,2.1c0.5,0.7,0.9,1.4,1.4,2.1c0.5,0.8,1,1.5,1.4,2.3c0.4,0.7,0.9,1.4,1.3,2.1
			c0.5,0.8,1,1.6,1.5,2.5c0.4,0.7,0.8,1.3,1.2,1.9c0.5,0.9,1.1,1.8,1.6,2.7c0.3,0.6,0.7,1.2,1,1.7c0.6,1,1.2,2.1,1.9,3.2
			c0.3,0.4,0.5,0.9,0.8,1.3c0.9,1.5,1.7,3,2.6,4.6l0,0c1.1,2,2.1,3.8,3.1,5.6h-1.7c-3.1,0-6.1-1.8-8.4-5l-6.3-8.9
			c-1.8-2.5-4.3-4-6.8-4c-4.2,0-7.9,3.8-9.1,9.4l-0.3,1.3c-0.9,4.3-3.5,7.2-6.5,7.2h-2.5c-2.9,0-5.6-2.9-6.5-7.2l-0.3-1.3
			c-1.2-5.6-4.9-9.4-9.1-9.4c-2.6,0-5,1.4-6.8,4l-6.3,8.9c-2.3,3.2-5.2,5-8.4,5h-1.7c1-1.8,2-3.6,3.1-5.6
			C133.7,192,134.5,190.5,135.4,189z M119.6,218.5c1.5-3.1,3.1-6.3,4.9-9.7h6.9c5.3,0,10.2-2.9,13.9-8.1l6.3-8.9
			c1.1-1.5,2.8-0.6,3.2,1.5l0.3,1.3c1.9,8.5,7.4,14.2,13.7,14.2h2.5c6.3,0,11.8-5.7,13.7-14.2l0.3-1.3c0.5-2.1,2.2-3,3.2-1.5
			l6.3,8.9c3.7,5.3,8.7,8.1,13.9,8.1h6.9c1.7,3.3,3.4,6.5,4.9,9.7c13.7,28.5,34,56.9,52.2,79.5c-2.7,1.2-5.3,2.8-7.8,4.8
			c-5,4.1-9,8.2-10.8,10.1h-10.4c-16.8,0-30.5,12.5-37.1,20c-3.2,3.6-7.3,5.6-11.5,5.6h-50c-4.3,0-8.4-2.1-11.8-5.9
			c-6.4-7.4-19.8-19.7-37.1-19.7H86c-1.8-2-5.8-6-10.8-10.1c-2.5-2-5.1-3.6-7.8-4.8C85.6,275.4,105.9,247,119.6,218.5z M8.8,358.8
			c2-24.5,18.9-30.7,19.6-31l1.5-0.5l1-2.4c4.2-9.6,10.8-16.2,18.6-18.7c0,0,0.1,0,0.1,0c3.8-1.2,7.6-1.3,11.4-0.4
			c3.5,0.8,6.9,2.6,10.1,5.2c6.3,5.2,10.9,10.4,11,10.5l1.1,1.2h13.2c14.8,0,26.5,10.8,32.1,17.3c4.7,5.4,10.6,8.3,16.7,8.3h50
			c6,0,11.8-2.8,16.5-8c5.9-6.6,17.8-17.6,32.2-17.6H257l1.1-1.2c0-0.1,4.6-5.3,11-10.5c3.2-2.6,6.6-4.3,10.1-5.2
			c3.7-0.9,7.6-0.8,11.4,0.4c0,0,0.1,0,0.1,0c7.7,2.5,14.3,9.1,18.5,18.6l0.2,0.4l3.4-2l-3.3,2.3l0.8,1.8l1.5,0.5
			c0.8,0.3,17.7,6.5,19.7,31H8.8z"/>
	</g>
</g>
<g>
	<g>
		<g>
			<g>
				<g>
					<path class="st5" d="M-758.7,291.7c0,0-14.9,10.1-17.4,28.9c-2,15.6,4.9,23.2,11.7,23.9c6.7,0.7,9.4-3.2,10.3-6.1"/>
					<path class="st19" d="M-762.9,346.3c-0.5,0-1,0-1.6-0.1c-3.5-0.3-6.7-2.2-9.1-5.2c-2.7-3.4-5.5-9.6-4.1-20.6
						c2.5-19.3,17.5-29.7,18.1-30.1c0.8-0.5,1.8-0.3,2.4,0.5c0.5,0.8,0.3,1.8-0.5,2.4c-0.2,0.1-14.3,10-16.6,27.7
						c-1,7.6,0.2,14,3.4,18c1.8,2.3,4.2,3.7,6.8,4c6.1,0.6,8-3.2,8.5-4.9c0.3-0.9,1.2-1.4,2.1-1.2c0.9,0.3,1.4,1.2,1.2,2.1
						C-753.5,342.6-756.8,346.3-762.9,346.3z"/>
				</g>
				<g>
					<path class="st5" d="M-764.4,339.2c0,0,1.5,3.8,5.2,4.7"/>
					<path class="st19" d="M-759.2,345.6c-0.1,0-0.3,0-0.4-0.1c-4.4-1.2-6.3-5.6-6.3-5.8c-0.4-0.9,0.1-1.9,0.9-2.2
						c0.9-0.4,1.9,0.1,2.2,0.9c0,0.1,1.3,3,4,3.7c0.9,0.2,1.5,1.2,1.2,2.1C-757.7,345.1-758.4,345.6-759.2,345.6z"/>
				</g>
			</g>
			<g>
				<g>
					<path class="st5" d="M-694.9,301.8c0,0,16.7,6.8,33.7-1.5c14.1-6.9,16.6-16.9,13.5-23c-3.1-5.9-7.9-6.1-10.7-5.2"/>
					<path class="st19" d="M-679.5,306.2c-9.1,0-15.6-2.6-16-2.8c-0.9-0.4-1.3-1.4-0.9-2.2c0.4-0.9,1.4-1.3,2.2-0.9l0,0
						c0.2,0.1,16.2,6.4,32.3-1.4c6.9-3.4,11.6-7.9,13.1-12.8c0.9-2.8,0.8-5.6-0.4-7.9c-2.9-5.5-7.1-4.9-8.7-4.4
						c-0.9,0.3-1.9-0.2-2.1-1.1c-0.3-0.9,0.2-1.9,1.1-2.1c4-1.2,9.4-0.3,12.8,6c1.6,3.1,1.9,6.8,0.7,10.5c-1.3,4.1-5,9.9-14.9,14.8
						C-667.2,305.1-673.9,306.2-679.5,306.2z"/>
				</g>
				<g>
					<path class="st5" d="M-652.2,280.3c0,0,2.3-3.4,1.1-6.9"/>
					<path class="st19" d="M-652.2,282c-0.3,0-0.7-0.1-1-0.3c-0.8-0.5-1-1.6-0.5-2.4c0-0.1,1.8-2.8,0.9-5.4
						c-0.3-0.9,0.2-1.9,1.1-2.2c0.9-0.3,1.9,0.2,2.2,1.1c1.5,4.3-1.2,8.3-1.3,8.5C-651.1,281.7-651.6,282-652.2,282z"/>
				</g>
			</g>
		</g>
		<g>
			<g>
				<path class="st20" d="M-748.7,333.1v20.3l2.3-0.2c-7.3,0-10.4,5.1-9.9,9.7c0.5,4.7,4.3,4.6,6.8,4.6c2.5,0,4.3,0,12.9,0
					c8.6,0,7.6-6.1,7.6-6.1v-28.4"/>
			</g>
			<g>
				<path class="st19" d="M-749.7,369.3c-2.6,0-7.7-0.1-8.3-6.2c-0.3-3,0.7-5.9,2.6-8c1-1.1,2.6-2.3,5-3v-19c0-0.9,0.8-1.7,1.7-1.7
					s1.7,0.8,1.7,1.7v18.4c0.2,0,0.4,0,0.6,0c0.9,0,1.7,0.7,1.7,1.6c0,0.9-0.7,1.7-1.6,1.8l-2.3,0.2c-1.8,0.3-3.3,1.1-4.3,2.3
					c-1.3,1.4-1.9,3.4-1.7,5.4c0.3,2.8,1.8,3.1,4.9,3.1c0,0,0,0,0,0h13.1c2.4,0,4.2-0.6,5.1-1.6c1-1.1,0.8-2.5,0.8-2.6
					c0-0.1,0-0.2,0-0.3v-28.4c0-0.9,0.8-1.7,1.7-1.7c0.9,0,1.7,0.8,1.7,1.7v28.2c0.1,0.7,0.2,3.1-1.5,5.1c-1.6,1.9-4.2,2.8-7.8,2.8
					h-13.1C-749.6,369.3-749.7,369.3-749.7,369.3z"/>
			</g>
		</g>
		<g>
			<g>
				<path class="st20" d="M-702.3,333.1v20.3l-2.3-0.2c7.3,0,10.4,5.1,9.9,9.7c-0.5,4.7-4.3,4.6-6.8,4.6c-2.5,0-4.3,0-12.9,0
					c-8.6,0-7.6-6.1-7.6-6.1v-28.4"/>
			</g>
			<g>
				<path class="st19" d="M-701.3,369.3C-701.4,369.3-701.4,369.3-701.3,369.3h-13.1c-3.6,0-6.2-1-7.8-2.8c-1.7-2.1-1.6-4.4-1.5-5.1
					v-28.2c0-0.9,0.8-1.7,1.7-1.7c0.9,0,1.7,0.8,1.7,1.7v28.4c0,0.1,0,0.2,0,0.3c0,0-0.2,1.4,0.8,2.5c0.9,1,2.7,1.6,5.1,1.6h13.1
					c0,0,0,0,0,0c3.1,0,4.7-0.3,4.9-3.1c0.2-2-0.4-4-1.7-5.4c-1.1-1.2-2.5-1.9-4.3-2.3l-2.3-0.2c-0.9-0.1-1.6-0.9-1.6-1.8
					c0-0.9,0.8-1.6,1.7-1.6c0.2,0,0.4,0,0.6,0v-18.4c0-0.9,0.8-1.7,1.7-1.7c0.9,0,1.7,0.8,1.7,1.7v19c2.4,0.7,4,1.9,5,3
					c1.9,2.1,2.9,5.1,2.6,8C-693.7,369.3-699,369.3-701.3,369.3z"/>
			</g>
		</g>
		<g>
			<g>
				<path class="st5" d="M-693.5,296.3c0,0,5.5,7.8,5.5,23c0,15.1-12.5,27-37.5,27c-25,0-37.5-11.8-37.5-27c0-15.1,5.5-23,5.5-23"/>
				<path class="st19" d="M-725.5,347.9c-28.9,0-39.2-14.8-39.2-28.7c0-15.5,5.6-23.6,5.8-23.9c0.5-0.8,1.6-1,2.4-0.4
					c0.8,0.5,1,1.6,0.4,2.4c0,0.1-5.2,7.7-5.2,22c0,15.6,13.7,25.2,35.8,25.2c22.1,0,35.8-9.7,35.8-25.2c0-14.4-5.1-21.9-5.2-22
					c-0.5-0.8-0.4-1.8,0.4-2.4c0.8-0.5,1.8-0.4,2.4,0.4c0.2,0.3,5.8,8.5,5.8,23.9C-686.3,333.1-696.6,347.9-725.5,347.9z"/>
			</g>
			<g>
				<g>
					<g>
						<path class="st21" d="M-726.5,299.9c0,0,3.8,9-4.6,19.2c0,0-4.1-4.3-3.2-10.2C-733.4,303.1-726.5,299.9-726.5,299.9z"/>
						<path class="st19" d="M-731.1,320.9c-0.5,0-0.9-0.2-1.2-0.5c-0.2-0.2-4.6-5-3.6-11.6c1-6.7,8.4-10.2,8.7-10.3
							c0.4-0.2,0.9-0.2,1.3,0c0.4,0.2,0.8,0.5,1,0.9c0.2,0.4,4.1,10.1-4.8,21C-730.1,320.6-730.5,320.8-731.1,320.9
							C-731.1,320.9-731.1,320.9-731.1,320.9z M-727.6,302.5c-1.8,1.2-4.5,3.5-5,6.7c-0.4,3,0.6,5.5,1.5,7.1
							C-727,310.4-727.1,305.2-727.6,302.5z"/>
					</g>
					<g>
						<path class="st21" d="M-724.6,299.9c0,0-3.8,9,4.6,19.2c0,0,4.1-4.3,3.2-10.2C-717.7,303.1-724.6,299.9-724.6,299.9z"/>
						<path class="st19" d="M-720,320.9C-720,320.9-720,320.9-720,320.9c-0.5,0-1-0.2-1.3-0.6c-8.9-10.9-5-20.6-4.8-21
							c0.2-0.4,0.5-0.8,1-0.9c0.4-0.2,0.9-0.2,1.3,0c0.3,0.1,7.7,3.6,8.7,10.3c1,6.6-3.4,11.4-3.6,11.6
							C-719.1,320.7-719.5,320.9-720,320.9z M-723.5,302.5c-0.5,2.7-0.6,7.9,3.5,13.8c0.9-1.6,2-4.1,1.5-7.1
							C-719,306-721.6,303.7-723.5,302.5z"/>
					</g>
				</g>
				<g>
					<path class="st21" d="M-692.5,294.9c0,0-5.7,13.2-33,9.5c-27.4,3.7-33-9.5-33-9.5"/>
					<path class="st19" d="M-716.3,306.8c-2.8,0-5.8-0.2-9.2-0.7c-28.2,3.8-34.4-10-34.6-10.6c-0.4-0.9,0-1.9,0.9-2.2
						c0.9-0.4,1.9,0,2.2,0.9c0,0.1,5.7,12,31.2,8.5c0.2,0,0.3,0,0.5,0c13.5,1.8,21.3-0.6,25.4-3c4.4-2.5,5.8-5.5,5.8-5.5
						c0.4-0.9,1.4-1.3,2.3-0.9c0.9,0.4,1.3,1.4,0.9,2.2C-691.1,296.1-696,306.8-716.3,306.8z"/>
				</g>
				<g>
					<path class="st22" d="M-721.2,303.7c0,1.6-1.3,3-3,3h-2.7c-1.6,0-3-1.3-3-3v-3.8c0-1.6,1.3-3,3-3h2.7c1.6,0,3,1.3,3,3V303.7z"
						/>
					<path class="st19" d="M-724.2,308.4h-2.7c-2.6,0-4.7-2.1-4.7-4.7v-3.8c0-2.6,2.1-4.7,4.7-4.7h2.7c2.6,0,4.7,2.1,4.7,4.7v3.8
						C-719.5,306.3-721.6,308.4-724.2,308.4z M-726.9,298.7c-0.7,0-1.3,0.6-1.3,1.3v3.8c0,0.7,0.6,1.3,1.3,1.3h2.7
						c0.7,0,1.2-0.6,1.2-1.3v-3.8c0-0.7-0.6-1.3-1.2-1.3H-726.9z"/>
				</g>
			</g>
		</g>
	</g>
	<g>
		<g>
			<g>
				<path class="st5" d="M-725.5,298.8c27.4,0,68.7-6.8,68.7-48.9c0-44.9-28.2-65.7-68.7-65.7c-40.4,0-68.7,20.8-68.7,65.7
					C-794.2,292-752.9,298.8-725.5,298.8z"/>
			</g>
			<g>
				<g>
					<path class="st23" d="M-656.9,248.6c-6-11.5-22.2-9.6-22.2-9.6s-1.8-26.6-28.6-26.7c-12.3,0-17.8,9.3-17.8,9.3
						s-5.5-9.4-17.8-9.3c-26.7,0.1-28.6,26.7-28.6,26.7s-16.2-1.9-22.2,9.6c0,0-4.8-64.4,68.7-64.4
						C-652.1,184.2-656.9,248.6-656.9,248.6z"/>
				</g>
				<g>
					<path class="st23" d="M-656.9,250.3c-0.6,0-1.2-0.3-1.5-0.9c-5.4-10.3-20.4-8.7-20.5-8.7c-0.5,0.1-0.9-0.1-1.3-0.4
						c-0.4-0.3-0.6-0.7-0.6-1.2c-0.1-1-2.1-25.1-26.9-25.1c-11.1,0-16.2,8.1-16.4,8.5c-0.3,0.5-0.9,0.8-1.5,0.8c0,0,0,0,0,0
						c-0.6,0-1.2-0.3-1.5-0.8c-0.2-0.3-5.2-8.5-16.3-8.5c0,0-0.1,0-0.1,0c-24.8,0.1-26.8,24.1-26.9,25.1c0,0.5-0.3,0.9-0.6,1.2
						c-0.4,0.3-0.8,0.4-1.3,0.4c-0.1,0-15.1-1.6-20.5,8.7c-0.4,0.7-1.1,1-1.9,0.9c-0.7-0.2-1.3-0.8-1.4-1.5
						c-0.1-1.1-1.8-27.1,16.1-46.4c12.2-13.1,30.4-19.8,54.2-19.8c23.8,0,42,6.7,54.2,19.8c17.9,19.3,16.2,45.3,16.1,46.4
						c-0.1,0.8-0.6,1.4-1.4,1.6C-656.6,250.3-656.7,250.3-656.9,250.3z M-725.5,185.9c-22.8,0-40.2,6.3-51.7,18.7
						c-12.3,13.3-14.8,30.4-15.2,38.8c2.8-2.8,6.7-4.7,11.3-5.6c3.2-0.6,6-0.7,7.7-0.6c1-6.1,6.1-26.5,30.1-26.6c0,0,0.1,0,0.1,0
						c9.5,0,15.3,5.2,17.8,8.2c2.5-3,8.2-8.2,17.8-8.2c0,0,0.1,0,0.1,0c23.9,0.1,29.1,20.5,30.1,26.6c1.7-0.1,4.5,0,7.7,0.6
						c4.7,0.9,8.5,2.8,11.3,5.6c-0.4-8.4-2.9-25.5-15.2-38.8C-685.3,192.2-702.7,185.9-725.5,185.9z"/>
				</g>
			</g>
			<g>
				<path class="st19" d="M-725.5,300.5c-18.5,0-33.8-3-45.4-8.9c-16.6-8.4-25-22.5-25-41.8c0-42.8,25.7-67.4,70.4-67.4
					c44.7,0,70.4,24.6,70.4,67.4c0,19.3-8.4,33.4-25,41.8C-691.7,297.5-707,300.5-725.5,300.5z M-725.5,185.9
					c-20.2,0-36.9,5.4-48.3,15.6c-12.3,11-18.6,27.3-18.6,48.4c0,17.9,7.8,30.9,23.1,38.7c11.1,5.6,25.9,8.5,43.8,8.5
					c18,0,32.7-2.9,43.8-8.5c15.3-7.8,23.1-20.8,23.1-38.7c0-21.1-6.3-37.4-18.6-48.4C-688.6,191.3-705.3,185.9-725.5,185.9z"/>
			</g>
			<g>
				<path class="st19" d="M-724.3,185.9c-0.3,0-0.5-0.1-0.7-0.2c-3-1.5-8.2-6-6.1-12.7c0.3-0.9,1.2-1.4,2.1-1.1
					c0.9,0.3,1.4,1.2,1.1,2.1c-1.8,5.6,4.1,8.5,4.4,8.6c0.9,0.4,1.2,1.4,0.8,2.3C-723.1,185.6-723.7,185.9-724.3,185.9z"/>
			</g>
		</g>
		<g>
			<g>
				<g>
					<g>
						<path class="st24" d="M-725.5,253.9c5.9,0,10.8-2.5,10.8-6.1c0-3.6-5.2-7.2-10.8-7.2c-5.7,0-10.8,3.6-10.8,7.2
							C-736.3,251.4-731.5,253.9-725.5,253.9z"/>
					</g>
					<g>
						<path class="st19" d="M-725.5,255.6c-7.3,0-12.5-3.3-12.5-7.8c0-4.6,6-8.9,12.5-8.9c6.6,0,12.5,4.2,12.5,8.9
							C-713,252.4-718.3,255.6-725.5,255.6z M-725.5,242.4c-4.9,0-9.1,3-9.1,5.5c0,2.4,4.1,4.4,9.1,4.4s9.1-2,9.1-4.4
							C-716.4,245.4-720.6,242.4-725.5,242.4z"/>
					</g>
				</g>
				<g>
					<path class="st19" d="M-725.5,250.8c-5.7,0-7.5-2.9-7.7-3.2c-0.5-0.8-0.2-1.9,0.6-2.3c0.8-0.5,1.9-0.2,2.3,0.6
						c0,0,1.1,1.5,4.7,1.5c3.7,0,4.7-1.5,4.8-1.6c0.5-0.8,1.5-1.1,2.3-0.6c0.8,0.5,1.1,1.5,0.6,2.4
						C-718,247.9-719.8,250.8-725.5,250.8z"/>
				</g>
			</g>
		</g>
	</g>
</g>
<g>
	<circle class="st5" cx="-651.5" cy="275.4" r="24.8"/>
	<path class="st19" d="M-651.5,302c-14.6,0-26.5-11.9-26.5-26.5c0-14.6,11.9-26.5,26.5-26.5c14.6,0,26.5,11.9,26.5,26.5
		C-625,290.1-636.9,302-651.5,302z M-651.5,252.3c-12.7,0-23.1,10.4-23.1,23.1c0,12.7,10.4,23.1,23.1,23.1
		c12.7,0,23.1-10.4,23.1-23.1C-628.4,262.7-638.8,252.3-651.5,252.3z"/>
</g>
<g>
	<g>
		<g>
			<path class="st19" d="M-737.6,233.2c0,3.4-1.8,6.1-3.9,6.1c-2.2,0-3.9-2.7-3.9-6.1c0-3.4,1.8-6.1,3.9-6.1
				C-739.3,227.1-737.6,229.8-737.6,233.2z"/>
		</g>
		<g>
			<path class="st19" d="M-714.4,233.2c0,3.4,1.8,6.1,3.9,6.1c2.2,0,3.9-2.7,3.9-6.1c0-3.4-1.8-6.1-3.9-6.1
				C-712.6,227.1-714.4,229.8-714.4,233.2z"/>
		</g>
	</g>
</g>
<g>
	<g>
		<g id="Egyptian_pyramids_1_">
			<g>
				<path class="st25" d="M-267,98.8l-156.3,249.9c-3,4.9-2.1,11.6,2.2,15.1c1.6,1.3,3.5,2,5.5,2h152.9h159.6
					c5.2,0,9.4-4.8,9.4-10.8c0-2.3-0.6-4.5-1.8-6.3L-251.7,98.8c-3-4.9-8.9-6-13.2-2.5C-265.7,97-266.4,97.8-267,98.8z"/>
			</g>
			<g>
				<path class="st26" d="M-103.1,365.9c5.2,0,9.4-4.8,9.4-10.8c0-2.3-0.6-4.5-1.8-6.3L-251.7,98.8c-1.8-2.8-4.6-4.5-7.7-4.5v271.6
					H-103.1z"/>
			</g>
			<g>
				<polygon class="st27" points="-403.2,316.7 -115.4,316.7 -147.1,266 -371.6,266 				"/>
			</g>
			<g>
				<polygon class="st27" points="-332.2,203.1 -186.5,203.1 -216.7,154.7 -301.9,154.7 				"/>
			</g>
			<g>
				<polygon class="st28" points="-259.4,203.1 -186.5,203.1 -216.7,154.7 -259.4,154.7 				"/>
			</g>
			<g>
				<polygon class="st28" points="-259.4,266 -259.4,316.7 -115.4,316.7 -147.1,266 				"/>
			</g>
		</g>
		<g>
			<path d="M-103.4,368.2l-308.1-0.9c-1,0-10.1-0.2-13.8-7c-2.7-4.9-1.4-11.4,3.6-19.1l149.1-242.8l0.1-0.2
				c0.5-0.6,4.7-6.1,11.3-6.3c2.9-0.1,7.3,0.9,11.5,6.1l0.3,0.4l157.6,246l0.1,0.3c0.5,1,4.4,9.7,0.5,16.6
				c-1.5,2.7-4.8,6.1-11.9,6.9L-103.4,368.2z M-264.9,103.5l-148.9,242.6c-3.4,5.2-3.9,8.4-3.3,9.6c0.8,1.5,4.1,2.1,5.6,2.1
				l307.6,0.9c2.4-0.3,3.9-1,4.5-2.1c1.2-2.1,0.1-6-0.7-7.8l-157.1-245.2c-1-1.2-2.4-2.5-3.8-2.5c0,0,0,0,0,0
				C-262.6,101.2-264.3,102.8-264.9,103.5z"/>
		</g>
		<g>
			<rect x="-301.6" y="152.6" width="21.4" height="9.4"/>
		</g>
		<g>
			<rect x="-239.6" y="152.6" width="21.4" height="9.4"/>
		</g>
		<g>
			<rect x="-331.7" y="200.7" width="29.3" height="9.4"/>
		</g>
		<g>
			<rect x="-368.9" y="261.2" width="29.3" height="9.4"/>
		</g>
		<g>
			<rect x="-218.4" y="200.7" width="29.3" height="9.4"/>
		</g>
		<g>
			<rect x="-179.9" y="261.5" width="29.3" height="9.4"/>
		</g>
		<g>
			<rect x="-144.8" y="312.8" width="29.3" height="9.4"/>
		</g>
		<g>
			<rect x="-400.3" y="312.8" width="29.3" height="9.4"/>
		</g>
	</g>
	<g>
		<g>
			<g>
				<g>
					<g>
						<g>
							<g>
								<path class="st29" d="M-357.9,330.5l-0.9,18.5c0,0-9.8,0.2-9.8,10.4c0,10.3,10.5,10.6,13.2,10.6c2.7,0,15.2,0,18.5,0
									c7.5,0,7.9-2.9,7.9-14.8c0-15.7,0.1-23.1,0.1-23.1L-357.9,330.5z"/>
							</g>
							<g>
								<path class="st19" d="M-337,372.1h-18.5c-9.7,0-15.2-4.6-15.2-12.6c0-9,6.6-11.5,9.9-12.2l0.8-16.9c0-0.5,0.3-1.1,0.7-1.4
									c0.4-0.4,0.9-0.6,1.5-0.5l29,1.7c1.1,0.1,1.9,1,1.9,2.1c0,0.1-0.1,7.6-0.1,23C-327,366.1-327,372.1-337,372.1z M-356,332.6
									l-0.8,16.5c0,1.1-0.9,1.9-2,1.9c-0.8,0-7.9,0.5-7.8,8.4c0,7.1,6.1,8.6,11.2,8.6h18.5c5.3,0,5.9-0.4,5.9-12.8
									c0-11,0.1-18,0.1-21.2L-356,332.6z M-358.8,349L-358.8,349L-358.8,349z"/>
							</g>
						</g>
						<g>
							<g>
								<path class="st30" d="M-358.8,349c2,0,3.9,0.6,3.9,0.6"/>
								<path class="st19" d="M-354.8,351.7c-0.2,0-0.4,0-0.6-0.1c0,0-1.7-0.5-3.4-0.5c-1.1,0-2-0.9-2-2c0-1.1,0.9-2,2-2
									c2.3,0,4.5,0.7,4.5,0.7c1.1,0.3,1.7,1.5,1.3,2.5C-353.2,351.1-354,351.7-354.8,351.7z"/>
							</g>
							<g>
								<path class="st31" d="M-357.3,342.4"/>
							</g>
						</g>
					</g>
					<g>
						<g>
							<g>
								<path class="st29" d="M-290.7,330.5l0.9,18.5c0,0,9.8,0.2,9.8,10.4c0,10.3-10.5,10.6-13.2,10.6c-2.7,0-15.2,0-18.5,0
									c-8.5,0-7.9-2.9-7.9-14.8c0-15.7-0.1-23.1-0.1-23.1L-290.7,330.5z"/>
							</g>
							<g>
								<path class="st19" d="M-293.2,372.1h-18.5c-2.9,0-5.8-0.3-7.7-2.2c-2.3-2.3-2.3-5.9-2.3-12.5l0-2.2c0-15.5-0.1-23-0.1-23
									c0-1.1,0.8-2,1.9-2.1l29-1.7c0.5,0,1.1,0.2,1.5,0.5c0.4,0.4,0.6,0.9,0.7,1.4l0.8,16.9c3.3,0.7,9.9,3.2,9.9,12.2
									C-278,367.5-283.6,372.1-293.2,372.1z M-317.7,334.1c0,3.2,0.1,10.1,0.1,21.2l0,2.2c0,5.1,0,8.5,1.1,9.7
									c0.7,0.7,2.2,1,4.8,1h18.5c5.1,0,11.2-1.5,11.2-8.6c0-7.9-7.1-8.4-7.9-8.4c-1.1,0-1.9-0.9-2-1.9l-0.8-16.5L-317.7,334.1z"/>
							</g>
						</g>
						<g>
							<g>
								<path class="st30" d="M-289.9,349c-2,0-3.9,0.6-3.9,0.6"/>
								<path class="st19" d="M-293.8,351.7c-0.9,0-1.7-0.6-1.9-1.4c-0.3-1.1,0.3-2.2,1.3-2.5c0.1,0,2.3-0.7,4.5-0.7
									c1.1,0,2,0.9,2,2c0,1.1-0.9,2-2,2c-1.6,0-3.3,0.5-3.4,0.5C-293.4,351.6-293.6,351.7-293.8,351.7z"/>
							</g>
							<g>
								<path class="st31" d="M-291.3,342.4"/>
							</g>
						</g>
					</g>
				</g>
				<g>
					<g>
						<path class="st29" d="M-284.1,286.2c0,0,6.9,9.1,6.9,26.7c0,17.6-15.7,31.3-47.2,31.3c-31.4,0-47.2-13.8-47.2-31.3
							c0-17.6,6.9-26.7,6.9-26.7"/>
					</g>
					<g>
						<path class="st19" d="M-324.3,346.2c-36.3,0-49.2-17.2-49.2-33.3c0-18,7-27.5,7.3-27.9c0.7-0.9,1.9-1.1,2.8-0.4
							c0.9,0.7,1.1,2,0.4,2.8c-0.1,0.1-6.5,8.9-6.5,25.4c0,18.1,17.3,29.3,45.1,29.3c27.8,0,45.1-11.2,45.1-29.3
							c0-16.6-6.4-25.4-6.5-25.4c-0.7-0.9-0.5-2.2,0.4-2.8c0.9-0.7,2.2-0.5,2.8,0.4c0.3,0.4,7.3,9.9,7.3,27.9
							C-275.1,329-288.1,346.2-324.3,346.2z"/>
					</g>
				</g>
				<g>
					<path class="st32" d="M-280.4,289.1c0,0-32.5,20.9-43.9,20.9c-11.4,0-43.9-20.9-43.9-20.9"/>
					<path class="st19" d="M-324.3,312c-11.8,0-43.6-20.3-45-21.2c-0.9-0.6-1.2-1.9-0.6-2.8c0.6-0.9,1.9-1.2,2.8-0.6
						c8.9,5.7,34,20.6,42.8,20.6c8.8,0,33.9-14.8,42.8-20.6c0.9-0.6,2.2-0.3,2.8,0.6c0.6,0.9,0.3,2.2-0.6,2.8
						C-280.7,291.7-312.5,312-324.3,312z"/>
				</g>
			</g>
			<g>
				<path class="st33" d="M-375.3,287.9c0,0,3.4-3.2,10,0.5c0,0-7.4,13.1-6.1,26.4C-371.5,314.8-378.6,300.5-375.3,287.9z"/>
				<path class="st19" d="M-371.5,316.8c-0.8,0-1.5-0.4-1.8-1.1c-0.3-0.6-7.4-15.1-4-28.3c0.1-0.4,0.3-0.7,0.6-1
					c0.2-0.2,4.5-4.1,12.3,0.2c0.5,0.3,0.8,0.7,1,1.2c0.1,0.5,0.1,1.1-0.2,1.5c-0.1,0.1-7.1,12.7-5.9,25.2c0.1,1-0.5,1.9-1.5,2.1
					C-371.1,316.8-371.3,316.8-371.5,316.8z M-373.5,289.2c-1.2,5.2-0.5,10.7,0.5,15.1c1.2-6.6,3.5-12.1,4.9-14.9
					C-371,288.2-372.8,288.8-373.5,289.2z"/>
			</g>
			<g>
				<g>
					<g>
						<path class="st32" d="M-318.5,161.6c0,2.6-2.6,4.7-5.9,4.7c-3.2,0-5.9-2.1-5.9-4.7c0-2.6,2.6-4.7,5.9-4.7
							C-321.1,156.8-318.5,159-318.5,161.6z"/>
						<path class="st19" d="M-324.3,168.4c-4.4,0-7.9-3-7.9-6.8c0-3.7,3.5-6.8,7.9-6.8c4.4,0,7.9,3,7.9,6.8
							C-316.4,165.3-320,168.4-324.3,168.4z M-324.3,158.9c-2.1,0-3.8,1.2-3.8,2.7c0,1.5,1.8,2.7,3.8,2.7c2.1,0,3.8-1.2,3.8-2.7
							C-320.5,160.1-322.2,158.9-324.3,158.9z"/>
					</g>
					<g>
						<g>
							<g>
								<g>
									<path class="st29" d="M-354.7,178.7c0,11-8.9,19.9-19.9,19.9c-11,0-19.9-8.9-19.9-19.9c0-11,8.9-19.9,19.9-19.9
										C-363.6,158.9-354.7,167.8-354.7,178.7z"/>
								</g>
								<g>
									<path class="st19" d="M-374.6,200.7c-12.1,0-21.9-9.8-21.9-21.9c0-12.1,9.8-21.9,21.9-21.9c12.1,0,21.9,9.8,21.9,21.9
										C-352.7,190.8-362.5,200.7-374.6,200.7z M-374.6,160.9c-9.8,0-17.8,8-17.8,17.8c0,9.8,8,17.8,17.8,17.8
										c9.8,0,17.8-8,17.8-17.8C-356.7,168.9-364.7,160.9-374.6,160.9z"/>
								</g>
							</g>
							<g class="st34">
								<g>
									<path class="st5" d="M-365,178.7c0,5.3-4.3,9.6-9.6,9.6c-5.3,0-9.6-4.3-9.6-9.6c0-5.3,4.3-9.6,9.6-9.6
										C-369.3,169.1-365,173.4-365,178.7z"/>
								</g>
							</g>
						</g>
						<g>
							<g>
								<g>
									<path class="st29" d="M-294,178.7c0,11,8.9,19.9,19.9,19.9c11,0,19.9-8.9,19.9-19.9c0-11-8.9-19.9-19.9-19.9
										C-285.1,158.9-294,167.8-294,178.7z"/>
								</g>
								<g>
									<path class="st19" d="M-274.1,200.7c-12.1,0-21.9-9.8-21.9-21.9c0-12.1,9.8-21.9,21.9-21.9c12.1,0,21.9,9.8,21.9,21.9
										C-252.2,190.8-262,200.7-274.1,200.7z M-274.1,160.9c-9.8,0-17.8,8-17.8,17.8c0,9.8,8,17.8,17.8,17.8
										c9.8,0,17.8-8,17.8-17.8C-256.2,168.9-264.2,160.9-274.1,160.9z"/>
								</g>
							</g>
							<g class="st34">
								<g>
									<path class="st5" d="M-283.7,178.7c0,5.3,4.3,9.6,9.6,9.6c5.3,0,9.6-4.3,9.6-9.6c0-5.3-4.3-9.6-9.6-9.6
										C-279.4,169.1-283.7,173.4-283.7,178.7z"/>
								</g>
							</g>
						</g>
					</g>
					<g>
						<g>
							<path class="st29" d="M-324.3,294.9c31.6,0,79.2-7.9,79.2-56.4c0-51.7-32.6-75.8-79.2-75.8c-46.6,0-79.2,24-79.2,75.8
								C-403.5,287-355.9,294.9-324.3,294.9z"/>
						</g>
						<g>
							<path class="st19" d="M-324.3,296.9c-21.4,0-39-3.4-52.4-10.2c-19.2-9.7-28.9-25.9-28.9-48.2c0-49.5,29.6-77.8,81.2-77.8
								c51.6,0,81.2,28.4,81.2,77.8c0,22.3-9.7,38.5-28.8,48.2C-285.3,293.5-303,296.9-324.3,296.9z M-324.3,164.7
								c-23.3,0-42.6,6.2-55.7,18c-14.2,12.7-21.4,31.5-21.4,55.8c0,20.6,9,35.6,26.6,44.6c12.8,6.5,29.8,9.8,50.5,9.8
								s37.7-3.3,50.5-9.8c17.7-9,26.6-24,26.6-44.6c0-24.3-7.2-43.1-21.4-55.8C-281.8,170.9-301,164.7-324.3,164.7z"/>
						</g>
					</g>
					<g>
						<path class="st33" d="M-323.2,162.7c-0.4,0-0.8,0-1.1,0c-0.4,0-0.8,0-1.1,0c-25.7,0.2-48.7,8.3-65.3,28.8
							c0,0,22.7,1.6,66.4,1.6s66.4-1.6,66.4-1.6C-274.4,171-297.5,162.9-323.2,162.7z"/>
					</g>
					<g>
						<g>
							<path class="st29" d="M-300.7,192.7c0,0-2.2-11.9-23.6-11.9s-23.6,11.9-23.6,11.9"/>
						</g>
						<g>
							<path class="st19" d="M-300.7,194.7c-1,0-1.8-0.7-2-1.6c-0.1-0.5-2.4-10.3-21.6-10.3c-19.3,0-21.6,9.8-21.6,10.3
								c-0.2,1.1-1.3,1.8-2.4,1.6c-1.1-0.2-1.8-1.3-1.6-2.3c0.1-0.6,2.8-13.6,25.6-13.6s25.5,13,25.6,13.6c0.2,1.1-0.5,2.2-1.6,2.4
								C-300.5,194.7-300.6,194.7-300.7,194.7z"/>
						</g>
					</g>
					<g>
						<path class="st19" d="M-324.3,195.1c-43.3,0-66.3-1.6-66.6-1.6c-0.8-0.1-1.4-0.5-1.7-1.2c-0.3-0.7-0.2-1.5,0.3-2.1
							c15.6-19.3,38.1-29.3,66.8-29.5c0.7,0,1.5,0,2.4,0c28.7,0.3,51.2,10.2,66.8,29.5c0.5,0.6,0.6,1.4,0.3,2.1
							c-0.3,0.7-1,1.2-1.7,1.2C-258,193.5-281.1,195.1-324.3,195.1z M-386.6,189.7c8.3,0.5,29.5,1.4,62.2,1.4
							c32.8,0,53.9-0.9,62.2-1.4c-14.7-16.3-35.2-24.7-61.1-25c0,0,0,0-0.1,0c-0.7,0-1.4,0-2.1,0
							C-351.4,165-371.9,173.3-386.6,189.7z"/>
					</g>
					<g>
						<g>
							<g>
								<path d="M-338.4,189.9c1.2,3.7,4.7,7.8,12.6,8c8.3,0.2,7.9-3.8,7.9-3.8s4.3,4.4,11.5,3.7c7.2-0.7,6.6-5.6,2.8-7.9"/>
							</g>
						</g>
						<g>
							<path d="M-317.7,194.4c0,0-1.3-1.6-1.7-3"/>
						</g>
					</g>
				</g>
				<g>
					<g>
						<g>
							<path class="st19" d="M-345.1,235.4c0,3.3-2.2,6-5,6c-2.8,0-5-2.7-5-6c0-3.3,2.2-6,5-6C-347.3,229.4-345.1,232.1-345.1,235.4
								z"/>
						</g>
						<g>
							<path class="st19" d="M-314.7,235.4c0,3.3,2.2,6,5,6c2.8,0,5-2.7,5-6c0-3.3-2.2-6-5-6C-312.4,229.4-314.7,232.1-314.7,235.4z
								"/>
						</g>
					</g>
					<g class="st34">
						<g>
							<path class="st5" d="M-315.8,243.2c0,6.4-6.3,11.6-14.1,11.6c-7.8,0-14.1-5.2-14.1-11.6s6.3-11.6,14.1-11.6
								C-322.1,231.6-315.8,236.8-315.8,243.2z"/>
						</g>
					</g>
					<g>
						<g>
							<path class="st19" d="M-329.8,250c-1.5,0-2.7-0.2-3-0.3c-1.1-0.2-1.8-1.3-1.6-2.4c0.2-1.1,1.3-1.8,2.4-1.6
								c1.2,0.2,5.1,0.5,6.5-1.3c0.7-0.9,2-1,2.8-0.3c0.9,0.7,1,2,0.3,2.9C-324.2,249.5-327.4,250-329.8,250z"/>
						</g>
						<g>
							<path class="st19" d="M-326.2,239.5c0,2.1-2.2,3.8-4.9,3.8c-2.7,0-4.9-1.7-4.9-3.8c0-2.1,2.2-3.8,4.9-3.8
								C-328.4,235.7-326.2,237.4-326.2,239.5z"/>
						</g>
					</g>
					<g>
						<g>
							<path class="st19" d="M-340.9,224.7c-0.5,0-0.9-0.2-1.3-0.5l-1.4-1.2c-0.9-0.7-1-2-0.2-2.9c0.7-0.9,2-1,2.9-0.2l1.4,1.2
								c0.9,0.7,1,2,0.2,2.9C-339.7,224.5-340.3,224.7-340.9,224.7z"/>
						</g>
						<g>
							<path class="st19" d="M-318.9,224.7c-0.6,0-1.1-0.2-1.5-0.7c-0.7-0.9-0.6-2.1,0.2-2.9l1.4-1.2c0.8-0.7,2.1-0.6,2.9,0.2
								c0.7,0.9,0.6,2.1-0.2,2.9l-1.4,1.2C-318,224.5-318.4,224.7-318.9,224.7z"/>
						</g>
					</g>
				</g>
			</g>
			<g>
				<g>
					<g>
						<g>
							<g>
								<polygon class="st35" points="-372.2,329.7 -336.1,339.4 -341.5,270.9 -377.6,261.2 								"/>
							</g>
							<g>
								<path class="st19" d="M-336.1,341.4c-0.2,0-0.4,0-0.5-0.1l-36.1-9.7c-0.8-0.2-1.4-0.9-1.5-1.8l-5.4-68.6
									c-0.1-0.7,0.2-1.3,0.7-1.7c0.5-0.4,1.2-0.6,1.8-0.4l36.1,9.7c0.8,0.2,1.4,0.9,1.5,1.8l5.4,68.6c0.1,0.7-0.2,1.3-0.7,1.7
									C-335.2,341.3-335.6,341.4-336.1,341.4z M-370.3,328.1l31.9,8.6l-5.1-64.3l-31.9-8.6L-370.3,328.1z"/>
							</g>
						</g>
						<g>
							<g>
								<polygon class="st35" points="-336.1,339.4 -302.1,333.1 -307.6,264.6 -341.5,270.9 								"/>
							</g>
							<g>
								<path class="st19" d="M-336.1,341.4c-0.4,0-0.9-0.1-1.2-0.4c-0.5-0.3-0.7-0.9-0.8-1.5l-5.4-68.6c-0.1-1,0.6-2,1.7-2.2
									l34-6.3c0.6-0.1,1.1,0,1.6,0.4c0.5,0.3,0.7,0.9,0.8,1.5l5.4,68.6c0.1,1-0.6,2-1.7,2.2l-34,6.3
									C-335.8,341.4-336,341.4-336.1,341.4z M-339.4,272.5l5.1,64.5l30-5.6l-5.1-64.5L-339.4,272.5z"/>
							</g>
						</g>
						<g>
							<polygon class="st35" points="-302.1,333.1 -329.7,346.6 -335.2,278.1 -307.6,264.6 							"/>
						</g>
						<g>
							<polygon class="st36" points="-302.8,325.2 -324.9,336.1 -328.6,283.3 -306.5,272.4 							"/>
						</g>
						<g>
							<polygon class="st37" points="-303.3,319.9 -316,325.5 -318.8,304.1 -304.8,298.7 							"/>
						</g>
						<g>
							<path class="st35" d="M-315.9,328c-0.3,0-0.6-0.1-0.9-0.2c-0.6-0.3-1-0.9-1.1-1.5l-1.4-10.6c-0.1-1.1,0.6-2.1,1.7-2.3
								c1.1-0.1,2.1,0.6,2.3,1.7l1,7.7l9.8-5.2c1-0.5,2.2-0.1,2.7,0.8c0.5,1,0.1,2.2-0.8,2.7l-12.4,6.5
								C-315.3,328-315.6,328-315.9,328z"/>
						</g>
						<g>
							<path class="st35" d="M-314.7,287c-1,0-1.9-0.7-2-1.8l-0.4-3.1c-0.1-0.9,0.4-1.8,1.2-2.1l8.3-3.6c1-0.4,2.2,0,2.7,1.1
								c0.4,1,0,2.2-1.1,2.7l-6.9,3l0.2,1.6c0.2,1.1-0.6,2.1-1.7,2.3C-314.6,287-314.6,287-314.7,287z"/>
						</g>
						<g>
							<path class="st35" d="M-319.1,307.2c-0.4,0-0.7-0.1-1.1-0.3c-0.5-0.3-0.9-0.9-1-1.5l-2.3-20.3c-0.1-1.1,0.7-2.1,1.8-2.2
								c1.1-0.1,2.1,0.7,2.2,1.8l2,17.7l11.2-4.2c1-0.4,2.2,0.1,2.6,1.2c0.4,1-0.1,2.2-1.2,2.6l-13.7,5.2
								C-318.6,307.2-318.9,307.2-319.1,307.2z"/>
						</g>
						<g>
							<path class="st19" d="M-329.7,348.7c-0.3,0-0.7-0.1-1-0.3c-0.6-0.3-1-0.9-1-1.6l-5.4-68.6c-0.1-0.8,0.4-1.6,1.1-2l27.6-13.5
								c0.6-0.3,1.3-0.3,1.9,0.1c0.6,0.3,1,0.9,1,1.6l5.4,68.6c0.1,0.8-0.4,1.6-1.1,2l-27.6,13.5
								C-329.1,348.6-329.4,348.7-329.7,348.7z M-333,279.3l5.1,64.2l23.7-11.6l-5.1-64.2L-333,279.3z"/>
						</g>
						<g>
							<path class="st35" d="M-320.2,330.1c-0.8,0-1.5-0.4-1.8-1.1c-0.5-1-0.1-2.2,0.9-2.7l4.2-2.1c1-0.5,2.2-0.1,2.7,0.9
								c0.5,1,0.1,2.2-0.9,2.7l-4.2,2.1C-319.6,330-319.9,330.1-320.2,330.1z"/>
						</g>
						<g>
							<path class="st32" d="M-315.7,289.7c0.1,0.9,1,1.5,1.9,1.4c0.9-0.1,1.5-1,1.4-1.9c-0.1-0.9-1-1.5-1.9-1.4
								C-315.1,287.9-315.8,288.7-315.7,289.7z"/>
						</g>
					</g>
					<g>
						<g>
							<path class="st38" d="M-362.6,294.5c0.3,0.1,0.5,0.1,0.8,0.1c0.3,0,0.5-0.1,0.7-0.2c0.5-0.2,0.8-0.7,1-1.2
								c0.2-0.5,0.1-1.1-0.1-1.5c-0.2-0.5-0.7-0.8-1.2-1c-1.1-0.3-2.2,0.3-2.5,1.3C-364.3,293-363.7,294.2-362.6,294.5z
								 M-363.1,292.3c0.1-0.4,0.5-0.7,0.9-0.8c0.1,0,0.3,0,0.4,0c0.6,0.2,0.9,0.8,0.7,1.3c-0.1,0.3-0.3,0.5-0.5,0.6
								c-0.3,0.1-0.5,0.2-0.8,0.1c-0.3-0.1-0.5-0.3-0.6-0.5C-363.1,292.8-363.2,292.5-363.1,292.3z"/>
						</g>
						<g>
							<path class="st38" d="M-357.9,308.2c-3.3,0.3-6.2-2-6.5-5.3c-0.3-2.7,1.3-5.2,3.8-6.2c0-0.6,0.2-1.2,0.4-1.6
								c-3.5,0.9-5.9,4.2-5.6,8c0.4,4.1,4.1,7,8.1,6.6c3.6-0.4,6.4-3.3,6.6-6.8c-0.5,0.2-1,0.4-1.5,0.5
								C-353.2,305.9-355.3,307.9-357.9,308.2z"/>
						</g>
						<g>
							<path class="st38" d="M-354.6,291.1c-0.7,0.1-1.4,0.3-2.1,0.6c0.1,0.1,0.1,0.3,0.1,0.5c0,0.4-0.4,0.7-0.8,0.7
								c-0.2,0-0.4-0.2-0.5-0.3c-0.6,0.5-1.2,1.2-1.5,1.9c-0.1,0.2-0.2,0.4-0.3,0.6c-0.2,0.5-0.3,1-0.4,1.6c0,0.4-0.1,0.7,0,1.1
								c0,0.1,0,0.2,0,0.3c0.3,3.4,3.4,5.9,6.8,5.5c0.2,0,0.4-0.1,0.6-0.1c0.1-0.5,0.1-1,0.1-1.5c0-0.1,0-0.1,0-0.2
								c-0.1-0.6-0.2-1.2-0.5-1.7l0,0c0-0.1-0.1-0.2-0.1-0.2c0,0,0-0.1,0-0.1c0-0.4,0.2-0.8,0.6-0.8c0,0,0.1,0,0.1,0
								c0.3,0,0.5,0.2,0.6,0.4c0,0,0,0,0,0.1c0.3,0.6,0.4,1.2,0.5,1.9c0,0.1,0,0.2,0,0.3c0,0.4,0,0.9,0,1.3c2.2-1.1,3.7-3.6,3.4-6.2
								C-348.1,293.2-351.2,290.8-354.6,291.1z M-354.5,294.2c0-0.1,0.1-0.2,0.3-0.2c0.1,0,0.2,0.1,0.2,0.3c0,0.1-0.1,0.2-0.3,0.2
								C-354.4,294.5-354.5,294.3-354.5,294.2z M-356.7,293.9c0-0.3,0.3-0.5,0.5-0.4c0.3,0,0.5,0.3,0.4,0.5c0,0.3-0.3,0.5-0.5,0.4
								C-356.5,294.4-356.7,294.2-356.7,293.9z M-352.1,296.1l-1.1,1.2l-0.1,0.1c0,0-0.1,0-0.1,0l-2.3-0.5l1.9,1c0,0,0,0,0.1,0.1
								l0.1,1l0.1,0.5l-0.4-0.7c0-0.1-0.1-0.1-0.2,0l-1,1.6c0,0.1-0.1,0.1-0.2,0l-2.8-4.1l-0.4-0.6l-0.1-0.2c-0.1-0.1,0-0.2,0.1-0.2
								l0.1,0l3.2,0.2l3.1,0.2C-352,295.9-352,296-352.1,296.1z"/>
						</g>
					</g>
				</g>
				<g>
					<g>
						<g>
							<path class="st29" d="M-374.9,296.5c5.9-0.9,9.9,4.7,11,12.2c1.1,7.5-1.1,13.9-7,14.8c-5.9,0.9-12.2-4.4-13.3-11.8
								C-385.3,304.2-380.7,297.3-374.9,296.5z"/>
						</g>
						<g>
							<path class="st19" d="M-372.2,325.6c-3,0-6-1.2-8.5-3.4c-3-2.6-4.9-6.2-5.5-10.3c-1.2-8.4,3.8-16.4,11-17.5c0,0,0,0,0,0
								c6.6-1,11.9,4.6,13.3,13.9c1.4,9.3-2.1,16.1-8.7,17.1C-371.1,325.5-371.6,325.6-372.2,325.6z M-374.6,298.5
								c-4.9,0.7-8.5,6.7-7.6,12.8c0.5,3.1,1.9,5.8,4.2,7.8c2.1,1.8,4.6,2.6,6.8,2.3c5.2-0.8,6.1-7.2,5.3-12.5
								C-366.6,303.6-369.4,297.7-374.6,298.5L-374.6,298.5z"/>
						</g>
					</g>
					<g>
						<g>
							<g>
								<path class="st29" d="M-277.4,290.2c0,0,7,6.7,7.5,20.3c0.3,11-7.6,18.7-14.9,18.7c-12.9,0-28.9-3.2-27.8-16.1
									c1.5-18.4,23-10.5,23-10.5"/>
							</g>
							<g>
								<path class="st19" d="M-285,331.2c-7.2,0-19.9-1-26.1-7.7c-2.6-2.9-3.8-6.4-3.5-10.5c0.4-5.4,2.5-9.3,6.2-11.7
									c7.6-4.8,19-0.7,19.5-0.5c1.1,0.4,1.6,1.6,1.2,2.6c-0.4,1.1-1.6,1.6-2.6,1.2c-0.1,0-10-3.6-15.9,0.2c-2.6,1.6-4,4.5-4.3,8.6
									c-0.2,3,0.5,5.4,2.4,7.4c3.8,4.1,12.2,6.4,23.1,6.4c0.1,0,0.1,0,0.2,0c2.8,0,5.8-1.4,8.2-3.9c3.2-3.3,4.8-7.8,4.7-12.7
									c-0.4-12.5-6.8-18.8-6.8-18.9c-0.8-0.8-0.8-2.1-0.1-2.9c0.8-0.8,2-0.8,2.9-0.1c0.3,0.3,7.7,7.4,8.1,21.7
									c0.2,6-1.9,11.6-5.8,15.6c-3.2,3.3-7.2,5.1-11.1,5.1C-284.8,331.2-284.9,331.2-285,331.2z"/>
							</g>
						</g>
						<g>
							<path class="st33" d="M-286.8,289.8c0,0,4-3.3,9.3-0.1c0,0-3.1,3.8-12,12.8C-289.5,302.6-286.9,297.1-286.8,289.8z"/>
							<path class="st19" d="M-289.5,304.6c-0.4,0-0.8-0.1-1.2-0.4c-0.8-0.6-1.1-1.6-0.7-2.5c0,0,2.4-5.2,2.5-11.9
								c0-0.6,0.3-1.2,0.7-1.5c0.2-0.2,5.2-4.2,11.7-0.3c0.5,0.3,0.9,0.8,1,1.4c0.1,0.6-0.1,1.2-0.4,1.6c-0.1,0.2-3.3,3.9-12.1,13
								C-288.4,304.4-289,304.6-289.5,304.6z M-284.8,291c-0.1,1.5-0.2,3-0.5,4.3c2-2.1,3.4-3.7,4.4-4.8
								C-282.7,290.1-284,290.6-284.8,291z"/>
						</g>
					</g>
				</g>
			</g>
		</g>
	</g>
</g>
<g>
	<path class="st39" d="M317,272.9c0,0,10.4,0.4,11.2-10.8c-3.8,0.6-6.1,1.2-6.1,1.2"/>
	<path class="st40" d="M278.9,268.8v20.4l2.3-0.2c-7.3,0-10.4,5.1-9.9,9.8c0.5,4.7,4.3,4.6,6.8,4.6c2.5,0,4.3,0,13,0
		s7.6-6.1,7.6-6.1v-28.4"/>
	<path class="st39" d="M319.7,231.9c0,0,5.2,7.9,5.2,23c0,15.1-11.7,27-35.1,27c-23.4,0-35.1-11.9-35.1-27c0-15.1,5.2-23,5.2-23"/>
	<g>
		<path class="st39" d="M290.7,227c0,0,13.3,12.3,12.9,31.2c-0.3,15.8-8.3,22.3-15.2,21.9c-6.7-0.3-8.6-4.6-9.3-7.6
			c-0.9-4.3,0.6-14.5,4.8-23.2"/>
		<path class="st39" d="M289.2,275c0,0-2.1,3.5-5.9,3.9"/>
	</g>
	<g>
		<path class="st41" d="M319.1,231.9c0,0-35.8,11.9-63.2,8.1l3.7-9.5"/>
		<g>
			<g>
				<path class="st41" d="M257.6,235.5c0,0-3.8,9.1,4.6,19.3c0,0,4.1-4.3,3.2-10.2C264.5,238.7,257.6,235.5,257.6,235.5z"/>
			</g>
			<path class="st42" d="M259.3,239c-0.2,1.6-1.1,2.8-2.1,2.7l-1.5-0.2c-0.9-0.1-1.5-1.5-1.3-3.2l0.5-3.8c0.2-1.6,1.1-2.8,2.1-2.7
				l1.5,0.2c0.9,0.1,1.5,1.5,1.3,3.2L259.3,239z"/>
		</g>
	</g>
	<g>
		<g>
			<path class="st5" d="M289.5,234.4c24.7,0.1,61.9-6.6,62-48.8c0.2-44.9-25.2-65.9-61.6-66c-36.4-0.1-61.9,20.6-62.1,65.6
				C227.7,227.3,264.8,234.3,289.5,234.4z"/>
			<path class="st43" d="M351.3,184.3c0,0,6.9,44.6-52.6,49.5c0,0,6.4-3,7.6-26.4c0.4-8.5,0.8-14.9-4.3-23.4
				c-7.4-12.6-22.3-9.7-22.3-9.7s-1.7-26.7-28.5-26.9c-12.3-0.1-17.9,9.3-17.9,9.3s7.5-33.8,49.6-36.5
				C355,115.7,351.3,184.3,351.3,184.3z"/>
			<path class="st44" d="M289.7,234.4c24.7,0,61.8-6.8,61.8-49c0-44.9-25.4-65.8-61.8-65.8c-36.4,0-61.8,20.9-61.8,65.8
				C227.9,227.6,265,234.4,289.7,234.4z"/>
			<path class="st44" d="M289,119.6c0,0-2.4-3.6-1.7-10.7"/>
		</g>
		<path class="st45" d="M230.4,189.4c5.1,0,5.5-2.5,5.5-6.1c0-3.6-0.6-7.2-5.5-7.2c-4.9,0-9.4,3.6-9.4,7.2
			C221.1,186.9,225.3,189.4,230.4,189.4z"/>
		<path class="st44" d="M227.9,182.3c0,0-1.4,2.4-6.2,2.4"/>
		<g>
			<path class="st19" d="M241.2,171.7c0,3.4,1.8,6.1,3.9,6.1c2.2,0,3.9-2.7,3.9-6.1c0-3.4-1.8-6.1-3.9-6.1
				C242.9,165.5,241.2,168.3,241.2,171.7z"/>
		</g>
	</g>
</g>
<line class="st46" x1="169.7" y1="146.4" x2="169.7" y2="88.6"/>
<polygon class="st46" points="169.3,92.9 169,70.9 188.2,81.7 207.4,92.4 188.5,103.6 169.6,114.9 "/>
</svg>
