<svg id="레이어_1" data-name="레이어 1" xmlns="http://www.w3.org/2000/svg" viewBox="0 0 326.87 360.57"><defs><style>.cls-1{fill:#f2b700;}.cls-1,.cls-2,.cls-3,.cls-4,.cls-7,.cls-8,.cls-9{stroke:#0a0305;}.cls-1,.cls-2,.cls-3,.cls-4,.cls-6,.cls-7,.cls-8,.cls-9{stroke-linecap:round;stroke-linejoin:round;}.cls-1,.cls-2,.cls-3,.cls-4,.cls-6,.cls-7{stroke-width:5px;}.cls-2,.cls-5{fill:#fff;}.cls-3{fill:#327eac;}.cls-4{fill:#035b7f;}.cls-6{fill:#7e6866;stroke:#7e6866;}.cls-7,.cls-9{fill:none;}.cls-8{fill:#e8ae00;}.cls-8,.cls-9{stroke-width:2px;}.cls-10{fill:#0a0305;}.cls-11{fill:#cf822b;}.cls-12{fill:#2c3e1e;}.cls-13{fill:#db619d;}.cls-14{fill:#d23267;}.cls-15{fill:#ea6268;}.cls-16{fill:#d6383e;}.cls-17{fill:#cbcbcb;}.cls-18{fill:#3c3d3d;}</style></defs><path class="cls-1" d="M76.92,332.77v23.76l2.73-.23c-8.56,0-12.1,6-11.58,11.37s5,5.4,7.91,5.4H91.1c10.06,0,8.84-7.17,8.84-7.17V332.77" transform="translate(-21.21 -15)"/><path class="cls-1" d="M131.06,332.77v23.76l-2.73-.23c8.57,0,12.1,6,11.58,11.37s-5,5.4-7.91,5.4H116.88c-10.06,0-8.83-7.17-8.83-7.17V332.77" transform="translate(-21.21 -15)"/><path class="cls-2" d="M141.35,289.75s6.42,9.17,6.42,26.83-14.59,31.5-43.78,31.5-43.78-13.84-43.78-31.5,6.43-26.83,6.43-26.83" transform="translate(-21.21 -15)"/><path class="cls-3" d="M102.8,294s4.44,10.56-5.33,22.47c0,0-4.74-5.05-3.72-11.92S102.8,294,102.8,294Z" transform="translate(-21.21 -15)"/><path class="cls-3" d="M105.11,294s-4.43,10.56,5.34,22.47c0,0,4.74-5.05,3.72-11.92S105.11,294,105.11,294Z" transform="translate(-21.21 -15)"/><path class="cls-3" d="M142.59,288.12S136,303.59,104,299.23c-32,4.36-38.6-11.11-38.6-11.11" transform="translate(-21.21 -15)"/><path class="cls-4" d="M109,298.37a3.46,3.46,0,0,1-3.46,3.46h-3.15A3.46,3.46,0,0,1,99,298.37V294a3.47,3.47,0,0,1,3.47-3.47h3.15A3.46,3.46,0,0,1,109,294Z" transform="translate(-21.21 -15)"/><path class="cls-5" d="M104,292.68c32,0,80.23-8,80.22-57.14,0-52.41-33-76.77-80.22-76.77s-80.2,24.36-80.21,76.77C23.76,284.7,72,292.68,104,292.68Z" transform="translate(-21.21 -15)"/><path class="cls-6" d="M184.2,234c-7-13.47-26-11.21-26-11.21s-2.14-31.12-33.38-31.23A24.71,24.71,0,0,0,104,202.42a24.71,24.71,0,0,0-20.85-10.89c-31.24.11-33.38,31.23-33.38,31.23s-18.92-2.26-26,11.21c0,0-5.56-75.2,80.21-75.2S184.2,234,184.2,234Z" transform="translate(-21.21 -15)"/><path class="cls-7" d="M104,292.68c32,0,80.23-8,80.22-57.14,0-52.41-33-76.77-80.22-76.77s-80.2,24.36-80.21,76.77C23.76,284.7,72,292.68,104,292.68Z" transform="translate(-21.21 -15)"/><path class="cls-7" d="M105.37,158.77s-8.73-4.23-6.14-12.48" transform="translate(-21.21 -15)"/><path class="cls-8" d="M104,240.24c7,0,12.64-2.93,12.64-7.11s-6-8.37-12.64-8.37-12.64,4.18-12.64,8.37S97,240.24,104,240.24Z" transform="translate(-21.21 -15)"/><path class="cls-9" d="M111.27,231.87s-1.59,2.77-7.28,2.77-7.28-2.77-7.28-2.77" transform="translate(-21.21 -15)"/><path class="cls-10" d="M90.43,219.51c0,4-2.05,7.17-4.59,7.17s-4.6-3.21-4.6-7.17,2.06-7.17,4.6-7.17S90.43,215.55,90.43,219.51Z" transform="translate(-21.21 -15)"/><path class="cls-10" d="M117.55,219.51c0,4,2,7.17,4.59,7.17s4.6-3.21,4.6-7.17-2.06-7.17-4.6-7.17S117.55,215.55,117.55,219.51Z" transform="translate(-21.21 -15)"/><path class="cls-11" d="M132.33,256.5a1.5,1.5,0,0,0-2,.84L126.13,268a1.5,1.5,0,1,0,2.78,1.11l4.25-10.62A1.5,1.5,0,0,0,132.33,256.5Zm-4.5-1.8a1.5,1.5,0,0,0-2,.84l-4.24,10.62a1.5,1.5,0,1,0,2.78,1.11l4.25-10.62A1.5,1.5,0,0,0,127.83,254.7Zm-4.6-1.84a1.5,1.5,0,0,0-2,.84L117,264.32a1.5,1.5,0,1,0,2.79,1.11l4.24-10.62A1.5,1.5,0,0,0,123.23,252.86Zm-3.77.11-9.32,23.3-2.79-1.11,9.32-23.31a1.5,1.5,0,0,1,2.79,1.12Zm-4.62-1.85-9.32,23.31-2.78-1.12,9.32-23.3a1.51,1.51,0,0,1,2-.84A1.5,1.5,0,0,1,114.84,251.12Z" transform="translate(-21.21 -15)"/><path class="cls-12" d="M112,250.16,110.91,253l-5-1.94a1.5,1.5,0,0,1,1.09-2.8Zm55.05,21.06-33.9-13.15-1.09,2.79L166,274a1.5,1.5,0,1,0,1.09-2.79Zm-.94,6.56a1.5,1.5,0,0,1-1.94.86l-33.9-13.15,1.08-2.8,33.9,13.15A1.5,1.5,0,0,1,166.11,277.78Zm-55.91-23-1.08,2.8-5-1.95a1.5,1.5,0,1,1,1.09-2.79Z" transform="translate(-21.21 -15)"/><path class="cls-2" d="M147,316.82a43,43,0,0,0,20.33-24.39c4.54-14.37-.21-22.69-6-24.43s-8.82,1.49-10.06,4C151.19,272,136.05,293.3,147,316.82Z" transform="translate(-21.21 -15)"/><path class="cls-2" d="M160.36,273s-.69-3.82-3.71-5.32" transform="translate(-21.21 -15)"/><path class="cls-2" d="M44.89,282.07S39.31,302.4,51.34,321c10,15.43,22,16.93,28.52,12.39s5.94-10,4.53-13.19" transform="translate(-21.21 -15)"/><path class="cls-2" d="M75.82,328.67s4.24,2.2,8.2.29" transform="translate(-21.21 -15)"/><path class="cls-13" d="M109.42,327.54l-25.29.24a6,6,0,0,1-6-5.94l0-3,37.28-.36,0,3A6,6,0,0,1,109.42,327.54ZM53,292.58l86.93-.84,2.19-4.73a3.44,3.44,0,0,0-3.15-4.87l-85.2.83a3.42,3.42,0,0,0-3.05,4.92Z" transform="translate(-21.21 -15)"/><path class="cls-14" d="M54.31,295.33l6.29,12.93a18.84,18.84,0,0,0,17.14,10.61l37.9-.37a18.86,18.86,0,0,0,16.94-10.94l6-13Z" transform="translate(-21.21 -15)"/><path class="cls-12" d="M143.6,282.59a5.5,5.5,0,0,0-4.68-2.52l-85.2.82a5.5,5.5,0,0,0-4.93,7.81l9.94,20.46A21,21,0,0,0,76,320.87v1.47a7.62,7.62,0,0,0,7.68,7.53l26.22-.26a7.61,7.61,0,0,0,7.53-7.67l0-1.47a21,21,0,0,0,17-12L144,287.79A5.44,5.44,0,0,0,143.6,282.59Zm-91,3.09a1.36,1.36,0,0,1,1.14-.65l85.2-.82a1.34,1.34,0,0,1,1.15.63,1.29,1.29,0,0,1,.09,1.3,1.89,1.89,0,0,0-.06.18l-1.7,4.74-84,.81-1.79-4.71a1.08,1.08,0,0,0-.07-.18A1.34,1.34,0,0,1,52.62,285.68Zm57.25,39.79-26.22.25a3.46,3.46,0,0,1-3.49-3.42v-1.38l33.13-.32V322A3.46,3.46,0,0,1,109.87,325.47Zm20.82-18.78a16.85,16.85,0,0,1-15.07,9.74h-.33l-37.23.36h-.34a16.86,16.86,0,0,1-15.29-9.51l-6-11.28,80.1-.77Z" transform="translate(-21.21 -15)"/><path class="cls-15" d="M339.46,370.47c-40.82-56.15-63.91-131.73-63.91-131.73H204.86S181.77,314.32,141,370.47h53.48V358A45.78,45.78,0,1,1,286,358v12.48Z" transform="translate(-21.21 -15)"/><polygon class="cls-5" points="218.99 188.48 160.56 188.48 168.22 223.74 218.99 223.74 269.77 223.74 277.43 188.48 218.99 188.48"/><path class="cls-15" d="M254.34,89.16H226.07s-2.09,69-12.47,114.32h53C256.43,157.06,254.34,89.16,254.34,89.16Z" transform="translate(-21.21 -15)"/><polygon class="cls-16" points="219 255.54 252.44 225.45 185.55 225.45 219 255.54"/><path class="cls-16" d="M225.19,107.86h30c-.66-11.4-.89-18.7-.89-18.7H226.07S225.84,96.47,225.19,107.86Z" transform="translate(-21.21 -15)"/><polygon class="cls-17" points="218.99 47.66 194.86 47.66 194.86 74.16 218.99 74.16 243.13 74.16 243.13 47.66 218.99 47.66"/><polygon class="cls-15" points="218.99 23.23 209.38 23.23 209.38 47.66 218.99 47.66 228.6 47.66 228.6 23.23 218.99 23.23"/><path class="cls-17" d="M219.58,167.56h41.25c-2-14.18-3.42-28.52-4.39-41H224C223,139,221.59,153.38,219.58,167.56Z" transform="translate(-21.21 -15)"/><path class="cls-5" d="M258.32,147.05c-.76-7.14-1.38-14.07-1.88-20.5H224c-.5,6.43-1.12,13.36-1.88,20.5Z" transform="translate(-21.21 -15)"/><polygon class="cls-5" points="194.86 47.66 194.86 60.91 243.13 60.91 243.13 47.66 218.99 47.66 194.86 47.66"/><path class="cls-16" d="M194.43,358a45.56,45.56,0,0,1,10.95-29.67H167A362.47,362.47,0,0,1,141,370.47h53.48Z" transform="translate(-21.21 -15)"/><path class="cls-16" d="M286,358v12.48h53.48a362.47,362.47,0,0,1-26.07-42.15H275A45.56,45.56,0,0,1,286,358Z" transform="translate(-21.21 -15)"/><path class="cls-18" d="M281.6,243.14h12.92l9.57-44H270.17c-1.77-8.57-3.27-17.79-4.55-27.14h14.62V155.39h-8.78v7.78h-6.78q-1.51-11.25-2.72-23.85c-.26-2.85-.49-5.65-.72-8.38h15.39V114.39h-8.78v7.77h-7.28c-.92-12.72-1.43-23-1.66-28.61h9.82V58.27H254.21V33.84H244.6V15h-8.79V33.84H226.2V58.27H211.68V93.55h9.82c-.23,5.58-.73,15.91-1.65,28.61h-7.29v-7.77h-8.78v16.55h15.39q-.31,4-.7,8.1-1.2,12.75-2.74,24.13H209v-7.78h-8.78V172h14.58c-1.31,9.41-2.86,18.65-4.68,27.14H176.32l9.57,44h12.92c-6.21,18.5-27.87,78.61-61.41,124.74l-5.07,7h66.49V358a41.39,41.39,0,1,1,82.77,0v16.87h66.49l-5.07-7C309.49,321.78,287.82,261.64,281.6,243.14Zm8.71,113.64a49.79,49.79,0,0,0-6.95-24.25l23,1.65Zm-9.84-33.26,11.15-30.29c4.43,10.14,9.55,21.06,15.31,32.18ZM284,274.9l-31.8-8.48,21.35-19.8C275.57,252.72,279.09,262.68,284,274.9ZM244.6,243.14h19.75L244.6,261.45Zm-8.79,18.31-19.76-18.31h19.76Zm0,43L200.23,283l35.58-9.49Zm8.79-30.95L280.18,283,244.6,304.44ZM227.06,141.57c.34-3.48.67-7,1-10.63h24.35c.32,3.78.66,7.45,1,11.07.63,6.84,1.37,14,2.24,21.16H224.75C225.65,155.84,226.41,148.56,227.06,141.57ZM235,42.62h10.44V58.27H235ZM220.46,84.77V67.05H260V84.77H220.46Zm29.66,8.78c.23,5.47.73,15.8,1.65,28.61H228.65c.92-12.78,1.42-23.13,1.64-28.61ZM223.62,172h33.14c1.25,9.3,2.72,18.52,4.44,27.14H219.05C220.83,190.54,222.33,181.3,223.62,172ZM193,234.35l-5.75-26.48h106l-5.75,26.48H193Zm13.93,12.27,21.35,19.8-31.8,8.48C201.32,262.68,204.84,252.72,206.9,246.62Zm-18.11,46.61,11.15,30.29-26.46,1.89C179.24,314.29,184.36,303.37,188.79,293.23Zm1.31,63.55L174,334.18l23-1.65A49.79,49.79,0,0,0,190.1,356.78Zm-40.68,9.29c6.08-8.9,11.74-18.18,17-27.5l19.53,27.5Zm58.47-46.4-10.34-28.05,29.76,17.94A50.1,50.1,0,0,0,207.89,319.67Zm45.21-10.11,29.76-17.94-10.34,28.06A50,50,0,0,0,253.1,309.56Zm41.39,56.51L314,338.58c5.23,9.31,10.89,18.6,17,27.49Z" transform="translate(-21.21 -15)"/><rect class="cls-18" x="189.33" y="201.87" width="8.49" height="8.49"/><rect class="cls-18" x="214.75" y="201.87" width="8.49" height="8.49"/><rect class="cls-18" x="240.16" y="201.87" width="8.49" height="8.49"/></svg>