<?xml version="1.0" encoding="utf-8"?>
<!-- Generator: Adobe Illustrator 25.1.0, SVG Export Plug-In . SVG Version: 6.00 Build 0)  -->
<svg version="1.1" id="레이어_1" xmlns="http://www.w3.org/2000/svg" xmlns:xlink="http://www.w3.org/1999/xlink" x="0px"
	 y="0px" viewBox="0 0 340.6 369.5" style="enable-background:new 0 0 340.6 369.5;" xml:space="preserve">
<style type="text/css">
	.st0{fill:#DDAD6D;}
	.st1{fill:#F6D9AC;}
	.st2{fill:#FDF1E6;}
	.st3{fill:#3C3D3D;}
	.st4{fill:#EB7C66;stroke:#0A0305;stroke-width:5;stroke-linecap:round;stroke-linejoin:round;}
	.st5{fill:#FFFFFF;}
	.st6{fill:none;stroke:#91BD28;stroke-width:5;stroke-linecap:round;stroke-linejoin:round;}
	.st7{fill:#ACDAF1;stroke:#0A0305;stroke-width:5;stroke-linecap:round;stroke-linejoin:round;}
	.st8{fill:none;stroke:#0A0305;stroke-width:5;stroke-linecap:round;stroke-linejoin:round;}
	.st9{fill:#7D473F;stroke:#0A0305;stroke-width:5;stroke-linecap:round;stroke-linejoin:round;}
	.st10{fill:none;stroke:#6A3732;stroke-width:5;stroke-linecap:round;stroke-linejoin:round;}
	.st11{fill:#EB6953;stroke:#0A0305;stroke-width:5;stroke-linecap:round;stroke-linejoin:round;}
	.st12{fill:#91BD28;stroke:#0A0305;stroke-width:5;stroke-linecap:round;stroke-linejoin:round;}
	.st13{fill:#BB402A;}
	.st14{fill:#ED7300;stroke:#0A0305;stroke-width:5;stroke-linecap:round;stroke-linejoin:round;}
	.st15{fill:#0A0305;}
	.st16{fill:#A8D0E3;}
	.st17{fill:#6AB3CE;}
	.st18{fill:#FFDEFD;}
	.st19{fill:#090304;}
	.st20{fill:#FCBD00;}
	.st21{fill:#3384B6;}
	.st22{fill:#045F82;}
	.st23{fill:#7F6967;}
	.st24{fill:#F4B400;}
	.st25{fill:#F7DEB5;}
	.st26{fill:#E2C08F;}
	.st27{fill:#FFF4E9;}
	.st28{fill:#D3BFAE;}
	.st29{fill:#C98B56;}
	.st30{fill:#C48445;}
	.st31{fill:#C48445;stroke:#090304;stroke-width:4;stroke-linecap:round;stroke-linejoin:round;stroke-miterlimit:10;}
	.st32{fill:#FC782F;}
	.st33{fill:#00B053;}
	.st34{opacity:0.7;}
	.st35{fill:#E0A77F;}
	.st36{fill:#FFEFDF;}
	.st37{fill:#00CE7C;}
	.st38{fill:#CD8F6A;}
</style>
<path class="st0" d="M-220.8,137.6h-24.9v26c0,0.5,0.4,0.9,0.9,0.9c0.3,0,0.6-0.2,0.8-0.4c2.8-4.6,9.4-12.5,22.9-12.6
	c13.6,0.1,21,8,23.8,12.6c0.2,0.4,0.8,0.6,1.2,0.3c0.3-0.2,0.5-0.5,0.4-0.8v-26H-220.8z"/>
<path class="st1" d="M-247.8,90.3h-35.7c-7.4,60-4.6,145.1-4.6,145.1h45C-243.2,235.4-240.4,150.3-247.8,90.3z"/>
<path class="st2" d="M-257.5,46.6h-15.4c-2.6,0-4.9,1.9-5.4,4.5l-7.1,34.7c-0.4,2.1,0.9,4.1,3,4.5c0.2,0,0.5,0.1,0.8,0.1h32.1
	c2.1,0,3.9-1.7,3.9-3.9c0-0.2,0-0.5-0.1-0.7l-6.3-34.6C-252.5,48.5-254.8,46.6-257.5,46.6z"/>
<circle class="st1" cx="-265.6" cy="14.8" r="10.7"/>
<path class="st1" d="M-311.4,143.4H-347c-7.4,60-4.7,145.1-4.7,145.1h45C-306.7,288.5-303.9,203.4-311.4,143.4z"/>
<path class="st2" d="M-321,99.7h-15.5c-2.6,0-4.9,1.9-5.4,4.4l-7.1,34.7c-0.4,2.1,0.9,4.1,3,4.6c0.3,0.1,0.5,0.1,0.8,0.1h32.1
	c2.1,0,3.9-1.7,3.9-3.9c0-0.2,0-0.5-0.1-0.7l-6.3-34.6C-316.1,101.7-318.4,99.8-321,99.7z"/>
<circle class="st1" cx="-329.2" cy="67.9" r="10.7"/>
<path class="st1" d="M-193.6,90.3h35.7c7.4,60,4.7,145.1,4.7,145.1h-45C-198.3,235.4-201,150.3-193.6,90.3z"/>
<path class="st2" d="M-183.9,46.6h15.4c2.6,0,4.9,1.9,5.5,4.5l7,34.7c0.4,2.1-0.9,4.1-3,4.5c-0.3,0.1-0.5,0.1-0.8,0.1h-32.1
	c-2.1,0-3.9-1.7-3.9-3.8c0-0.2,0-0.5,0.1-0.7l6.3-34.6C-188.9,48.5-186.6,46.6-183.9,46.6z"/>
<circle class="st1" cx="-175.8" cy="14.8" r="10.7"/>
<path class="st1" d="M-130,143.4h35.7c7.4,60,4.7,145.1,4.7,145.1h-45C-134.7,288.5-137.5,203.4-130,143.4z"/>
<path class="st2" d="M-120.3,99.7h15.4c2.6,0,4.9,1.9,5.5,4.4l7.1,34.7c0.4,2.1-0.9,4.1-3,4.6c-0.3,0.1-0.5,0.1-0.8,0.1h-32.1
	c-2.1,0-3.9-1.7-3.9-3.8c0-0.2,0-0.5,0.1-0.7l6.3-34.6C-125.3,101.6-123,99.7-120.3,99.7z"/>
<circle class="st1" cx="-112.3" cy="67.9" r="10.7"/>
<path class="st1" d="M-220.8,186.1h-0.3c-39.4,21-76.8,45.6-111.7,73.5l-24.8,93.4h275.8l-24.7-88
	C-130.5,245-166.2,215.4-220.8,186.1z"/>
<path class="st0" d="M-106.4,265c-24.1-20-59.9-49.6-114.4-78.9h-0.3c-39.4,21-76.8,45.6-111.7,73.5l-23.1,87
	c55.7-61.9,103.7-93.2,124.3-105c6.7-3.8,14.9-3.8,21.6,0c21,12,70.4,44.3,127.4,108.5L-106.4,265z"/>
<path class="st2" d="M-54.8,362.4c-6.9-6.9-29.9-31.4-37.4-59.9c-1.6-6.1,2.3-12,8.9-14.7c1.7-0.7,2.5-2.6,1.8-4.3
	c-0.2-0.5-0.5-0.9-0.9-1.2c-16.1-14.4-73.1-63.1-138.3-96.4c-65.2,33.3-122.1,82-138.3,96.4c-1.4,1.2-1.5,3.3-0.3,4.6
	c0.3,0.4,0.7,0.7,1.2,0.9c6.7,2.7,10.6,8.6,8.9,14.7c-7.6,28.5-30.5,53-37.4,59.9c-0.8,0.8-0.1,1.9,1.2,1.9h29.5
	c0.6,0,1.2-0.3,1.5-0.9c24.8-66,52.3-97.3,66-108c2.9-2.3,7.8-0.4,7.5,2.8c-6.5,60.1-29,96.3-34.5,104.4c-0.5,0.8,0.2,1.7,1.4,1.7
	h31.5c0.7,0.1,1.4-0.4,1.5-1.1c5.6-42.3,11.5-70.9,16.5-90c5.5-21.1,19.3-40.2,39.4-54.9l0,0c2.6-1.5,5.8-1.5,8.5-0.1l0.1,0.1
	c20.1,14.7,33.9,33.8,39.4,54.9c5,19.1,10.9,47.7,16.5,90c0.2,0.7,0.8,1.1,1.5,1.1h31.5c1.2,0,1.9-0.9,1.4-1.7
	c-5.5-8.1-27.9-44.3-34.5-104.4c-0.4-3.2,4.6-5.1,7.5-2.8c13.7,10.7,41.2,42,66,108c0.3,0.6,0.8,0.9,1.5,0.9H-56
	C-54.8,364.4-54,363.2-54.8,362.4z"/>
<path class="st0" d="M-195.1,103.8h38.6c-0.4-4.6-0.9-9.1-1.5-13.5h-35.7C-194.2,94.7-194.7,99.2-195.1,103.8z"/>
<path class="st0" d="M-285,103.8h38.6c-0.4-4.6-0.9-9.1-1.5-13.5h-35.7C-284,94.7-284.5,99.2-285,103.8z"/>
<path class="st0" d="M-348.5,156.9h38.6c-0.4-4.6-0.9-9.1-1.5-13.4H-347C-347.6,147.8-348.1,152.3-348.5,156.9z"/>
<path class="st0" d="M-131.5,156.9h38.6c-0.4-4.6-0.9-9.1-1.5-13.4H-130C-130.6,147.8-131.1,152.3-131.5,156.9z"/>
<polygon class="st3" points="-105.3,284.4 -105.2,284.4 -105.3,284.1 "/>
<path class="st3" d="M-389.5,359.5c-1.5,1.5-1.9,3.6-1.1,5.6c0.9,2.1,3,3.4,5.2,3.4h29.5c2.3,0,4.4-1.4,5.3-3.5c1-2.7,2-5.3,3-7.8
	h30.9c-0.9,1.4-1.6,2.5-2.1,3.2c-1.1,1.5-1.2,3.5-0.3,5.2c1,1.8,2.9,2.9,5,2.9h31.5c2.8,0.1,5.1-1.9,5.6-4.6
	c0.3-2.3,0.6-4.5,0.9-6.7h110.8c0.3,2.2,0.6,4.4,0.9,6.7c0.4,2.7,2.8,4.7,5.6,4.6h31.5c2.1,0,4-1.1,5-2.9c0.9-1.7,0.8-3.7-0.3-5.2
	c-0.5-0.7-1.2-1.8-2.1-3.2h30.9c1,2.6,2,5.1,3,7.8c0.9,2.2,3,3.6,5.3,3.5H-56c2.3,0,4.3-1.3,5.2-3.4c0.8-1.9,0.3-4.1-1.1-5.6
	c-6.7-6.7-29.1-30.5-36.4-58c-1-3.9,1.6-7.9,6.5-9.9c2.4-0.9,4-3,4.5-5.5c0.5-2.5-0.4-5.1-2.4-6.8c-1.5-1.3-3.4-3-5.6-4.9
	c0.4-26.5,0.6-85-4.8-129.7c0,0,0,0,0,0c1.5-1.8,2.1-4.3,1.6-6.6l-7.1-34.7c-0.9-4.5-4.9-7.7-9.5-7.7h-3.2V82
	c7.8-2.3,12.4-10.4,10.1-18.3c-2.3-7.8-10.4-12.4-18.3-10.1s-12.4,10.4-10.1,18.3c1.4,4.9,5.2,8.7,10.1,10.1v13.7h-4
	c-4.7,0-8.7,3.3-9.5,7.9l-6.3,34.6c-0.4,2.3,0.2,4.7,1.7,6.5c0,0,0.1,0.1,0.1,0.1c-3.3,27.4-4.5,59.9-4.8,87.1
	c-3.2-2.3-6.4-4.6-9.8-6.9c0.5-24.5,0.9-86.4-4.7-133.3c0,0,0,0,0,0c1.5-1.9,2.1-4.3,1.6-6.7l-7-34.7c-0.9-4.5-4.9-7.7-9.4-7.7h-3.2
	V28.9c7.8-2.3,12.4-10.4,10.1-18.3c-2.3-7.8-10.4-12.4-18.3-10.1s-12.4,10.4-10.1,18.3c1.4,4.9,5.2,8.7,10.1,10.1v13.7h-4
	c-4.7,0-8.7,3.3-9.5,7.9l-6.3,34.6c-0.4,2.3,0.2,4.7,1.7,6.5c0,0,0.1,0.1,0.1,0.1c-1.6,13.2-2.7,27.5-3.4,41.9h-38.8
	c-0.8-14.4-1.9-28.7-3.4-41.9c0,0,0.1-0.1,0.1-0.1c1.5-1.8,2.1-4.2,1.7-6.5l-6.3-34.6c-0.8-4.6-4.8-7.9-9.5-7.9h-4V28.9
	c7.8-2.3,12.3-10.4,10.1-18.3c-2.3-7.8-10.4-12.3-18.3-10.1c-7.8,2.3-12.3,10.4-10.1,18.3c1.4,4.9,5.2,8.7,10.1,10.1v13.7h-3.2
	c-4.6,0-8.5,3.2-9.4,7.7l-7.1,34.6c-0.5,2.3,0.1,4.8,1.6,6.6c0,0,0,0,0,0c-5.6,46.8-5.2,108.6-4.7,133.2c-3.4,2.3-6.6,4.6-9.8,6.8
	c-0.4-27.1-1.6-59.5-4.8-86.8l0.1-0.1c1.5-1.8,2.1-4.2,1.7-6.5l-6.3-34.6c-0.8-4.5-4.8-7.9-9.4-7.9h-4V82
	c7.8-2.3,12.4-10.4,10.1-18.3s-10.4-12.4-18.3-10.1c-7.8,2.3-12.4,10.4-10.1,18.3c1.4,4.9,5.2,8.7,10.1,10.1v13.7h-3.3
	c-4.6,0-8.5,3.2-9.4,7.7L-353,138c-0.5,2.3,0.1,4.8,1.6,6.6l0.1,0.1c-5.3,44.8-5.2,103.2-4.8,129.7c-2.2,1.9-4.1,3.6-5.6,4.9
	c-1.9,1.7-2.8,4.3-2.4,6.8c0.4,2.5,2.1,4.6,4.5,5.5c4.9,2,7.5,6,6.5,9.9C-360.4,329-382.8,352.9-389.5,359.5z M-118.8,67.9
	c0-3.6,2.9-6.6,6.6-6.6s6.6,2.9,6.6,6.6s-2.9,6.6-6.6,6.6c0,0,0,0,0,0C-115.9,74.4-118.8,71.5-118.8,67.9z M-182.4,14.8
	c0-3.6,3-6.6,6.6-6.6s6.6,3,6.6,6.6s-3,6.6-6.6,6.6l0,0C-179.5,21.3-182.4,18.4-182.4,14.8z M-272.2,14.8c0-3.6,3-6.6,6.6-6.6
	s6.6,3,6.6,6.6s-3,6.6-6.6,6.6l0,0C-269.2,21.3-272.2,18.4-272.2,14.8z M-335.8,67.9c0-3.6,2.9-6.6,6.6-6.6s6.6,2.9,6.6,6.6
	s-2.9,6.6-6.6,6.6c0,0,0,0,0,0C-332.8,74.4-335.7,71.5-335.8,67.9z M-344.2,348.9c9.6-23,19.7-41.7,29.4-56.3
	c3.9-5.9,8.1-11.7,12.5-17.2c4.9-6.1,10.4-11.7,16.4-16.7c0.2-0.2,0.5-0.2,0.8-0.1c-4.9,43.6-18.3,74.4-26.9,90.3H-344.2z
	 M-181.8,348.9v-14.7c0-19.8-16-35.8-35.8-35.8h-6.4c-19.8,0-35.8,16-35.8,35.8v14.7h-15.1c4.3-29.7,9.1-54.8,14.4-74.6
	c3.5-12.8,9.8-24.7,18.5-34.8c0.9-1.1,1.9-2.1,2.9-3.2c4.9-5.3,10.4-10.2,16.2-14.5c1.4-0.7,3-0.7,4.4,0c5.8,4.3,11.3,9.2,16.2,14.5
	c1,1.1,2,2.1,2.9,3.2c8.7,10.1,15.1,22,18.5,34.8c5.2,19.9,10,45,14.4,74.6L-181.8,348.9z M-129.4,348.9c-8.6-16-22-46.8-26.9-90.3
	c0.3-0.1,0.6,0,0.8,0.1c6,5,11.5,10.6,16.4,16.7c4.5,5.5,8.6,11.2,12.5,17.2c9.6,14.6,19.8,33.4,29.4,56.3H-129.4z M-62.5,360.3
	h-21.3c-0.4-1.1-0.8-2.1-1.2-3.2c-1.1-2.8-2.2-5.5-3.2-8.2c-9.7-23.8-19.5-42.2-28.5-56.3c-1.8-2.9-3.6-5.6-5.4-8.2l-1.2-1.7
	c-2.7-3.8-5.2-7.2-7.6-10.2c-3-3.8-5.8-7-8.3-9.6c-3.5-3.8-7.2-7.3-11.2-10.5c-2.9-2.2-6.9-2.5-10.1-0.7c-2.6,1.4-4.2,4.2-3.9,7.1
	c4.6,42,16.7,72.4,25.8,90.2c1.6,3.1,3.1,5.8,4.4,8.2c0.7,1.1,1.3,2.2,1.9,3.2h-24.3c-0.1-1.1-0.3-2.1-0.4-3.2
	c-0.4-2.8-0.8-5.5-1.1-8.2c-4.4-30.5-9.3-56.3-14.7-76.7c-3.2-11.8-8.6-22.9-16-32.7c-4.1-5.4-8.6-10.5-13.6-15.1
	c-3.6-3.3-7.4-6.4-11.4-9.3l-0.6-0.4c-3.9-2.1-8.5-2-12.4,0.1l-0.4,0.3c-4,2.9-7.8,6-11.4,9.3c-5,4.6-9.5,9.7-13.6,15.1
	c-7.4,9.8-12.8,20.9-16,32.7c-5.4,20.5-10.3,46.2-14.7,76.7c-0.4,2.7-0.8,5.4-1.1,8.2c-0.1,1.1-0.3,2.1-0.5,3.2H-309
	c0.6-1,1.2-2,1.9-3.2c1.4-2.3,2.9-5.1,4.4-8.2c9.1-17.8,21.3-48.2,25.8-90.2c0.3-3-1.3-5.8-3.9-7.1c-3.2-1.8-7.2-1.5-10.1,0.7
	c-4,3.2-7.8,6.7-11.2,10.5c-2.5,2.7-5.3,5.9-8.3,9.6c-2.4,3-5,6.5-7.6,10.2c-0.4,0.6-0.8,1.1-1.2,1.7c-1.8,2.5-3.5,5.3-5.4,8.2
	c-10,16.1-18.7,32.9-25.9,50.3c-1.9,4.5-3.8,9.2-5.8,14.2l-1.2,3.2h-21.3c9.3-10.1,17.3-21.2,24-33.1c4.2-7.4,7.4-15.4,9.7-23.6
	c0.9-3.3,0.6-6.7-0.8-9.8c-0.2-0.4-0.3-0.8-0.5-1.2c-2-3.5-5.1-6.3-8.8-8c2-1.8,4.5-4,7.5-6.5c2.3-2,4.8-4.1,7.6-6.5v0.2l0.1-0.3
	l4-3.3c1.3-1.1,2.7-2.2,4.1-3.3l2.7-2.2c1-0.8,2-1.6,3.1-2.5l4.1-3.3l4.1-3.2c2.5-1.9,5.1-3.9,7.8-6c2.6-2,5.3-4,8.1-6.1v-0.4
	c3.2-2.3,6.5-4.6,9.9-7c2.6-1.8,5.3-3.6,8-5.5c2.2-1.5,4.5-3,6.8-4.6l0.7-0.5l0,0c1.4-0.9,2.7-1.8,4.1-2.7l4.1-2.7
	c1.9-1.2,3.9-2.5,5.8-3.7c1.3-0.9,2.7-1.7,4.1-2.6l4.1-2.5c2.6-1.6,5.2-3.1,7.8-4.7s5.4-3.2,8.2-4.8c5.9-3.3,11.8-6.6,17.9-9.7
	c6,3.1,12,6.4,17.9,9.7c2.8,1.6,5.5,3.2,8.2,4.8c2.6,1.6,5.2,3.1,7.8,4.7l4.1,2.5c1.4,0.8,2.7,1.7,4.1,2.6c2,1.2,3.9,2.5,5.8,3.7
	l4.1,2.7l4.1,2.7c2.6,1.7,5.1,3.4,7.6,5.1c2.7,1.9,5.4,3.8,8,5.6c3.4,2.4,6.7,4.8,9.9,7.1c2.8,2,5.5,4.1,8.1,6.1s5.3,4,7.8,6
	l4.1,3.2l4.1,3.2c2,1.6,3.9,3.2,5.8,4.7c1.4,1.1,2.8,2.2,4.1,3.3s2.8,2.3,4.1,3.4l1.2,1c2.4,2,4.5,3.8,6.5,5.5
	c3,2.5,5.5,4.8,7.5,6.5c-3.5,1.6-6.5,4.2-8.5,7.5c-0.1,0.2-0.2,0.3-0.3,0.5c-1.9,3.4-2.3,7.3-1.4,11c3,10.5,7.5,20.5,13.3,29.8
	C-77.1,342.9-70.2,352-62.5,360.3L-62.5,360.3z M-239,163.9c2.9-3.8,8.4-8.3,17.8-8.4c10.2,0,16,5.1,18.8,8.4
	c-0.2,9.5-0.3,18.6-0.4,27c-5.3-2.9-10.6-5.8-16-8.6l-1.9-0.9l-1.3,0.6h-0.1l-0.9,0.5l-1.6,0.9c-4.7,2.4-9.3,4.9-13.9,7.5
	C-238.6,182.5-238.7,173.4-239,163.9z M-121.8,105c0.1-0.7,0.7-1.2,1.5-1.2h15.4c0.7,0,1.3,0.5,1.4,1.2l7,34.4H-128L-121.8,105z
	 M-126.4,147.5H-98c4.7,40.6,4.9,91.8,4.6,120c-2.4-2-5-4.2-7.8-6.5v-33.6c0.2-6.1-4.6-11.2-10.7-11.4c-6.1-0.2-11.2,4.6-11.4,10.7
	c0,0.2,0,0.4,0,0.7v16.1c-2.5-1.9-5.1-3.8-7.7-5.8C-130.8,210.3-129.8,176.2-126.4,147.5L-126.4,147.5z M-185.4,51.9
	c0.1-0.7,0.7-1.2,1.4-1.2h15.4c0.7,0,1.3,0.5,1.5,1.2l7,34.4h-31.6L-185.4,51.9z M-190,94.4h28.5c5,43,4.9,98.2,4.5,124.9
	c-2.5-1.7-5.1-3.5-7.7-5.2v-39.8c0.2-6.1-4.6-11.2-10.7-11.4c-6.1-0.2-11.2,4.6-11.4,10.7c0,0.2,0,0.4,0,0.7v25.8
	c-2.6-1.6-5.2-3.1-7.8-4.6c0-8.4,0.1-17.8,0.3-27.6c0.2-11.1,0.6-22.8,1.2-34.4C-192.4,120.2-191.4,106.8-190,94.4z M-201.7,141.7
	c-0.2,3.8-0.3,7.6-0.4,11.4c-5.6-3.9-12.3-5.9-19.1-5.9c-6.5-0.1-12.8,1.9-18.1,5.6c-0.1-3.7-0.3-7.4-0.4-11.2H-201.7z M-274.4,51.9
	c0.1-0.7,0.7-1.2,1.4-1.2h15.4c0.7,0,1.4,0.5,1.5,1.2l6.3,34.3h-31.6L-274.4,51.9z M-279.9,94.4h28.5c1.4,12.4,2.4,25.7,3.1,39.1
	c0.6,11.6,1,23.3,1.2,34.4c0.2,9.8,0.3,19.1,0.3,27.6c-2.6,1.5-5.2,3.1-7.8,4.6v-25.8c0.2-6.1-4.6-11.2-10.7-11.4
	c-6.1-0.2-11.2,4.6-11.4,10.7c0,0.2,0,0.4,0,0.7v39.8c-1.7,1.1-3.4,2.3-5.1,3.4l-2.6,1.8C-284.8,192.6-284.8,137.4-279.9,94.4z
	 M-337.9,105c0.1-0.7,0.7-1.2,1.4-1.2h15.5c0.7,0,1.3,0.5,1.4,1.2l6.2,34.3H-345L-337.9,105z M-343.4,147.5h28.4
	c3.3,28.6,4.4,62.4,4.6,89.8c-2.7,2-5.2,3.9-7.7,5.7v-15.6c0.2-6.1-4.6-11.2-10.7-11.4c-6.1-0.2-11.2,4.6-11.4,10.7
	c0,0.2,0,0.4,0,0.7V261c-2.8,2.3-5.4,4.5-7.8,6.5C-348.4,239.4-348.1,188.1-343.4,147.5L-343.4,147.5z"/>
<rect x="-276.3" y="119.7" class="st3" width="7.4" height="7.4"/>
<rect x="-262.3" y="119.7" class="st3" width="7.4" height="7.4"/>
<rect x="-276.3" y="132.8" class="st3" width="7.4" height="7.4"/>
<rect x="-262.3" y="132.8" class="st3" width="7.4" height="7.4"/>
<rect x="-339.8" y="172.8" class="st3" width="7.4" height="7.4"/>
<rect x="-325.9" y="172.8" class="st3" width="7.4" height="7.4"/>
<rect x="-339.8" y="185.9" class="st3" width="7.4" height="7.4"/>
<rect x="-325.9" y="185.9" class="st3" width="7.4" height="7.4"/>
<rect x="-172.5" y="119.7" class="st3" width="7.4" height="7.4"/>
<rect x="-186.5" y="119.7" class="st3" width="7.4" height="7.4"/>
<rect x="-172.5" y="132.8" class="st3" width="7.4" height="7.4"/>
<rect x="-186.5" y="132.8" class="st3" width="7.4" height="7.4"/>
<rect x="-109" y="172.8" class="st3" width="7.4" height="7.4"/>
<rect x="-122.9" y="172.8" class="st3" width="7.4" height="7.4"/>
<rect x="-109" y="185.9" class="st3" width="7.4" height="7.4"/>
<rect x="-122.9" y="185.9" class="st3" width="7.4" height="7.4"/>
<path class="st3" d="M-211.4,260.1l4.4-1.8l-3.1-7.5l-4.4,1.8c-4.2,1.7-8.8,1.6-12.9-0.2l-3.4-1.6l-3.4,7.4l3.4,1.6
	c2,0.9,4,1.5,6.2,1.8v12.2h-8.4v8.2h25.1v-8.2h-8.4v-12.3C-214.7,261.3-213,260.8-211.4,260.1z"/>
<path class="st4" d="M-159.2,333.5c0,0,0,6-0.7,19.9c-0.6,13-5.2,13.7-8.1,13.7h-14.7c-2.4,0-11.7-0.2-11.7-9.4c0-9,8.7-9.2,8.7-9.2
	l2.8-17.3"/>
<path class="st5" d="M-184.8,343l-0.9,5.5c0,0-8.7,0.2-8.7,9.2c0,9.1,9.3,9.4,11.7,9.4h14.7c2.9,0,7.5-0.6,8.1-13.7
	c0.1-3,0.3-5.6,0.4-7.9C-168,345.5-176.5,344.7-184.8,343z"/>
<path class="st6" d="M-184.8,347.5c0,0,5.4,3.4,25.1,3.1"/>
<path class="st7" d="M-185.7,348.5c1.2,0,2.4,0.2,3.5,0.5"/>
<path class="st8" d="M-159.2,333.5c0,0,0,6-0.7,19.9c-0.6,13-5.2,13.7-8.1,13.7h-14.7c-2.4,0-11.7-0.2-11.7-9.4c0-9,8.7-9.2,8.7-9.2
	l2.8-17.3"/>
<path class="st8" d="M-184.4,342.6c0,0,9.1,2.9,24.8,2.9"/>
<path class="st4" d="M-138.8,333.5c0,0,0,6,0.7,19.9c0.6,13,5.2,13.7,8.1,13.7h14.7c2.4,0,11.7-0.2,11.7-9.4c0-9-8.7-9.2-8.7-9.2
	l-2.8-17.3"/>
<path class="st5" d="M-113.3,343l0.9,5.5c0,0,8.7,0.2,8.7,9.2c0,9.1-9.3,9.4-11.7,9.4h-14.7c-2.9,0-7.5-0.6-8.1-13.7
	c-0.1-3-0.3-5.6-0.4-7.9C-130,345.5-121.6,344.7-113.3,343z"/>
<path class="st6" d="M-113.3,347.5c0,0-5.4,3.4-25,3.1"/>
<path class="st7" d="M-112.4,348.5c-1.2,0-2.4,0.2-3.5,0.5"/>
<path class="st8" d="M-138.8,333.5c0,0,0,6,0.7,19.9c0.6,13,5.2,13.7,8.1,13.7h14.7c2.4,0,11.7-0.2,11.7-9.4c0-9-8.7-9.2-8.7-9.2
	l-2.8-17.3"/>
<path class="st8" d="M-113.7,342.6c0,0-9.1,2.9-24.8,2.9"/>
<path class="st9" d="M-115,275.3c0,0,6.9,20.5,6.8,56c0,0-15.4,6.8-40.8,6.8s-40.8-6.8-40.8-6.8c-0.1-35.5,6.8-56,6.8-56"/>
<path class="st9" d="M-185.2,283.8c1.9-3.4-5.9-8.6-5.9-8.6s-20.5-2.5-33.2,10.3s2.5,25.5,2.5,25.5S-206.3,321-185.2,283.8z"/>
<line class="st10" x1="-180.7" y1="300.2" x2="-181" y2="302.6"/>
<path class="st9" d="M-117.7,290.1"/>
<line class="st10" x1="-94.2" y1="273.4" x2="-92" y2="272.2"/>
<path class="st9" d="M-73.2,259.6c-7.5-0.2-16.9,4.8-16.9,4.8l-24.5,14.2c2,3.4,3.7,9.8,3.7,9.8s19.3,7.4,34.7-2s3.7-25.4,3.7-25.4"
	/>
<path class="st11" d="M-162.7,282.5c-0.6,5.3-0.6,10.6,0,15.8"/>
<path class="st12" d="M-159.2,298.3c0,1.9-1.6,3.5-3.5,3.5c-1.9,0-3.5-1.6-3.5-3.5c0-1.9,1.6-3.5,3.5-3.5c0,0,0,0,0,0
	C-160.8,294.8-159.2,296.3-159.2,298.3z"/>
<path class="st11" d="M-135.4,282.5c0.6,5.3,0.6,10.6,0,15.8"/>
<path class="st12" d="M-138.9,298.3c0,1.9,1.6,3.5,3.5,3.5c1.9,0,3.5-1.6,3.5-3.5c0-1.9-1.6-3.5-3.5-3.5c0,0,0,0,0,0
	C-137.4,294.8-138.9,296.3-138.9,298.3z"/>
<path class="st4" d="M-221.1,198.2c0,0,21.9-63.5,35.2-65.1s32.5,37.7,32.5,37.7"/>
<path class="st5" d="M-208.1,192.3c0,0,15-43.3,24-44.4s22.1,25.7,22.1,25.7"/>
<path class="st4" d="M-76.9,198.2c0,0-22-63.5-35.2-65.1s-32.5,37.7-32.5,37.7"/>
<path class="st5" d="M-89.9,192.3c0,0-15-43.3-24-44.4s-22.1,25.7-22.1,25.7"/>
<path class="st9" d="M-149,282.5c76.1,0,86.7-53.2,86.7-53.2c-2-0.2-7.6-75.4-86.7-75.4s-84.7,75.1-86.7,75.4
	C-235.7,229.3-225.1,282.5-149,282.5z"/>
<path class="st4" d="M-149,282.5c56.5,0,68-35.3,69.1-44.3c1.9-14.8-20.8-54.8-69.1-54.8s-71,40-69.1,54.8
	C-217,247.1-205.5,282.5-149,282.5z"/>
<path class="st13" d="M-142.4,235.2c0,0-0.1,7.7-6.6,7.7s-6.6-7.7-6.6-7.7l6.6-2L-142.4,235.2z"/>
<path class="st8" d="M-142.4,235.2c0,0-0.1,7.7-6.6,7.7s-6.6-7.7-6.6-7.7"/>
<path class="st14" d="M-149,229.6c1.9-0.9,1.1-1.4,0-1.4S-151,228.8-149,229.6z"/>
<line class="st8" x1="-149" y1="229.7" x2="-149" y2="232.3"/>
<path class="st8" d="M-162.3,233.4c0,0,1,5.2,13.3-0.6"/>
<path class="st8" d="M-135.8,233.4c0,0-1,5.2-13.3-0.6"/>
<path class="st14" d="M-122.3,217.9c0,0-6.9,1.6-26.8,1.6s-26.8-1.6-26.8-1.6"/>
<path class="st15" d="M-123.2,227.2c-0.1,0.6-0.6,1-1.2,1c-0.5,0-0.9-0.4-1-1c-0.1-0.6,0.4-1.1,1-1.2c0.6-0.1,1.1,0.4,1.2,1
	C-123.2,227.1-123.2,227.1-123.2,227.2z"/>
<path class="st14" d="M-161,225.4c-2.7-1.6-5.8-2.6-8.9-2.7"/>
<path class="st14" d="M-137,225.4c2.7-1.6,5.8-2.6,9-2.7"/>
<g>
	<g>
		<path class="st16" d="M313.5,339c-11.6-11.9-64-67.1-90.9-123.1c-4.2-8.7-8.7-17-13.3-25.2c-6.1-10.7-13.9-23.9-21.6-35
			c-3.6-5.1-8.3-8-13.4-8h-5.4h-5.4c-5,0-9.8,2.9-13.4,8c-7.6,11-15.5,24.3-21.6,35c-4.6,8.2-9.2,16.5-13.3,25.2
			C88.3,271.9,35.9,327.1,24.3,339c-1.5,1.5-2.3,3.9-2.3,6.5c0,4.4,2.5,8,5.5,8h141.4h141.4c3.1,0,5.5-3.6,5.5-8
			C315.8,342.9,315,340.5,313.5,339z"/>
	</g>
	<g>
		<path class="st5" d="M209.3,190.7c-6.1-10.7-14-24-21.6-35c-3.5-5.1-8.3-7.9-13.3-7.9h-5.4h-5.4c-5,0-9.8,2.9-13.3,7.9
			c-7.7,11.1-15.5,24.3-21.6,35c-2.5,4.4-4.9,8.8-7.3,13.3h8.9c4.2,0,8.2-2.4,11.1-6.6l6.3-8.9c1.1-1.5,2.5-2.4,4.1-2.4
			c2.5,0,4.8,2.4,5.5,5.9l0.3,1.3c1.4,6.4,5.5,10.7,10.1,10.7h1.3h1.3c4.6,0,8.7-4.3,10.1-10.7l0.3-1.3c0.8-3.5,3-5.9,5.5-5.9
			c1.5,0,3,0.9,4.1,2.4l6.3,8.9c3,4.2,7,6.6,11.1,6.6h8.9C214.2,199.5,211.7,195.1,209.3,190.7z"/>
	</g>
	<g>
		<path class="st17" d="M61,353.6h31.5c9.1-25.7,19.1-56,26.2-78c1.4-4.2-3-7.5-5.2-3.9C97.1,299.3,75.3,332.3,61,353.6z"/>
	</g>
	<g>
		<path class="st17" d="M222,271.6c-2.2-3.6-6.6-0.3-5.2,3.9c7.1,22,17.1,52.4,26.2,78h31.5C260.3,332.3,238.5,299.3,222,271.6z"/>
	</g>
	<g>
		<path class="st17" d="M168.9,353.6h11.4l-9-94.6c-0.3-3.5-4.3-3.5-4.6,0l-8.7,94.6H168.9z"/>
	</g>
	<g>
		<path class="st18" d="M311.6,323.1c-0.1-0.2-0.2-0.4-0.3-0.7c-9.7-21.9-29.8-28.5-45.5-15.6c-6.7,5.5-11.4,10.9-11.4,10.9h-11.8
			c-15.3,0-27.9,11.2-34.7,18.8c-4,4.5-8.9,6.8-14,6.8h-25.1H144c-5.2,0-10.2-2.5-14.3-7.1c-6.6-7.6-18.9-18.5-34.6-18.5H83.4
			c0,0-4.8-5.4-11.4-10.9c-15.6-12.9-35.8-6.3-45.5,15.6c-0.1,0.2-0.2,0.4-0.3,0.7c0,0-22.6,7.7-22.6,40.5h165.3h165.3
			C334.2,330.9,311.6,323.1,311.6,323.1z"/>
	</g>
	<g>
		<path d="M314.1,319.1c-5.3-11.4-13.4-19.3-22.9-22.4c-3.6-1.1-7.2-1.5-10.8-1.2c-18.7-22.8-40.5-52.5-54.7-82.2
			c-0.7-1.5-1.5-3-2.3-4.6h0.1l-2.9-5.4c-2.5-4.8-5.2-9.8-8.5-15.5c-0.9-1.5-1.7-3-2.5-4.4c-0.5-0.8-0.9-1.6-1.4-2.4
			c-0.3-0.6-0.7-1.2-1-1.7c-0.7-1.1-1.3-2.3-2-3.5c-0.1-0.2-0.2-0.4-0.4-0.6c-0.8-1.4-1.7-2.8-2.5-4.2c0,0-0.1-0.1-0.1-0.1
			c-0.9-1.5-1.8-3-2.8-4.5c0-0.1-0.1-0.1-0.1-0.2c-0.9-1.4-1.8-2.8-2.7-4.2c-0.1-0.2-0.3-0.4-0.4-0.6c-0.8-1.3-1.6-2.5-2.5-3.8
			c-0.2-0.3-0.4-0.6-0.5-0.8c-0.9-1.4-1.9-2.8-2.8-4.1c0,0-0.1-0.1-0.1-0.1c0,0,0,0,0,0c0,0,0-0.1-0.1-0.1c-0.4-0.6-0.9-1.2-1.3-1.7
			c-0.1-0.1-0.2-0.3-0.3-0.4c-0.2-0.3-0.4-0.5-0.7-0.7c-4-4.3-8.7-6.7-13.8-6.7h-10.9c-1.2,0-2.4,0.1-3.5,0.4
			c-0.1,0-0.3,0.1-0.4,0.1c-1,0.3-2,0.6-2.9,1c-0.3,0.1-0.5,0.3-0.8,0.4c-0.9,0.5-1.8,1-2.6,1.6c-0.2,0.1-0.4,0.3-0.6,0.4
			c-1,0.8-1.9,1.6-2.8,2.6c-0.9,0.9-1.7,1.9-2.5,3c-1,1.4-2,2.9-3,4.4c-0.1,0.2-0.2,0.3-0.3,0.5c-0.9,1.3-1.8,2.7-2.7,4.1
			c-0.1,0.1-0.2,0.2-0.2,0.4c-0.9,1.5-1.9,2.9-2.8,4.4c0,0,0,0.1-0.1,0.1c-1,1.5-1.9,3.1-2.8,4.6c0,0,0,0.1,0,0.1
			c-0.9,1.4-1.7,2.8-2.5,4.2c-0.1,0.2-0.3,0.5-0.4,0.7c-0.7,1.2-1.4,2.3-2,3.4c-0.4,0.6-0.7,1.2-1.1,1.8c-0.5,0.8-0.9,1.6-1.4,2.3
			c-0.8,1.5-1.7,2.9-2.5,4.5c-3.3,5.8-6,10.8-8.5,15.5l-2.9,5.4h0.1c-0.8,1.5-1.5,3.1-2.3,4.6c-14.2,29.7-36,59.3-54.7,82.2
			c-3.6-0.3-7.2,0.1-10.8,1.2c-9.5,3-17.6,10.9-22.9,22.4c-5.6,2.7-23.8,13.8-23.8,44.5v4.8h338.1v-4.8
			C337.9,332.9,319.7,321.8,314.1,319.1z M134.2,189c0.3-0.5,0.6-1,0.8-1.4c0.6-1,1.2-2.1,1.8-3.1c0.4-0.6,0.7-1.2,1.1-1.8
			c0.5-0.9,1-1.8,1.6-2.6c0.4-0.7,0.8-1.4,1.2-2c0.5-0.8,1-1.6,1.4-2.4c0.4-0.7,0.9-1.5,1.3-2.2c0.5-0.7,0.9-1.5,1.4-2.2
			c0.5-0.8,1-1.6,1.5-2.3c0.4-0.6,0.8-1.3,1.2-1.9c0.6-0.9,1.2-1.8,1.7-2.7c0.3-0.5,0.6-1,1-1.4c0.9-1.4,1.8-2.7,2.7-4
			c2.9-4.1,6.6-6.4,10.6-6.4h10.9c3.9,0,7.7,2.3,10.5,6.4c0.2,0.3,0.4,0.6,0.6,0.8c0.7,1,1.4,2,2.1,3.1c0.4,0.6,0.8,1.2,1.2,1.8
			c0.5,0.8,1,1.6,1.5,2.3c0.4,0.7,0.9,1.4,1.4,2.1c0.5,0.7,0.9,1.4,1.4,2.1c0.5,0.8,1,1.5,1.4,2.3c0.4,0.7,0.9,1.4,1.3,2.1
			c0.5,0.8,1,1.6,1.5,2.5c0.4,0.7,0.8,1.3,1.2,1.9c0.5,0.9,1.1,1.8,1.6,2.7c0.3,0.6,0.7,1.2,1,1.7c0.6,1,1.2,2.1,1.9,3.2
			c0.3,0.4,0.5,0.9,0.8,1.3c0.9,1.5,1.7,3,2.6,4.6l0,0c1.1,2,2.1,3.8,3.1,5.6h-1.7c-3.1,0-6.1-1.8-8.4-5l-6.3-8.9
			c-1.8-2.5-4.3-4-6.8-4c-4.2,0-7.9,3.8-9.1,9.4l-0.3,1.3c-0.9,4.3-3.5,7.2-6.5,7.2h-2.5c-2.9,0-5.6-2.9-6.5-7.2l-0.3-1.3
			c-1.2-5.6-4.9-9.4-9.1-9.4c-2.6,0-5,1.4-6.8,4l-6.3,8.9c-2.3,3.2-5.2,5-8.4,5h-1.7c1-1.8,2-3.6,3.1-5.6
			C132.5,192,133.3,190.5,134.2,189z M118.4,218.5c1.5-3.1,3.1-6.3,4.9-9.7h6.9c5.3,0,10.2-2.9,13.9-8.1l6.3-8.9
			c1.1-1.5,2.8-0.6,3.2,1.5l0.3,1.3c1.9,8.5,7.4,14.2,13.7,14.2h2.5c6.3,0,11.8-5.7,13.7-14.2l0.3-1.3c0.5-2.1,2.2-3,3.2-1.5
			l6.3,8.9c3.7,5.3,8.7,8.1,13.9,8.1h6.9c1.7,3.3,3.4,6.5,4.9,9.7c13.7,28.5,34,56.9,52.2,79.5c-2.7,1.2-5.3,2.8-7.8,4.8
			c-5,4.1-9,8.2-10.8,10.1h-10.4c-16.8,0-30.5,12.5-37.1,20c-3.2,3.6-7.3,5.6-11.5,5.6h-50c-4.3,0-8.4-2.1-11.8-5.9
			c-6.4-7.4-19.8-19.7-37.1-19.7H84.8c-1.8-2-5.8-6-10.8-10.1c-2.5-2-5.1-3.6-7.8-4.8C84.4,275.4,104.7,247,118.4,218.5z M7.5,358.8
			c2-24.5,18.9-30.7,19.6-31l1.5-0.5l1-2.4c4.2-9.6,10.8-16.2,18.6-18.7c0,0,0.1,0,0.1,0c3.8-1.2,7.6-1.3,11.4-0.4
			c3.5,0.8,6.9,2.6,10.1,5.2c6.3,5.2,10.9,10.4,11,10.5l1.1,1.2h13.2c14.8,0,26.5,10.8,32.1,17.3c4.7,5.4,10.6,8.3,16.7,8.3h50
			c6,0,11.8-2.8,16.5-8c5.9-6.6,17.8-17.6,32.2-17.6h13.2l1.1-1.2c0-0.1,4.6-5.3,11-10.5c3.2-2.6,6.6-4.3,10.1-5.2
			c3.7-0.9,7.6-0.8,11.4,0.4c0,0,0.1,0,0.1,0c7.7,2.5,14.3,9.1,18.5,18.6l0.2,0.4l3.4-2l-3.3,2.3l0.8,1.8l1.5,0.5
			c0.8,0.3,17.7,6.5,19.7,31H7.5z"/>
	</g>
</g>
<g>
	<g>
		<g>
			<g>
				<g>
					<path class="st5" d="M39.8,291.7c0,0-14.9,10.1-17.4,28.9c-2,15.6,4.9,23.2,11.7,23.9c6.7,0.7,9.4-3.2,10.3-6.1"/>
					<path class="st19" d="M35.5,346.3c-0.5,0-1,0-1.6-0.1c-3.5-0.3-6.7-2.2-9.1-5.2c-2.7-3.4-5.5-9.6-4.1-20.6
						c2.5-19.3,17.5-29.7,18.1-30.1c0.8-0.5,1.8-0.3,2.4,0.5c0.5,0.8,0.3,1.8-0.5,2.4c-0.2,0.1-14.3,10-16.6,27.7
						c-1,7.6,0.2,14,3.4,18c1.8,2.3,4.2,3.7,6.8,4c6.1,0.6,8-3.2,8.5-4.9c0.3-0.9,1.2-1.4,2.1-1.2c0.9,0.3,1.4,1.2,1.2,2.1
						C44.9,342.6,41.6,346.3,35.5,346.3z"/>
				</g>
				<g>
					<path class="st5" d="M34,339.2c0,0,1.5,3.8,5.2,4.7"/>
					<path class="st19" d="M39.2,345.6c-0.1,0-0.3,0-0.4-0.1c-4.4-1.2-6.3-5.6-6.3-5.8c-0.4-0.9,0.1-1.9,0.9-2.2
						c0.9-0.4,1.9,0.1,2.2,0.9c0,0.1,1.3,3,4,3.7c0.9,0.2,1.5,1.2,1.2,2.1C40.7,345.1,40,345.6,39.2,345.6z"/>
				</g>
			</g>
			<g>
				<g>
					<path class="st5" d="M103.5,301.8c0,0,16.7,6.8,33.7-1.5c14.1-6.9,16.6-16.9,13.5-23c-3.1-5.9-7.9-6.1-10.7-5.2"/>
					<path class="st19" d="M118.9,306.2c-9.1,0-15.6-2.6-16-2.8c-0.9-0.4-1.3-1.4-0.9-2.2c0.4-0.9,1.4-1.3,2.2-0.9l0,0
						c0.2,0.1,16.2,6.4,32.3-1.4c6.9-3.4,11.6-7.9,13.1-12.8c0.9-2.8,0.8-5.6-0.4-7.9c-2.9-5.5-7.1-4.9-8.7-4.4
						c-0.9,0.3-1.9-0.2-2.1-1.1c-0.3-0.9,0.2-1.9,1.1-2.1c4-1.2,9.4-0.3,12.8,6c1.6,3.1,1.9,6.8,0.7,10.5c-1.3,4.1-5,9.9-14.9,14.8
						C131.2,305.1,124.5,306.2,118.9,306.2z"/>
				</g>
				<g>
					<path class="st5" d="M146.3,280.3c0,0,2.3-3.4,1.1-6.9"/>
					<path class="st19" d="M146.3,282c-0.3,0-0.7-0.1-1-0.3c-0.8-0.5-1-1.6-0.5-2.4c0-0.1,1.8-2.8,0.9-5.4c-0.3-0.9,0.2-1.9,1.1-2.2
						c0.9-0.3,1.9,0.2,2.2,1.1c1.5,4.3-1.2,8.3-1.3,8.5C147.3,281.7,146.8,282,146.3,282z"/>
				</g>
			</g>
		</g>
		<g>
			<g>
				<path class="st20" d="M49.7,333.1v20.3l2.3-0.2c-7.3,0-10.4,5.1-9.9,9.7c0.5,4.7,4.3,4.6,6.8,4.6c2.5,0,4.3,0,12.9,0
					s7.6-6.1,7.6-6.1v-28.4"/>
			</g>
			<g>
				<path class="st19" d="M48.7,369.3c-2.6,0-7.7-0.1-8.3-6.2c-0.3-3,0.7-5.9,2.6-8c1-1.1,2.6-2.3,5-3v-19c0-0.9,0.8-1.7,1.7-1.7
					c0.9,0,1.7,0.8,1.7,1.7v18.4c0.2,0,0.4,0,0.6,0c0.9,0,1.7,0.7,1.7,1.6c0,0.9-0.7,1.7-1.6,1.8l-2.3,0.2c-1.8,0.3-3.3,1.1-4.3,2.3
					c-1.3,1.4-1.9,3.4-1.7,5.4c0.3,2.8,1.8,3.1,4.9,3.1c0,0,0,0,0,0h13.1c2.4,0,4.2-0.6,5.1-1.6c1-1.1,0.8-2.5,0.8-2.6
					c0-0.1,0-0.2,0-0.3v-28.4c0-0.9,0.8-1.7,1.7-1.7c0.9,0,1.7,0.8,1.7,1.7v28.2c0.1,0.7,0.2,3.1-1.5,5.1c-1.6,1.9-4.2,2.8-7.8,2.8
					H48.8C48.8,369.3,48.7,369.3,48.7,369.3z"/>
			</g>
		</g>
		<g>
			<g>
				<path class="st20" d="M96.1,333.1v20.3l-2.3-0.2c7.3,0,10.4,5.1,9.9,9.7c-0.5,4.7-4.3,4.6-6.8,4.6c-2.5,0-4.3,0-12.9,0
					c-8.6,0-7.6-6.1-7.6-6.1v-28.4"/>
			</g>
			<g>
				<path class="st19" d="M97.1,369.3C97,369.3,97,369.3,97.1,369.3H83.9c-3.6,0-6.2-1-7.8-2.8c-1.7-2.1-1.6-4.4-1.5-5.1v-28.2
					c0-0.9,0.8-1.7,1.7-1.7c0.9,0,1.7,0.8,1.7,1.7v28.4c0,0.1,0,0.2,0,0.3c0,0-0.2,1.4,0.8,2.5c0.9,1,2.7,1.6,5.1,1.6H97
					c0,0,0,0,0,0c3.1,0,4.7-0.3,4.9-3.1c0.2-2-0.4-4-1.7-5.4c-1.1-1.2-2.5-1.9-4.3-2.3l-2.3-0.2c-0.9-0.1-1.6-0.9-1.6-1.8
					c0-0.9,0.8-1.6,1.7-1.6c0.2,0,0.4,0,0.6,0v-18.4c0-0.9,0.8-1.7,1.7-1.7c0.9,0,1.7,0.8,1.7,1.7v19c2.4,0.7,4,1.9,5,3
					c1.9,2.1,2.9,5.1,2.6,8C104.8,369.3,99.4,369.3,97.1,369.3z"/>
			</g>
		</g>
		<g>
			<g>
				<path class="st5" d="M104.9,296.3c0,0,5.5,7.8,5.5,23c0,15.1-12.5,27-37.5,27c-25,0-37.5-11.8-37.5-27c0-15.1,5.5-23,5.5-23"/>
				<path class="st19" d="M72.9,347.9c-28.9,0-39.2-14.8-39.2-28.7c0-15.5,5.6-23.6,5.8-23.9c0.5-0.8,1.6-1,2.4-0.4
					c0.8,0.5,1,1.6,0.4,2.4c0,0.1-5.2,7.7-5.2,22c0,15.6,13.7,25.2,35.8,25.2c22.1,0,35.8-9.7,35.8-25.2c0-14.4-5.1-21.9-5.2-22
					c-0.5-0.8-0.4-1.8,0.4-2.4c0.8-0.5,1.8-0.4,2.4,0.4c0.2,0.3,5.8,8.5,5.8,23.9C112.1,333.1,101.8,347.9,72.9,347.9z"/>
			</g>
			<g>
				<g>
					<g>
						<path class="st21" d="M71.9,299.9c0,0,3.8,9-4.6,19.2c0,0-4.1-4.3-3.2-10.2C65,303.1,71.9,299.9,71.9,299.9z"/>
						<path class="st19" d="M67.3,320.9c-0.5,0-0.9-0.2-1.2-0.5c-0.2-0.2-4.6-5-3.6-11.6c1-6.7,8.4-10.2,8.7-10.3
							c0.4-0.2,0.9-0.2,1.3,0c0.4,0.2,0.8,0.5,1,0.9c0.2,0.4,4.1,10.1-4.8,21C68.3,320.6,67.9,320.8,67.3,320.9
							C67.3,320.9,67.3,320.9,67.3,320.9z M70.8,302.5c-1.8,1.2-4.5,3.5-5,6.7c-0.4,3,0.6,5.5,1.5,7.1
							C71.4,310.4,71.3,305.2,70.8,302.5z"/>
					</g>
					<g>
						<path class="st21" d="M73.9,299.9c0,0-3.8,9,4.6,19.2c0,0,4.1-4.3,3.2-10.2C80.7,303.1,73.9,299.9,73.9,299.9z"/>
						<path class="st19" d="M78.4,320.9C78.4,320.9,78.4,320.9,78.4,320.9c-0.5,0-1-0.2-1.3-0.6c-8.9-10.9-5-20.6-4.8-21
							c0.2-0.4,0.5-0.8,1-0.9c0.4-0.2,0.9-0.2,1.3,0c0.3,0.1,7.7,3.6,8.7,10.3c1,6.6-3.4,11.4-3.6,11.6
							C79.3,320.7,78.9,320.9,78.4,320.9z M74.9,302.5c-0.5,2.7-0.6,7.9,3.5,13.8c0.9-1.6,2-4.1,1.5-7.1
							C79.4,306,76.8,303.7,74.9,302.5z"/>
					</g>
				</g>
				<g>
					<path class="st21" d="M105.9,294.9c0,0-5.7,13.2-33,9.5c-27.4,3.7-33-9.5-33-9.5"/>
					<path class="st19" d="M82.1,306.8c-2.8,0-5.8-0.2-9.2-0.7c-28.2,3.8-34.4-10-34.6-10.6c-0.4-0.9,0-1.9,0.9-2.2
						c0.9-0.4,1.9,0,2.2,0.9c0,0.1,5.7,12,31.2,8.5c0.2,0,0.3,0,0.5,0c13.5,1.8,21.3-0.6,25.4-3c4.4-2.5,5.8-5.5,5.8-5.5
						c0.4-0.9,1.4-1.3,2.3-0.9c0.9,0.4,1.3,1.4,0.9,2.2C107.3,296.1,102.5,306.8,82.1,306.8z"/>
				</g>
				<g>
					<path class="st22" d="M77.2,303.7c0,1.6-1.3,3-3,3h-2.7c-1.6,0-3-1.3-3-3v-3.8c0-1.6,1.3-3,3-3h2.7c1.6,0,3,1.3,3,3V303.7z"/>
					<path class="st19" d="M74.2,308.4h-2.7c-2.6,0-4.7-2.1-4.7-4.7v-3.8c0-2.6,2.1-4.7,4.7-4.7h2.7c2.6,0,4.7,2.1,4.7,4.7v3.8
						C78.9,306.3,76.8,308.4,74.2,308.4z M71.5,298.7c-0.7,0-1.3,0.6-1.3,1.3v3.8c0,0.7,0.6,1.3,1.3,1.3h2.7c0.7,0,1.2-0.6,1.2-1.3
						v-3.8c0-0.7-0.6-1.3-1.2-1.3H71.5z"/>
				</g>
			</g>
		</g>
	</g>
	<g>
		<g>
			<g>
				<path class="st5" d="M72.9,298.8c27.4,0,68.7-6.8,68.7-48.9c0-44.9-28.2-65.7-68.7-65.7c-40.4,0-68.7,20.8-68.7,65.7
					C4.2,292,45.5,298.8,72.9,298.8z"/>
			</g>
			<g>
				<g>
					<path class="st23" d="M141.5,248.6c-6-11.5-22.2-9.6-22.2-9.6s-1.8-26.6-28.6-26.7c-12.3,0-17.8,9.3-17.8,9.3
						s-5.5-9.4-17.8-9.3C28.3,212.3,26.5,239,26.5,239s-16.2-1.9-22.2,9.6c0,0-4.8-64.4,68.7-64.4
						C146.3,184.2,141.5,248.6,141.5,248.6z"/>
				</g>
				<g>
					<path class="st23" d="M141.5,250.3c-0.6,0-1.2-0.3-1.5-0.9c-5.4-10.3-20.4-8.7-20.5-8.7c-0.5,0.1-0.9-0.1-1.3-0.4
						c-0.4-0.3-0.6-0.7-0.6-1.2c-0.1-1-2.1-25.1-26.9-25.1c-11.1,0-16.2,8.1-16.4,8.5c-0.3,0.5-0.9,0.8-1.5,0.8c0,0,0,0,0,0
						c-0.6,0-1.2-0.3-1.5-0.8c-0.2-0.3-5.2-8.5-16.3-8.5c0,0-0.1,0-0.1,0c-24.8,0.1-26.8,24.1-26.9,25.1c0,0.5-0.3,0.9-0.6,1.2
						c-0.4,0.3-0.8,0.4-1.3,0.4c-0.1,0-15.1-1.6-20.5,8.7c-0.4,0.7-1.1,1-1.9,0.9c-0.7-0.2-1.3-0.8-1.4-1.5
						c-0.1-1.1-1.8-27.1,16.1-46.4c12.2-13.1,30.4-19.8,54.2-19.8c23.8,0,42,6.7,54.2,19.8c17.9,19.3,16.2,45.3,16.1,46.4
						c-0.1,0.8-0.6,1.4-1.4,1.6C141.8,250.3,141.7,250.3,141.5,250.3z M72.9,185.9c-22.8,0-40.2,6.3-51.7,18.7
						C8.8,217.9,6.4,235,6,243.4c2.8-2.8,6.7-4.7,11.3-5.6c3.2-0.6,6-0.7,7.7-0.6c1-6.1,6.1-26.5,30.1-26.6c0,0,0.1,0,0.1,0
						c9.5,0,15.3,5.2,17.8,8.2c2.5-3,8.2-8.2,17.8-8.2c0,0,0.1,0,0.1,0c23.9,0.1,29.1,20.5,30.1,26.6c1.7-0.1,4.5,0,7.7,0.6
						c4.7,0.9,8.5,2.8,11.3,5.6c-0.4-8.4-2.9-25.5-15.2-38.8C113.1,192.2,95.7,185.9,72.9,185.9z"/>
				</g>
			</g>
			<g>
				<path class="st19" d="M72.9,300.5c-18.5,0-33.8-3-45.4-8.9c-16.6-8.4-25-22.5-25-41.8c0-42.8,25.7-67.4,70.4-67.4
					c44.7,0,70.4,24.6,70.4,67.4c0,19.3-8.4,33.4-25,41.8C106.7,297.5,91.4,300.5,72.9,300.5z M72.9,185.9
					c-20.2,0-36.9,5.4-48.3,15.6c-12.3,11-18.6,27.3-18.6,48.4c0,17.9,7.8,30.9,23.1,38.7c11.1,5.6,25.9,8.5,43.8,8.5
					c18,0,32.7-2.9,43.8-8.5c15.3-7.8,23.1-20.8,23.1-38.7c0-21.1-6.3-37.4-18.6-48.4C109.8,191.3,93.1,185.9,72.9,185.9z"/>
			</g>
			<g>
				<path class="st19" d="M74.1,185.9c-0.3,0-0.5-0.1-0.7-0.2c-3-1.5-8.2-6-6.1-12.7c0.3-0.9,1.2-1.4,2.1-1.1
					c0.9,0.3,1.4,1.2,1.1,2.1c-1.8,5.6,4.1,8.5,4.4,8.6c0.9,0.4,1.2,1.4,0.8,2.3C75.3,185.6,74.7,185.9,74.1,185.9z"/>
			</g>
		</g>
		<g>
			<g>
				<g>
					<g>
						<path class="st24" d="M72.9,253.9c5.9,0,10.8-2.5,10.8-6.1c0-3.6-5.2-7.2-10.8-7.2c-5.7,0-10.8,3.6-10.8,7.2
							C62.1,251.4,66.9,253.9,72.9,253.9z"/>
					</g>
					<g>
						<path class="st19" d="M72.9,255.6c-7.3,0-12.5-3.3-12.5-7.8c0-4.6,6-8.9,12.5-8.9s12.5,4.2,12.5,8.9
							C85.4,252.4,80.2,255.6,72.9,255.6z M72.9,242.4c-4.9,0-9.1,3-9.1,5.5c0,2.4,4.1,4.4,9.1,4.4s9.1-2,9.1-4.4
							C82,245.4,77.8,242.4,72.9,242.4z"/>
					</g>
				</g>
				<g>
					<path class="st19" d="M72.9,250.8c-5.7,0-7.5-2.9-7.7-3.2c-0.5-0.8-0.2-1.9,0.6-2.3c0.8-0.5,1.9-0.2,2.3,0.6
						c0,0,1.1,1.5,4.7,1.5c3.7,0,4.7-1.5,4.8-1.6c0.5-0.8,1.5-1.1,2.3-0.6c0.8,0.5,1.1,1.5,0.6,2.4
						C80.4,247.9,78.6,250.8,72.9,250.8z"/>
				</g>
			</g>
		</g>
	</g>
</g>
<g>
	<circle class="st5" cx="146.9" cy="275.4" r="24.8"/>
	<path class="st19" d="M146.9,302c-14.6,0-26.5-11.9-26.5-26.5c0-14.6,11.9-26.5,26.5-26.5s26.5,11.9,26.5,26.5
		C173.4,290.1,161.5,302,146.9,302z M146.9,252.3c-12.7,0-23.1,10.4-23.1,23.1c0,12.7,10.4,23.1,23.1,23.1
		c12.7,0,23.1-10.4,23.1-23.1C170,262.7,159.6,252.3,146.9,252.3z"/>
</g>
<g>
	<g>
		<g>
			<path class="st19" d="M60.8,233.2c0,3.4-1.8,6.1-3.9,6.1c-2.2,0-3.9-2.7-3.9-6.1c0-3.4,1.8-6.1,3.9-6.1
				C59.1,227.1,60.8,229.8,60.8,233.2z"/>
		</g>
		<g>
			<path class="st19" d="M84,233.2c0,3.4,1.8,6.1,3.9,6.1c2.2,0,3.9-2.7,3.9-6.1c0-3.4-1.8-6.1-3.9-6.1
				C85.8,227.1,84,229.8,84,233.2z"/>
		</g>
	</g>
</g>
<g>
	<g>
		<g id="Egyptian_pyramids_1_">
			<g>
				<path class="st25" d="M531.4,98.8L375.1,348.7c-3,4.9-2.1,11.6,2.2,15.1c1.6,1.3,3.5,2,5.5,2h152.9h159.6
					c5.2,0,9.4-4.8,9.4-10.8c0-2.3-0.6-4.5-1.8-6.3L546.7,98.8c-3-4.9-8.9-6-13.2-2.5C532.7,97,532,97.8,531.4,98.8z"/>
			</g>
			<g>
				<path class="st26" d="M695.3,365.9c5.2,0,9.4-4.8,9.4-10.8c0-2.3-0.6-4.5-1.8-6.3L546.7,98.8c-1.8-2.8-4.6-4.5-7.7-4.5v271.6
					H695.3z"/>
			</g>
			<g>
				<polygon class="st27" points="395.2,316.7 683,316.7 651.3,266 426.8,266 				"/>
			</g>
			<g>
				<polygon class="st27" points="466.2,203.1 611.9,203.1 581.7,154.7 496.5,154.7 				"/>
			</g>
			<g>
				<polygon class="st28" points="539.1,203.1 611.9,203.1 581.7,154.7 539.1,154.7 				"/>
			</g>
			<g>
				<polygon class="st28" points="539.1,266 539.1,316.7 683,316.7 651.3,266 				"/>
			</g>
		</g>
		<g>
			<path d="M695,368.2l-308.1-0.9c-1,0-10.1-0.2-13.8-7c-2.7-4.9-1.4-11.4,3.6-19.1L525.8,98.2l0.1-0.2c0.5-0.6,4.7-6.1,11.3-6.3
				c2.9-0.1,7.3,0.9,11.5,6.1l0.3,0.4l157.6,246l0.1,0.3c0.5,1,4.4,9.7,0.5,16.6c-1.5,2.7-4.8,6.1-11.9,6.9L695,368.2z M533.5,103.5
				L384.6,346.2c-3.4,5.2-3.9,8.4-3.3,9.6c0.8,1.5,4.1,2.1,5.6,2.1l307.6,0.9c2.4-0.3,3.9-1,4.5-2.1c1.2-2.1,0.1-6-0.7-7.8
				L541.3,103.6c-1-1.2-2.4-2.5-3.8-2.5c0,0,0,0,0,0C535.9,101.2,534.1,102.8,533.5,103.5z"/>
		</g>
		<g>
			<rect x="496.8" y="152.6" width="21.4" height="9.4"/>
		</g>
		<g>
			<rect x="558.8" y="152.6" width="21.4" height="9.4"/>
		</g>
		<g>
			<rect x="466.7" y="200.7" width="29.3" height="9.4"/>
		</g>
		<g>
			<rect x="429.5" y="261.2" width="29.3" height="9.4"/>
		</g>
		<g>
			<rect x="580" y="200.7" width="29.3" height="9.4"/>
		</g>
		<g>
			<rect x="618.5" y="261.5" width="29.3" height="9.4"/>
		</g>
		<g>
			<rect x="653.6" y="312.8" width="29.3" height="9.4"/>
		</g>
		<g>
			<rect x="398.1" y="312.8" width="29.3" height="9.4"/>
		</g>
	</g>
	<g>
		<g>
			<g>
				<g>
					<g>
						<g>
							<g>
								<path class="st29" d="M440.5,330.5l-0.9,18.5c0,0-9.8,0.2-9.8,10.4c0,10.3,10.5,10.6,13.2,10.6c2.7,0,15.2,0,18.5,0
									c7.5,0,7.9-2.9,7.9-14.8c0-15.7,0.1-23.1,0.1-23.1L440.5,330.5z"/>
							</g>
							<g>
								<path class="st19" d="M461.4,372.1H443c-9.7,0-15.2-4.6-15.2-12.6c0-9,6.6-11.5,9.9-12.2l0.8-16.9c0-0.5,0.3-1.1,0.7-1.4
									c0.4-0.4,0.9-0.6,1.5-0.5l29,1.7c1.1,0.1,1.9,1,1.9,2.1c0,0.1-0.1,7.6-0.1,23C471.4,366.1,471.4,372.1,461.4,372.1z
									 M442.4,332.6l-0.8,16.5c0,1.1-0.9,1.9-2,1.9c-0.8,0-7.9,0.5-7.8,8.4c0,7.1,6.1,8.6,11.2,8.6h18.5c5.3,0,5.9-0.4,5.9-12.8
									c0-11,0.1-18,0.1-21.2L442.4,332.6z M439.6,349L439.6,349L439.6,349z"/>
							</g>
						</g>
						<g>
							<g>
								<path class="st30" d="M439.6,349c2,0,3.9,0.6,3.9,0.6"/>
								<path class="st19" d="M443.6,351.7c-0.2,0-0.4,0-0.6-0.1c0,0-1.7-0.5-3.4-0.5c-1.1,0-2-0.9-2-2c0-1.1,0.9-2,2-2
									c2.3,0,4.5,0.7,4.5,0.7c1.1,0.3,1.7,1.5,1.3,2.5C445.2,351.1,444.4,351.7,443.6,351.7z"/>
							</g>
							<g>
								<path class="st31" d="M441.1,342.4"/>
							</g>
						</g>
					</g>
					<g>
						<g>
							<g>
								<path class="st29" d="M507.7,330.5l0.9,18.5c0,0,9.8,0.2,9.8,10.4c0,10.3-10.5,10.6-13.2,10.6c-2.7,0-15.2,0-18.5,0
									c-8.5,0-7.9-2.9-7.9-14.8c0-15.7-0.1-23.1-0.1-23.1L507.7,330.5z"/>
							</g>
							<g>
								<path class="st19" d="M505.2,372.1h-18.5c-2.9,0-5.8-0.3-7.7-2.2c-2.3-2.3-2.3-5.9-2.3-12.5l0-2.2c0-15.5-0.1-23-0.1-23
									c0-1.1,0.8-2,1.9-2.1l29-1.7c0.5,0,1.1,0.2,1.5,0.5c0.4,0.4,0.6,0.9,0.7,1.4l0.8,16.9c3.3,0.7,9.9,3.2,9.9,12.2
									C520.4,367.5,514.8,372.1,505.2,372.1z M480.7,334.1c0,3.2,0.1,10.1,0.1,21.2l0,2.2c0,5.1,0,8.5,1.1,9.7
									c0.7,0.7,2.2,1,4.8,1h18.5c5.1,0,11.2-1.5,11.2-8.6c0-7.9-7.1-8.4-7.9-8.4c-1.1,0-1.9-0.9-2-1.9l-0.8-16.5L480.7,334.1z"/>
							</g>
						</g>
						<g>
							<g>
								<path class="st30" d="M508.5,349c-2,0-3.9,0.6-3.9,0.6"/>
								<path class="st19" d="M504.6,351.7c-0.9,0-1.7-0.6-1.9-1.4c-0.3-1.1,0.3-2.2,1.3-2.5c0.1,0,2.3-0.7,4.5-0.7c1.1,0,2,0.9,2,2
									c0,1.1-0.9,2-2,2c-1.6,0-3.3,0.5-3.4,0.5C505,351.6,504.8,351.7,504.6,351.7z"/>
							</g>
							<g>
								<path class="st31" d="M507.1,342.4"/>
							</g>
						</g>
					</g>
				</g>
				<g>
					<g>
						<path class="st29" d="M514.3,286.2c0,0,6.9,9.1,6.9,26.7c0,17.6-15.7,31.3-47.2,31.3s-47.2-13.8-47.2-31.3
							c0-17.6,6.9-26.7,6.9-26.7"/>
					</g>
					<g>
						<path class="st19" d="M474.1,346.2c-36.3,0-49.2-17.2-49.2-33.3c0-18,7-27.5,7.3-27.9c0.7-0.9,1.9-1.1,2.8-0.4
							c0.9,0.7,1.1,2,0.4,2.8c-0.1,0.1-6.5,8.9-6.5,25.4c0,18.1,17.3,29.3,45.1,29.3c27.8,0,45.1-11.2,45.1-29.3
							c0-16.6-6.4-25.4-6.5-25.4c-0.7-0.9-0.5-2.2,0.4-2.8c0.9-0.7,2.2-0.5,2.8,0.4c0.3,0.4,7.3,9.9,7.3,27.9
							C523.3,329,510.3,346.2,474.1,346.2z"/>
					</g>
				</g>
				<g>
					<path class="st32" d="M518,289.1c0,0-32.5,20.9-43.9,20.9c-11.4,0-43.9-20.9-43.9-20.9"/>
					<path class="st19" d="M474.1,312c-11.8,0-43.6-20.3-45-21.2c-0.9-0.6-1.2-1.9-0.6-2.8c0.6-0.9,1.9-1.2,2.8-0.6
						c8.9,5.7,34,20.6,42.8,20.6c8.8,0,33.9-14.8,42.8-20.6c0.9-0.6,2.2-0.3,2.8,0.6c0.6,0.9,0.3,2.2-0.6,2.8
						C517.7,291.7,485.9,312,474.1,312z"/>
				</g>
			</g>
			<g>
				<path class="st33" d="M423.1,287.9c0,0,3.4-3.2,10,0.5c0,0-7.4,13.1-6.1,26.4C426.9,314.8,419.8,300.5,423.1,287.9z"/>
				<path class="st19" d="M426.9,316.8c-0.8,0-1.5-0.4-1.8-1.1c-0.3-0.6-7.4-15.1-4-28.3c0.1-0.4,0.3-0.7,0.6-1
					c0.2-0.2,4.5-4.1,12.3,0.2c0.5,0.3,0.8,0.7,1,1.2c0.1,0.5,0.1,1.1-0.2,1.5c-0.1,0.1-7.1,12.7-5.9,25.2c0.1,1-0.5,1.9-1.5,2.1
					C427.3,316.8,427.1,316.8,426.9,316.8z M424.9,289.2c-1.2,5.2-0.5,10.7,0.5,15.1c1.2-6.6,3.5-12.1,4.9-14.9
					C427.4,288.2,425.6,288.8,424.9,289.2z"/>
			</g>
			<g>
				<g>
					<g>
						<path class="st32" d="M480,161.6c0,2.6-2.6,4.7-5.9,4.7c-3.2,0-5.9-2.1-5.9-4.7c0-2.6,2.6-4.7,5.9-4.7
							C477.3,156.8,480,159,480,161.6z"/>
						<path class="st19" d="M474.1,168.4c-4.4,0-7.9-3-7.9-6.8c0-3.7,3.5-6.8,7.9-6.8c4.4,0,7.9,3,7.9,6.8
							C482,165.3,478.4,168.4,474.1,168.4z M474.1,158.9c-2.1,0-3.8,1.2-3.8,2.7c0,1.5,1.8,2.7,3.8,2.7c2.1,0,3.8-1.2,3.8-2.7
							C477.9,160.1,476.2,158.9,474.1,158.9z"/>
					</g>
					<g>
						<g>
							<g>
								<g>
									<path class="st29" d="M443.7,178.7c0,11-8.9,19.9-19.9,19.9c-11,0-19.9-8.9-19.9-19.9c0-11,8.9-19.9,19.9-19.9
										C434.8,158.9,443.7,167.8,443.7,178.7z"/>
								</g>
								<g>
									<path class="st19" d="M423.8,200.7c-12.1,0-21.9-9.8-21.9-21.9c0-12.1,9.8-21.9,21.9-21.9c12.1,0,21.9,9.8,21.9,21.9
										C445.7,190.8,435.9,200.7,423.8,200.7z M423.8,160.9c-9.8,0-17.8,8-17.8,17.8c0,9.8,8,17.8,17.8,17.8
										c9.8,0,17.8-8,17.8-17.8C441.7,168.9,433.7,160.9,423.8,160.9z"/>
								</g>
							</g>
							<g class="st34">
								<g>
									<path class="st5" d="M433.4,178.7c0,5.3-4.3,9.6-9.6,9.6c-5.3,0-9.6-4.3-9.6-9.6c0-5.3,4.3-9.6,9.6-9.6
										C429.1,169.1,433.4,173.4,433.4,178.7z"/>
								</g>
							</g>
						</g>
						<g>
							<g>
								<g>
									<path class="st29" d="M504.5,178.7c0,11,8.9,19.9,19.9,19.9c11,0,19.9-8.9,19.9-19.9c0-11-8.9-19.9-19.9-19.9
										C513.3,158.9,504.5,167.8,504.5,178.7z"/>
								</g>
								<g>
									<path class="st19" d="M524.3,200.7c-12.1,0-21.9-9.8-21.9-21.9c0-12.1,9.8-21.9,21.9-21.9c12.1,0,21.9,9.8,21.9,21.9
										C546.2,190.8,536.4,200.7,524.3,200.7z M524.3,160.9c-9.8,0-17.8,8-17.8,17.8c0,9.8,8,17.8,17.8,17.8
										c9.8,0,17.8-8,17.8-17.8C542.2,168.9,534.2,160.9,524.3,160.9z"/>
								</g>
							</g>
							<g class="st34">
								<g>
									<path class="st5" d="M514.7,178.7c0,5.3,4.3,9.6,9.6,9.6c5.3,0,9.6-4.3,9.6-9.6c0-5.3-4.3-9.6-9.6-9.6
										C519,169.1,514.7,173.4,514.7,178.7z"/>
								</g>
							</g>
						</g>
					</g>
					<g>
						<g>
							<path class="st29" d="M474.1,294.9c31.6,0,79.2-7.9,79.2-56.4c0-51.7-32.6-75.8-79.2-75.8c-46.6,0-79.2,24-79.2,75.8
								C394.9,287,442.5,294.9,474.1,294.9z"/>
						</g>
						<g>
							<path class="st19" d="M474.1,296.9c-21.4,0-39-3.4-52.4-10.2c-19.2-9.7-28.9-25.9-28.9-48.2c0-49.5,29.6-77.8,81.2-77.8
								c51.6,0,81.2,28.4,81.2,77.8c0,22.3-9.7,38.5-28.8,48.2C513.1,293.5,495.5,296.9,474.1,296.9z M474.1,164.7
								c-23.3,0-42.6,6.2-55.7,18c-14.2,12.7-21.4,31.5-21.4,55.8c0,20.6,9,35.6,26.6,44.6c12.8,6.5,29.8,9.8,50.5,9.8
								c20.7,0,37.7-3.3,50.5-9.8c17.7-9,26.6-24,26.6-44.6c0-24.3-7.2-43.1-21.4-55.8C516.6,170.9,497.4,164.7,474.1,164.7z"/>
						</g>
					</g>
					<g>
						<path class="st33" d="M475.2,162.7c-0.4,0-0.8,0-1.1,0c-0.4,0-0.8,0-1.1,0c-25.7,0.2-48.7,8.3-65.3,28.8
							c0,0,22.7,1.6,66.4,1.6s66.4-1.6,66.4-1.6C524,171,500.9,162.9,475.2,162.7z"/>
					</g>
					<g>
						<g>
							<path class="st29" d="M497.7,192.7c0,0-2.2-11.9-23.6-11.9s-23.6,11.9-23.6,11.9"/>
						</g>
						<g>
							<path class="st19" d="M497.7,194.7c-1,0-1.8-0.7-2-1.6c-0.1-0.5-2.4-10.3-21.6-10.3c-19.3,0-21.6,9.8-21.6,10.3
								c-0.2,1.1-1.3,1.8-2.4,1.6c-1.1-0.2-1.8-1.3-1.6-2.3c0.1-0.6,2.8-13.6,25.6-13.6c22.9,0,25.5,13,25.6,13.6
								c0.2,1.1-0.5,2.2-1.6,2.4C498,194.7,497.8,194.7,497.7,194.7z"/>
						</g>
					</g>
					<g>
						<path class="st19" d="M474.1,195.1c-43.3,0-66.3-1.6-66.6-1.6c-0.8-0.1-1.4-0.5-1.7-1.2c-0.3-0.7-0.2-1.5,0.3-2.1
							c15.6-19.3,38.1-29.3,66.8-29.5c0.7,0,1.5,0,2.4,0c28.7,0.3,51.2,10.2,66.8,29.5c0.5,0.6,0.6,1.4,0.3,2.1
							c-0.3,0.7-1,1.2-1.7,1.2C540.4,193.5,517.4,195.1,474.1,195.1z M411.8,189.7c8.3,0.5,29.5,1.4,62.2,1.4
							c32.8,0,53.9-0.9,62.2-1.4c-14.7-16.3-35.2-24.7-61.1-25c0,0,0,0-0.1,0c-0.7,0-1.4,0-2.1,0C447.1,165,426.5,173.3,411.8,189.7
							z"/>
					</g>
					<g>
						<g>
							<g>
								<path d="M460,189.9c1.2,3.7,4.7,7.8,12.6,8c8.3,0.2,7.9-3.8,7.9-3.8s4.3,4.4,11.5,3.7c7.2-0.7,6.6-5.6,2.8-7.9"/>
							</g>
						</g>
						<g>
							<path d="M480.7,194.4c0,0-1.3-1.6-1.7-3"/>
						</g>
					</g>
				</g>
				<g>
					<g>
						<g>
							<path class="st19" d="M453.3,235.4c0,3.3-2.2,6-5,6c-2.8,0-5-2.7-5-6c0-3.3,2.2-6,5-6C451.1,229.4,453.3,232.1,453.3,235.4z"
								/>
						</g>
						<g>
							<path class="st19" d="M483.7,235.4c0,3.3,2.2,6,5,6c2.8,0,5-2.7,5-6c0-3.3-2.2-6-5-6C486,229.4,483.7,232.1,483.7,235.4z"/>
						</g>
					</g>
					<g class="st34">
						<g>
							<path class="st5" d="M482.6,243.2c0,6.4-6.3,11.6-14.1,11.6c-7.8,0-14.1-5.2-14.1-11.6s6.3-11.6,14.1-11.6
								C476.3,231.6,482.6,236.8,482.6,243.2z"/>
						</g>
					</g>
					<g>
						<g>
							<path class="st19" d="M468.6,250c-1.5,0-2.7-0.2-3-0.3c-1.1-0.2-1.8-1.3-1.6-2.4c0.2-1.1,1.3-1.8,2.4-1.6
								c1.2,0.2,5.1,0.5,6.5-1.3c0.7-0.9,2-1,2.8-0.3c0.9,0.7,1,2,0.3,2.9C474.2,249.5,471,250,468.6,250z"/>
						</g>
						<g>
							<path class="st19" d="M472.2,239.5c0,2.1-2.2,3.8-4.9,3.8c-2.7,0-4.9-1.7-4.9-3.8c0-2.1,2.2-3.8,4.9-3.8
								C470,235.7,472.2,237.4,472.2,239.5z"/>
						</g>
					</g>
					<g>
						<g>
							<path class="st19" d="M457.6,224.7c-0.5,0-0.9-0.2-1.3-0.5l-1.4-1.2c-0.9-0.7-1-2-0.2-2.9c0.7-0.9,2-1,2.9-0.2l1.4,1.2
								c0.9,0.7,1,2,0.2,2.9C458.7,224.5,458.1,224.7,457.6,224.7z"/>
						</g>
						<g>
							<path class="st19" d="M479.5,224.7c-0.6,0-1.1-0.2-1.5-0.7c-0.7-0.9-0.6-2.1,0.2-2.9l1.4-1.2c0.8-0.7,2.1-0.6,2.9,0.2
								c0.7,0.9,0.6,2.1-0.2,2.9l-1.4,1.2C480.5,224.5,480,224.7,479.5,224.7z"/>
						</g>
					</g>
				</g>
			</g>
			<g>
				<g>
					<g>
						<g>
							<g>
								<polygon class="st35" points="426.2,329.7 462.3,339.4 456.9,270.9 420.8,261.2 								"/>
							</g>
							<g>
								<path class="st19" d="M462.3,341.4c-0.2,0-0.4,0-0.5-0.1l-36.1-9.7c-0.8-0.2-1.4-0.9-1.5-1.8l-5.4-68.6
									c-0.1-0.7,0.2-1.3,0.7-1.7c0.5-0.4,1.2-0.6,1.8-0.4l36.1,9.7c0.8,0.2,1.4,0.9,1.5,1.8l5.4,68.6c0.1,0.7-0.2,1.3-0.7,1.7
									C463.3,341.3,462.8,341.4,462.3,341.4z M428.2,328.1l31.9,8.6l-5.1-64.3l-31.9-8.6L428.2,328.1z"/>
							</g>
						</g>
						<g>
							<g>
								<polygon class="st35" points="462.3,339.4 496.3,333.1 490.9,264.6 456.9,270.9 								"/>
							</g>
							<g>
								<path class="st19" d="M462.3,341.4c-0.4,0-0.9-0.1-1.2-0.4c-0.5-0.3-0.7-0.9-0.8-1.5l-5.4-68.6c-0.1-1,0.6-2,1.7-2.2l34-6.3
									c0.6-0.1,1.1,0,1.6,0.4c0.5,0.3,0.7,0.9,0.8,1.5l5.4,68.6c0.1,1-0.6,2-1.7,2.2l-34,6.3C462.6,341.4,462.4,341.4,462.3,341.4
									z M459,272.5l5.1,64.5l30-5.6L489,267L459,272.5z"/>
							</g>
						</g>
						<g>
							<polygon class="st35" points="496.3,333.1 468.7,346.6 463.2,278.1 490.9,264.6 							"/>
						</g>
						<g>
							<polygon class="st36" points="495.6,325.2 473.5,336.1 469.8,283.3 491.9,272.4 							"/>
						</g>
						<g>
							<polygon class="st37" points="495.1,319.9 482.4,325.5 479.6,304.1 493.6,298.7 							"/>
						</g>
						<g>
							<path class="st35" d="M482.5,328c-0.3,0-0.6-0.1-0.9-0.2c-0.6-0.3-1-0.9-1.1-1.5l-1.4-10.6c-0.1-1.1,0.6-2.1,1.7-2.3
								c1.1-0.1,2.1,0.6,2.3,1.7l1,7.7l9.8-5.2c1-0.5,2.2-0.1,2.7,0.8c0.5,1,0.1,2.2-0.8,2.7l-12.4,6.5
								C483.1,328,482.8,328,482.5,328z"/>
						</g>
						<g>
							<path class="st35" d="M483.7,287c-1,0-1.9-0.7-2-1.8l-0.4-3.1c-0.1-0.9,0.4-1.8,1.2-2.1l8.3-3.6c1-0.4,2.2,0,2.7,1.1
								c0.4,1,0,2.2-1.1,2.7l-6.9,3l0.2,1.6c0.2,1.1-0.6,2.1-1.7,2.3C483.9,287,483.8,287,483.7,287z"/>
						</g>
						<g>
							<path class="st35" d="M479.3,307.2c-0.4,0-0.7-0.1-1.1-0.3c-0.5-0.3-0.9-0.9-1-1.5l-2.3-20.3c-0.1-1.1,0.7-2.1,1.8-2.2
								c1.1-0.1,2.1,0.7,2.2,1.8l2,17.7l11.2-4.2c1-0.4,2.2,0.1,2.6,1.2c0.4,1-0.1,2.2-1.2,2.6l-13.7,5.2
								C479.8,307.2,479.6,307.2,479.3,307.2z"/>
						</g>
						<g>
							<path class="st19" d="M468.7,348.7c-0.3,0-0.7-0.1-1-0.3c-0.6-0.3-1-0.9-1-1.6l-5.4-68.6c-0.1-0.8,0.4-1.6,1.1-2l27.6-13.5
								c0.6-0.3,1.3-0.3,1.9,0.1c0.6,0.3,1,0.9,1,1.6l5.4,68.6c0.1,0.8-0.4,1.6-1.1,2l-27.6,13.5C469.3,348.6,469,348.7,468.7,348.7
								z M465.4,279.3l5.1,64.2l23.7-11.6l-5.1-64.2L465.4,279.3z"/>
						</g>
						<g>
							<path class="st35" d="M478.2,330.1c-0.8,0-1.5-0.4-1.8-1.1c-0.5-1-0.1-2.2,0.9-2.7l4.2-2.1c1-0.5,2.2-0.1,2.7,0.9
								c0.5,1,0.1,2.2-0.9,2.7l-4.2,2.1C478.8,330,478.5,330.1,478.2,330.1z"/>
						</g>
						<g>
							<path class="st32" d="M482.8,289.7c0.1,0.9,1,1.5,1.9,1.4c0.9-0.1,1.5-1,1.4-1.9c-0.1-0.9-1-1.5-1.9-1.4
								C483.3,287.9,482.6,288.7,482.8,289.7z"/>
						</g>
					</g>
					<g>
						<g>
							<path class="st38" d="M435.8,294.5c0.3,0.1,0.5,0.1,0.8,0.1c0.3,0,0.5-0.1,0.7-0.2c0.5-0.2,0.8-0.7,1-1.2
								c0.2-0.5,0.1-1.1-0.1-1.5c-0.2-0.5-0.7-0.8-1.2-1c-1.1-0.3-2.2,0.3-2.5,1.3C434.2,293,434.7,294.2,435.8,294.5z M435.3,292.3
								c0.1-0.4,0.5-0.7,0.9-0.8c0.1,0,0.3,0,0.4,0c0.6,0.2,0.9,0.8,0.7,1.3c-0.1,0.3-0.3,0.5-0.5,0.6c-0.3,0.1-0.5,0.2-0.8,0.1
								c-0.3-0.1-0.5-0.3-0.6-0.5C435.3,292.8,435.3,292.5,435.3,292.3z"/>
						</g>
						<g>
							<path class="st38" d="M440.5,308.2c-3.3,0.3-6.2-2-6.5-5.3c-0.3-2.7,1.3-5.2,3.8-6.2c0-0.6,0.2-1.2,0.4-1.6
								c-3.5,0.9-5.9,4.2-5.6,8c0.4,4.1,4.1,7,8.1,6.6c3.6-0.4,6.4-3.3,6.6-6.8c-0.5,0.2-1,0.4-1.5,0.5
								C445.2,305.9,443.1,307.9,440.5,308.2z"/>
						</g>
						<g>
							<path class="st38" d="M443.8,291.1c-0.7,0.1-1.4,0.3-2.1,0.6c0.1,0.1,0.1,0.3,0.1,0.5c0,0.4-0.4,0.7-0.8,0.7
								c-0.2,0-0.4-0.2-0.5-0.3c-0.6,0.5-1.2,1.2-1.5,1.9c-0.1,0.2-0.2,0.4-0.3,0.6c-0.2,0.5-0.3,1-0.4,1.6c0,0.4-0.1,0.7,0,1.1
								c0,0.1,0,0.2,0,0.3c0.3,3.4,3.4,5.9,6.8,5.5c0.2,0,0.4-0.1,0.6-0.1c0.1-0.5,0.1-1,0.1-1.5c0-0.1,0-0.1,0-0.2
								c-0.1-0.6-0.2-1.2-0.5-1.7l0,0c0-0.1-0.1-0.2-0.1-0.2c0,0,0-0.1,0-0.1c0-0.4,0.2-0.8,0.6-0.8c0,0,0.1,0,0.1,0
								c0.3,0,0.5,0.2,0.6,0.4c0,0,0,0,0,0.1c0.3,0.6,0.4,1.2,0.5,1.9c0,0.1,0,0.2,0,0.3c0,0.4,0,0.9,0,1.3c2.2-1.1,3.7-3.6,3.4-6.2
								C450.3,293.2,447.2,290.8,443.8,291.1z M443.9,294.2c0-0.1,0.1-0.2,0.3-0.2c0.1,0,0.2,0.1,0.2,0.3c0,0.1-0.1,0.2-0.3,0.2
								C444,294.5,443.9,294.3,443.9,294.2z M441.7,293.9c0-0.3,0.3-0.5,0.5-0.4c0.3,0,0.5,0.3,0.4,0.5c0,0.3-0.3,0.5-0.5,0.4
								C441.9,294.4,441.7,294.2,441.7,293.9z M446.3,296.1l-1.1,1.2l-0.1,0.1c0,0-0.1,0-0.1,0l-2.3-0.5l1.9,1c0,0,0,0,0.1,0.1
								l0.1,1l0.1,0.5l-0.4-0.7c0-0.1-0.1-0.1-0.2,0l-1,1.6c0,0.1-0.1,0.1-0.2,0l-2.8-4.1l-0.4-0.6l-0.1-0.2c-0.1-0.1,0-0.2,0.1-0.2
								l0.1,0l3.2,0.2l3.1,0.2C446.4,295.9,446.4,296,446.3,296.1z"/>
						</g>
					</g>
				</g>
				<g>
					<g>
						<g>
							<path class="st29" d="M423.5,296.5c5.9-0.9,9.9,4.7,11,12.2c1.1,7.5-1.1,13.9-7,14.8c-5.9,0.9-12.2-4.4-13.3-11.8
								C413.1,304.2,417.7,297.3,423.5,296.5z"/>
						</g>
						<g>
							<path class="st19" d="M426.3,325.6c-3,0-6-1.2-8.5-3.4c-3-2.6-4.9-6.2-5.5-10.3c-1.2-8.4,3.8-16.4,11-17.5c0,0,0,0,0,0
								c6.6-1,11.9,4.6,13.3,13.9c1.4,9.3-2.1,16.1-8.7,17.1C427.3,325.5,426.8,325.6,426.3,325.6z M423.8,298.5
								c-4.9,0.7-8.5,6.7-7.6,12.8c0.5,3.1,1.9,5.8,4.2,7.8c2.1,1.8,4.6,2.6,6.8,2.3c5.2-0.8,6.1-7.2,5.3-12.5
								C431.8,303.6,429,297.7,423.8,298.5L423.8,298.5z"/>
						</g>
					</g>
					<g>
						<g>
							<g>
								<path class="st29" d="M521,290.2c0,0,7,6.7,7.5,20.3c0.3,11-7.6,18.7-14.9,18.7c-12.9,0-28.9-3.2-27.8-16.1
									c1.5-18.4,23-10.5,23-10.5"/>
							</g>
							<g>
								<path class="st19" d="M513.5,331.2c-7.2,0-19.9-1-26.1-7.7c-2.6-2.9-3.8-6.4-3.5-10.5c0.4-5.4,2.5-9.3,6.2-11.7
									c7.6-4.8,19-0.7,19.5-0.5c1.1,0.4,1.6,1.6,1.2,2.6c-0.4,1.1-1.6,1.6-2.6,1.2c-0.1,0-10-3.6-15.9,0.2c-2.6,1.6-4,4.5-4.3,8.6
									c-0.2,3,0.5,5.4,2.4,7.4c3.8,4.1,12.2,6.4,23.1,6.4c0.1,0,0.1,0,0.2,0c2.8,0,5.8-1.4,8.2-3.9c3.2-3.3,4.8-7.8,4.7-12.7
									c-0.4-12.5-6.8-18.8-6.8-18.9c-0.8-0.8-0.8-2.1-0.1-2.9c0.8-0.8,2-0.8,2.9-0.1c0.3,0.3,7.7,7.4,8.1,21.7
									c0.2,6-1.9,11.6-5.8,15.6c-3.2,3.3-7.2,5.1-11.1,5.1C513.6,331.2,513.5,331.2,513.5,331.2z"/>
							</g>
						</g>
						<g>
							<path class="st33" d="M511.6,289.8c0,0,4-3.3,9.3-0.1c0,0-3.1,3.8-12,12.8C508.9,302.6,511.5,297.1,511.6,289.8z"/>
							<path class="st19" d="M508.9,304.6c-0.4,0-0.8-0.1-1.2-0.4c-0.8-0.6-1.1-1.6-0.7-2.5c0,0,2.4-5.2,2.5-11.9
								c0-0.6,0.3-1.2,0.7-1.5c0.2-0.2,5.2-4.2,11.7-0.3c0.5,0.3,0.9,0.8,1,1.4c0.1,0.6-0.1,1.2-0.4,1.6c-0.1,0.2-3.3,3.9-12.1,13
								C510,304.4,509.4,304.6,508.9,304.6z M513.6,291c-0.1,1.5-0.2,3-0.5,4.3c2-2.1,3.4-3.7,4.4-4.8
								C515.8,290.1,514.4,290.6,513.6,291z"/>
						</g>
					</g>
				</g>
			</g>
		</g>
	</g>
</g>
</svg>
