<svg xmlns="http://www.w3.org/2000/svg" viewBox="0 0 318.85 357.24"><defs><style>.cls-1{isolation:isolate;}.cls-2,.cls-3,.cls-5{fill:#fff;}.cls-10,.cls-11,.cls-12,.cls-13,.cls-16,.cls-2,.cls-3,.cls-9{stroke:#0a0305;}.cls-10,.cls-11,.cls-12,.cls-13,.cls-15,.cls-16,.cls-2,.cls-3,.cls-9{stroke-linecap:round;stroke-linejoin:round;}.cls-10,.cls-11,.cls-15,.cls-16,.cls-17,.cls-2,.cls-9{stroke-width:5px;}.cls-19,.cls-26,.cls-3{stroke-width:3px;}.cls-4{fill:#ea6268;}.cls-6{fill:#d6383e;}.cls-7{fill:#cbcbcb;}.cls-8{fill:#3c3d3d;}.cls-9{fill:#f2b700;}.cls-10{fill:#327eac;}.cls-11{fill:#035b7f;}.cls-12{fill:#e8ae00;}.cls-12,.cls-13,.cls-18{stroke-width:2px;}.cls-13,.cls-16,.cls-26{fill:none;}.cls-14{fill:#0a0305;}.cls-15{fill:#7e6866;stroke:#7e6866;}.cls-17{fill:#fbcf51;}.cls-17,.cls-18{stroke:#040000;}.cls-17,.cls-18,.cls-19,.cls-26{stroke-miterlimit:10;}.cls-18{fill:#f5b071;}.cls-19{fill:#2b908f;stroke:#241613;}.cls-20{fill:#e84b27;}.cls-21{fill:#e3421a;}.cls-22{fill:#d7975b;mix-blend-mode:multiply;}.cls-23{fill:#fad8b6;}.cls-24{fill:#78291d;}.cls-25{fill:#a51f24;opacity:0.6;}.cls-26{stroke:#000;}</style></defs><g class="cls-1"><g id="레이어_1" data-name="레이어 1"><path class="cls-2" d="M61.23,280.66s-12.78,13.1-11.42,32.25c1.13,15.92,9.6,22.09,16.47,21.38s8.71-5.12,9-8.12" transform="translate(-30.72 -13)"/><path class="cls-3" d="M65.16,329.05s2.31,3.44,6.12,3.66" transform="translate(-30.72 -13)"/><path class="cls-4" d="M341,365.88c-40.52-55.74-63.44-130.77-63.44-130.77H207.39s-22.92,75-63.44,130.77H197V353.49a45.45,45.45,0,0,1,90.89,0v12.39Z" transform="translate(-30.72 -13)"/><polygon class="cls-5" points="211.76 187.11 153.75 187.11 161.36 222.11 211.76 222.11 262.17 222.11 269.77 187.11 211.76 187.11"/><path class="cls-4" d="M256.52,86.62H228.45s-2.08,68.52-12.38,113.49h52.62C258.59,154,256.52,86.62,256.52,86.62Z" transform="translate(-30.72 -13)"/><polygon class="cls-6" points="211.77 253.68 244.96 223.81 178.56 223.81 211.77 253.68"/><path class="cls-6" d="M227.57,105.18h29.82c-.65-11.32-.87-18.56-.87-18.56H228.45S228.22,93.88,227.57,105.18Z" transform="translate(-30.72 -13)"/><polygon class="cls-7" points="211.76 47.31 187.8 47.31 187.8 73.62 211.76 73.62 235.72 73.62 235.72 47.31 211.76 47.31"/><polygon class="cls-4" points="211.76 23.06 202.22 23.06 202.22 47.31 211.76 47.31 221.3 47.31 221.3 23.06 211.76 23.06"/><path class="cls-7" d="M222,164.45H263c-2-14.07-3.4-28.31-4.37-40.71H226.37C225.4,136.14,224,150.38,222,164.45Z" transform="translate(-30.72 -13)"/><path class="cls-5" d="M260.46,144.09c-.75-7.08-1.37-14-1.87-20.35H226.37c-.5,6.38-1.12,13.27-1.87,20.35Z" transform="translate(-30.72 -13)"/><polygon class="cls-5" points="187.8 47.31 187.8 60.47 235.72 60.47 235.72 47.31 211.76 47.31 187.8 47.31"/><path class="cls-6" d="M197,353.49A45.23,45.23,0,0,1,207.91,324H169.83A362.09,362.09,0,0,1,144,365.88H197Z" transform="translate(-30.72 -13)"/><path class="cls-6" d="M287.93,353.49v12.39H341A360.64,360.64,0,0,1,315.14,324H277.06A45.28,45.28,0,0,1,287.93,353.49Z" transform="translate(-30.72 -13)"/><path class="cls-8" d="M283.57,239.47H296.4l9.5-43.72H272.23c-1.75-8.51-3.25-17.66-4.52-26.94h14.52V152.37h-8.72v7.72h-6.74q-1.49-11.16-2.69-23.67c-.26-2.84-.49-5.61-.71-8.32h15.28V111.67h-8.72v7.71H262.7c-.92-12.63-1.42-22.87-1.65-28.4h9.75V56H256.38V31.7h-9.54V13h-8.72V31.7h-9.54V56H214.16V91h9.76c-.24,5.54-.74,15.79-1.65,28.4H215v-7.71h-8.72V128.1H221.6q-.32,3.93-.69,8-1.2,12.65-2.72,24h-6.74v-7.72h-8.72v16.44h14.49c-1.31,9.34-2.84,18.51-4.65,26.94H179.06l9.51,43.72h12.82c-6.17,18.37-27.67,78-61,123.84l-5,6.93h66V353.49a41.09,41.09,0,0,1,82.17,0v16.75h66l-5-6.93C311.27,317.55,289.75,257.85,283.57,239.47Zm8.66,112.82a49.42,49.42,0,0,0-6.91-24.07l22.85,1.63Zm-9.78-33,11.07-30.06c4.4,10.06,9.48,20.9,15.2,31.94ZM285.92,271l-31.57-8.42,21.19-19.65C277.59,249,281.08,258.87,285.92,271Zm-39.08-31.54h19.62l-19.62,18.19Zm-8.72,18.19-19.61-18.19h19.61Zm0,42.67L202.8,279l35.32-9.42Zm8.72-30.72L282.16,279l-35.32,21.3Zm-17.41-131c.34-3.46.66-7,1-10.55h24.18c.31,3.74.65,7.39,1,11,.63,6.79,1.36,13.86,2.22,21H227.14C228,152.82,228.79,145.58,229.43,138.65Zm7.87-98.23h10.36V56H237.3ZM222.88,82.26V64.67h39.2V82.26h-39.2ZM252.32,91c.23,5.43.73,15.69,1.64,28.4H231c.91-12.69,1.41-23,1.63-28.4ZM226,168.81h32.9c1.25,9.23,2.71,18.38,4.42,26.94H221.48C223.24,187.26,224.74,178.09,226,168.81Zm-30.42,61.94-5.71-26.28h105.2l-5.71,26.28H195.59Zm13.83,12.19,21.2,19.65L199,271C203.88,258.87,207.37,249,209.42,242.94Zm-18,46.27,11.07,30.06-26.27,1.88C182,310.11,187,299.27,191.44,289.21Zm1.3,63.08L176.8,329.85l22.84-1.63A49.41,49.41,0,0,0,192.74,352.29Zm-40.38,9.23c6-8.84,11.66-18,16.84-27.31l19.39,27.31Zm58-46.06-10.26-27.85,29.54,17.81A49.73,49.73,0,0,0,210.4,315.46Zm44.88-10,29.54-17.81-10.26,27.85A49.66,49.66,0,0,0,255.28,305.42Zm41.09,56.1,19.39-27.3c5.19,9.25,10.81,18.46,16.84,27.3Z" transform="translate(-30.72 -13)"/><rect class="cls-8" x="182.32" y="200.4" width="8.43" height="8.43"/><rect class="cls-8" x="207.55" y="200.4" width="8.43" height="8.43"/><rect class="cls-8" x="232.77" y="200.4" width="8.43" height="8.43"/><path class="cls-9" d="M84.61,327.09V350l2.63-.22c-8.27,0-11.68,5.8-11.18,11S80.86,366,83.7,366H98.3c9.71,0,8.54-6.93,8.54-6.93v-32" transform="translate(-30.72 -13)"/><path class="cls-9" d="M136.89,327.09V350l-2.63-.22c8.27,0,11.69,5.8,11.18,11S140.63,366,137.8,366H123.2c-9.72,0-8.54-6.93-8.54-6.93v-32" transform="translate(-30.72 -13)"/><path class="cls-2" d="M146.83,285.54s6.2,8.86,6.2,25.91-14.1,30.42-42.28,30.42-42.28-13.36-42.28-30.42,6.2-25.91,6.2-25.91" transform="translate(-30.72 -13)"/><path class="cls-10" d="M109.6,289.63s4.29,10.2-5.15,21.7c0,0-4.58-4.88-3.59-11.51S109.6,289.63,109.6,289.63Z" transform="translate(-30.72 -13)"/><path class="cls-10" d="M111.84,289.63s-4.29,10.2,5.15,21.7c0,0,4.58-4.88,3.59-11.51S111.84,289.63,111.84,289.63Z" transform="translate(-30.72 -13)"/><path class="cls-10" d="M148,284s-6.38,14.94-37.28,10.73C79.84,298.91,73.47,284,73.47,284" transform="translate(-30.72 -13)"/><path class="cls-11" d="M78.51,273.26h3a3.34,3.34,0,0,1,3.34,3.34v4.26a3.35,3.35,0,0,1-3.35,3.35h-3a3.34,3.34,0,0,1-3.34-3.34v-4.26A3.34,3.34,0,0,1,78.51,273.26Z"/><path class="cls-5" d="M110.75,288.38c30.92,0,77.48-7.71,77.47-55.19,0-50.61-31.86-74.13-77.47-74.13s-77.46,23.52-77.47,74.13C33.27,280.67,79.83,288.38,110.75,288.38Z" transform="translate(-30.72 -13)"/><path class="cls-12" d="M110.75,237.73c6.71,0,12.2-2.83,12.2-6.87s-5.82-8.08-12.2-8.08-12.21,4-12.21,8.08S104,237.73,110.75,237.73Z" transform="translate(-30.72 -13)"/><path class="cls-13" d="M117.78,229.65s-1.54,2.67-7,2.67-7-2.67-7-2.67" transform="translate(-30.72 -13)"/><path class="cls-14" d="M97.66,217.71c0,3.82-2,6.92-4.44,6.92s-4.44-3.1-4.44-6.92,2-6.92,4.44-6.92S97.66,213.88,97.66,217.71Z" transform="translate(-30.72 -13)"/><path class="cls-14" d="M123.84,217.71c0,3.82,2,6.92,4.44,6.92s4.44-3.1,4.44-6.92-2-6.92-4.44-6.92S123.84,213.88,123.84,217.71Z" transform="translate(-30.72 -13)"/><path class="cls-15" d="M188.21,231.68c-6.81-13-25.09-10.83-25.09-10.83s-2.07-30.06-32.24-30.16a23.84,23.84,0,0,0-20.13,10.51,23.86,23.86,0,0,0-20.13-10.51c-30.18.1-32.24,30.16-32.24,30.16s-18.28-2.19-25.09,10.83c0,0-5.37-72.62,77.46-72.62S188.21,231.68,188.21,231.68Z" transform="translate(-30.72 -13)"/><path class="cls-16" d="M110.75,288.38c30.92,0,77.48-7.71,77.47-55.19,0-50.61-31.86-74.13-77.47-74.13s-77.46,23.52-77.47,74.13C33.27,280.67,79.83,288.38,110.75,288.38Z" transform="translate(-30.72 -13)"/><path class="cls-16" d="M112.08,159.06S103.65,155,106.15,147" transform="translate(-30.72 -13)"/><path class="cls-2" d="M137,278.54c-1,5.16,3.68,9,10.21,10.31s12.39-.34,13.44-5.49-3.28-11-9.81-12.31S138.06,273.38,137,278.54Z" transform="translate(-30.72 -13)"/><path class="cls-2" d="M150.38,283.58s-1.1,3.52-4.3,4.66" transform="translate(-30.72 -13)"/><path class="cls-17" d="M36.69,245.94" transform="translate(-30.72 -13)"/><path class="cls-18" d="M158.41,296.46a16,16,0,0,0-1.38-5.12c-1.58-3.34-4.11-5.07-7.5-5.14h-.21c-8.12,0-9.5,9.51-9.51,9.6l-.69-.09c0-.1,1.52-10.38,10.43-10.21,8.75.18,9.55,10.81,9.56,10.92Z" transform="translate(-30.72 -13)"/><path class="cls-19" d="M138.54,295.09c0-2.08,21.9-2.6,21.86.78,0,3.12.35,58,.31,61.1s-22.68,2.85-22.64-.27S138.52,297.17,138.54,295.09Z" transform="translate(-30.72 -13)"/><path class="cls-20" d="M131.3,303c-3.45,5.17-3.34,39.71.48,46.53s31.44,5.06,34.09,1.18c3.71-5.42,3.89-42.82,0-47.56C161.5,297.76,134.47,298.29,131.3,303Z" transform="translate(-30.72 -13)"/><path class="cls-20" d="M131.3,303c-3.45,5.17-3.34,39.71.48,46.53s31.44,5.06,34.09,1.18c3.71-5.42,3.89-42.82,0-47.56C161.5,297.76,134.47,298.29,131.3,303Z" transform="translate(-30.72 -13)"/><path class="cls-21" d="M131.1,347.93a10.09,10.09,0,0,0,.46,1.2,71.86,71.86,0,0,0,16.67,2.12,77.71,77.71,0,0,0,18.33-2c.12-.35.24-.73.35-1.15A73.73,73.73,0,0,1,131.1,347.93Z" transform="translate(-30.72 -13)"/><path class="cls-21" d="M130.19,344.14c.07.4.14.78.22,1.15a69.81,69.81,0,0,0,18,2.48,77.4,77.4,0,0,0,19-2.14c.07-.36.13-.73.19-1.11A73.27,73.27,0,0,1,130.19,344.14Z" transform="translate(-30.72 -13)"/><path class="cls-21" d="M129.72,341l.15,1.13a69.36,69.36,0,0,0,18.61,2.65,77.49,77.49,0,0,0,19.4-2.24l.12-1.1A73.17,73.17,0,0,1,129.72,341Z" transform="translate(-30.72 -13)"/><path class="cls-21" d="M129.31,337.16c0,.37.07.74.1,1.1a79.11,79.11,0,0,0,19,2.39,90.11,90.11,0,0,0,19.91-2c0-.36,0-.72.08-1.09A84.94,84.94,0,0,1,129.31,337.16Z" transform="translate(-30.72 -13)"/><path class="cls-21" d="M129.06,333.52l.06,1.08a94.8,94.8,0,0,0,39.4.21c0-.36,0-.71,0-1.08A93.66,93.66,0,0,1,129.06,333.52Z" transform="translate(-30.72 -13)"/><path class="cls-21" d="M128.91,330.3c0,.35,0,.71,0,1.06a112.45,112.45,0,0,0,39.71-.16c0-.35,0-.71,0-1.06A111.67,111.67,0,0,1,128.91,330.3Z" transform="translate(-30.72 -13)"/><path class="cls-21" d="M128.82,326.38c0,.36,0,.71,0,1.06a140.83,140.83,0,0,0,20.39,1.74,111.91,111.91,0,0,0,19.49-1.38c0-.35,0-.7,0-1.05C152.17,329.51,135.8,327.52,128.82,326.38Z" transform="translate(-30.72 -13)"/><path class="cls-21" d="M128.82,323c0,.34,0,.69,0,1A182.82,182.82,0,0,0,148,325.29a155.3,155.3,0,0,0,20.69-1.08c0-.35,0-.7,0-1A173.7,173.7,0,0,1,128.82,323Z" transform="translate(-30.72 -13)"/><path class="cls-21" d="M128.89,319.3l0,1.05c3.9.45,10.63,1.06,18.68,1.16a153.39,153.39,0,0,0,21.09-1.12c0-.35,0-.7,0-1.05C152,321.48,135.82,320.1,128.89,319.3Z" transform="translate(-30.72 -13)"/><path class="cls-21" d="M129.06,315.54l-.06,1c4.08.33,11,.79,18.94.88a197.41,197.41,0,0,0,20.52-.73c0-.35-.05-.7-.07-1C152.94,317.14,136.38,316.13,129.06,315.54Z" transform="translate(-30.72 -13)"/><path class="cls-21" d="M129.3,312.44c0,.34-.06.69-.09,1,4.11.33,10.84.76,18.59.85a198,198,0,0,0,20.42-.72l-.09-1C153,314,136.77,313,129.3,312.44Z" transform="translate(-30.72 -13)"/><path class="cls-21" d="M129.71,308.82c-.05.34-.09.68-.14,1,4.22.19,11,.45,18.56.54,6.34.08,13.25,0,19.71-.27-.05-.35-.1-.7-.15-1C153.63,309.74,137.47,309.18,129.71,308.82Z" transform="translate(-30.72 -13)"/><path class="cls-21" d="M130.32,305.63c-.09.33-.16.68-.24,1.05,7.95,0,24.12,0,37.23.33-.08-.37-.16-.72-.25-1.05C154.12,305.6,138.3,305.6,130.32,305.63Z" transform="translate(-30.72 -13)"/><path class="cls-21" d="M166.35,303.91a3.43,3.43,0,0,0-.44-.72,2.69,2.69,0,0,0-.33-.35c-12.58-.48-26.08-.42-33.82-.32a3.12,3.12,0,0,0-.46.52,5,5,0,0,0-.3.53C138.74,303.47,153.14,303.38,166.35,303.91Z" transform="translate(-30.72 -13)"/><path class="cls-22" d="M140.27,326.65s-4.29-3.58-1.93-6.24c2-2.28,5.33,0,5.33,0s.75-4.76,3.68-4.59c2.43.15,3.2,3.92,3.2,3.92s3.65-2.6,5.44-.4c2,2.46-.64,5.73-.64,5.73s4.45,1.61,4.46,4.16c0,3.59-4.47,3.6-4.47,3.6a4.17,4.17,0,0,1,3,2.58c.37,1.27.83,6.54-6.16,6.7-6.55.16-5.88-5.19-5.88-5.19a7.76,7.76,0,0,1-5.7,5.11c-4.5,1-5.84-5.33-3.58-6.09,4.23-1.42,3.63-2.65,3.63-2.65s-5.14-.7-5.29-3.54C135.19,326.28,140.27,326.65,140.27,326.65Z" transform="translate(-30.72 -13)"/><path class="cls-23" d="M139.63,326.11s-4.29-3.57-1.93-6.23c2-2.28,5.33,0,5.33,0s.36-4.09,3.3-4.13,3.19,4,3.19,4,4.21-3,6.15-.89-1.23,5.55-1.23,5.55,4.57,1.18,4.53,4.05c0,3.17-4.27,3.83-4.27,3.83a3.6,3.6,0,0,1,2.68,2.45c.36,1.27,1.09,6.52-5.9,6.53-6.1,0-5.81-4.89-5.81-4.89a8.52,8.52,0,0,1-6,4.88c-4.5,1-5.54-5.1-3.28-5.86,4.23-1.43,4-3.26,4-3.26s-5.16-.39-5.31-3.23C134.86,325.45,139.63,326.11,139.63,326.11Z" transform="translate(-30.72 -13)"/><path class="cls-24" d="M153.13,335s.12,1.43-.41,1.88-2.5.49-2.83-.11a40.14,40.14,0,0,1-.64-7.05l5.12.19.34-2.16h-7.54l0-8.86-1.8,0,.24,8.89h-8.29l.21,1.7,6,.17a7.41,7.41,0,0,1-5.9,7.29l1.08,1.82a9.75,9.75,0,0,0,6.25-9.09l2.9.07c0,2.09.07,7.36.44,8.43s5.25,1.06,5.81.22c.72-1.09.43-3.53.43-3.53Z" transform="translate(-30.72 -13)"/><polygon class="cls-24" points="113.33 312.19 109.47 307.35 107.96 308.75 112.14 313.35 113.33 312.19"/><polygon class="cls-24" points="123.19 308.93 121.72 307.5 117.73 312.24 118.9 313.43 123.19 308.93"/><path class="cls-25" d="M162.28,352.58c.9-31.94-2.06-51.43-2.06-51.43.87,29.82-.2,47-.61,52.05C160.59,353,161.48,352.81,162.28,352.58Z" transform="translate(-30.72 -13)"/><path class="cls-26" d="M165.93,303.17c-1-1.25-3.24-2.18-6.09-2.82h0l-.5-.1-.15,0-.53-.11-.14,0-.64-.12-.16,0-.62-.1H157c-10.31-2.4-22.59.65-25.73,3.18-1.95,1.57-2.78,25.56-2.09,31.05.4,7.35,1.14,12.91,2.58,15.47,3.82,6.81,31.43,5.06,34.08,1.19C169.59,345.31,169.78,307.9,165.93,303.17Z" transform="translate(-30.72 -13)"/><path class="cls-23" d="M159.81,353.42h0a.52.52,0,0,1-.49-.55c1.3-22.8,0-52.13,0-52.43a.52.52,0,0,1,1,0c0,.29,1.32,29.67,0,52.53A.53.53,0,0,1,159.81,353.42Z" transform="translate(-30.72 -13)"/><path class="cls-23" d="M134.44,352.22a.52.52,0,0,1-.52-.47c-.27-2.9-.48-5.82-.65-8.71a373.74,373.74,0,0,1,.14-41.82.52.52,0,0,1,1,.07c0,.26-1.77,25.82.51,50.36a.52.52,0,0,1-.47.57Z" transform="translate(-30.72 -13)"/></g></g></svg>