<svg id="레이어_1" data-name="레이어 1" xmlns="http://www.w3.org/2000/svg" viewBox="0 0 371.33 261.7"><defs><style>.cls-1{fill:#e2d3c9;}.cls-2{fill:#ceb4a2;}.cls-3{fill:#af9c91;}.cls-4{fill:#ae8b77;}.cls-5{fill:#3c3d3d;}.cls-6,.cls-9{fill:#f29a48;}.cls-16,.cls-7{fill:#fff;}.cls-8{fill:none;}.cls-10,.cls-12,.cls-16,.cls-8,.cls-9{stroke:#0a0305;stroke-linecap:round;stroke-linejoin:round;stroke-width:5px;}.cls-10{fill:#e13339;}.cls-11,.cls-12{fill:#7e4f23;}.cls-13{opacity:0.4;}.cls-14{fill:#ed7616;opacity:0.6;}.cls-15{fill:#0a0305;}</style></defs><path class="cls-1" d="M59.81,113.89h40.75a7.1,7.1,0,0,1,7.1,7.1v33.37a0,0,0,0,1,0,0H52.71a0,0,0,0,1,0,0V121A7.1,7.1,0,0,1,59.81,113.89Z"/><polygon class="cls-2" points="80.42 92.95 61.7 92.95 64.43 113.89 80.42 113.89 96.42 113.89 99.15 92.95 80.42 92.95"/><polygon class="cls-2" points="80.42 73.53 64.86 73.53 67.4 92.95 80.42 92.95 93.44 92.95 95.98 73.53 80.42 73.53"/><path class="cls-1" d="M97.86,156h-6.2c-3.41,0-6.18,4.19-6.18,9.35v5.16H104v-5.16C104,160.21,101.27,156,97.86,156Z" transform="translate(-14.34 -97)"/><rect class="cls-1" x="78.79" y="173.41" width="49.83" height="51.95"/><rect class="cls-1" x="37" y="181.8" width="41.78" height="43.56"/><path class="cls-1" d="M278,210.89H333a0,0,0,0,1,0,0v33.37a7.1,7.1,0,0,1-7.1,7.1H285.11a7.1,7.1,0,0,1-7.1-7.1V210.89A0,0,0,0,1,278,210.89Z" transform="translate(596.63 365.25) rotate(180)"/><path class="cls-2" d="M238.64,212.8H161.36C157.73,196.44,143,195.3,143,195.3v58h114.1v-58S242.27,196.44,238.64,212.8Z" transform="translate(-14.34 -97)"/><polygon class="cls-1" points="185.66 82.67 152.26 82.67 157.12 115.81 185.66 115.81 214.2 115.81 219.07 82.67 185.66 82.67"/><polygon class="cls-2" points="185.66 51.94 161.96 51.94 165.83 82.67 185.66 82.67 205.5 82.67 209.37 51.94 185.66 51.94"/><polygon class="cls-2" points="185.66 21.71 166.3 21.71 170.54 51.94 185.66 51.94 200.78 51.94 205.03 21.71 185.66 21.71"/><path class="cls-1" d="M203.55,101h-7.1c-3.91,0-7.07,5.11-7.07,11.42v6.3h21.24v-6.3C210.62,106.1,207.46,101,203.55,101Z" transform="translate(-14.34 -97)"/><polygon class="cls-2" points="290.9 92.95 309.63 92.95 306.9 113.89 290.9 113.89 274.91 113.89 272.18 92.95 290.9 92.95"/><polygon class="cls-2" points="290.9 73.53 306.46 73.53 303.92 92.95 290.9 92.95 277.88 92.95 275.34 73.53 290.9 73.53"/><path class="cls-1" d="M302.25,156h6c3.28,0,5.95,4.19,5.95,9.35v5.16H296.3v-5.16C296.3,160.21,299,156,302.25,156Z" transform="translate(-14.34 -97)"/><polygon class="cls-1" points="185.66 156.26 128.62 156.26 128.62 225.36 185.66 225.36 242.71 225.36 242.71 156.26 185.66 156.26"/><rect class="cls-1" x="257.05" y="270.41" width="49.83" height="51.95" transform="translate(549.59 495.76) rotate(180)"/><rect class="cls-1" x="306.88" y="278.8" width="41.78" height="43.56" transform="translate(641.2 504.16) rotate(180)"/><path class="cls-2" d="M353.39,322.36H46.61a13,13,0,0,0-13,13v3.15H366.39v-3.15A13,13,0,0,0,353.39,322.36Z" transform="translate(-14.34 -97)"/><path class="cls-2" d="M368.28,338.56H31.72A13.39,13.39,0,0,0,18.32,352v2.76H381.68V352A13.39,13.39,0,0,0,368.28,338.56Z" transform="translate(-14.34 -97)"/><rect class="cls-3" x="263.67" y="140.56" width="54.95" height="13.81"/><rect class="cls-3" x="52.71" y="140.56" width="54.95" height="13.81"/><polygon class="cls-4" points="63.07 103.45 64.43 113.89 80.42 113.89 96.42 113.89 97.78 103.45 63.07 103.45"/><polygon class="cls-4" points="66.13 83.24 67.4 92.95 80.42 92.95 93.44 92.95 94.71 83.24 66.13 83.24"/><polygon class="cls-4" points="273.55 103.45 274.91 113.89 290.9 113.89 306.9 113.89 308.26 103.45 273.55 103.45"/><polygon class="cls-4" points="276.61 83.24 277.88 92.95 290.9 92.95 303.92 92.95 305.19 83.24 276.61 83.24"/><polygon class="cls-4" points="164.18 69.54 165.83 82.67 185.66 82.67 205.5 82.67 207.15 69.54 164.18 69.54"/><polygon class="cls-4" points="168.74 39.07 170.54 51.94 185.66 51.94 200.78 51.94 202.59 39.07 168.74 39.07"/><polygon class="cls-3" points="154.98 101.22 157.12 115.81 185.66 115.81 214.2 115.81 216.34 101.22 154.98 101.22"/><path class="cls-2" d="M110.34,237.64c-2.85-13.36-17.22-13.36-17.22-13.36v46.13H143v-31.8Z" transform="translate(-14.34 -97)"/><path class="cls-2" d="M65.78,251.32c-2.39-11.19-14.44-11.19-14.44-11.19V278.8H93.12V252.14Z" transform="translate(-14.34 -97)"/><path class="cls-2" d="M289.66,237.64c2.85-13.36,17.22-13.36,17.22-13.36v46.13H257.05v-31.8Z" transform="translate(-14.34 -97)"/><path class="cls-2" d="M334.22,251.32c2.39-11.19,14.44-11.19,14.44-11.19V278.8H306.88V252.14Z" transform="translate(-14.34 -97)"/><rect class="cls-3" x="36.98" y="181.18" width="41.81" height="11.46"/><rect class="cls-3" x="292.53" y="181.18" width="41.81" height="11.46"/><rect class="cls-3" x="78.79" y="173.41" width="49.83" height="12.38"/><rect class="cls-3" x="242.71" y="173.41" width="49.83" height="12.38"/><rect class="cls-3" x="128.62" y="156.26" width="113.45" height="15.72"/><path class="cls-1" d="M226.28,258.61a67.35,67.35,0,0,0-26.28-20,67.35,67.35,0,0,0-26.28,20,20.64,20.64,0,0,0-4.31,12.61v51.14h61.18V271.22A20.64,20.64,0,0,0,226.28,258.61Z" transform="translate(-14.34 -97)"/><path class="cls-5" d="M370.31,334.7a17,17,0,0,0-16.92-16.33h-.75V236.14h-4a20.79,20.79,0,0,0-11.72,3.92V216.3a9.4,9.4,0,0,0-9.39-9.39h-1.78L328.5,186h-5.7l2.54-19.42h-7.18v-1.17c0-7.48-4.36-13.33-9.93-13.33h-6c-5.57,0-9.93,5.85-9.93,13.33v1.17h-7.18L287.68,186H282l2.73,20.95h-1.29a9.41,9.41,0,0,0-9.4,9.39v17.82l-13,.38V191l-4.29.33a25.34,25.34,0,0,0-21.13,17.49h-2.46L238,175.68H224.35L228.22,145H219.7L224,114.73h-9.34v-2.32c0-8.64-4.86-15.41-11.06-15.41h-7.1c-6.2,0-11.06,6.77-11.06,15.41v2.32h-9.34L180.3,145h-8.52l3.87,30.72H162l4.87,33.14h-2.46a25.34,25.34,0,0,0-21.13-17.49L139,191v43.5l-13-.38V216.3a9.41,9.41,0,0,0-9.4-9.39h-1.29L118,186h-5.7l2.54-19.42H108v-1.17c0-7.48-4.46-13.33-10.16-13.33h-6.2c-5.7,0-10.17,5.85-10.17,13.33v1.17H74.66L77.2,186H71.5l2.73,20.95H72.45a9.4,9.4,0,0,0-9.39,9.39v23.76a20.79,20.79,0,0,0-11.72-3.92h-4v82.23h-.75A17,17,0,0,0,29.69,334.7,17.4,17.4,0,0,0,14.34,352v6.75H385.66V352A17.4,17.4,0,0,0,370.31,334.7ZM200,276.14a16.63,16.63,0,0,0-16.61,16.61v25.62h-10V271.22a16.73,16.73,0,0,1,3.48-10.17c1-1.35,2.14-2.61,3.25-3.8a61.58,61.58,0,0,1,9.14-8A65.84,65.84,0,0,1,200,243a65.42,65.42,0,0,1,10.74,6.33,61.08,61.08,0,0,1,9.14,8c1.12,1.19,2.2,2.45,3.25,3.8a16.73,16.73,0,0,1,3.48,10.17v47.15h-10V292.75A16.63,16.63,0,0,0,200,276.14ZM97.11,274.81v-.42H139v44H128.38V298.09H109.7v20.28H97.11V274.81Zm49.83-.42V257.25h22.93a24.69,24.69,0,0,0-4.45,14v47.15H146.94Zm83.19-17.14h22.93v61.12H234.58V271.22A24.61,24.61,0,0,0,230.13,257.25Zm72.76,17.56v43.56H290.3V298.09H271.62v20.28H261v-44h41.86Zm41.78,43.56h-9.74V303.14h-16v15.23h-8.07V282.78h33.81Zm-7.2-63.16.65-3.05a9.56,9.56,0,0,1,6.55-7.31v30H310.86V256l22.18-.66h3.9v-.12Zm-37.18-89.84c0-3.38,1.49-5.22,2-5.36h5.93c.48.12,2,2,2,5.36v1.17h-9.9Zm-6.07,9.14h22L314.76,186h-19Zm-3.17,19.42h28.38l-1.69,13h-25ZM282,216.3a1.43,1.43,0,0,1,1.43-1.43h44.13A1.43,1.43,0,0,1,329,216.3v31.08H310.86V220.3h-4c-5.58,0-16.34,2.9-20.23,13.44l-4.66.14Zm-8,25.79,8-.24,10.91-.32.66-3.06c1.31-6.15,5.9-8.59,9.33-9.56v37.51H261V242.48ZM193.36,112.41c0-4.63,2.14-7.44,3.09-7.44h7.1c.95,0,3.09,2.81,3.09,7.44v2.32H193.36Zm-8.14,10.29h29.56L211.65,145h-23.3Zm-4.41,30.22h38.38l-2.87,22.76H183.68Zm-9.6,30.73h57.58l-3.69,25.17H174.9Zm-24.27,16.8c3.71,1.56,8.73,5.12,10.53,13.22l.7,3.12h83.66l.7-3.12c1.8-8.1,6.82-11.67,10.53-13.22v48.83H223.21a71.14,71.14,0,0,0-21.8-14.4l-1.41-.53-1.41.53a71.14,71.14,0,0,0-21.8,14.4H146.94V200.45Zm-8,42v23.94H97.11V228.91c3.43,1,8,3.42,9.33,9.56l.66,3.06,10.91.32,8,.24ZM89.46,165.37c0-3.46,1.65-5.36,2.2-5.36h6.2c.55,0,2.2,1.9,2.2,5.36v1.17H89.46Zm-5.72,9.14h22L104.28,186h-19Zm-3.17,19.42H109l-1.69,13h-25ZM71,216.3a1.43,1.43,0,0,1,1.42-1.43h44.13A1.43,1.43,0,0,1,118,216.3v17.58l-4.66-.14c-3.9-10.54-14.65-13.44-20.23-13.44h-4v27.08H71Zm-15.7,28.55a9.57,9.57,0,0,1,6.55,7.31l.65,3.05.53,0v.12H67l22.18.66v18.8H55.33Zm33.81,37.93v35.59H81.07V303.14h-16v15.23H55.33V282.78ZM46.61,326.34H353.39a9,9,0,0,1,9,8.19H37.63A9,9,0,0,1,46.61,326.34ZM22.39,350.73a9.41,9.41,0,0,1,9.33-8.19H368.28a9.41,9.41,0,0,1,9.33,8.19Z" transform="translate(-14.34 -97)"/><path class="cls-6" d="M284.86,328.17s.3,5.46,0,11.59-2.76,11.78-13.51,11.78-13.22-5.65-13.52-11.78,0-11.59,0-11.59" transform="translate(-14.34 -97)"/><path class="cls-7" d="M258.72,343h25.71s1.51,8.84-13.51,8.84S258.72,343,258.72,343Z" transform="translate(-14.34 -97)"/><path class="cls-8" d="M284.86,328.17s.3,5.46,0,11.59-2.76,11.78-13.51,11.78-13.22-5.65-13.52-11.78,0-11.59,0-11.59" transform="translate(-14.34 -97)"/><path class="cls-6" d="M324.84,328.17s.3,5.46,0,11.59-2.77,11.78-13.52,11.78-13.21-5.65-13.51-11.78,0-11.59,0-11.59" transform="translate(-14.34 -97)"/><path class="cls-7" d="M298.69,343H324.4s1.51,8.84-13.5,8.84S298.69,343,298.69,343Z" transform="translate(-14.34 -97)"/><path class="cls-8" d="M324.84,328.17s.3,5.46,0,11.59-2.77,11.78-13.52,11.78-13.21-5.65-13.51-11.78,0-11.59,0-11.59" transform="translate(-14.34 -97)"/><path class="cls-9" d="M251.73,280.39s-9.08,10.07-12.92,22.06c-2.69,8.41-4.24,22.93,7.74,24.48,11.13,1.46,12.77-9.44,12.77-9.44" transform="translate(-14.34 -97)"/><path class="cls-9" d="M330.93,280.39s9.09,10.07,12.93,22.06c2.7,8.41,4.24,22.93-7.74,24.48-11.13,1.46-12.77-9.44-12.77-9.44" transform="translate(-14.34 -97)"/><path class="cls-9" d="M328.2,287.35s2.23,8.19,2.23,23.95-13,23.9-39.09,23.9-39.1-8.12-39.1-23.9,2.23-23.95,2.23-23.95" transform="translate(-14.34 -97)"/><path class="cls-7" d="M291.34,319.45c19.4,0,23.31-7,22.83-17.28-.69-14.67-10.43-24.54-22.83-24.54s-22.15,9.87-22.84,24.54C268,312.46,271.93,319.45,291.34,319.45Z" transform="translate(-14.34 -97)"/><path class="cls-10" d="M291.33,163.84a8.89,8.89,0,0,1,3.56-6.75" transform="translate(-14.34 -97)"/><path class="cls-10" d="M291.33,181.81c6.3,0,23.85,5.23,24.26-4.6s-14.19-14.45-24.26-14.45-24.66,4.62-24.25,14.45S285.05,181.81,291.33,181.81Z" transform="translate(-14.34 -97)"/><path class="cls-9" d="M276.55,176.21s-2.64-13.45-15.26-10.44c-15.38,3.67-8.62,20.24-8.62,20.24" transform="translate(-14.34 -97)"/><path class="cls-9" d="M306.13,176.21s2.64-13.45,15.25-10.44C336.76,169.44,330,186,330,186" transform="translate(-14.34 -97)"/><path class="cls-6" d="M291.33,291.77c27.63,0,69.22-6.89,69.21-49.3,0-45.22-28.46-66.23-69.21-66.23s-69.19,21-69.2,66.23C222.12,284.88,263.71,291.77,291.33,291.77Z" transform="translate(-14.34 -97)"/><path class="cls-11" d="M291.33,209.19a2.5,2.5,0,0,1-2.43-1.91c-4.45-18.41-12.71-26.56-12.79-26.64a2.51,2.51,0,0,1,1.29-4.27,98.57,98.57,0,0,1,27.87,0,2.5,2.5,0,0,1,1.29,4.27c-.08.08-8.34,8.23-12.8,26.64a2.49,2.49,0,0,1-2.43,1.91Z" transform="translate(-14.34 -97)"/><path class="cls-11" d="M291.33,177.88a84.43,84.43,0,0,1,13.5,1s-8.78,8.38-13.5,27.86c-4.71-19.48-13.49-27.86-13.49-27.86a84.21,84.21,0,0,1,13.49-1m0-5a89.35,89.35,0,0,0-14.38,1,5,5,0,0,0-2.56,8.54h0a33.63,33.63,0,0,1,4.41,6,69.36,69.36,0,0,1,7.67,19.4,5,5,0,0,0,9.72,0,69.31,69.31,0,0,1,7.68-19.4,33.32,33.32,0,0,1,4.44-6,5,5,0,0,0-2.6-8.52,89.2,89.2,0,0,0-14.38-1Z" transform="translate(-14.34 -97)"/><path class="cls-8" d="M291.33,291.77c27.63,0,69.22-6.89,69.21-49.3,0-45.22-28.46-66.23-69.21-66.23s-69.19,21-69.2,66.23C222.11,284.88,263.71,291.77,291.33,291.77Z" transform="translate(-14.34 -97)"/><path class="cls-12" d="M283.3,187.67s-4-.72-4.88-6.31,5.1-12.13,13.68-5.65c0,0-.33-4.37,3.21-5.2s6.92,1.6,9,8.58" transform="translate(-14.34 -97)"/><g class="cls-13"><path class="cls-14" d="M270.78,234.09A11.07,11.07,0,1,1,259.71,223,11.07,11.07,0,0,1,270.78,234.09Z" transform="translate(-14.34 -97)"/><path class="cls-14" d="M334,234.09A11.07,11.07,0,1,1,323,223,11.07,11.07,0,0,1,334,234.09Z" transform="translate(-14.34 -97)"/></g><path class="cls-15" d="M282.35,225.93c0,3.23-2.2,5.85-4.92,5.85s-4.92-2.62-4.92-5.85,2.2-5.86,4.92-5.86S282.35,222.69,282.35,225.93Z" transform="translate(-14.34 -97)"/><path class="cls-15" d="M300.31,225.93c0,3.23,2.21,5.85,4.92,5.85s4.93-2.62,4.93-5.85-2.21-5.86-4.93-5.86S300.31,222.69,300.31,225.93Z" transform="translate(-14.34 -97)"/><path class="cls-16" d="M300.11,238s.12,2.37.17,3.4c.08,1.54.43,3.82-4.57,4.07l-1.85.09-1.85.1c-5,.25-4.89-2-5-3.6-.05-1-.17-3.38-.17-3.38" transform="translate(-14.34 -97)"/><path class="cls-8" d="M281.26,237.82s14.36,2.76,22.66-1.25" transform="translate(-14.34 -97)"/><path class="cls-8" d="M304.48,235.26s.37,1.16,1,1.49" transform="translate(-14.34 -97)"/><path class="cls-15" d="M294.16,225.93a2.9,2.9,0,1,1-2.83-2.26A2.59,2.59,0,0,1,294.16,225.93Z" transform="translate(-14.34 -97)"/></svg>