<svg id="레이어_1" data-name="레이어 1" xmlns="http://www.w3.org/2000/svg" viewBox="0 0 275.76 357.82"><defs><style>.cls-1{fill:#cee9ed;}.cls-2{fill:#80cacc;}.cls-3{fill:#e5e5e4;}.cls-4{fill:#8cc6d6;}.cls-5{fill:#3c3d3d;}.cls-6,.cls-9{fill:#f29a48;}.cls-7{fill:#fff;}.cls-15,.cls-8{fill:none;}.cls-11,.cls-15,.cls-16,.cls-8,.cls-9{stroke:#0a0305;}.cls-11,.cls-15,.cls-8,.cls-9{stroke-linecap:round;stroke-linejoin:round;}.cls-11,.cls-8,.cls-9{stroke-width:5px;}.cls-10,.cls-11{fill:#7e4f23;}.cls-12{opacity:0.4;}.cls-13{fill:#ed7616;opacity:0.6;}.cls-14{fill:#0a0305;}.cls-15,.cls-16{stroke-width:3px;}.cls-16{fill:#070203;stroke-miterlimit:10;}.cls-17{fill:#040000;}</style></defs><rect class="cls-1" x="32.23" y="106.31" width="56.43" height="198.11"/><rect class="cls-1" x="41.79" y="77.12" width="37.33" height="29.19"/><rect class="cls-2" x="32.23" y="272.33" width="56.43" height="32.09"/><rect class="cls-1" x="48.01" y="49.77" width="24.88" height="27.35"/><path class="cls-3" d="M133.36,66.51H117.68V41.35a7.84,7.84,0,0,1,7.84-7.84h0a7.84,7.84,0,0,1,7.84,7.84Z" transform="translate(-65.07 -16.74)"/><path class="cls-1" d="M125.52,33.51v0Z" transform="translate(-65.07 -16.74)"/><path class="cls-1" d="M192.54,201.13l-38.8,31.36Z" transform="translate(-65.07 -16.74)"/><rect class="cls-4" x="49.57" y="176.05" width="21.75" height="32.09"/><rect class="cls-4" x="49.57" y="143.96" width="21.75" height="32.09"/><rect class="cls-4" x="49.57" y="208.14" width="21.75" height="32.09"/><rect class="cls-4" x="49.57" y="240.23" width="21.75" height="32.09"/><rect class="cls-4" x="49.57" y="272.33" width="21.75" height="32.09"/><rect class="cls-1" x="231.33" y="123.05" width="56.43" height="198.11" transform="translate(454.03 427.47) rotate(180)"/><rect class="cls-2" x="166.26" y="272.33" width="56.43" height="32.09"/><polygon class="cls-1" points="127.47 304.42 20.47 304.42 20.47 329.11 127.47 329.11 234.46 329.11 234.46 304.42 127.47 304.42"/><polygon class="cls-1" points="127.47 329.11 4.01 329.11 4.01 353.8 127.47 353.8 250.91 353.8 250.91 329.11 127.47 329.11"/><rect class="cls-1" x="240.89" y="93.86" width="37.33" height="29.19" transform="translate(454.03 200.17) rotate(180)"/><rect class="cls-1" x="247.11" y="66.51" width="24.88" height="27.35" transform="translate(454.03 143.63) rotate(180)"/><path class="cls-3" d="M251.71,66.51H267.4V41.35a7.85,7.85,0,0,0-7.85-7.84h0a7.84,7.84,0,0,0-7.84,7.84Z" transform="translate(-65.07 -16.74)"/><path class="cls-1" d="M259.55,33.51v0Z" transform="translate(-65.07 -16.74)"/><polygon class="cls-4" points="127.47 164.09 88.67 164.09 88.67 184.38 127.47 184.38 166.26 184.38 166.26 164.09 127.47 164.09"/><path class="cls-1" d="M192.54,201.13l38.79,31.36Z" transform="translate(-65.07 -16.74)"/><rect class="cls-4" x="248.68" y="192.79" width="21.75" height="32.09" transform="translate(454.03 400.93) rotate(180)"/><rect class="cls-4" x="248.68" y="160.7" width="21.75" height="32.09" transform="translate(454.03 336.75) rotate(180)"/><rect class="cls-4" x="248.68" y="224.88" width="21.75" height="32.09" transform="translate(454.03 465.12) rotate(180)"/><rect class="cls-4" x="248.68" y="256.98" width="21.75" height="32.09" transform="translate(454.03 529.3) rotate(180)"/><rect class="cls-4" x="248.68" y="289.07" width="21.75" height="32.09" transform="translate(454.03 593.49) rotate(180)"/><polygon class="cls-4" points="127.47 304.42 108.06 304.42 108.06 353.8 127.47 353.8 146.86 353.8 146.86 304.42 127.47 304.42"/><rect class="cls-2" x="41.79" y="91.71" width="37.33" height="14.6"/><rect class="cls-2" x="182.04" y="63.44" width="24.88" height="13.68"/><rect class="cls-2" x="175.82" y="91.71" width="37.33" height="14.6"/><rect class="cls-2" x="48.01" y="63.44" width="24.88" height="13.68"/><path class="cls-5" d="M121.51,16.74v13.5a11.86,11.86,0,0,0-7.85,11.12V62.49h-4.6V89.84h-6.22V119H93.29V317.15H81.53v24.69H65.07v32.72H320V341.84H303.54V317.15H291.78V119h-9.55V89.84H276V62.49h-4.6V41.36a11.85,11.85,0,0,0-7.84-11.12V16.74h-8v13.5a11.86,11.86,0,0,0-7.85,11.12V62.49h-4.6V89.84h-6.22V119h-9.55v57.78H157.75V119H148.2V89.84H142V62.49h-4.6V41.36a11.86,11.86,0,0,0-7.84-11.12V16.74ZM89.56,325.18h79.56v16.66H89.56Zm29.1-32.09h13.72v24.06H118.66Zm0-32.1h13.72v24.06H118.66Zm0-32.09h13.72V253H118.66Zm0-32.09h13.72v24.06H118.66Zm13.72-8H118.66V164.71h13.72Zm94.94,35.3-23.43-18.94h23.43Zm-69.57-18.94h23.43l-23.43,18.94Zm0,29.27,34.79-28.12,34.78,28.12v82.74H157.75Zm50.17,107.43H177.15V325.18h30.77ZM73.1,366.53V349.87h96v16.66Zm104.05,0V349.87h30.77v16.66ZM312,349.87v16.66H216V349.87h96Zm-16.46-24.69v16.66H216V325.18h79.56Zm-42.82-32.09h13.72v24.06H252.69Zm0-32.1h13.72v24.06H252.69Zm0-32.09h13.72V253H252.69Zm0-32.09h13.72v24.06H252.69Zm13.72-8H252.69V164.71h13.72ZM255.72,41.36a3.83,3.83,0,1,1,7.66,0V62.49h-7.66Zm-4.6,29.16H268V89.84H251.12ZM244.9,97.88h29.3V119H244.9Zm-9.55,29.19h48.4V317.15h-9.31V156.68H244.66V317.15h-9.31V127.07Zm-8,57.78v12.26H157.75V184.85Zm-77.6-57.78V317.15h-9.31V156.68H110.63V317.15h-9.31V127.07h48.4Zm-38.85-8V97.88h29.3V119Zm6.22-29.2V70.52H134V89.84Zm4.6-27.35V41.36a3.83,3.83,0,0,1,7.66,0V62.49Z" transform="translate(-65.07 -16.74)"/><path class="cls-6" d="M262.65,348.59s.31,5.46,0,11.59S259.89,372,249.14,372s-13.21-5.65-13.51-11.78,0-11.59,0-11.59" transform="translate(-65.07 -16.74)"/><path class="cls-7" d="M236.51,363.42h25.71s1.51,8.84-13.51,8.84S236.51,363.42,236.51,363.42Z" transform="translate(-65.07 -16.74)"/><path class="cls-8" d="M262.65,348.59s.31,5.46,0,11.59S259.89,372,249.14,372s-13.21-5.65-13.51-11.78,0-11.59,0-11.59" transform="translate(-65.07 -16.74)"/><path class="cls-6" d="M302.63,348.59s.3,5.46,0,11.59S299.86,372,289.11,372s-13.21-5.65-13.51-11.78,0-11.59,0-11.59" transform="translate(-65.07 -16.74)"/><path class="cls-7" d="M276.48,363.42h25.71s1.52,8.84-13.5,8.84S276.48,363.42,276.48,363.42Z" transform="translate(-65.07 -16.74)"/><path class="cls-8" d="M302.63,348.59s.3,5.46,0,11.59S299.86,372,289.11,372s-13.21-5.65-13.51-11.78,0-11.59,0-11.59" transform="translate(-65.07 -16.74)"/><path class="cls-9" d="M229.53,300.8s-9.08,10.07-12.93,22.07c-2.69,8.41-4.24,22.93,7.75,24.48,11.13,1.45,12.76-9.44,12.76-9.44" transform="translate(-65.07 -16.74)"/><path class="cls-9" d="M308.73,300.8s9.08,10.07,12.92,22.07c2.7,8.41,4.24,22.93-7.74,24.48-11.13,1.45-12.77-9.44-12.77-9.44" transform="translate(-65.07 -16.74)"/><path class="cls-9" d="M306,307.76s2.23,8.19,2.23,24-13,23.9-39.09,23.9S230,347.49,230,331.72s2.23-24,2.23-24" transform="translate(-65.07 -16.74)"/><path class="cls-7" d="M269.13,339.87c19.4,0,23.31-7,22.83-17.28-.69-14.67-10.42-24.54-22.83-24.54S247,307.92,246.3,322.59C245.82,332.88,249.72,339.87,269.13,339.87Z" transform="translate(-65.07 -16.74)"/><path class="cls-9" d="M254.34,196.63s-2.64-13.45-15.26-10.44c-15.38,3.67-8.62,20.24-8.62,20.24" transform="translate(-65.07 -16.74)"/><path class="cls-9" d="M283.92,196.63s2.64-13.45,15.25-10.44c15.38,3.67,8.63,20.24,8.63,20.24" transform="translate(-65.07 -16.74)"/><path class="cls-6" d="M269.13,312.18c27.62,0,69.22-6.88,69.2-49.3,0-45.21-28.46-66.22-69.2-66.22s-69.2,21-69.21,66.22C199.91,305.3,241.5,312.18,269.13,312.18Z" transform="translate(-65.07 -16.74)"/><path class="cls-10" d="M269.12,229.61a2.49,2.49,0,0,1-2.42-1.91c-4.46-18.42-12.72-26.56-12.8-26.64a2.51,2.51,0,0,1,1.29-4.27,98.64,98.64,0,0,1,27.88,0,2.5,2.5,0,0,1,1.28,4.27c-.08.08-8.34,8.22-12.8,26.64a2.49,2.49,0,0,1-2.43,1.91Z" transform="translate(-65.07 -16.74)"/><path class="cls-10" d="M269.12,198.3a84.65,84.65,0,0,1,13.51.95s-8.79,8.37-13.51,27.86c-4.71-19.49-13.49-27.86-13.49-27.86a84.37,84.37,0,0,1,13.49-.95m0-5a89,89,0,0,0-14.37,1,5,5,0,0,0-2.57,8.54h0a33.15,33.15,0,0,1,4.41,6,68.79,68.79,0,0,1,7.67,19.4,5,5,0,0,0,9.72,0c4.26-17.57,12-25.34,12.09-25.42a5,5,0,0,0-2.56-8.54,89.41,89.41,0,0,0-14.39-1Z" transform="translate(-65.07 -16.74)"/><path class="cls-8" d="M269.12,312.18c27.63,0,69.23-6.88,69.21-49.3,0-45.21-28.46-66.22-69.21-66.22s-69.19,21-69.2,66.22C199.91,305.3,241.5,312.18,269.12,312.18Z" transform="translate(-65.07 -16.74)"/><path class="cls-11" d="M261.09,208.09s-4-.72-4.87-6.31,5.09-12.13,13.67-5.65c0,0-.33-4.37,3.21-5.2s6.93,1.6,9,8.58" transform="translate(-65.07 -16.74)"/><g class="cls-12"><path class="cls-13" d="M248.57,254.51a11.07,11.07,0,1,1-11.07-11.07A11.07,11.07,0,0,1,248.57,254.51Z" transform="translate(-65.07 -16.74)"/><path class="cls-13" d="M311.82,254.51a11.07,11.07,0,1,1-11.07-11.07A11.07,11.07,0,0,1,311.82,254.51Z" transform="translate(-65.07 -16.74)"/></g><path class="cls-14" d="M260.15,246.35c0,3.23-2.21,5.85-4.92,5.85s-4.93-2.62-4.93-5.85,2.21-5.86,4.93-5.86S260.15,243.11,260.15,246.35Z" transform="translate(-65.07 -16.74)"/><path class="cls-14" d="M278.11,246.35c0,3.23,2.2,5.85,4.92,5.85s4.92-2.62,4.92-5.85-2.2-5.86-4.92-5.86S278.11,243.11,278.11,246.35Z" transform="translate(-65.07 -16.74)"/><path class="cls-15" d="M259.06,258.24S273.41,261,281.72,257" transform="translate(-65.07 -16.74)"/><path class="cls-15" d="M282.27,255.68s.37,1.16,1,1.48" transform="translate(-65.07 -16.74)"/><path class="cls-14" d="M272,246.35a2.89,2.89,0,1,1-2.83-2.27A2.59,2.59,0,0,1,272,246.35Z" transform="translate(-65.07 -16.74)"/><path class="cls-16" d="M255.37,256.39a16,16,0,0,1-1.82-.1A15.5,15.5,0,0,1,240,242.7a15.44,15.44,0,0,1,15.34-17.19h28.12a15.44,15.44,0,0,1,15.34,17.19h0a15.44,15.44,0,0,1-27.63,7.6,2.28,2.28,0,0,0-3.54,0A15.32,15.32,0,0,1,255.37,256.39Z" transform="translate(-65.07 -16.74)"/><path class="cls-4" d="M255.39,227.56a13.47,13.47,0,1,0,10.72,21.63,4.2,4.2,0,0,1,6.67,0,13.48,13.48,0,0,0,24.11-6.62h0a13.48,13.48,0,0,0-13.38-15Z" transform="translate(-65.07 -16.74)"/><path class="cls-14" d="M260.12,247.37c0,3.23-2.21,5.85-4.92,5.85s-4.93-2.62-4.93-5.85,2.2-5.86,4.93-5.86S260.12,244.12,260.12,247.37Z" transform="translate(-65.07 -16.74)"/><path class="cls-14" d="M278.07,247.37c0,3.23,2.21,5.85,4.93,5.85s4.92-2.62,4.92-5.85-2.2-5.86-4.92-5.86S278.07,244.12,278.07,247.37Z" transform="translate(-65.07 -16.74)"/><path class="cls-14" d="M271.92,247.37a2.89,2.89,0,1,1-2.83-2.27A2.59,2.59,0,0,1,271.92,247.37Z" transform="translate(-65.07 -16.74)"/><path class="cls-17" d="M246.89,350.66a17,17,0,0,1-21.76-.41,8.87,8.87,0,0,1-6.07-3.31l2.13-1.69a6.11,6.11,0,0,0,4.55,2.31,6.26,6.26,0,0,0,6.29-4.95,6.15,6.15,0,0,0-1.22-5l2.12-1.69a8.78,8.78,0,0,1,1.91,6.09,5,5,0,0,0,4.86-1.18A5.11,5.11,0,0,0,240,334L194.9,277.29a2.94,2.94,0,0,1,.47-4.12l4.93-3.91a2.93,2.93,0,0,1,4.11.47l45.23,56.94A17.1,17.1,0,0,1,246.89,350.66Z" transform="translate(-65.07 -16.74)"/><path class="cls-4" d="M229.61,350.1A14.19,14.19,0,0,0,247.79,329L210.7,282.29l-5.19,4.13,36.93,46.49a7.73,7.73,0,0,1-.5,10.32,7.56,7.56,0,0,1-7.23,1.86A8.89,8.89,0,0,1,229.61,350.1Z" transform="translate(-65.07 -16.74)"/><path class="cls-4" d="M204.06,284.46l5.19-4.13-5.89-7.4a.21.21,0,0,0-.29,0l-4.86,3.86a.21.21,0,0,0,0,.3Z" transform="translate(-65.07 -16.74)"/></svg>