<svg id="레이어_1" data-name="레이어 1" xmlns="http://www.w3.org/2000/svg" viewBox="0 0 299.11 358.63"><defs><style>.cls-1{fill:#cee9ed;}.cls-2{fill:#80cacc;}.cls-3{fill:#e5e5e4;}.cls-4{fill:#8cc6d6;}.cls-5{fill:#3c3d3d;}.cls-6{fill:#6d4b37;}.cls-16,.cls-17,.cls-20,.cls-21,.cls-22,.cls-27,.cls-28,.cls-6,.cls-7,.cls-8{stroke:#0a0305;}.cls-11,.cls-13,.cls-14,.cls-15,.cls-16,.cls-17,.cls-20,.cls-21,.cls-22,.cls-27,.cls-28,.cls-6,.cls-7,.cls-8{stroke-linecap:round;stroke-linejoin:round;}.cls-11,.cls-13,.cls-14,.cls-15,.cls-16,.cls-17,.cls-6,.cls-7,.cls-8{stroke-width:4px;}.cls-7{fill:#533629;}.cls-8{fill:#cbd1cc;}.cls-9{fill:#8c5f48;}.cls-10{fill:#6a4935;}.cls-10,.cls-24{opacity:0.4;}.cls-11{fill:#00ce7c;stroke:#00974e;}.cls-12,.cls-27{fill:#fff;}.cls-13{fill:#b6d241;stroke:#91bd28;}.cls-14{fill:#3f95c6;stroke:#327eac;}.cls-15{fill:#e95d61;stroke:#e13339;}.cls-16,.cls-20{fill:none;}.cls-17,.cls-19,.cls-21{fill:#f29a48;}.cls-18{fill:#4e3425;}.cls-20,.cls-21,.cls-22,.cls-27,.cls-28{stroke-width:5px;}.cls-22{fill:#e13339;}.cls-23,.cls-28{fill:#7e4f23;}.cls-25{fill:#ed7616;opacity:0.6;}.cls-26{fill:#0a0305;}</style></defs><rect class="cls-1" x="32.23" y="106.31" width="56.43" height="198.11"/><rect class="cls-1" x="41.79" y="77.12" width="37.33" height="29.19"/><rect class="cls-2" x="32.23" y="272.33" width="56.43" height="32.09"/><rect class="cls-1" x="48.01" y="49.77" width="24.88" height="27.35"/><path class="cls-3" d="M133.36,66.51H117.68V41.35a7.84,7.84,0,0,1,7.84-7.84h0a7.84,7.84,0,0,1,7.84,7.84Z" transform="translate(-65.07 -16.74)"/><path class="cls-1" d="M125.52,33.51v0Z" transform="translate(-65.07 -16.74)"/><path class="cls-1" d="M192.54,201.13l-38.8,31.36Z" transform="translate(-65.07 -16.74)"/><rect class="cls-4" x="49.57" y="176.05" width="21.75" height="32.09"/><rect class="cls-4" x="49.57" y="143.96" width="21.75" height="32.09"/><rect class="cls-4" x="49.57" y="208.14" width="21.75" height="32.09"/><rect class="cls-4" x="49.57" y="240.23" width="21.75" height="32.09"/><rect class="cls-4" x="49.57" y="272.33" width="21.75" height="32.09"/><rect class="cls-1" x="231.33" y="123.05" width="56.43" height="198.11" transform="translate(454.03 427.47) rotate(180)"/><rect class="cls-2" x="166.26" y="272.33" width="56.43" height="32.09"/><polygon class="cls-1" points="127.47 304.42 20.47 304.42 20.47 329.11 127.47 329.11 234.46 329.11 234.46 304.42 127.47 304.42"/><polygon class="cls-1" points="127.47 329.11 4.01 329.11 4.01 353.8 127.47 353.8 250.91 353.8 250.91 329.11 127.47 329.11"/><rect class="cls-1" x="240.89" y="93.86" width="37.33" height="29.19" transform="translate(454.03 200.17) rotate(180)"/><rect class="cls-1" x="247.11" y="66.51" width="24.88" height="27.35" transform="translate(454.03 143.63) rotate(180)"/><path class="cls-3" d="M251.71,66.51H267.4V41.35a7.85,7.85,0,0,0-7.85-7.84h0a7.84,7.84,0,0,0-7.84,7.84Z" transform="translate(-65.07 -16.74)"/><path class="cls-1" d="M259.55,33.51v0Z" transform="translate(-65.07 -16.74)"/><polygon class="cls-4" points="127.47 164.09 88.67 164.09 88.67 184.38 127.47 184.38 166.26 184.38 166.26 164.09 127.47 164.09"/><path class="cls-1" d="M192.54,201.13l38.79,31.36Z" transform="translate(-65.07 -16.74)"/><rect class="cls-4" x="248.68" y="192.79" width="21.75" height="32.09" transform="translate(454.03 400.93) rotate(180)"/><rect class="cls-4" x="248.68" y="160.7" width="21.75" height="32.09" transform="translate(454.03 336.75) rotate(180)"/><rect class="cls-4" x="248.68" y="224.88" width="21.75" height="32.09" transform="translate(454.03 465.12) rotate(180)"/><rect class="cls-4" x="248.68" y="256.98" width="21.75" height="32.09" transform="translate(454.03 529.3) rotate(180)"/><rect class="cls-4" x="248.68" y="289.07" width="21.75" height="32.09" transform="translate(454.03 593.49) rotate(180)"/><polygon class="cls-4" points="127.47 304.42 108.06 304.42 108.06 353.8 127.47 353.8 146.86 353.8 146.86 304.42 127.47 304.42"/><rect class="cls-2" x="41.79" y="91.71" width="37.33" height="14.6"/><rect class="cls-2" x="182.04" y="63.44" width="24.88" height="13.68"/><rect class="cls-2" x="175.82" y="91.71" width="37.33" height="14.6"/><rect class="cls-2" x="48.01" y="63.44" width="24.88" height="13.68"/><path class="cls-5" d="M121.51,16.74v13.5a11.86,11.86,0,0,0-7.85,11.12V62.49h-4.6V89.84h-6.22V119H93.29V317.15H81.53v24.69H65.07v32.72H320V341.84H303.54V317.15H291.78V119h-9.55V89.84H276V62.49h-4.6V41.36a11.85,11.85,0,0,0-7.84-11.12V16.74h-8v13.5a11.86,11.86,0,0,0-7.85,11.12V62.49h-4.6V89.84h-6.22V119h-9.55v57.78H157.75V119H148.2V89.84H142V62.49h-4.6V41.36a11.86,11.86,0,0,0-7.84-11.12V16.74ZM89.56,325.18h79.56v16.66H89.56Zm29.1-32.09h13.72v24.06H118.66Zm0-32.1h13.72v24.06H118.66Zm0-32.09h13.72V253H118.66Zm0-32.09h13.72v24.06H118.66Zm13.72-8H118.66V164.71h13.72Zm94.94,35.3-23.43-18.94h23.43Zm-69.57-18.94h23.43l-23.43,18.94Zm0,29.27,34.79-28.12,34.78,28.12v82.74H157.75Zm50.17,107.43H177.15V325.18h30.77ZM73.1,366.53V349.87h96v16.66Zm104.05,0V349.87h30.77v16.66ZM312,349.87v16.66H216V349.87h96Zm-16.46-24.69v16.66H216V325.18h79.56Zm-42.82-32.09h13.72v24.06H252.69Zm0-32.1h13.72v24.06H252.69Zm0-32.09h13.72V253H252.69Zm0-32.09h13.72v24.06H252.69Zm13.72-8H252.69V164.71h13.72ZM255.72,41.36a3.83,3.83,0,1,1,7.66,0V62.49h-7.66Zm-4.6,29.16H268V89.84H251.12ZM244.9,97.88h29.3V119H244.9Zm-9.55,29.19h48.4V317.15h-9.31V156.68H244.66V317.15h-9.31V127.07Zm-8,57.78v12.26H157.75V184.85Zm-77.6-57.78V317.15h-9.31V156.68H110.63V317.15h-9.31V127.07h48.4Zm-38.85-8V97.88h29.3V119Zm6.22-29.2V70.52H134V89.84Zm4.6-27.35V41.36a3.83,3.83,0,0,1,7.66,0V62.49Z" transform="translate(-65.07 -16.74)"/><rect class="cls-6" x="118.49" y="269.42" width="4.23" height="22.28"/><rect class="cls-6" x="155.16" y="269.42" width="4.23" height="22.28"/><path class="cls-7" d="M118.48,261.33h40.93a3.68,3.68,0,0,1,3.68,3.68v.75a3.67,3.67,0,0,1-3.67,3.67H118.48a3.67,3.67,0,0,1-3.67-3.67V265A3.67,3.67,0,0,1,118.48,261.33Z"/><rect class="cls-8" x="108.7" y="352.48" width="16.33" height="3.66"/><rect class="cls-8" x="152.85" y="352.48" width="16.33" height="3.66"/><path class="cls-9" d="M100.69,277h76.5a13.22,13.22,0,0,1,13.22,13.22v50.51A13.21,13.21,0,0,1,177.19,354h-76.5a13.22,13.22,0,0,1-13.22-13.22V290.26A13.21,13.21,0,0,1,100.69,277Z"/><path class="cls-10" d="M240.71,358.52v10.55a11.25,11.25,0,0,0,.11,1.65h1.44a13.21,13.21,0,0,0,13.22-13.21V347.35a11.31,11.31,0,0,0-3.15-.45A11.62,11.62,0,0,0,240.71,358.52Z" transform="translate(-65.07 -16.74)"/><path class="cls-10" d="M240.71,306V295.44a11.25,11.25,0,0,1,.11-1.65h1.44A13.22,13.22,0,0,1,255.48,307v10.16A11.6,11.6,0,0,1,240.71,306Z" transform="translate(-65.07 -16.74)"/><path class="cls-10" d="M167.94,358.52v10.55a11.24,11.24,0,0,1-.12,1.65h-1.44a13.21,13.21,0,0,1-13.22-13.21V347.35a11.37,11.37,0,0,1,3.15-.45A11.63,11.63,0,0,1,167.94,358.52Z" transform="translate(-65.07 -16.74)"/><path class="cls-10" d="M167.94,306V295.44a11.24,11.24,0,0,0-.12-1.65h-1.44A13.22,13.22,0,0,0,153.16,307v10.16a11.75,11.75,0,0,0,3.15.44A11.63,11.63,0,0,0,167.94,306Z" transform="translate(-65.07 -16.74)"/><polygon class="cls-11" points="111.3 334.66 87.48 340.18 87.48 328.65 111.3 323.12 111.3 334.66"/><path class="cls-12" d="M157.79,350.9a.51.51,0,0,0-.21-.29.47.47,0,0,0-.35-.06h0a.47.47,0,0,1,.35.06.51.51,0,0,1,.21.29,1.34,1.34,0,0,0-.86-1,3.8,3.8,0,0,0-1.35-.19h0c-.94,0-1-.33-1-.57s.17-.48.77-.57l.07,0h0a2.67,2.67,0,0,1,1,.11.47.47,0,0,0,.24-.9,3.23,3.23,0,0,0-1.36-.13h0l-.22,0a1.5,1.5,0,0,0-1.36,1.85,1.29,1.29,0,0,0,.87,1,3.14,3.14,0,0,0,1.06.15h0c1.19,0,1.26.31,1.28.42h0a.47.47,0,0,1-.07.4,1,1,0,0,1-.65.37h-.06a2.44,2.44,0,0,1-1.38-.16.47.47,0,1,0-.34.87,3.33,3.33,0,0,0,1.9.21h.08a2,2,0,0,0,1.24-.77,1.46,1.46,0,0,0,.2-1.12Zm-2.57-3.23Zm0,0Z" transform="translate(-65.07 -16.74)"/><path class="cls-12" d="M160,346.57h0a2.65,2.65,0,1,0,3.16,2A2.65,2.65,0,0,0,160,346.57Zm.94,4.26a1.72,1.72,0,0,1-2-1.31h0a1.71,1.71,0,0,1,1.3-2h0a1.72,1.72,0,0,1,.74,3.35Z" transform="translate(-65.07 -16.74)"/><path class="cls-12" d="M165.52,345.49h0l-1.79.39a.46.46,0,0,0-.35.56l.86,4a.48.48,0,0,0,.56.36l1.8-.4h0a2.51,2.51,0,0,0-1.06-4.89Zm.84,4h0l-1.33.29-.67-3.06,1.32-.29a1.45,1.45,0,0,1,1.73,1.23h0A1.45,1.45,0,0,1,166.36,349.47Z" transform="translate(-65.07 -16.74)"/><path class="cls-12" d="M173.67,348.13l-2.88-3.53,0,0-.08-.09,0,0-.14-.07h-.23l-.13.05h0a.48.48,0,0,0-.11.09l0,0a.59.59,0,0,0-.06.14v0l-1.15,4.41a.48.48,0,0,0,.56.58.5.5,0,0,0,.35-.34l.18-.7,2.58-.57h0l.46.56a.47.47,0,0,0,.66.07A.46.46,0,0,0,173.67,348.13Zm-2.78-3.23a.45.45,0,0,1,0,.11A.45.45,0,0,0,170.89,344.9Zm0-.09h0v0Zm0-.13s0,0,0,.05S170.85,344.69,170.83,344.68Zm1,2.67-1.66.36.47-1.81,1.19,1.45Z" transform="translate(-65.07 -16.74)"/><path class="cls-13" d="M243.79,317l-8.28-6.83a1.81,1.81,0,0,0-2.93,1.1L230.79,322a1.81,1.81,0,0,0,.64,1.69,1.78,1.78,0,0,0,1.77.3l10.16-3.79h0a1.79,1.79,0,0,0,1.06-2.32A1.88,1.88,0,0,0,243.79,317Z" transform="translate(-65.07 -16.74)"/><path class="cls-14" d="M230.56,356.18c-1.16,3.19-7.48,3.82-14.11,1.41s-11-7-9.89-10.16S214,343.6,220.67,346,231.73,353,230.56,356.18Z" transform="translate(-65.07 -16.74)"/><path class="cls-15" d="M196,299.52a3.68,3.68,0,0,1-2.32,4.65l-11.32,3.76a3.67,3.67,0,0,1-4.65-2.32l-.82-2.48a3.67,3.67,0,0,1,2.33-4.65l11.31-3.76a3.68,3.68,0,0,1,4.65,2.32Z" transform="translate(-65.07 -16.74)"/><path class="cls-16" d="M100.69,277h76.5a13.22,13.22,0,0,1,13.22,13.22v50.51A13.21,13.21,0,0,1,177.19,354h-76.5a13.22,13.22,0,0,1-13.22-13.22V290.26A13.21,13.21,0,0,1,100.69,277Z"/><rect class="cls-6" x="108.62" y="277.77" width="7.19" height="76.21"/><path class="cls-6" d="M180.88,321.27s.39,4.54-3.6,4.54-3.59-4.54-3.59-4.54" transform="translate(-65.07 -16.74)"/><path class="cls-17" d="M182.55,312.83a2.28,2.28,0,0,1-2.28,2.29h-6a2.29,2.29,0,0,1-2.29-2.29h0a2.3,2.3,0,0,1,2.29-2.29h6a2.29,2.29,0,0,1,2.28,2.29Z" transform="translate(-65.07 -16.74)"/><path class="cls-18" d="M177.88,337.29a.6.6,0,1,1-.6-.6A.6.6,0,0,1,177.88,337.29Z" transform="translate(-65.07 -16.74)"/><path class="cls-18" d="M177.88,303a.6.6,0,0,1-1.19,0,.6.6,0,1,1,1.19,0Z" transform="translate(-65.07 -16.74)"/><path class="cls-18" d="M177.88,347.63a.6.6,0,1,1-1.19,0,.6.6,0,0,1,1.19,0Z" transform="translate(-65.07 -16.74)"/><path class="cls-18" d="M177.88,358a.6.6,0,1,1-1.19,0,.6.6,0,0,1,1.19,0Z" transform="translate(-65.07 -16.74)"/><rect class="cls-6" x="162.07" y="277.77" width="7.19" height="76.21"/><path class="cls-6" d="M234.34,321.27s.38,4.54-3.6,4.54-3.6-4.54-3.6-4.54" transform="translate(-65.07 -16.74)"/><path class="cls-17" d="M236,312.83a2.28,2.28,0,0,1-2.29,2.29h-6a2.29,2.29,0,0,1-2.29-2.29h0a2.3,2.3,0,0,1,2.29-2.29h6a2.29,2.29,0,0,1,2.29,2.29Z" transform="translate(-65.07 -16.74)"/><path class="cls-18" d="M231.34,337.29a.6.6,0,1,1-.6-.6A.6.6,0,0,1,231.34,337.29Z" transform="translate(-65.07 -16.74)"/><path class="cls-18" d="M231.34,303a.6.6,0,0,1-1.2,0,.6.6,0,1,1,1.2,0Z" transform="translate(-65.07 -16.74)"/><path class="cls-18" d="M231.34,347.63a.6.6,0,1,1-1.2,0,.6.6,0,0,1,1.2,0Z" transform="translate(-65.07 -16.74)"/><path class="cls-18" d="M231.34,358a.6.6,0,0,1-1.2,0,.6.6,0,0,1,1.2,0Z" transform="translate(-65.07 -16.74)"/><path class="cls-19" d="M282.91,348.24s.31,5.69,0,12.07-2.87,12.25-14.07,12.25-13.75-5.88-14.06-12.25,0-12.07,0-12.07" transform="translate(-65.07 -16.74)"/><path class="cls-12" d="M255.7,363.68h26.76s1.57,9.2-14.06,9.2S255.7,363.68,255.7,363.68Z" transform="translate(-65.07 -16.74)"/><path class="cls-20" d="M282.91,348.24s.31,5.69,0,12.07-2.87,12.25-14.07,12.25-13.75-5.88-14.06-12.25,0-12.07,0-12.07" transform="translate(-65.07 -16.74)"/><path class="cls-19" d="M325.64,345.56s1.5,5.5,2.53,11.8S327.93,370,317,372.3s-14.68-2.87-16.32-9-2.53-11.8-2.53-11.8" transform="translate(-65.07 -16.74)"/><path class="cls-12" d="M302.26,366.36l26.18-5.6s3.46,8.67-11.82,11.94S302.26,366.36,302.26,366.36Z" transform="translate(-65.07 -16.74)"/><path class="cls-20" d="M325.64,345.56s1.5,5.5,2.53,11.8S327.93,370,317,372.3s-14.68-2.87-16.32-9-2.53-11.8-2.53-11.8" transform="translate(-65.07 -16.74)"/><path class="cls-21" d="M253.76,311.79s-12.82,2.41-25.32-1.54c-8.76-2.78-21.84-10.38-17.32-22.08,4.21-10.9,15.7-5.16,15.7-5.16" transform="translate(-65.07 -16.74)"/><path class="cls-21" d="M330.87,298.51s9.45,10.48,13.45,23c2.81,8.76,4.41,23.87-8.06,25.49-11.58,1.51-13.29-9.83-13.29-9.83" transform="translate(-65.07 -16.74)"/><path class="cls-21" d="M328,305.75s2.32,8.52,2.32,24.94-13.56,24.87-40.69,24.87S249,347.1,249,330.69s2.32-24.94,2.32-24.94" transform="translate(-65.07 -16.74)"/><path class="cls-12" d="M289.65,339.17c20.2,0,24.27-7.28,23.76-18-.71-15.27-10.85-25.54-23.76-25.54s-23,10.27-23.77,25.54C265.39,331.89,269.45,339.17,289.65,339.17Z" transform="translate(-65.07 -16.74)"/><path class="cls-22" d="M289.64,177.19a9.25,9.25,0,0,1,3.71-7" transform="translate(-65.07 -16.74)"/><path class="cls-22" d="M289.64,195.9c6.56,0,24.82,5.44,25.25-4.8s-14.77-15-25.25-15-25.67,4.8-25.24,15S283.1,195.9,289.64,195.9Z" transform="translate(-65.07 -16.74)"/><path class="cls-21" d="M274.25,190.07s-2.74-14-15.88-10.87c-16,3.82-9,21.06-9,21.06" transform="translate(-65.07 -16.74)"/><path class="cls-21" d="M305,190.07s2.75-14,15.88-10.87c16,3.82,9,21.06,9,21.06" transform="translate(-65.07 -16.74)"/><path class="cls-19" d="M289.51,310.35c28.76,0,72.05-7.17,72-51.32,0-47.06-29.63-68.94-72-68.94s-72,21.88-72,68.94C217.47,303.18,260.76,310.35,289.51,310.35Z" transform="translate(-65.07 -16.74)"/><path class="cls-23" d="M289.64,223.79a2,2,0,0,1-1.94-1.53c-4.68-19.37-13.4-27.94-13.49-28a2,2,0,0,1-.52-2,2,2,0,0,1,1.55-1.39,102.23,102.23,0,0,1,28.81,0,2,2,0,0,1,1,3.41c-.08.08-8.8,8.65-13.49,28a2,2,0,0,1-1.95,1.53Z" transform="translate(-65.07 -16.74)"/><path class="cls-23" d="M289.64,191.81a87.88,87.88,0,0,1,14.06,1s-9.14,8.71-14.06,29c-4.9-20.28-14-29-14-29a87.76,87.76,0,0,1,14-1m0-4a91.92,91.92,0,0,0-14.75,1.05,4,4,0,0,0-2.05,6.83c.07.07,8.4,8.35,12.92,27a4,4,0,0,0,3.88,3.06h0a4,4,0,0,0,3.89-3c4.58-18.93,12.85-27,12.93-27.05a4,4,0,0,0-2-6.83,92.19,92.19,0,0,0-14.77-1.05Z" transform="translate(-65.07 -16.74)"/><g class="cls-24"><path class="cls-25" d="M263.6,254.62a11.52,11.52,0,1,1-11.52-11.51A11.53,11.53,0,0,1,263.6,254.62Z" transform="translate(-65.07 -16.74)"/><path class="cls-25" d="M329.44,254.62a11.52,11.52,0,1,1-11.52-11.51A11.53,11.53,0,0,1,329.44,254.62Z" transform="translate(-65.07 -16.74)"/></g><path class="cls-26" d="M275.65,246.13c0,3.37-2.29,6.09-5.12,6.09s-5.13-2.72-5.13-6.09,2.3-6.1,5.13-6.1S275.65,242.76,275.65,246.13Z" transform="translate(-65.07 -16.74)"/><path class="cls-27" d="M294.14,258.67s.12,2.46.17,3.53c.08,1.61.46,4-4.75,4.24l-1.93.1-1.93.1c-5.21.26-5.08-2.14-5.17-3.75,0-1.07-.17-3.52-.17-3.52" transform="translate(-65.07 -16.74)"/><path class="cls-20" d="M274.52,258.51s14.94,2.87,23.58-1.31" transform="translate(-65.07 -16.74)"/><path class="cls-20" d="M298.68,255.85s.39,1.2,1,1.54" transform="translate(-65.07 -16.74)"/><path class="cls-26" d="M287.94,246.13a3,3,0,1,1-2.94-2.36A2.7,2.7,0,0,1,287.94,246.13Z" transform="translate(-65.07 -16.74)"/><path class="cls-20" d="M294.92,246.81a17,17,0,0,1,9.47-2.39" transform="translate(-65.07 -16.74)"/><path class="cls-20" d="M289.64,310.35c28.76,0,72.06-7.17,72-51.32,0-47.06-29.62-68.94-72-68.94s-72,21.88-72,68.94C217.6,303.18,260.89,310.35,289.64,310.35Z" transform="translate(-65.07 -16.74)"/><path class="cls-28" d="M280.76,202s-4.15-.75-5.07-6.57,5.3-12.63,14.23-5.88c0,0-.34-4.55,3.35-5.42s7.2,1.67,9.39,8.93" transform="translate(-65.07 -16.74)"/></svg>