<svg id="레이어_1" data-name="레이어 1" xmlns="http://www.w3.org/2000/svg" viewBox="0 0 267.54 357.82"><defs><style>.cls-1{fill:#cee9ed;}.cls-2{fill:#80cacc;}.cls-3{fill:#e5e5e4;}.cls-4{fill:#8cc6d6;}.cls-5{fill:#3c3d3d;}.cls-10,.cls-6,.cls-9{fill:#f29a48;}.cls-16,.cls-7{fill:#fff;}.cls-17,.cls-8{fill:none;}.cls-10,.cls-12,.cls-16,.cls-17,.cls-8,.cls-9{stroke:#0a0305;stroke-linecap:round;stroke-linejoin:round;}.cls-12,.cls-22,.cls-25,.cls-8,.cls-9{stroke-width:5px;}.cls-10,.cls-16,.cls-17{stroke-width:6px;}.cls-11,.cls-12{fill:#7e4f23;}.cls-13{opacity:0.4;}.cls-14{fill:#ed7616;opacity:0.6;}.cls-15{fill:#0a0305;}.cls-18{fill:#e52a89;}.cls-18,.cls-22,.cls-24,.cls-25{stroke:#040000;}.cls-18,.cls-19,.cls-22,.cls-24,.cls-25{stroke-miterlimit:10;}.cls-18,.cls-19{stroke-width:3px;}.cls-19{fill:#e45c9c;stroke:#050000;}.cls-20{fill:#f4b666;}.cls-21{fill:#f5d582;}.cls-22{fill:#e1e0df;}.cls-23{fill:#c4c4c4;}.cls-24,.cls-25{fill:#2f95b3;}.cls-24{stroke-width:2px;}</style></defs><rect class="cls-1" x="32.23" y="106.31" width="56.43" height="198.11"/><rect class="cls-1" x="41.79" y="77.12" width="37.33" height="29.19"/><rect class="cls-2" x="32.23" y="272.33" width="56.43" height="32.09"/><rect class="cls-1" x="48.01" y="49.77" width="24.88" height="27.35"/><path class="cls-3" d="M140.83,68.51H125.14V43.35A7.84,7.84,0,0,1,133,35.51h0a7.84,7.84,0,0,1,7.85,7.84Z" transform="translate(-72.54 -18.74)"/><path class="cls-1" d="M133,35.51v0Z" transform="translate(-72.54 -18.74)"/><path class="cls-1" d="M200,203.13l-38.8,31.36Z" transform="translate(-72.54 -18.74)"/><rect class="cls-4" x="49.57" y="176.05" width="21.75" height="32.09"/><rect class="cls-4" x="49.57" y="143.96" width="21.75" height="32.09"/><rect class="cls-4" x="49.57" y="208.14" width="21.75" height="32.09"/><rect class="cls-4" x="49.57" y="240.23" width="21.75" height="32.09"/><rect class="cls-4" x="49.57" y="272.33" width="21.75" height="32.09"/><rect class="cls-1" x="238.8" y="125.05" width="56.43" height="198.11" transform="translate(461.5 429.47) rotate(180)"/><rect class="cls-2" x="166.26" y="272.33" width="56.43" height="32.09"/><polygon class="cls-1" points="127.47 304.42 20.47 304.42 20.47 329.11 127.47 329.11 234.46 329.11 234.46 304.42 127.47 304.42"/><polygon class="cls-1" points="127.47 329.11 4.01 329.11 4.01 353.8 127.47 353.8 250.91 353.8 250.91 329.11 127.47 329.11"/><rect class="cls-1" x="248.35" y="95.86" width="37.33" height="29.19" transform="translate(461.5 202.17) rotate(180)"/><rect class="cls-1" x="254.57" y="68.51" width="24.88" height="27.35" transform="translate(461.5 145.63) rotate(180)"/><path class="cls-3" d="M259.17,68.51h15.69V43.35A7.84,7.84,0,0,0,267,35.51h0a7.84,7.84,0,0,0-7.85,7.84Z" transform="translate(-72.54 -18.74)"/><path class="cls-1" d="M267,35.51v0Z" transform="translate(-72.54 -18.74)"/><polygon class="cls-4" points="127.47 164.09 88.67 164.09 88.67 184.38 127.47 184.38 166.26 184.38 166.26 164.09 127.47 164.09"/><path class="cls-1" d="M200,203.13l38.8,31.36Z" transform="translate(-72.54 -18.74)"/><rect class="cls-4" x="256.14" y="194.79" width="21.75" height="32.09" transform="translate(461.5 402.93) rotate(180)"/><rect class="cls-4" x="256.14" y="162.7" width="21.75" height="32.09" transform="translate(461.5 338.75) rotate(180)"/><rect class="cls-4" x="256.14" y="226.88" width="21.75" height="32.09" transform="translate(461.5 467.12) rotate(180)"/><rect class="cls-4" x="256.14" y="258.98" width="21.75" height="32.09" transform="translate(461.5 531.3) rotate(180)"/><rect class="cls-4" x="256.14" y="291.07" width="21.75" height="32.09" transform="translate(461.5 595.49) rotate(180)"/><polygon class="cls-4" points="127.47 304.42 108.06 304.42 108.06 353.8 127.47 353.8 146.86 353.8 146.86 304.42 127.47 304.42"/><rect class="cls-2" x="41.79" y="91.71" width="37.33" height="14.6"/><rect class="cls-2" x="182.04" y="63.44" width="24.88" height="13.68"/><rect class="cls-2" x="175.82" y="91.71" width="37.33" height="14.6"/><rect class="cls-2" x="48.01" y="63.44" width="24.88" height="13.68"/><path class="cls-5" d="M129,18.74v13.5a11.86,11.86,0,0,0-7.85,11.12V64.49h-4.59V91.84H110.3V121h-9.55V319.15H89v24.69H72.54v32.72H327.46V343.84H311V319.15H299.25V121H289.7V91.84h-6.23V64.49h-4.59V43.36A11.86,11.86,0,0,0,271,32.24V18.74h-8v13.5a11.85,11.85,0,0,0-7.84,11.12V64.49h-4.6V91.84h-6.22V121h-9.56v57.78H165.22V121h-9.56V91.84h-6.22V64.49h-4.6V43.36A11.85,11.85,0,0,0,137,32.24V18.74ZM97,327.18h79.55v16.66H97Zm29.09-32.09h13.72v24.06H126.12Zm0-32.1h13.72v24.06H126.12Zm0-32.09h13.72V255H126.12Zm0-32.09h13.72v24.06H126.12Zm13.72-8H126.12V166.71h13.72Zm94.94,35.3-23.42-18.94h23.42Zm-69.56-18.94h23.43l-23.43,18.94Zm0,29.27L200,208.29l34.78,28.12v82.74H165.22Zm50.17,107.43H184.61V327.18h30.78ZM80.57,368.53V351.87h96v16.66Zm104,0V351.87h30.78v16.66Zm134.82-16.66v16.66h-96V351.87h96ZM303,327.18v16.66H223.42V327.18H303Zm-42.81-32.09h13.72v24.06H260.16Zm0-32.1h13.72v24.06H260.16Zm0-32.09h13.72V255H260.16Zm0-32.09h13.72v24.06H260.16Zm13.72-8H260.16V166.71h13.72ZM263.19,43.36a3.83,3.83,0,1,1,7.65,0V64.49h-7.65Zm-4.6,29.16h16.85V91.84H258.59Zm-6.22,27.36h29.29V121H252.37Zm-9.55,29.19h48.4V319.15h-9.31V158.68H252.13V319.15h-9.31V129.07Zm-8,57.78v12.26H165.22V186.85Zm-77.6-57.78V319.15h-9.31V158.68H118.09V319.15h-9.31V129.07h48.4Zm-38.84-8V99.88h29.29V121Zm6.22-29.2V72.52h16.85V91.84Zm4.6-27.35V43.36a3.83,3.83,0,1,1,7.65,0V64.49Z" transform="translate(-72.54 -18.74)"/><path class="cls-6" d="M261.89,343.39s.31,5.46,0,11.59-2.75,11.78-13.51,11.78-13.21-5.65-13.51-11.78,0-11.59,0-11.59" transform="translate(-72.54 -18.74)"/><path class="cls-7" d="M235.75,358.22h25.71s1.51,8.84-13.51,8.84S235.75,358.22,235.75,358.22Z" transform="translate(-72.54 -18.74)"/><path class="cls-8" d="M261.89,343.39s.31,5.46,0,11.59-2.75,11.78-13.51,11.78-13.21-5.65-13.51-11.78,0-11.59,0-11.59" transform="translate(-72.54 -18.74)"/><path class="cls-6" d="M301.87,343.39s.3,5.46,0,11.59-2.77,11.78-13.51,11.78-13.22-5.65-13.52-11.78,0-11.59,0-11.59" transform="translate(-72.54 -18.74)"/><path class="cls-7" d="M275.72,358.22h25.72s1.51,8.84-13.51,8.84S275.72,358.22,275.72,358.22Z" transform="translate(-72.54 -18.74)"/><path class="cls-8" d="M301.87,343.39s.3,5.46,0,11.59-2.77,11.78-13.51,11.78-13.22-5.65-13.52-11.78,0-11.59,0-11.59" transform="translate(-72.54 -18.74)"/><path class="cls-9" d="M228.77,295.61s-9.08,10.07-12.93,22.06c-2.69,8.41-4.24,22.93,7.75,24.49,11.13,1.45,12.77-9.45,12.77-9.45" transform="translate(-72.54 -18.74)"/><path class="cls-10" d="M308,295.61s9.08,10.07,12.92,22.06c2.7,8.41,4.24,22.93-7.74,24.49-11.13,1.45-12.77-9.45-12.77-9.45" transform="translate(-72.54 -18.74)"/><path class="cls-10" d="M305.23,302.57s2.23,8.19,2.23,24-13,23.9-39.09,23.9-39.09-8.13-39.09-23.9,2.23-24,2.23-24" transform="translate(-72.54 -18.74)"/><path class="cls-7" d="M268.37,334.68c19.4,0,23.31-7,22.83-17.28-.68-14.67-10.42-24.55-22.83-24.55s-22.15,9.88-22.83,24.55C245.06,327.68,249,334.68,268.37,334.68Z" transform="translate(-72.54 -18.74)"/><path class="cls-9" d="M253.58,191.43S250.94,178,238.32,181c-15.38,3.67-8.62,20.24-8.62,20.24" transform="translate(-72.54 -18.74)"/><path class="cls-9" d="M283.16,191.43S285.8,178,298.41,181c15.39,3.67,8.63,20.24,8.63,20.24" transform="translate(-72.54 -18.74)"/><path class="cls-6" d="M268.37,307c27.62,0,69.22-6.89,69.2-49.3,0-45.22-28.46-66.23-69.2-66.23s-69.19,21-69.21,66.23C199.15,300.1,240.74,307,268.37,307Z" transform="translate(-72.54 -18.74)"/><path class="cls-11" d="M268.37,224.42a2.5,2.5,0,0,1-2.43-1.92c-4.46-18.41-12.72-26.56-12.8-26.64a2.5,2.5,0,0,1-.66-2.53,2.47,2.47,0,0,1,2-1.73,84,84,0,0,1,13.94-1,86.46,86.46,0,0,1,13.94,1,2.51,2.51,0,0,1,1.28,4.28c-.08.07-8.34,8.22-12.8,26.63a2.49,2.49,0,0,1-2.42,1.92Z" transform="translate(-72.54 -18.74)"/><path class="cls-11" d="M268.37,193.1a83.73,83.73,0,0,1,13.5,1s-8.79,8.37-13.5,27.86c-4.71-19.49-13.5-27.86-13.5-27.86a83.57,83.57,0,0,1,13.5-1m0-5a89.05,89.05,0,0,0-14.38,1,5,5,0,0,0-2.57,8.55h0a33.25,33.25,0,0,1,4.41,6,69.31,69.31,0,0,1,7.68,19.4,5,5,0,0,0,9.72,0,69.36,69.36,0,0,1,7.67-19.4,33.32,33.32,0,0,1,4.44-6,5,5,0,0,0-2.59-8.52,89.35,89.35,0,0,0-14.38-1Z" transform="translate(-72.54 -18.74)"/><path class="cls-8" d="M268.37,307c27.62,0,69.22-6.89,69.2-49.3,0-45.22-28.46-66.23-69.2-66.23s-69.19,21-69.21,66.23C199.15,300.1,240.74,307,268.37,307Z" transform="translate(-72.54 -18.74)"/><path class="cls-12" d="M260.33,202.89s-4-.71-4.87-6.31,5.09-12.12,13.67-5.64c0,0-.33-4.38,3.21-5.21s6.93,1.61,9,8.58" transform="translate(-72.54 -18.74)"/><g class="cls-13"><path class="cls-14" d="M247.81,249.31a11.07,11.07,0,1,1-11.07-11.07A11.07,11.07,0,0,1,247.81,249.31Z" transform="translate(-72.54 -18.74)"/><path class="cls-14" d="M311.06,249.31A11.07,11.07,0,1,1,300,238.24,11.06,11.06,0,0,1,311.06,249.31Z" transform="translate(-72.54 -18.74)"/></g><path class="cls-15" d="M259.39,241.15c0,3.23-2.21,5.85-4.92,5.85s-4.93-2.62-4.93-5.85,2.21-5.86,4.93-5.86S259.39,237.91,259.39,241.15Z" transform="translate(-72.54 -18.74)"/><path class="cls-15" d="M277.35,241.15c0,3.23,2.2,5.85,4.92,5.85s4.92-2.62,4.92-5.85-2.2-5.86-4.92-5.86S277.35,237.91,277.35,241.15Z" transform="translate(-72.54 -18.74)"/><path class="cls-16" d="M277.15,253.2s.12,2.36.16,3.39c.09,1.54.44,3.82-4.57,4.08l-1.85.09-1.85.09c-5,.25-4.89-2.05-5-3.59-.06-1-.18-3.39-.18-3.39" transform="translate(-72.54 -18.74)"/><path class="cls-17" d="M258.3,253.05s14.35,2.75,22.66-1.26" transform="translate(-72.54 -18.74)"/><path class="cls-17" d="M281.51,250.49a3.15,3.15,0,0,0,1,1.48" transform="translate(-72.54 -18.74)"/><path class="cls-15" d="M271.19,241.15a2.9,2.9,0,1,1-2.82-2.26A2.58,2.58,0,0,1,271.19,241.15Z" transform="translate(-72.54 -18.74)"/><path class="cls-18" d="M311.57,298.31s-37,17-87,0c0,0-7,5-8,11l9,5s-3,17,6,29l1,16h72s1-10,1-15v-5s6-1,5-20l12-7S315.57,297.31,311.57,298.31Z" transform="translate(-72.54 -18.74)"/><path class="cls-19" d="M311.57,297.31s5,1,5,5.11-85,40.89-85,40.89-10-13.29-6-29.65l43-7.15S301.57,303.44,311.57,297.31Z" transform="translate(-72.54 -18.74)"/><path class="cls-20" d="M286.72,293.22V304.4h32.69a1.46,1.46,0,0,0-.15-.49c-.55-1-.35-2.76-1.13-3.7s-2.42-1.08-3.36-1.86-1.13-2.75-2.18-3.37-3,.48-4.12,0-2.54.53-3.72.23-1.92-2.05-3.13-2.2a28,28,0,0,0-3.57-.62c-1.22,0-2.57-.82-3.74-.67s-2.16,1.93-3.29,2.22-3.07-1.26-4.15-.82A.71.71,0,0,0,286.72,293.22Z" transform="translate(-72.54 -18.74)"/><path class="cls-21" d="M284,298.61V309.8h32.69a1.43,1.43,0,0,0-.14-.5c-.55-1-.35-2.76-1.13-3.7s-2.42-1.08-3.36-1.86-1.13-2.75-2.19-3.36-3,.47-4.11,0-2.54.53-3.72.23-1.92-2.05-3.13-2.2a30.07,30.07,0,0,0-3.58-.62c-1.22,0-2.57-.81-3.74-.67s-2.15,1.93-3.29,2.22-3.06-1.26-4.15-.82Z" transform="translate(-72.54 -18.74)"/><path class="cls-22" d="M323.22,304.4h-51.1v28.91h35.79v-6.14c5.33-1.55,9.76-4.24,12.71-8.44a20.23,20.23,0,0,0,2.66-5.39,27.22,27.22,0,0,0,1.29-7.55A1.35,1.35,0,0,0,323.22,304.4Z" transform="translate(-72.54 -18.74)"/><path class="cls-23" d="M269.76,269.86a5.38,5.38,0,0,0,0-8.21,1.35,1.35,0,1,0-1.79,2,2.9,2.9,0,0,1,.9,1.43v1.33a2.88,2.88,0,0,1-.9,1.42,5.39,5.39,0,0,0,0,8.2,1.34,1.34,0,0,0,1.91-.11,1.35,1.35,0,0,0-.12-1.9,2.88,2.88,0,0,1-.89-1.42v-1.33A2.88,2.88,0,0,1,269.76,269.86Z" transform="translate(-72.54 -18.74)"/><path class="cls-23" d="M257.5,269.86a5.4,5.4,0,0,0,0-8.21,1.35,1.35,0,1,0-1.79,2,3,3,0,0,1,.89,1.43v1.33a2.93,2.93,0,0,1-.89,1.42,5.37,5.37,0,0,0,0,8.2,1.32,1.32,0,0,0,.89.35,1.35,1.35,0,0,0,.9-2.36,2.83,2.83,0,0,1-.9-1.42v-1.33A2.83,2.83,0,0,1,257.5,269.86Z" transform="translate(-72.54 -18.74)"/><path class="cls-23" d="M281.14,272.61v-1.33a2.88,2.88,0,0,1,.89-1.42,5.38,5.38,0,0,0,0-8.21,1.35,1.35,0,1,0-1.79,2,3.05,3.05,0,0,1,.9,1.43v1.33a3,3,0,0,1-.9,1.42,5.39,5.39,0,0,0,0,8.2,1.36,1.36,0,0,0,.9.35A1.35,1.35,0,0,0,282,274,2.93,2.93,0,0,1,281.14,272.61Z" transform="translate(-72.54 -18.74)"/><path class="cls-24" d="M250,310.22c-2.79-1.88-5.19-3.51-6.54-5.86a11,11,0,0,1-.75-8.71,4,4,0,0,1,2.4-2.6,5.83,5.83,0,0,1,6.44,1.66v-5a9.64,9.64,0,0,0-7.69-.53,8,8,0,0,0-4.92,5,15,15,0,0,0,1,12.17c1.82,3.16,4.71,5.12,7.78,7.2,1.28.87,2.58,1.75,3.82,2.74v-5Z" transform="translate(-72.54 -18.74)"/><path class="cls-25" d="M285.37,281.53h-32.9a1.35,1.35,0,0,0-1.35,1.35v36.95a13.49,13.49,0,0,0,13.48,13.48h8.64a13.51,13.51,0,0,0,13.48-13.48V282.88A1.34,1.34,0,0,0,285.37,281.53Z" transform="translate(-72.54 -18.74)"/><ellipse class="cls-9" cx="310.01" cy="334.69" rx="12.5" ry="9.5" transform="translate(-209.57 224.96) rotate(-35.69)"/></svg>