<svg id="레이어_1" data-name="레이어 1" xmlns="http://www.w3.org/2000/svg" viewBox="0 0 385.58 321.64"><defs><style>.cls-1{fill:#9bcdb3;}.cls-2{fill:#70b28d;}.cls-3{fill:#e0c9b3;}.cls-4{fill:#c3e2d0;}.cls-13,.cls-5{fill:#fff;}.cls-6{fill:#c09f82;}.cls-7{fill:#f4e4d3;}.cls-8{fill:#3c3d3d;}.cls-16,.cls-9{fill:#c38855;}.cls-10,.cls-11,.cls-12,.cls-15,.cls-18,.cls-9{stroke:#0a0305;}.cls-10,.cls-11,.cls-12,.cls-15,.cls-18,.cls-22,.cls-9{stroke-linecap:round;stroke-linejoin:round;stroke-width:6px;}.cls-10{fill:#be8145;}.cls-11,.cls-23{fill:#ed7534;}.cls-12,.cls-14{fill:#00a552;}.cls-13{opacity:0.7;}.cls-15,.cls-22{fill:none;}.cls-17{fill:#0a0305;}.cls-18,.cls-19{fill:#daa47c;}.cls-20{fill:#fdeedf;}.cls-21{fill:#00ce7c;}.cls-22{stroke:#daa47c;}.cls-24{fill:#c88c68;}</style></defs><path class="cls-1" d="M374.28,346,347.09,146.49a24.69,24.69,0,0,0-7.64-14.73l-6.43-6a24.79,24.79,0,0,1-7.2-12.42L314,63a15.06,15.06,0,0,0-14.67-11.61h-3a15.06,15.06,0,0,0-14.48,10.89l-11.5,40a19.85,19.85,0,0,1-8.28,11.15l-2.14,1.39a19.77,19.77,0,0,0-8.42,11.64L195.24,342.25Z" transform="translate(-5.42 -47.2)"/><path class="cls-2" d="M347.7,145.88a24.69,24.69,0,0,0-7.64-14.73l-6.43-6a24.72,24.72,0,0,1-7.2-12.42L314.6,62.38a15.06,15.06,0,0,0-14.67-11.61h-3a15,15,0,0,0-4.46.7c4.35,2.5,8.27,7.59,9.85,17.46,3.36,20.93,10.64,75.56,13.86,99.93a35.43,35.43,0,0,0,10.25,20.59,35.38,35.38,0,0,1,10.14,19.77c4.24,27.22,15,96.09,21.76,135.83l16.56.35Z" transform="translate(-5.42 -47.2)"/><polygon class="cls-3" points="81.32 186.41 81.32 96.08 103.02 96.08 103.02 129.92 169.78 129.92 169.78 114.08 192.79 114.08 192.79 206.09 81.32 206.09 81.32 186.41"/><path class="cls-4" d="M41.29,289.21h0a11.41,11.41,0,0,0-11.41,11.41v13.82H338.32V300.62a11.41,11.41,0,0,0-11.41-11.41Z" transform="translate(-5.42 -47.2)"/><path class="cls-4" d="M204,314.44H30.83a10.78,10.78,0,0,0-10.78,10.78v11.41H358V325.22a10.78,10.78,0,0,0-10.78-10.78Z" transform="translate(-5.42 -47.2)"/><path class="cls-4" d="M197.58,336.63h-177A10.94,10.94,0,0,0,9.59,347.57v14.1H386.83V347.25a10.62,10.62,0,0,0-10.62-10.62Z" transform="translate(-5.42 -47.2)"/><path class="cls-5" d="M296.78,229.59h0Z" transform="translate(-5.42 -47.2)"/><path class="cls-5" d="M235.74,229.59h0Z" transform="translate(-5.42 -47.2)"/><rect class="cls-2" x="14.63" y="278.33" width="337.92" height="11.09"/><rect class="cls-2" x="24.46" y="254.62" width="308.44" height="12.61"/><polygon class="cls-6" points="192.79 172.01 81.32 172.01 81.32 186.41 81.32 206.09 192.79 206.09 192.79 172.01"/><polygon class="cls-7" points="146.73 186.41 146.73 162.5 291.36 162.5 291.36 242.01 146.73 242.01 146.73 186.41"/><path class="cls-6" d="M296.78,289.21V260.69c-12.81,2.32-16.84-4-18-9.58a9.38,9.38,0,0,0-9.25-7.34H152.15v45.44Z" transform="translate(-5.42 -47.2)"/><path class="cls-3" d="M159.78,289.21V253.29H260.39a9.36,9.36,0,0,1,9.36,9.36h0a10,10,0,0,0,10,10H290.6a16.56,16.56,0,0,1,16.56,16.56H159.78Z" transform="translate(-5.42 -47.2)"/><polygon class="cls-7" points="130.01 186.41 130.01 200.74 105.67 200.74 105.67 186.41 81.32 186.41 81.32 200.74 56.98 200.74 56.98 186.41 32.63 186.41 32.63 242.01 154.36 242.01 154.36 186.41 130.01 186.41"/><rect class="cls-6" x="32.63" y="229.14" width="121.73" height="12.87"/><path class="cls-8" d="M376.65,332.5,351.22,145.93a28.92,28.92,0,0,0-8.92-17.23l-6.43-6a20.54,20.54,0,0,1-6-10.33L318.05,62A19.17,19.17,0,0,0,299.32,47.2h-3a19.34,19.34,0,0,0-18.49,13.92l-11.51,40a15.61,15.61,0,0,1-6.53,8.81l-2.14,1.38a23.93,23.93,0,0,0-10.18,14.1l-20.89,80.14H202.38V157.11H171V173h-58.4V139.11H82.57V243.77h-16V229.44H33.88V287a15.54,15.54,0,0,0-8.17,13.62v10.61a14.93,14.93,0,0,0-9.83,14v8a15.09,15.09,0,0,0-10.46,14.3v18.29H391v-18.6A14.78,14.78,0,0,0,376.65,332.5Zm-121.12-205a15.64,15.64,0,0,1,6.64-9.19l.15-.1-3.11,12.73,8.11,2,8.33-34.06,10.19-35.42a11,11,0,0,1,10.47-7.88h3A10.86,10.86,0,0,1,309.93,64l10.26,43.7,8.64,59.09,8.26-1.2-5.12-35,4.64,4.32A20.62,20.62,0,0,1,343,147.05l25.27,185.41h-6.07v-7.24a15,15,0,0,0-14.95-15h-4.7v-9.65A15.6,15.6,0,0,0,326.91,285h-16a20.77,20.77,0,0,0-10-13.77V205.53H235.19ZM34.05,300.62a7.25,7.25,0,0,1,7.24-7.24H326.91a7.25,7.25,0,0,1,7.24,7.24v9.65H34.05ZM301,282.48a11.89,11.89,0,0,1,1.31,2.56H164V257.47h96.44a5.18,5.18,0,0,1,5.18,5.18,14.19,14.19,0,0,0,14.17,14.17H290.6a12,12,0,0,1,2,.17A12.35,12.35,0,0,1,301,282.48Zm-76.56-68.6H292.6v11.54H253.44v8.34H292.6v34.82a18.85,18.85,0,0,0-2-.11H279.74a5.83,5.83,0,0,1-5.82-5.82,13.55,13.55,0,0,0-13.53-13.53H164V229.44h-7.62V213.88h68.06ZM90.92,147.45h13.35V181.3h75.1V165.46H194v40.07H148v23.91H131.26v14.33h-16V229.44H90.92ZM42.23,237.78h16v14.34h32.7V237.78h16v14.34h32.7V237.78h16V285H42.23Zm-18,87.44a6.62,6.62,0,0,1,6.6-6.61H347.2a6.62,6.62,0,0,1,6.61,6.61v7.24H24.23ZM382.65,357.5H13.77v-9.94a6.77,6.77,0,0,1,6.76-6.76H376.21a6.58,6.58,0,0,1,1.6.23,6.43,6.43,0,0,1,4.84,6.22Z" transform="translate(-5.42 -47.2)"/><rect class="cls-8" x="58.6" y="215.49" width="7.22" height="7.22"/><rect class="cls-8" x="89.89" y="215.49" width="7.22" height="7.22"/><rect class="cls-8" x="121.18" y="215.49" width="7.22" height="7.22"/><rect class="cls-8" x="102.16" y="143.87" width="7.22" height="7.22"/><rect class="cls-8" x="133.45" y="143.87" width="7.22" height="7.22"/><rect class="cls-8" x="164.74" y="143.87" width="7.22" height="7.22"/><rect class="cls-8" x="175.07" y="178.78" width="7.22" height="7.22"/><polygon class="cls-8" points="230.32 186.56 230.32 178.22 224.59 178.22 215.96 178.22 215.1 178.22 215.1 181.5 215.1 186.56 222.41 186.56 230.32 186.56"/><path class="cls-9" d="M216.26,325.55l-.88,18.89s-10,.25-10,10.6c0,10.54,10.72,10.81,13.44,10.81h18.81c7.65,0,8.08-3,8.08-15.11,0-15.95.13-23.5.13-23.5Z" transform="translate(-5.42 -47.2)"/><path class="cls-10" d="M215.38,344.44a15.89,15.89,0,0,1,4,.61" transform="translate(-5.42 -47.2)"/><path class="cls-10" d="M216.87,337.71" transform="translate(-5.42 -47.2)"/><path class="cls-9" d="M284.7,325.55l.88,18.89s10,.25,10,10.6c0,10.54-10.72,10.81-13.44,10.81h-18.8c-8.68,0-8.09-3-8.09-15.11,0-15.95-.13-23.5-.13-23.5Z" transform="translate(-5.42 -47.2)"/><path class="cls-10" d="M285.58,344.44a15.89,15.89,0,0,0-4,.61" transform="translate(-5.42 -47.2)"/><path class="cls-10" d="M284.09,337.71" transform="translate(-5.42 -47.2)"/><path class="cls-9" d="M291.47,280.41s7,9.28,7,27.16-16,31.88-48,31.88-48-14-48-31.88,7.05-27.16,7.05-27.16" transform="translate(-5.42 -47.2)"/><path class="cls-11" d="M295.18,283.4s-33.14,21.27-44.7,21.27-44.69-21.27-44.69-21.27" transform="translate(-5.42 -47.2)"/><path class="cls-12" d="M198.54,282.18s3.44-3.23,10.15.53c0,0-7.55,13.36-6.26,26.85C202.43,309.56,195.16,295,198.54,282.18Z" transform="translate(-5.42 -47.2)"/><path class="cls-11" d="M256.47,153.52c0,2.66-2.68,4.83-6,4.83s-6-2.17-6-4.83,2.68-4.83,6-4.83S256.47,150.85,256.47,153.52Z" transform="translate(-5.42 -47.2)"/><path class="cls-9" d="M219.55,171a20.24,20.24,0,1,1-20.24-20.24A20.25,20.25,0,0,1,219.55,171Z" transform="translate(-5.42 -47.2)"/><path class="cls-13" d="M209.1,171a9.8,9.8,0,1,1-9.79-9.79A9.79,9.79,0,0,1,209.1,171Z" transform="translate(-5.42 -47.2)"/><path class="cls-9" d="M281.42,171a20.24,20.24,0,1,0,20.24-20.24A20.25,20.25,0,0,0,281.42,171Z" transform="translate(-5.42 -47.2)"/><path class="cls-13" d="M291.86,171a9.8,9.8,0,1,0,9.8-9.79A9.8,9.8,0,0,0,291.86,171Z" transform="translate(-5.42 -47.2)"/><path class="cls-9" d="M250.48,289.28c32.2,0,80.68-8,80.66-57.46,0-52.7-33.17-77.19-80.66-77.19s-80.64,24.49-80.66,77.19C169.81,281.26,218.28,289.28,250.48,289.28Z" transform="translate(-5.42 -47.2)"/><path class="cls-14" d="M251.64,154.65l-1.16,0-1.16,0c-26.19.24-49.64,8.42-66.49,29.3,0,0,23.14,1.66,67.65,1.66S318.13,184,318.13,184C301.28,163.07,277.84,154.89,251.64,154.65Z" transform="translate(-5.42 -47.2)"/><path class="cls-9" d="M274.55,185.19s-2.23-12.12-24.07-12.12-24.06,12.12-24.06,12.12" transform="translate(-5.42 -47.2)"/><path class="cls-15" d="M251.64,154.65l-1.16,0-1.16,0c-26.19.24-49.64,8.42-66.49,29.3,0,0,23.14,1.66,67.65,1.66S318.13,184,318.13,184C301.28,163.07,277.84,154.89,251.64,154.65Z" transform="translate(-5.42 -47.2)"/><path class="cls-16" d="M236.16,182.39c1.25,3.72,4.73,8,12.84,8.12,8.41.17,8.08-3.9,8.08-3.9a15.18,15.18,0,0,0,11.71,3.74c7.34-.7,6.73-5.68,2.86-8" transform="translate(-5.42 -47.2)"/><path class="cls-15" d="M236.16,182.39c1.25,3.72,4.73,8,12.84,8.12,8.41.17,8.08-3.9,8.08-3.9a15.18,15.18,0,0,0,11.71,3.74c7.34-.7,6.73-5.68,2.86-8" transform="translate(-5.42 -47.2)"/><path class="cls-9" d="M257.2,187a11.35,11.35,0,0,1-1.72-3" transform="translate(-5.42 -47.2)"/><path class="cls-17" d="M229.35,228.69c0,3.36-2.27,6.08-5.08,6.08s-5.08-2.72-5.08-6.08,2.27-6.07,5.08-6.07S229.35,225.33,229.35,228.69Z" transform="translate(-5.42 -47.2)"/><path class="cls-17" d="M260.32,228.69c0,3.36,2.27,6.08,5.08,6.08s5.09-2.72,5.09-6.08-2.28-6.07-5.09-6.07S260.32,225.33,260.32,228.69Z" transform="translate(-5.42 -47.2)"/><path class="cls-13" d="M259.16,236.63c0,6.52-6.41,11.81-14.32,11.81s-14.33-5.29-14.33-11.81,6.41-11.81,14.33-11.81S259.16,230.11,259.16,236.63Z" transform="translate(-5.42 -47.2)"/><path class="cls-15" d="M242.35,241.28s6.06,1.22,8.63-2.06" transform="translate(-5.42 -47.2)"/><path class="cls-17" d="M248.56,232.91c0,2.15-2.24,3.88-5,3.88s-5-1.73-5-3.88,2.24-3.88,5-3.88S248.56,230.77,248.56,232.91Z" transform="translate(-5.42 -47.2)"/><line class="cls-15" x1="226.8" y1="167.31" x2="228.24" y2="168.54"/><line class="cls-15" x1="252.03" y1="167.31" x2="250.6" y2="168.54"/><polygon class="cls-18" points="196.34 277.58 233.09 287.43 227.54 217.6 190.8 207.75 196.34 277.58"/><polygon class="cls-18" points="233.09 287.43 267.69 281.02 262.14 211.2 227.54 217.6 233.09 287.43"/><polygon class="cls-19" points="267.69 281.02 239.58 294.77 234.03 224.94 262.14 211.2 267.69 281.02"/><polygon class="cls-20" points="267.03 272.92 244.51 284.02 240.69 230.31 263.2 219.2 267.03 272.92"/><polygon class="cls-21" points="266.44 267.57 253.55 273.3 250.66 251.48 264.9 245.99 266.44 267.57"/><polyline class="cls-22" points="266.19 267.13 253.61 273.77 252.18 262.96"/><polyline class="cls-22" points="262.89 225.16 254.4 228.79 254.84 231.99"/><polyline class="cls-22" points="264.31 247.3 250.39 252.56 248.07 231.88"/><polygon class="cls-15" points="267.69 281.02 239.58 294.77 234.03 224.94 262.14 211.2 267.69 281.02"/><line class="cls-22" x1="253.61" y1="273.77" x2="249.29" y2="275.86"/><path class="cls-23" d="M259.32,284a1.69,1.69,0,1,0,1.46-1.9A1.7,1.7,0,0,0,259.32,284Z" transform="translate(-5.42 -47.2)"/><path class="cls-24" d="M211.49,288.87a2,2,0,0,0,.8.08,1.94,1.94,0,0,0,.74-.23,2,2,0,0,0,1-1.19,2,2,0,0,0-1.35-2.53,2,2,0,0,0-1.18,3.87Zm-.46-2.26a1.11,1.11,0,0,1,.94-.77,1.24,1.24,0,0,1,.43,0,1.11,1.11,0,0,1,.73,1.38,1.07,1.07,0,0,1-.53.65,1.16,1.16,0,0,1-.84.08,1.12,1.12,0,0,1-.65-.54A1.07,1.07,0,0,1,211,286.61Z" transform="translate(-5.42 -47.2)"/><path class="cls-24" d="M216.24,302.85a6.07,6.07,0,0,1-2.83-11.7,6.11,6.11,0,0,1,.37-1.66,7.55,7.55,0,1,0,9.37,7.89,6,6,0,0,1-1.56.54A6.08,6.08,0,0,1,216.24,302.85Z" transform="translate(-5.42 -47.2)"/><path class="cls-24" d="M219.66,285.44a6.2,6.2,0,0,0-2.1.6.77.77,0,0,1,.13.48.78.78,0,0,1-.84.68.75.75,0,0,1-.55-.35,6.35,6.35,0,0,0-1.58,1.92,5.3,5.3,0,0,0-.27.59A6.3,6.3,0,0,0,214,291a5.84,5.84,0,0,0,0,1.11c0,.1,0,.21,0,.32A6.34,6.34,0,0,0,221,298a5.93,5.93,0,0,0,.63-.1,6.46,6.46,0,0,0,.09-1.53,1.23,1.23,0,0,0,0-.2,5.83,5.83,0,0,0-.46-1.78h0l-.08-.2s0-.07,0-.1a.74.74,0,0,1,.65-.81h.14a.77.77,0,0,1,.6.41l0,.06a8.34,8.34,0,0,1,.56,1.94c0,.11,0,.22,0,.33a7.51,7.51,0,0,1,0,1.34,6.32,6.32,0,0,0-3.49-11.94Zm.09,3.16a.23.23,0,0,1,.27-.22.25.25,0,1,1-.05.49A.25.25,0,0,1,219.75,288.6Zm-2.22-.3a.49.49,0,1,1,1,.1.49.49,0,1,1-1-.1Zm4.71,2.19-1.08,1.2-.13.14a.14.14,0,0,1-.09,0l-2.36-.49,1.94,1.06a.09.09,0,0,1,0,.08l.13,1,.06.47-.42-.67a.1.1,0,0,0-.18,0l-1,1.66a.11.11,0,0,1-.18,0l-2.88-4.19-.41-.59-.09-.16a.1.1,0,0,1,.09-.16h.12l3.22.23,3.12.23A.1.1,0,0,1,222.24,290.49Z" transform="translate(-5.42 -47.2)"/><path class="cls-9" d="M199,290.89c6-.88,10.09,4.79,11.21,12.38s-1.15,14.21-7.15,15.09-12.4-4.45-13.52-12S193,291.78,199,290.89Z" transform="translate(-5.42 -47.2)"/><path class="cls-9" d="M298.3,284.5s7.17,6.81,7.61,20.66c.36,11.17-7.77,19-15.12,19-13.09,0-29.39-3.26-28.31-16.36,1.54-18.71,23.38-10.68,23.38-10.68" transform="translate(-5.42 -47.2)"/><path class="cls-12" d="M288.66,284.15a8.35,8.35,0,0,1,9.51-.11S295,287.87,286,297.11A34.69,34.69,0,0,0,288.66,284.15Z" transform="translate(-5.42 -47.2)"/></svg>