<svg id="레이어_1" data-name="레이어 1" xmlns="http://www.w3.org/2000/svg" viewBox="0 0 382.27 358.54"><defs><style>.cls-1{fill:#fdf1e6;}.cls-16,.cls-2{fill:#cee9ed;}.cls-3{fill:#e2bc9b;}.cls-4,.cls-7{fill:#fff;}.cls-5{fill:#cbcbcb;}.cls-6{fill:#3c3d3d;}.cls-10,.cls-12,.cls-13,.cls-14,.cls-15,.cls-7,.cls-8,.cls-9{stroke:#0a0305;}.cls-10,.cls-11,.cls-12,.cls-13,.cls-14,.cls-7,.cls-8,.cls-9{stroke-linecap:round;stroke-linejoin:round;}.cls-10,.cls-11,.cls-12,.cls-15,.cls-7,.cls-8,.cls-9{stroke-width:5px;}.cls-8{fill:#f2b700;}.cls-9{fill:#327eac;}.cls-10{fill:#035b7f;}.cls-11{fill:#7e6866;stroke:#7e6866;}.cls-12,.cls-14,.cls-15{fill:none;}.cls-13{fill:#e8ae00;}.cls-13,.cls-14{stroke-width:2px;}.cls-15,.cls-16{stroke-miterlimit:10;}.cls-16{stroke:#060404;stroke-width:6px;}</style></defs><path class="cls-1" d="M214.31,64.45,209.63,81.6h-13.2a11.09,11.09,0,0,0-10,15.9c.11.24.23.47.35.69a17.6,17.6,0,0,0,15.68,9h6.95a6.78,6.78,0,0,1,6.78,7h0a6.78,6.78,0,0,1-6.78,6.56h-5.73a5.36,5.36,0,0,0-5.2,6.68c2,7.79,7.89,15,24.54,15h46.19V54.07H230.57A17.93,17.93,0,0,0,219,58.28h0A18,18,0,0,0,214.31,64.45Z" transform="translate(-7.86 -28)"/><path class="cls-1" d="M316,203.18v65.55a59.83,59.83,0,0,1-59.83,59.83H245.71a49.35,49.35,0,0,1-49.36-49.36h0a13.32,13.32,0,0,1,13.32-13.33h4.27a13.33,13.33,0,0,1,13.33,13.33h0a14.63,14.63,0,0,0,14.65,14.63h0a14.62,14.62,0,0,0,14.61-14.63h0a52,52,0,0,0-6.38-25l-28-51V151.73H316Z" transform="translate(-7.86 -28)"/><path class="cls-2" d="M359.45,328.6c-29.3-26.13-49.49-19.38-63.49-9.13s-39.78,9.09-39.78,9.09-25,1.16-39-9.09-34.18-17-63.48,9.13c0,0-24.14,20.6-26.12,53.45h258C383.59,349.2,359.45,328.6,359.45,328.6Z" transform="translate(-7.86 -28)"/><path class="cls-3" d="M316,203.18V151.73H222.23v51.45l14.57,26.6c21.11-9.12,33.61-21.45,39.34-28.28a3.41,3.41,0,0,1,5.76.8c7.43,18.53,24,25.92,34.11,28.8Z" transform="translate(-7.86 -28)"/><path class="cls-4" d="M169.76,185.57h0a9.89,9.89,0,0,1,12.16-9.6c20.62,4.73,62.08,20.71,81.52,73.86a18.17,18.17,0,0,1-4.35,19.31h0a9.32,9.32,0,0,1-11.78,1l0,0a12.13,12.13,0,0,0-8-2.21c-3.88.38-9,2.33-12.58,9.25h0a16.2,16.2,0,0,0-12.54-6.65l-3.83-.13a16.22,16.22,0,0,0-12.27,5h0a.9.9,0,0,1-1.56-.65c.65-11.61,1.87-61.39-23-81.39A9.94,9.94,0,0,1,169.76,185.57Z" transform="translate(-7.86 -28)"/><path class="cls-3" d="M219,58.28a18.17,18.17,0,0,0-4.72,6.17l-1,3.8c12.71-.74,46.63,1.58,28.57,51.07h27.38V54.07H230.57A17.93,17.93,0,0,0,219,58.28Z" transform="translate(-7.86 -28)"/><path class="cls-4" d="M215.74,61s21.52-5.22,33.68,7.83c9,9.66,8.31,24.91-.53,34.72l-25.7,28.56a52.41,52.41,0,0,0-13.44,35.21l.22,65.9,47.54-30.64A30.3,30.3,0,0,0,271.41,177l0-13.76,19.93-.07.08,22.85a27.3,27.3,0,0,0,6.51,17.87,38.21,38.21,0,0,0,17.78,11.63,10.49,10.49,0,0,0,13.39-10.18h0a10.54,10.54,0,0,0-2.95-7.27h0A25.46,25.46,0,0,1,319,180.54l-.09-27.87.5-.14a12.85,12.85,0,0,0,9.43-12.43l-.17-49.77a58.22,58.22,0,0,0-58.42-58l-15,.05c-10,0-19.85,3.22-27.4,9.74A39.2,39.2,0,0,0,215.74,61Z" transform="translate(-7.86 -28)"/><path class="cls-5" d="M181.92,176a9.91,9.91,0,0,0-11.08,5.13c16,4.61,72.92,25.45,81.37,90.64a9.24,9.24,0,0,0,6.88-2.6,18.17,18.17,0,0,0,4.35-19.31C244,196.68,202.54,180.7,181.92,176Z" transform="translate(-7.86 -28)"/><rect class="cls-6" x="214.37" y="48.53" width="12.8" height="8.59"/><rect class="cls-6" x="274.16" y="185.1" width="7.43" height="7.43"/><rect class="cls-6" x="274.16" y="217.2" width="7.43" height="7.43"/><rect class="cls-6" x="274.16" y="249.29" width="7.43" height="7.43"/><rect class="cls-6" x="261.98" y="201.15" width="7.43" height="7.43"/><rect class="cls-6" x="286.35" y="201.15" width="7.43" height="7.43"/><rect class="cls-6" x="261.98" y="233.24" width="7.43" height="7.43"/><rect class="cls-6" x="286.35" y="233.24" width="7.43" height="7.43"/><path class="cls-6" d="M123,386.35H390.13l-.27-4.55c-2-33.93-26.06-55.12-27.58-56.43-20-17.82-38.53-23.24-56.26-16.38a63.76,63.76,0,0,0,14.28-40.26V220.3a14.5,14.5,0,0,0,6.7-2.71,15,15,0,0,0,6.11-12A14.76,14.76,0,0,0,329,195.3a21,21,0,0,1-5.86-14.6V155.87a17.2,17.2,0,0,0,10-15.57V90.52A62.6,62.6,0,0,0,270.58,28h-15a46.28,46.28,0,0,0-30.24,10.69,43.33,43.33,0,0,0-13.47,20.93l-.22.76a19.91,19.91,0,0,0-1.23,2.27L206.35,77.3h-9.92a15.4,15.4,0,0,0-13.87,22.06l.43.84a21.76,21.76,0,0,0,19.48,11.28h6.95a2.46,2.46,0,0,1,1.79.76,2.49,2.49,0,0,1-1.79,4.22h-5.73a9.65,9.65,0,0,0-9.35,12.07c2.17,8.28,7.45,13.7,15.61,16.34a56.69,56.69,0,0,0-4.61,22.27v12.23a119.75,119.75,0,0,0-22.46-7.59,14.2,14.2,0,0,0-12.08,2.73,14.06,14.06,0,0,0-5.33,11.06,14.21,14.21,0,0,0,5.37,11.08c23.42,18.85,21.92,68.11,21.38,77.8a5.44,5.44,0,0,0,.15,1.57,17.58,17.58,0,0,0-.32,3.18,53.15,53.15,0,0,0,7.78,27.68c-12.11-2.37-24.62.87-37.71,9.7a104.33,104.33,0,0,0-11.23,8.76c-1,.89-25.56,22.17-27.62,56.46Zm257.87-8.59H132.28a73,73,0,0,1,9.2-26.75,84.94,84.94,0,0,1,11.07-15.2c3.64-.89,18.49-3.63,30.73,7.53,24.83,22.63,70.46,23,72.87,23h.07c2.41,0,48-.32,72.87-23,11.42-10.4,26.25-8.7,31.35-7.71C366.54,342.22,378.19,357.17,380.86,377.76ZM207.1,318.26a52.12,52.12,0,0,1,7.52,4.67c.27.2.57.37.84.55l.73.49,0,0c.69.45,1.39.88,2.12,1.29h0a53.32,53.32,0,0,0,27.35,7.57h5.16c2.74.08,4.67,0,5.31,0l2,0h.08c1,0,2.18,0,3.63,0l1.89-.08.48,0c6.67-.36,16.32-1.5,24.93-4.85a2.5,2.5,0,0,0,.25-.09l.89-.38a39.09,39.09,0,0,0,8.19-4.5c11.29-8.26,27.16-14.88,51.35,3.38A41.66,41.66,0,0,0,323.31,337c-22.48,20.49-66.63,20.71-67.12,20.71v0h0c-.6,0-44.62-.21-67.12-20.71a40.56,40.56,0,0,0-25.8-10.66c9.63-7.28,18-10.65,25.2-11.51q1.54-.18,3-.21A32.74,32.74,0,0,1,207.1,318.26Zm104.61-49.53a55.6,55.6,0,0,1-55.5,55.54h-4.64a85,85,0,0,1-19.8-2.77,43.26,43.26,0,0,1-9.06-3.61l-.05,0c-.56-.31-1.09-.64-1.61-1-.25-.16-.51-.32-.75-.49a45,45,0,0,1-19.66-37.19c0-.18,0-.35.05-.52.16-.13.34-.22.48-.36a12.14,12.14,0,0,1,9-3.67l3.83.13a11.87,11.87,0,0,1,9,4.62,18.9,18.9,0,0,0,18.93,18.73h0a19,19,0,0,0,18.9-18.93,54.67,54.67,0,0,0-.32-5.72,13.14,13.14,0,0,0,1.55-1.26,22.54,22.54,0,0,0,5.39-23.87,129.31,129.31,0,0,0-19.07-35l11.19-7.15a34.48,34.48,0,0,0,16-29.16v-9.47h11.35V186.1a31.56,31.56,0,0,0,7.49,20.7,42.33,42.33,0,0,0,17.31,12ZM252.27,279.2a10.36,10.36,0,0,1-10.36,10.34h0a10.33,10.33,0,0,1-10.33-10.34c0-.51-.11-1-.15-1.49,2.08-3.29,4.84-5.21,8.29-5.54a7.84,7.84,0,0,1,5.16,1.49,13.56,13.56,0,0,0,7.2,2.36C252.14,277.08,252.27,278.14,252.27,279.2Zm-21.34-234a37.69,37.69,0,0,1,24.64-8.61h15a54,54,0,0,1,53.94,53.93V140.3a8.56,8.56,0,0,1-4.22,7.34,7.92,7.92,0,0,1-2.08.91l-.41.11-7.39,1.65V108.09h-8.59v43.67a7.37,7.37,0,0,0,1.38,4.26,7.1,7.1,0,0,0,1.41,1.54,7.37,7.37,0,0,0,4.63,1.63,7,7,0,0,0,1.63-.18l.83-.18,2.84-.64V180.7a29.6,29.6,0,0,0,5.75,17.53,30.81,30.81,0,0,0,2.49,3,6.21,6.21,0,0,1,1.73,4.31,6.31,6.31,0,0,1-2.6,5.12,6.18,6.18,0,0,1-1.62.82,5.7,5.7,0,0,1-3.63.09,34.77,34.77,0,0,1-5-2,34.13,34.13,0,0,1-10.81-8.38,23.05,23.05,0,0,1-5.4-15.09V89.36c0-.94-.78-23.29-12.54-32.7l-5.37,6.71c7.18,5.74,9.16,20.88,9.32,26.11V159H275.56V105H267v72a25.91,25.91,0,0,1-12,21.92l-12.11,7.75q-2.88-3.18-5.84-6V169.45A47.88,47.88,0,0,1,239,156a53.09,53.09,0,0,1,3.33-8.59c.11-.22.24-.44.36-.67a57.56,57.56,0,0,1,3.48-5.92c.6-.89,1.1-1.78,1.66-2.67,17.92-28.7,12.23-57,12-58.24h0a28.12,28.12,0,0,0-7-14.07,29.87,29.87,0,0,0-11.16-7.5,43,43,0,0,0-15.75-2.83c-1.12,0-2.2,0-3.2.1a33.8,33.8,0,0,1,3.44-5.37A35.44,35.44,0,0,1,230.93,45.2Zm-28.28,81.15a1,1,0,0,1,.18-.87,1.09,1.09,0,0,1,.86-.43h5.73a11.08,11.08,0,0,0,0-22.16h-6.95a13.39,13.39,0,0,1-11.89-6.71l-.28-.55a6.81,6.81,0,0,1,6.13-9.74h16.49L218.35,66a14.06,14.06,0,0,1,.83-1.33c5.32-.79,19.08-1.81,27.3,7.07,7.23,7.82,6.94,20.52-.67,28.92L220,129.09a57.44,57.44,0,0,0-6.07,8.06C206,135.07,203.66,130.23,202.65,126.35Zm11.28,40.79a47.89,47.89,0,0,1,4-19.11l.26-.6c.14-.3.25-.6.39-.89a48.25,48.25,0,0,1,5-8.37c.86-1.13,1.77-2.24,2.74-3.31L250.67,108a76.22,76.22,0,0,1-11.62,28c-.48.7-.9,1.43-1.34,2.14a64,64,0,0,0-4.5,8.59c-.09.23-.2.45-.29.67a59.11,59.11,0,0,0-2.83,8.59,56.06,56.06,0,0,0-1.66,13.43v23.82c-.64-.49-1.27-1-1.9-1.46-2.86-2.12-5.73-4-8.59-5.79-1.34-.82-2.68-1.59-4-2.33ZM176.23,190a5.61,5.61,0,0,1-2.17-4.38,5.52,5.52,0,0,1,2.09-4.34,5.67,5.67,0,0,1,4.81-1.08,110.84,110.84,0,0,1,24.38,8.74c2.82,1.4,5.7,3,8.59,4.79q2,1.23,4,2.6a104.78,104.78,0,0,1,9.36,7.21l1.13,1q3.58,3.19,7.06,6.92c.51.55,1,1.1,1.53,1.67,1.39,1.57,2.75,3.21,4.1,4.92a120.19,120.19,0,0,1,18.29,33.31,14,14,0,0,1-1,11.69,13.56,13.56,0,0,1-2.35,3.06,5,5,0,0,1-5.44.94,5,5,0,0,1-.95-.43,16.29,16.29,0,0,0-10.84-2.95,18.74,18.74,0,0,0-11,5,19.73,19.73,0,0,0-1.85,1.81,20.39,20.39,0,0,0-11.75-4.19l-3.83-.13-.72,0a20.44,20.44,0,0,0-8.73,2c0-1.28,0-2.65,0-4.09C201,243.32,197.54,207.1,176.23,190Z" transform="translate(-7.86 -28)"/><path class="cls-7" d="M51.43,296.36s-17.22,11.72-20.06,33.39c-2.36,18,5.69,26.81,13.52,27.58s10.87-3.72,11.85-7" transform="translate(-7.86 -28)"/><path class="cls-7" d="M44.83,351.23s1.79,4.37,6,5.48" transform="translate(-7.86 -28)"/><path class="cls-7" d="M127.93,296.36s17.23,11.72,20.06,33.39c2.36,18-5.68,26.81-13.51,27.58-7.68.76-10.88-3.72-11.85-7" transform="translate(-7.86 -28)"/><path class="cls-7" d="M134.53,351.23s-1.78,4.37-6,5.48" transform="translate(-7.86 -28)"/><path class="cls-8" d="M62.94,344.23V367.7l2.69-.23c-8.46,0-11.95,5.93-11.44,11.25S59.11,384,62,384H76.94c10,0,8.74-7.08,8.74-7.08V344.23" transform="translate(-7.86 -28)"/><path class="cls-8" d="M116.43,344.23V367.7l-2.7-.23c8.46,0,12,5.93,11.44,11.25s-4.91,5.32-7.81,5.32H102.42c-9.94,0-8.73-7.08-8.73-7.08V344.23" transform="translate(-7.86 -28)"/><path class="cls-7" d="M126.59,301.72s6.35,9.06,6.35,26.51-14.42,31.12-43.26,31.12-43.25-13.67-43.25-31.12,6.35-26.51,6.35-26.51" transform="translate(-7.86 -28)"/><path class="cls-9" d="M88.5,305.9s4.39,10.44-5.26,22.2c0,0-4.69-5-3.68-11.77S88.5,305.9,88.5,305.9Z" transform="translate(-7.86 -28)"/><path class="cls-9" d="M90.79,305.9s-4.38,10.44,5.27,22.2c0,0,4.69-5,3.68-11.77S90.79,305.9,90.79,305.9Z" transform="translate(-7.86 -28)"/><path class="cls-9" d="M127.82,300.11s-6.52,15.29-38.14,11c-31.62,4.31-38.14-11-38.14-11" transform="translate(-7.86 -28)"/><path class="cls-10" d="M94.66,310.24a3.42,3.42,0,0,1-3.42,3.42H88.13a3.43,3.43,0,0,1-3.43-3.42v-4.36a3.43,3.43,0,0,1,3.43-3.42h3.11a3.42,3.42,0,0,1,3.42,3.42Z" transform="translate(-7.86 -28)"/><path class="cls-4" d="M89.68,304.62c31.64,0,79.27-7.88,79.26-56.46,0-51.78-32.6-75.84-79.26-75.84s-79.24,24.06-79.25,75.84C10.41,296.74,58.05,304.62,89.68,304.62Z" transform="translate(-7.86 -28)"/><path class="cls-11" d="M168.93,246.61c-7-13.31-25.67-11.07-25.67-11.07s-2.11-30.75-33-30.86a24.41,24.41,0,0,0-20.6,10.76,24.41,24.41,0,0,0-20.6-10.76c-30.86.11-33,30.86-33,30.86s-18.7-2.24-25.66,11.07c0,0-5.5-74.29,79.24-74.29S168.93,246.61,168.93,246.61Z" transform="translate(-7.86 -28)"/><path class="cls-12" d="M89.68,304.62c31.64,0,79.27-7.88,79.26-56.46,0-51.78-32.6-75.84-79.26-75.84s-79.24,24.06-79.25,75.84C10.41,296.74,58.05,304.62,89.68,304.62Z" transform="translate(-7.86 -28)"/><path class="cls-12" d="M91.05,172.32S82.42,168.14,85,160" transform="translate(-7.86 -28)"/><path class="cls-13" d="M89.68,252.81c6.87,0,12.49-2.9,12.49-7s-6-8.27-12.49-8.27-12.48,4.14-12.48,8.27S82.82,252.81,89.68,252.81Z" transform="translate(-7.86 -28)"/><path class="cls-14" d="M96.88,244.54s-1.58,2.73-7.2,2.73-7.19-2.73-7.19-2.73" transform="translate(-7.86 -28)"/><polyline class="cls-15" points="108.86 194.57 98.61 203.45 110.91 209.6"/><polyline class="cls-15" points="55.22 194.78 65.46 203.66 53.17 209.81"/><path class="cls-16" d="M166.94,114.31h0c-.48-.37-53.87-42.64-87,11.94L84.41,129l15.18,9.23S117.43,84.22,166.94,114.31Z" transform="translate(-7.86 -28)"/></svg>