<svg id="레이어_1" data-name="레이어 1" xmlns="http://www.w3.org/2000/svg" viewBox="0 0 340.57 369.54"><defs><style>.cls-1{fill:#ddad6d;}.cls-2{fill:#f6d9ac;}.cls-3{fill:#fdf1e6;}.cls-4{fill:#3c3d3d;}.cls-5{fill:#eb7c66;}.cls-10,.cls-12,.cls-13,.cls-15,.cls-5,.cls-8,.cls-9{stroke:#0a0305;}.cls-10,.cls-11,.cls-12,.cls-13,.cls-15,.cls-5,.cls-7,.cls-8,.cls-9{stroke-linecap:round;stroke-linejoin:round;stroke-width:5px;}.cls-6{fill:#fff;}.cls-11,.cls-7,.cls-9{fill:none;}.cls-7{stroke:#91bd28;}.cls-8{fill:#acdaf1;}.cls-10{fill:#7d473f;}.cls-11{stroke:#6a3732;}.cls-12{fill:#eb6953;}.cls-13{fill:#91bd28;}.cls-14{fill:#bb402a;}.cls-15{fill:#ed7300;}.cls-16{fill:#0a0305;}</style></defs><path class="cls-1" d="M198.21,151.65H173.34v26a.87.87,0,0,0,1.63.44c2.76-4.64,9.43-12.49,22.86-12.64,13.59.07,21,8,23.81,12.64a.87.87,0,0,0,1.63-.44v-26Z" transform="translate(-28.02 -14)"/><path class="cls-2" d="M171.22,104.34H135.51c-7.41,60-4.65,145.06-4.65,145.06h45S178.64,164.3,171.22,104.34Z" transform="translate(-28.02 -14)"/><path class="cls-3" d="M161.5,60.62H146.08a5.55,5.55,0,0,0-5.44,4.45l-7.07,34.65a3.86,3.86,0,0,0,3.78,4.62h32.13a3.86,3.86,0,0,0,3.8-4.54L167,65.19A5.55,5.55,0,0,0,161.5,60.62Z" transform="translate(-28.02 -14)"/><circle class="cls-2" cx="125.4" cy="14.75" r="10.67"/><path class="cls-2" d="M107.66,157.45H72c-7.41,60-4.65,145.05-4.65,145.05h45S115.08,217.4,107.66,157.45Z" transform="translate(-28.02 -14)"/><path class="cls-3" d="M98,113.72H82.52a5.55,5.55,0,0,0-5.44,4.45L70,152.82a3.86,3.86,0,0,0,3.78,4.63h32.13a3.86,3.86,0,0,0,3.8-4.55l-6.31-34.61A5.56,5.56,0,0,0,98,113.72Z" transform="translate(-28.02 -14)"/><circle class="cls-2" cx="61.84" cy="67.86" r="10.67"/><path class="cls-2" d="M225.39,104.34H261.1c7.41,60,4.66,145.06,4.66,145.06h-45S218,164.3,225.39,104.34Z" transform="translate(-28.02 -14)"/><path class="cls-3" d="M235.11,60.62h15.42A5.57,5.57,0,0,1,256,65.07L263,99.72a3.85,3.85,0,0,1-3.78,4.62H227.13a3.85,3.85,0,0,1-3.79-4.54l6.3-34.61A5.55,5.55,0,0,1,235.11,60.62Z" transform="translate(-28.02 -14)"/><circle class="cls-2" cx="215.18" cy="14.75" r="10.67"/><path class="cls-2" d="M289,157.45h35.71c7.41,60,4.66,145.05,4.66,145.05h-45S281.54,217.4,289,157.45Z" transform="translate(-28.02 -14)"/><path class="cls-3" d="M298.67,113.72h15.42a5.57,5.57,0,0,1,5.45,4.45l7.06,34.65a3.86,3.86,0,0,1-3.78,4.63H290.69a3.85,3.85,0,0,1-3.79-4.55l6.3-34.61A5.56,5.56,0,0,1,298.67,113.72Z" transform="translate(-28.02 -14)"/><circle class="cls-2" cx="278.73" cy="67.86" r="10.67"/><path class="cls-2" d="M198.21,200.13h-.3A727.57,727.57,0,0,0,86.26,273.64L61.51,367H337.3l-24.67-88C288.49,259,252.78,229.39,198.21,200.13Z" transform="translate(-28.02 -14)"/><path class="cls-1" d="M312.63,279c-24.14-20-59.85-49.62-114.42-78.88h-.3A727.57,727.57,0,0,0,86.26,273.64l-23.06,87c55.66-61.88,103.67-93.17,124.3-105a21.63,21.63,0,0,1,21.57,0c21,12.05,70.44,44.32,127.42,108.51Z" transform="translate(-28.02 -14)"/><path class="cls-3" d="M364.18,376.44c-6.92-6.9-29.85-31.4-37.43-59.88-1.62-6.09,2.27-12,8.93-14.71a3.28,3.28,0,0,0,.91-5.49C320.44,282,263.5,233.27,198.31,200,133.11,233.27,76.17,282,60,296.36a3.28,3.28,0,0,0,.91,5.49c6.66,2.68,10.56,8.62,8.94,14.71-7.59,28.48-30.52,53-37.44,59.88-.79.78-.07,1.93,1.21,1.93H63.11a1.54,1.54,0,0,0,1.47-.87c24.76-66,52.3-97.28,66-108,2.91-2.28,7.83-.44,7.48,2.78-6.52,60.08-28.95,96.26-34.46,104.36-.54.8.22,1.74,1.37,1.74h31.5a1.46,1.46,0,0,0,1.53-1.09c5.63-42.31,11.52-70.94,16.54-90,5.53-21.06,19.35-40.22,39.43-54.9h0a9,9,0,0,1,8.52-.08l.15.08c20.08,14.68,33.9,33.84,39.44,54.9,5,19.09,10.9,47.72,16.54,90a1.45,1.45,0,0,0,1.52,1.09h31.5c1.16,0,1.91-.94,1.37-1.74-5.5-8.1-27.94-44.28-34.46-104.36-.35-3.22,4.57-5.06,7.49-2.78,13.7,10.73,41.23,42,66,108a1.53,1.53,0,0,0,1.46.87H363C364.25,378.37,365,377.22,364.18,376.44Z" transform="translate(-28.02 -14)"/><path class="cls-1" d="M223.93,117.81h38.63c-.44-4.59-.92-9.1-1.46-13.47H225.39C224.85,108.71,224.37,113.22,223.93,117.81Z" transform="translate(-28.02 -14)"/><path class="cls-1" d="M134.05,117.81h38.63c-.44-4.59-.92-9.1-1.46-13.47H135.51C135,108.71,134.49,113.22,134.05,117.81Z" transform="translate(-28.02 -14)"/><path class="cls-1" d="M70.5,170.87h38.62c-.44-4.57-.92-9.07-1.46-13.42H72C71.41,161.8,70.93,166.3,70.5,170.87Z" transform="translate(-28.02 -14)"/><path class="cls-1" d="M287.5,170.87h38.61c-.43-4.57-.91-9.07-1.45-13.42H289C288.41,161.8,287.93,166.3,287.5,170.87Z" transform="translate(-28.02 -14)"/><polygon class="cls-4" points="285.72 284.42 285.81 284.42 285.72 284.11 285.72 284.42"/><path class="cls-4" d="M29.55,373.54a5.11,5.11,0,0,0-1.15,5.56,5.59,5.59,0,0,0,5.24,3.36H63.11a5.62,5.62,0,0,0,5.29-3.52c1-2.68,2-5.26,3-7.84h30.86c-.87,1.4-1.6,2.52-2.09,3.24a5,5,0,0,0-.29,5.2,5.63,5.63,0,0,0,5,2.92h31.5a5.54,5.54,0,0,0,5.58-4.64c.3-2.29.62-4.48.93-6.72H253.64c.31,2.24.62,4.43.93,6.72a5.53,5.53,0,0,0,5.57,4.64h31.5a5.63,5.63,0,0,0,5-2.92,5,5,0,0,0-.29-5.2c-.49-.72-1.22-1.84-2.09-3.24h30.86c1,2.58,2,5.15,3,7.83a5.62,5.62,0,0,0,5.3,3.53H363a5.58,5.58,0,0,0,5.24-3.36,5.08,5.08,0,0,0-1.14-5.56c-6.69-6.66-29.06-30.54-36.38-58-1-3.92,1.58-7.88,6.52-9.87a7.24,7.24,0,0,0,4.46-5.54,7.33,7.33,0,0,0-2.36-6.79c-1.51-1.34-3.39-3-5.61-4.91.42-26.55.57-85-4.78-129.74,0,0,0,0,.05,0a7.87,7.87,0,0,0,1.63-6.6l-7.06-34.65a9.68,9.68,0,0,0-9.45-7.72h-3.25V96a14.76,14.76,0,1,0-8.17,0v13.68h-4a9.65,9.65,0,0,0-9.49,7.92l-6.3,34.61a7.91,7.91,0,0,0,1.71,6.51.73.73,0,0,1,.09.08c-3.26,27.4-4.48,59.89-4.83,87.06q-4.75-3.44-9.77-6.94c.45-24.49.88-86.39-4.72-133.32,0,0,0,0,.05,0A7.89,7.89,0,0,0,267,98.9L260,64.25a9.67,9.67,0,0,0-9.45-7.71h-3.25V42.86a14.76,14.76,0,1,0-8.17,0V56.54h-4a9.65,9.65,0,0,0-9.49,7.91l-6.3,34.62a7.92,7.92,0,0,0,1.71,6.5.76.76,0,0,0,.09.09c-1.57,13.18-2.67,27.53-3.42,41.91H178.91c-.75-14.38-1.85-28.73-3.42-41.91a.76.76,0,0,0,.09-.09,7.88,7.88,0,0,0,1.71-6.5L171,64.46a9.63,9.63,0,0,0-9.49-7.92h-4V42.86a14.75,14.75,0,1,0-8.17,0V56.54h-3.25a9.65,9.65,0,0,0-9.44,7.72L129.57,98.9a7.91,7.91,0,0,0,1.63,6.61s0,0,.05,0c-5.59,46.83-5.17,108.58-4.73,133.18-3.36,2.3-6.63,4.57-9.76,6.79-.36-27.12-1.57-59.47-4.83-86.77l.09-.08a7.91,7.91,0,0,0,1.71-6.51l-6.3-34.61A9.63,9.63,0,0,0,98,109.64h-4V96a14.76,14.76,0,1,0-8.17,0v13.68H82.52a9.66,9.66,0,0,0-9.44,7.72L66,152a7.9,7.9,0,0,0,1.63,6.6l.06.06c-5.35,44.77-5.21,103.18-4.79,129.73-2.22,1.92-4.1,3.57-5.6,4.91a7.34,7.34,0,0,0-2.37,6.79,7.24,7.24,0,0,0,4.47,5.54c4.93,2,7.55,5.95,6.51,9.87C58.6,343,36.23,366.88,29.55,373.54ZM300.17,81.86a6.59,6.59,0,1,1,6.59,6.58A6.59,6.59,0,0,1,300.17,81.86ZM236.61,28.75a6.59,6.59,0,1,1,6.59,6.59A6.59,6.59,0,0,1,236.61,28.75Zm-89.78,0a6.59,6.59,0,1,1,6.59,6.59A6.59,6.59,0,0,1,146.83,28.75ZM83.27,81.86a6.59,6.59,0,1,1,6.59,6.58A6.6,6.6,0,0,1,83.27,81.86ZM74.78,362.93c9.61-22.95,19.74-41.7,29.39-56.34a208,208,0,0,1,12.52-17.17,109.68,109.68,0,0,1,16.4-16.71,1.07,1.07,0,0,1,.83-.12c-4.85,43.57-18.31,74.39-26.9,90.34Zm162.41,0V348.24a35.82,35.82,0,0,0-35.79-35.78H195a35.82,35.82,0,0,0-35.78,35.78v14.69h-15.1c4.31-29.67,9.13-54.75,14.35-74.64A88.46,88.46,0,0,1,177,253.49c.92-1.08,1.94-2.11,2.91-3.16a114.33,114.33,0,0,1,16.21-14.51,5,5,0,0,1,4.36,0,114.5,114.5,0,0,1,16.18,14.48c1,1.06,2,2.09,2.91,3.17a88.33,88.33,0,0,1,18.54,34.8c5.23,19.89,10,45,14.36,74.64Zm52.4,0c-8.59-15.95-22-46.77-26.9-90.34a1.07,1.07,0,0,1,.83.12,109.22,109.22,0,0,1,16.4,16.71,208,208,0,0,1,12.52,17.17c9.65,14.64,19.78,33.39,29.39,56.34Zm66.89,11.36H335.19c-.41-1.09-.83-2.13-1.24-3.19-1.08-2.79-2.16-5.52-3.24-8.17-9.71-23.76-19.51-42.2-28.45-56.34-1.83-2.89-3.63-5.63-5.37-8.17l-1.21-1.72c-2.66-3.8-5.22-7.22-7.64-10.25-3-3.77-5.77-6.95-8.27-9.63a99.54,99.54,0,0,0-11.22-10.54,9.3,9.3,0,0,0-10.15-.72,7.28,7.28,0,0,0-3.91,7.15c4.57,42,16.68,72.4,25.82,90.22,1.59,3.1,3.09,5.84,4.44,8.17.67,1.15,1.31,2.23,1.9,3.19H262.33c-.14-1.09-.29-2.12-.44-3.19-.38-2.75-.76-5.49-1.15-8.17-4.4-30.49-9.34-56.27-14.71-76.72a94.88,94.88,0,0,0-16-32.72,111.83,111.83,0,0,0-13.62-15.1,126.19,126.19,0,0,0-11.35-9.34l-.65-.39a13,13,0,0,0-12.39.11l-.45.28a126.19,126.19,0,0,0-11.35,9.34,111.08,111.08,0,0,0-13.61,15.1,94.9,94.9,0,0,0-16,32.72c-5.37,20.45-10.31,46.23-14.71,76.72-.39,2.68-.77,5.42-1.14,8.17-.15,1.07-.31,2.1-.45,3.19H110c.59-1,1.23-2,1.89-3.19,1.36-2.33,2.86-5.07,4.44-8.17,9.14-17.81,21.26-48.17,25.82-90.22a7.26,7.26,0,0,0-3.91-7.15,9.32,9.32,0,0,0-10.15.72,100.43,100.43,0,0,0-11.22,10.54c-2.5,2.69-5.27,5.86-8.27,9.63-2.41,3-5,6.45-7.64,10.25-.4.57-.8,1.13-1.2,1.72-1.75,2.54-3.55,5.28-5.38,8.17a351.19,351.19,0,0,0-25.94,50.34q-2.88,6.76-5.75,14.17l-1.24,3.19H40.13a173.71,173.71,0,0,0,24-33.1,107.45,107.45,0,0,0,9.68-23.58,14.69,14.69,0,0,0-.83-9.82c-.18-.4-.32-.81-.53-1.2a19,19,0,0,0-8.79-8c2-1.75,4.5-3.95,7.48-6.5,2.28-1.95,4.83-4.11,7.64-6.45v.25l.09-.33,4-3.3c1.31-1.08,2.68-2.19,4.08-3.33l2.71-2.18c1-.82,2-1.65,3.1-2.48L96.85,271l4.08-3.18q3.76-2.91,7.79-5.95c2.63-2,5.35-4,8.14-6.05v-.36c3.17-2.28,6.45-4.62,9.88-7,2.61-1.81,5.28-3.65,8-5.51,2.23-1.5,4.5-3,6.83-4.55l.73-.48v0c1.35-.91,2.72-1.81,4.09-2.72l4.08-2.67q2.88-1.87,5.81-3.74,2-1.29,4.09-2.57l4.08-2.54c2.56-1.57,5.16-3.13,7.77-4.68s5.43-3.19,8.19-4.76q8.79-5,17.86-9.71,9,4.68,17.86,9.71,4.13,2.36,8.18,4.76c2.61,1.55,5.21,3.11,7.77,4.68l4.09,2.54q2.06,1.27,4.08,2.57,2.93,1.86,5.81,3.74l4.09,2.67,4.08,2.72q3.84,2.58,7.56,5.15,4.1,2.82,8,5.62,5.08,3.61,9.89,7.15c2.79,2,5.51,4.07,8.14,6.05s5.28,4,7.79,5.95l4.09,3.18,4.08,3.23q3,2.4,5.81,4.66c1.4,1.14,2.77,2.25,4.08,3.33s2.78,2.28,4.09,3.38l1.18,1c2.35,2,4.51,3.79,6.46,5.47,3,2.55,5.5,4.75,7.48,6.5a19.19,19.19,0,0,0-8.48,7.53c-.1.16-.22.3-.31.47a14.82,14.82,0,0,0-1.36,11A114.43,114.43,0,0,0,336,347.34,179.32,179.32,0,0,0,356.48,374.29ZM180.05,177.89c2.93-3.78,8.37-8.29,17.76-8.4,10.25,0,16,5.08,18.75,8.43-.23,9.5-.34,18.62-.38,27-5.27-2.94-10.61-5.82-16-8.58l-1.85-.95L197,196h-.12l-.9.49-1.62.88c-4.69,2.42-9.34,4.93-13.93,7.49C180.39,196.53,180.28,187.4,180.05,177.89ZM297.22,119a1.46,1.46,0,0,1,1.45-1.21h15.42a1.47,1.47,0,0,1,1.44,1.18l7,34.37H291Zm-4.64,42.51H321c4.66,40.55,4.9,91.83,4.59,120-2.39-2-5-4.17-7.8-6.46V241.47a11.08,11.08,0,1,0-22.15,0v16.1q-3.76-2.85-7.73-5.81C288.19,224.31,289.27,190.23,292.58,161.53ZM233.66,65.92a1.47,1.47,0,0,1,1.45-1.21h15.42A1.49,1.49,0,0,1,252,65.89l7,34.37H227.4ZM229,108.43h28.47c4.95,43,4.91,98.16,4.53,124.89-2.55-1.73-5.12-3.46-7.74-5.18V188.37a11.08,11.08,0,1,0-22.15,0v25.78q-3.85-2.33-7.79-4.62c0-8.42.1-17.75.31-27.56.23-11.08.62-22.75,1.24-34.4C226.58,134.16,227.59,120.8,229,108.43Zm-11.7,47.31c-.17,3.83-.32,7.65-.44,11.43a32.55,32.55,0,0,0-19.08-5.85,30.75,30.75,0,0,0-18.06,5.61q-.18-5.56-.43-11.19ZM144.64,65.89a1.47,1.47,0,0,1,1.44-1.18H161.5A1.46,1.46,0,0,1,163,65.92l6.26,34.34H137.63Zm-5.5,42.54H167.6c1.42,12.37,2.43,25.73,3.14,39.14.61,11.65,1,23.32,1.24,34.4.2,9.81.29,19.14.3,27.56q-3.93,2.29-7.79,4.62V188.37a11.08,11.08,0,1,0-22.15,0v39.77q-2.57,1.7-5.09,3.39l-2.65,1.76C134.22,206.55,134.19,151.45,139.14,108.43ZM81.08,119a1.47,1.47,0,0,1,1.44-1.18H98A1.48,1.48,0,0,1,99.4,119l6.25,34.34H74.07Zm-5.5,42.54H104c3.28,28.56,4.37,62.44,4.62,89.82q-4,2.94-7.73,5.73V241.47a11.08,11.08,0,1,0-22.15,0v33.58c-2.79,2.29-5.4,4.45-7.8,6.46C70.67,253.37,70.91,202.08,75.58,161.53Z" transform="translate(-28.02 -14)"/><rect class="cls-4" x="114.73" y="119.72" width="7.36" height="7.36"/><rect class="cls-4" x="128.71" y="119.72" width="7.36" height="7.36"/><rect class="cls-4" x="114.73" y="132.83" width="7.36" height="7.36"/><rect class="cls-4" x="128.71" y="132.83" width="7.36" height="7.36"/><rect class="cls-4" x="51.17" y="172.82" width="7.36" height="7.36"/><rect class="cls-4" x="65.15" y="172.82" width="7.36" height="7.36"/><rect class="cls-4" x="51.17" y="185.93" width="7.36" height="7.36"/><rect class="cls-4" x="65.15" y="185.93" width="7.36" height="7.36"/><rect class="cls-4" x="218.49" y="119.72" width="7.36" height="7.36"/><rect class="cls-4" x="204.51" y="119.72" width="7.36" height="7.36"/><rect class="cls-4" x="218.49" y="132.83" width="7.36" height="7.36"/><rect class="cls-4" x="204.51" y="132.83" width="7.36" height="7.36"/><rect class="cls-4" x="282.05" y="172.82" width="7.36" height="7.36"/><rect class="cls-4" x="268.07" y="172.82" width="7.36" height="7.36"/><rect class="cls-4" x="282.05" y="185.93" width="7.36" height="7.36"/><rect class="cls-4" x="268.07" y="185.93" width="7.36" height="7.36"/><path class="cls-4" d="M207.64,274.08l4.38-1.82-3.13-7.54-4.39,1.82a16.24,16.24,0,0,1-12.93-.21l-3.44-1.56-3.37,7.44,3.44,1.56a23.91,23.91,0,0,0,6.17,1.82v12.24h-8.45V296H211v-8.17h-8.45V275.55A23.65,23.65,0,0,0,207.64,274.08Z" transform="translate(-28.02 -14)"/><path class="cls-5" d="M259.79,347.51s0,6-.66,19.86c-.63,13-5.22,13.67-8.09,13.67H236.33c-2.37,0-11.67-.23-11.67-9.38,0-9,8.69-9.21,8.69-9.21l2.79-17.32" transform="translate(-28.02 -14)"/><path class="cls-6" d="M234.23,357l-.88,5.45s-8.7.22-8.69,9.21c0,9.15,9.3,9.38,11.67,9.38H251c2.87,0,7.46-.63,8.09-13.67.14-3,.26-5.63.35-7.92A126.28,126.28,0,0,1,234.23,357Z" transform="translate(-28.02 -14)"/><path class="cls-7" d="M234.24,361.45s5.4,3.44,25.05,3.1" transform="translate(-28.02 -14)"/><path class="cls-8" d="M233.35,362.45a13.74,13.74,0,0,1,3.49.53" transform="translate(-28.02 -14)"/><path class="cls-9" d="M259.79,347.51s0,6-.66,19.86c-.63,13-5.22,13.67-8.09,13.67H236.33c-2.37,0-11.67-.23-11.67-9.38,0-9,8.69-9.21,8.69-9.21l2.79-17.32" transform="translate(-28.02 -14)"/><path class="cls-9" d="M234.64,356.61s9.09,2.92,24.85,2.87" transform="translate(-28.02 -14)"/><path class="cls-5" d="M280.19,347.51s0,6,.66,19.86c.63,13,5.21,13.67,8.09,13.67h14.71c2.36,0,11.67-.23,11.67-9.38,0-9-8.69-9.21-8.69-9.21l-2.79-17.32" transform="translate(-28.02 -14)"/><path class="cls-6" d="M305.75,357l.88,5.45s8.69.22,8.69,9.21c0,9.15-9.31,9.38-11.67,9.38H288.94c-2.88,0-7.46-.63-8.09-13.67-.15-3-.26-5.63-.35-7.92A126.28,126.28,0,0,0,305.75,357Z" transform="translate(-28.02 -14)"/><path class="cls-7" d="M305.74,361.45s-5.4,3.44-25.05,3.1" transform="translate(-28.02 -14)"/><path class="cls-8" d="M306.63,362.45a13.74,13.74,0,0,0-3.49.53" transform="translate(-28.02 -14)"/><path class="cls-9" d="M280.19,347.51s0,6,.66,19.86c.63,13,5.21,13.67,8.09,13.67h14.71c2.36,0,11.67-.23,11.67-9.38,0-9-8.69-9.21-8.69-9.21l-2.79-17.32" transform="translate(-28.02 -14)"/><path class="cls-9" d="M305.33,356.61s-9.08,2.92-24.84,2.87" transform="translate(-28.02 -14)"/><path class="cls-10" d="M304,289.31s6.91,20.54,6.79,56c0,0-15.35,6.76-40.83,6.76s-40.82-6.76-40.82-6.76c-.13-35.46,6.78-56,6.78-56" transform="translate(-28.02 -14)"/><path class="cls-10" d="M233.77,297.79c1.92-3.4-5.91-8.58-5.91-8.58s-20.53-2.5-33.19,10.3S197.2,325,197.2,325,212.7,335,233.77,297.79Z" transform="translate(-28.02 -14)"/><line class="cls-11" x1="210.27" y1="300.18" x2="210.04" y2="302.6"/><path class="cls-10" d="M301.31,304.13" transform="translate(-28.02 -14)"/><line class="cls-11" x1="296.8" y1="273.35" x2="298.95" y2="272.21"/><path class="cls-10" d="M345.87,273.58c-7.5-.17-16.85,4.84-16.85,4.84l-24.49,14.23c2,3.38,3.68,9.75,3.68,9.75s19.33,7.35,34.69-2S346.56,275,346.56,275" transform="translate(-28.02 -14)"/><path class="cls-12" d="M256.3,296.45a69.66,69.66,0,0,0,0,15.82" transform="translate(-28.02 -14)"/><path class="cls-13" d="M259.79,312.27a3.49,3.49,0,1,1-3.49-3.49A3.49,3.49,0,0,1,259.79,312.27Z" transform="translate(-28.02 -14)"/><path class="cls-12" d="M283.58,296.45a69,69,0,0,1,0,15.82" transform="translate(-28.02 -14)"/><path class="cls-13" d="M280.09,312.27a3.49,3.49,0,1,0,3.49-3.49A3.49,3.49,0,0,0,280.09,312.27Z" transform="translate(-28.02 -14)"/><path class="cls-5" d="M197.9,212.17s21.95-63.51,35.19-65.12,32.51,37.72,32.51,37.72" transform="translate(-28.02 -14)"/><path class="cls-6" d="M210.89,206.33s15-43.27,24-44.36S257,187.67,257,187.67" transform="translate(-28.02 -14)"/><path class="cls-5" d="M342.08,212.17s-21.95-63.51-35.19-65.12-32.51,37.72-32.51,37.72" transform="translate(-28.02 -14)"/><path class="cls-6" d="M329.08,206.33s-14.95-43.27-24-44.36S283,187.67,283,187.67" transform="translate(-28.02 -14)"/><path class="cls-10" d="M270,296.45c76.08,0,86.69-53.17,86.69-53.17-2-.25-7.59-75.38-86.69-75.38S185.28,243,183.3,243.28C183.3,243.28,193.91,296.45,270,296.45Z" transform="translate(-28.02 -14)"/><path class="cls-5" d="M270,296.45c56.46,0,68-35.33,69.1-44.3,1.86-14.81-20.82-54.76-69.1-54.76s-71,40-69.1,54.76C202,261.12,213.53,296.45,270,296.45Z" transform="translate(-28.02 -14)"/><path class="cls-14" d="M276.63,249.19s-.06,7.68-6.64,7.68-6.64-7.68-6.64-7.68l6.64-2Z" transform="translate(-28.02 -14)"/><path class="cls-9" d="M276.63,249.19s-.06,7.68-6.64,7.68-6.64-7.68-6.64-7.68" transform="translate(-28.02 -14)"/><path class="cls-15" d="M270,243.63c1.94-.87,1.1-1.37,0-1.37S268.05,242.76,270,243.63Z" transform="translate(-28.02 -14)"/><line class="cls-12" x1="241.97" y1="229.7" x2="241.97" y2="232.31"/><path class="cls-9" d="M256.72,247.36s1,5.22,13.27-.62" transform="translate(-28.02 -14)"/><path class="cls-9" d="M283.26,247.36s-1,5.22-13.27-.62" transform="translate(-28.02 -14)"/><path class="cls-15" d="M296.75,231.89s-6.9,1.61-26.76,1.61-26.76-1.61-26.76-1.61" transform="translate(-28.02 -14)"/><path class="cls-16" d="M295.85,241.21a1.06,1.06,0,0,1-2.11,0,1.06,1.06,0,1,1,2.11,0Z" transform="translate(-28.02 -14)"/><path class="cls-15" d="M258,239.35a19.42,19.42,0,0,0-8.95-2.73" transform="translate(-28.02 -14)"/><path class="cls-15" d="M282,239.35a19.42,19.42,0,0,1,9-2.73" transform="translate(-28.02 -14)"/></svg>