<svg id="레이어_1" data-name="레이어 1" xmlns="http://www.w3.org/2000/svg" viewBox="0 0 384.84 289.44"><defs><style>.cls-1{fill:#d6bea5;}.cls-2{fill:#f4e4d3;}.cls-3{fill:#e4a0a1;}.cls-4{fill:#8cc6d6;}.cls-5{fill:#d3ac83;}.cls-6{fill:#3c3d3d;}.cls-14,.cls-7{fill:#c38855;}.cls-10,.cls-13,.cls-18,.cls-7,.cls-8,.cls-9{stroke:#0a0305;stroke-linecap:round;stroke-linejoin:round;}.cls-10,.cls-13,.cls-16,.cls-18,.cls-7,.cls-8,.cls-9{stroke-width:6px;}.cls-8{fill:#be8145;}.cls-9{fill:#ed7534;}.cls-10,.cls-12{fill:#00a552;}.cls-11,.cls-17,.cls-18{fill:#fff;}.cls-11{opacity:0.7;}.cls-13,.cls-16{fill:none;}.cls-15{fill:#0a0305;}.cls-16{stroke:#00983f;stroke-miterlimit:10;}</style></defs><rect class="cls-1" x="51.05" y="198.75" width="50.75" height="13.15"/><rect class="cls-2" x="51.05" y="211.9" width="50.75" height="73.32"/><path class="cls-2" d="M61,309.24V127.39a1.48,1.48,0,0,0-1.47-1.49H33.66a1.48,1.48,0,0,0-1.47,1.49V309.24l-4.81,31.54a6,6,0,0,0,5.9,7H66.91Z" transform="translate(-6.08 -62.55)"/><path class="cls-2" d="M25.09,309.24h0Z" transform="translate(-6.08 -62.55)"/><path class="cls-2" d="M68.12,309.24h0Z" transform="translate(-6.08 -62.55)"/><polygon class="cls-2" points="196.63 154.83 101.8 156.43 101.8 285.21 196.63 285.21 291.46 285.21 291.46 156.43 196.63 154.83"/><polygon class="cls-2" points="196.63 211.9 121.21 211.9 121.21 285.21 196.63 285.21 272.05 285.21 272.05 211.9 196.63 211.9"/><path class="cls-1" d="M263,259.06H142.45a15.28,15.28,0,0,0-15.16,15.39H278.13A15.28,15.28,0,0,0,263,259.06Z" transform="translate(-6.08 -62.55)"/><path class="cls-3" d="M181.07,314c-7.51,6.73-14.08,17.31-14.06,33.73h71.4c0-16.42-6.56-27-14.06-33.73C212.44,303.38,193,303.38,181.07,314Z" transform="translate(-6.08 -62.55)"/><rect class="cls-1" x="297.54" y="261.3" width="50.75" height="13.15" transform="translate(639.75 473.2) rotate(180)"/><rect class="cls-2" x="291.46" y="211.9" width="50.75" height="73.32"/><path class="cls-2" d="M344.39,309.24V127.39a1.49,1.49,0,0,1,1.48-1.49h25.88a1.48,1.48,0,0,1,1.47,1.49V309.24L378,340.78a6,6,0,0,1-5.9,7H338.51Z" transform="translate(-6.08 -62.55)"/><path class="cls-2" d="M380.32,309.24h0Z" transform="translate(-6.08 -62.55)"/><path class="cls-2" d="M337.29,309.24h0Z" transform="translate(-6.08 -62.55)"/><path class="cls-2" d="M262.46,194.58H143s-8,11.83-11.65,22.81h142.8C270.5,206.41,262.46,194.58,262.46,194.58Z" transform="translate(-6.08 -62.55)"/><path class="cls-4" d="M202.71,163.48s-35.7,0-53,31.1h106C238.41,163.48,202.71,163.48,202.71,163.48Z" transform="translate(-6.08 -62.55)"/><path class="cls-4" d="M344.61,124.83a.89.89,0,0,0,.86,1.07h26.68a.89.89,0,0,0,.86-1.07l-8.85-44.17a5.48,5.48,0,0,0-5.35-4.44h0a5.49,5.49,0,0,0-5.36,4.44Z" transform="translate(-6.08 -62.55)"/><path class="cls-4" d="M32.52,124.28a1.35,1.35,0,0,0,1.3,1.62H59.39a1.35,1.35,0,0,0,1.31-1.62L52,80.66a5.48,5.48,0,0,0-5.35-4.44h0a5.49,5.49,0,0,0-5.36,4.44Z" transform="translate(-6.08 -62.55)"/><rect class="cls-5" x="101.8" y="156.43" width="189.66" height="26.96"/><rect class="cls-5" x="338.31" y="113.5" width="28.83" height="27.44"/><rect class="cls-5" x="26.11" y="113.5" width="28.83" height="27.44"/><path class="cls-2" d="M46.61,160.24H18.66s0,15.82,13.53,22.39H61c13.54-6.57,13.54-22.39,13.54-22.39Z" transform="translate(-6.08 -62.55)"/><path class="cls-2" d="M358.81,160.24h27.95s0,15.82-13.54,22.39H344.39c-13.53-6.57-13.53-22.39-13.53-22.39Z" transform="translate(-6.08 -62.55)"/><path class="cls-1" d="M298,212.4H107.38A6.53,6.53,0,0,0,100.9,219h0a6.52,6.52,0,0,0,6.48,6.57H298a6.52,6.52,0,0,0,6.48-6.57h0A6.53,6.53,0,0,0,298,212.4Z" transform="translate(-6.08 -62.55)"/><path class="cls-4" d="M202.71,236s-37.71-2-58.26,23.09H261C240.42,234,202.71,236,202.71,236Z" transform="translate(-6.08 -62.55)"/><path class="cls-6" d="M28,185.13V305H25.09v8.45h2.25l-4.08,26.66a10.39,10.39,0,0,0,2.32,8.27,10.09,10.09,0,0,0,7.7,3.59H372.14a10.05,10.05,0,0,0,7.69-3.59,10.35,10.35,0,0,0,2.32-8.27l-4.07-26.66h2.24V305h-2.93V185.13c13.35-8.18,13.53-24.18,13.53-24.89V156H377.39V127.39a5.85,5.85,0,0,0-.28-1.68,5.29,5.29,0,0,0,0-1.73l-8.85-44.16A9.73,9.73,0,0,0,363,73V62.88h-8.32V73a9.73,9.73,0,0,0-5.27,6.82L340.53,124h0a5.23,5.23,0,0,0,0,1.72,5.53,5.53,0,0,0-.28,1.68V156H326.7v4.23c0,.71.18,16.71,13.53,24.89v71.95H301.7v-28a10.8,10.8,0,0,0-3.66-20.9H274.9a125.64,125.64,0,0,0-9-16l-1.24-1.82h-6.59c-15.11-24.89-41.06-29.87-51.18-30.86V145.23h6.18v-8.46h-6.18v-6.35h-8.32v6.35h-6.61v8.46h6.61V159.5c-10.12,1-36.07,6-51.18,30.86h-6.59l-1.25,1.82a127.64,127.64,0,0,0-9,16H107.38a10.8,10.8,0,0,0-3.67,20.9v28H65.19V185.13C78.54,177,78.72,161,78.72,160.24V156H65.19V127.39a5.78,5.78,0,0,0-.39-2,5.57,5.57,0,0,0,0-1.91L56,79.82A9.73,9.73,0,0,0,50.77,73V62.55H42.45V73a9.77,9.77,0,0,0-5.28,6.82l-8.73,43.61a5.63,5.63,0,0,0,0,1.92,5.78,5.78,0,0,0-.39,2V156H14.5v4.23C14.5,161,14.68,177,28,185.13ZM61.29,343.54h-28a1.8,1.8,0,0,1-1.38-.64,1.85,1.85,0,0,1-.41-1.48l4.27-27.95H57.5l3.79,25,.76,5Zm42.42,0H70.47l-4.59-30.07h2.24V305H65.19V278.68h38.52Zm67.62,0c.84-10.8,5-19.64,12.5-26.33,10.41-9.33,27.35-9.32,37.76,0,7.46,6.69,11.65,15.53,12.49,26.33Zm71.06,0c-.88-13.33-6-24.32-15.29-32.66-13.45-12.06-35.33-12.05-48.78,0-9.31,8.34-14.41,19.33-15.29,32.66H131.45V278.68H274v64.86Zm-99.94-80.25h8.27a9,9,0,0,0,16.85,0h26.71a9,9,0,0,0,16.86,0h26.71a9,9,0,0,0,16.85,0H263a11,11,0,0,1,10.18,6.94H132.27A11,11,0,0,1,142.45,263.29Zm94.71-8.46H154.62c19.54-15.88,47.57-14.66,47.87-14.64h.43c.33,0,28.34-1.24,47.88,14.64Zm64.54,88.71V278.68h38.53V305h-2.94v8.45h2.25l-4.6,30.07Zm72.23-2.12a1.85,1.85,0,0,1-.42,1.48,1.77,1.77,0,0,1-1.37.64H343.37l.76-5L348,313.47H369.7ZM357.53,81.5a1.34,1.34,0,0,1,2.55,0l8.05,40.16H349.49Zm-9,48.62h20.5V156H348.55Zm-13,34.34h46.48a22.53,22.53,0,0,1-4.66,9.72,18.27,18.27,0,0,1-5.16,4.23H345.39a18.13,18.13,0,0,1-5.16-4.23A22.53,22.53,0,0,1,335.57,164.46Zm13,22.4h20.52V305H348.51V257.08Zm-8.31,78.67v4.7H301.7v-4.7Zm-232.85-48.9H298a2.35,2.35,0,0,1,0,4.69H107.38a2.35,2.35,0,0,1,0-4.69Zm95.33-48.92c.53,0,28.46.37,45.26,22.65H157.45C174.24,168.15,202.28,167.71,202.71,167.71Zm-57.51,31.1h13.38a9,9,0,0,0,16.86,0h18.84a9,9,0,0,0,16.86,0H230a9,9,0,0,0,16.85,0h13.39c1.25,2,3.33,5.41,5.37,9.37H139.82C141.87,204.22,144,200.79,145.2,198.81Zm-33.16,31H293.38V343.54H282.29V274.45a20.21,20.21,0,0,0-.46-4.22A19.42,19.42,0,0,0,263,254.83h-.11c-21.22-24.12-56.69-23.24-60.14-23.09-3.45-.14-38.93-1-60.15,23.09h-.11a19.63,19.63,0,0,0-19.32,19.62v69.09H112V229.78Zm-8.33,35.75v4.7H65.19v-4.7Zm-46.85,4.7V305H36.31l0-118.16H56.86v83.37ZM45.33,81.51a1.34,1.34,0,0,1,2.55,0l8,40.16H37.29Zm-9,48.61h20.5V156H36.35ZM28,164.46H69.85a22.65,22.65,0,0,1-4.66,9.72A18.27,18.27,0,0,1,60,178.41H33.19A18,18,0,0,1,28,174.17a22.45,22.45,0,0,1-4.66-9.71Z" transform="translate(-6.08 -62.55)"/><path class="cls-7" d="M53.17,309.73l-.84,17.94s-9.5.24-9.5,10.06c0,10,10.18,10.26,12.76,10.26H73.44c7.27,0,7.68-2.85,7.68-14.33,0-15.15.12-22.32.12-22.32Z" transform="translate(-6.08 -62.55)"/><path class="cls-8" d="M52.33,327.67a15.09,15.09,0,0,1,3.82.58" transform="translate(-6.08 -62.55)"/><path class="cls-8" d="M53.75,321.28" transform="translate(-6.08 -62.55)"/><path class="cls-7" d="M118.14,309.73l.84,17.94s9.5.24,9.5,10.06c0,10-10.17,10.26-12.76,10.26H97.87c-8.24,0-7.68-2.85-7.68-14.33,0-15.15-.12-22.32-.12-22.32Z" transform="translate(-6.08 -62.55)"/><path class="cls-8" d="M119,327.67a15.09,15.09,0,0,0-3.82.58" transform="translate(-6.08 -62.55)"/><path class="cls-8" d="M117.56,321.28" transform="translate(-6.08 -62.55)"/><path class="cls-7" d="M45,256.19s-11.74,10.52-16.48,30S29,317.56,41.84,318c13.69.42,13.68-10.12,13.68-10.12" transform="translate(-6.08 -62.55)"/><path class="cls-7" d="M125.19,267.78s6.49,9,6.11,25.93S115.41,323.62,85,322.93s-45.29-14.34-44.9-31.3S47.4,266,47.4,266" transform="translate(-6.08 -62.55)"/><path class="cls-9" d="M128.09,269.72s-31.46,20.2-42.44,20.2-42.43-20.2-42.43-20.2" transform="translate(-6.08 -62.55)"/><path class="cls-10" d="M36.34,268.57s3.27-3.07,9.64.49c0,0-7.17,12.69-5.94,25.5C40,294.56,33.14,280.76,36.34,268.57Z" transform="translate(-6.08 -62.55)"/><path class="cls-10" d="M135,268.57s-3.27-3.07-9.64.49c0,0,7.18,12.69,5.94,25.5C131.27,294.56,138.17,280.76,135,268.57Z" transform="translate(-6.08 -62.55)"/><path class="cls-7" d="M56.29,163A19.22,19.22,0,1,1,37.07,143.8,19.21,19.21,0,0,1,56.29,163Z" transform="translate(-6.08 -62.55)"/><path class="cls-11" d="M46.37,163a9.3,9.3,0,1,1-9.3-9.29A9.3,9.3,0,0,1,46.37,163Z" transform="translate(-6.08 -62.55)"/><path class="cls-7" d="M115,163a19.22,19.22,0,1,0,19.22-19.21A19.21,19.21,0,0,0,115,163Z" transform="translate(-6.08 -62.55)"/><path class="cls-11" d="M124.94,163a9.3,9.3,0,1,0,9.3-9.29A9.3,9.3,0,0,0,124.94,163Z" transform="translate(-6.08 -62.55)"/><path class="cls-7" d="M85.65,275.3c30.57,0,76.6-7.61,76.58-54.55,0-50-31.49-73.28-76.58-73.28S9.1,170.72,9.08,220.75C9.06,267.69,55.09,275.3,85.65,275.3Z" transform="translate(-6.08 -62.55)"/><path class="cls-9" d="M91.34,146.42c0,2.53-2.54,4.58-5.69,4.58S80,149,80,146.42s2.55-4.59,5.68-4.59S91.34,143.89,91.34,146.42Z" transform="translate(-6.08 -62.55)"/><path class="cls-12" d="M86.76,147.49l-1.11,0-1.1,0c-24.86.23-47.12,8-63.12,27.81,0,0,22,1.59,64.22,1.59s64.23-1.59,64.23-1.59C133.88,155.49,111.62,147.72,86.76,147.49Z" transform="translate(-6.08 -62.55)"/><path class="cls-7" d="M108.51,176.48S106.39,165,85.65,165s-22.84,11.5-22.84,11.5" transform="translate(-6.08 -62.55)"/><path class="cls-13" d="M86.76,147.49l-1.11,0-1.1,0c-24.86.23-47.12,8-63.12,27.81,0,0,22,1.59,64.22,1.59s64.23-1.59,64.23-1.59C133.88,155.49,111.62,147.72,86.76,147.49Z" transform="translate(-6.08 -62.55)"/><path class="cls-14" d="M72.06,173.83c1.18,3.53,4.49,7.55,12.18,7.71,8,.16,7.68-3.71,7.68-3.71A14.44,14.44,0,0,0,103,181.38c7-.66,6.38-5.39,2.71-7.62" transform="translate(-6.08 -62.55)"/><path class="cls-13" d="M72.06,173.83c1.18,3.53,4.49,7.55,12.18,7.71,8,.16,7.68-3.71,7.68-3.71A14.44,14.44,0,0,0,103,181.38c7-.66,6.38-5.39,2.71-7.62" transform="translate(-6.08 -62.55)"/><path class="cls-7" d="M92,178.17a10.68,10.68,0,0,1-1.63-2.87" transform="translate(-6.08 -62.55)"/><path class="cls-15" d="M71,213.64c0,3.19-2.16,5.77-4.82,5.77s-4.83-2.58-4.83-5.77,2.16-5.77,4.83-5.77S71,210.45,71,213.64Z" transform="translate(-6.08 -62.55)"/><path class="cls-15" d="M100.35,213.64c0,3.19,2.16,5.77,4.83,5.77s4.83-2.58,4.83-5.77-2.16-5.77-4.83-5.77S100.35,210.45,100.35,213.64Z" transform="translate(-6.08 -62.55)"/><path class="cls-11" d="M99.26,221.18c0,6.19-6.09,11.21-13.61,11.21s-13.59-5-13.59-11.21S78.14,210,85.65,210,99.26,215,99.26,221.18Z" transform="translate(-6.08 -62.55)"/><path class="cls-13" d="M83.3,225.59s5.75,1.16,8.19-2" transform="translate(-6.08 -62.55)"/><path class="cls-15" d="M89.19,217.65c0,2-2.12,3.68-4.75,3.68s-4.75-1.65-4.75-3.68S81.82,214,84.44,214,89.19,215.62,89.19,217.65Z" transform="translate(-6.08 -62.55)"/><line class="cls-13" x1="67.6" y1="137.62" x2="68.96" y2="138.79"/><line class="cls-13" x1="91.56" y1="137.62" x2="90.19" y2="138.79"/><path class="cls-12" d="M152.94,289.61s-43-.56-54-2.15L99.07,347l59.55,1,8.46-11.17Z" transform="translate(-6.08 -62.55)"/><polyline class="cls-16" points="92.99 284.46 100.89 272.14 92.86 224.91"/><path class="cls-16" d="M167.08,336.82s-43.53-2.16-59.59-2.08" transform="translate(-6.08 -62.55)"/><path class="cls-13" d="M152.94,289.61s-43-.56-54-2.15L99.07,347l59.55,1,8.46-11.17Z" transform="translate(-6.08 -62.55)"/><path class="cls-13" d="M141.7,291.82s-.57-18.92-14.84-20.66-15.35,16.34-14.86,21" transform="translate(-6.08 -62.55)"/><path class="cls-17" d="M126.65,308a1.51,1.51,0,0,0,.67,0,1.55,1.55,0,0,0,.61-.25,1.69,1.69,0,0,0,.47-2.34,1.72,1.72,0,0,0-1.08-.72,1.69,1.69,0,1,0-.67,3.31Zm-.57-1.83a.92.92,0,0,1,.72-.72,1.15,1.15,0,0,1,.37,0,.91.91,0,0,1,.72,1.08.92.92,0,0,1-1.08.72.91.91,0,0,1-.59-.4A.86.86,0,0,1,126.08,306.13Z" transform="translate(-6.08 -62.55)"/><path class="cls-17" d="M131.76,319.19a5.07,5.07,0,0,1-3.32-9.49,5.54,5.54,0,0,1,.17-1.41,6.31,6.31,0,1,0,8.47,5.8,5.65,5.65,0,0,1-1.25.57A5.1,5.1,0,0,1,131.76,319.19Z" transform="translate(-6.08 -62.55)"/><path class="cls-17" d="M133.19,304.44a5.18,5.18,0,0,0-1.7.68.63.63,0,0,1,.14.38.65.65,0,0,1-.65.64.68.68,0,0,1-.48-.24,5.17,5.17,0,0,0-1.16,1.72,3.82,3.82,0,0,0-.18.51,5.44,5.44,0,0,0-.22,1.35,5.76,5.76,0,0,0,.06.92,2.56,2.56,0,0,0,.05.27,5.31,5.31,0,0,0,6.26,4.12,4.94,4.94,0,0,0,.52-.13,5.63,5.63,0,0,0-.06-1.29l0-.16a5,5,0,0,0-.53-1.44h0c0-.07-.08-.16-.08-.16s0-.05,0-.08a.61.61,0,0,1,.48-.72h.11a.62.62,0,0,1,.54.29s0,0,0,0a6.14,6.14,0,0,1,.63,1.57,2.61,2.61,0,0,1,.06.27,6.11,6.11,0,0,1,.13,1.12,5.29,5.29,0,0,0-3.89-9.65Zm.33,2.62a.21.21,0,0,1,.21-.2.19.19,0,0,1,.2.2.2.2,0,0,1-.2.21A.21.21,0,0,1,133.52,307.06Zm-1.88-.07a.43.43,0,0,1,.42-.41.41.41,0,0,1,.41.42.41.41,0,0,1-.41.41A.42.42,0,0,1,131.64,307Zm4.12,1.44-.81,1.09-.09.12a.07.07,0,0,1-.08,0l-2-.2,1.71.71s0,0,.05.07l.18.79.09.38-.41-.52a.08.08,0,0,0-.14,0l-.68,1.46a.09.09,0,0,1-.15,0l-2.75-3.25-.39-.45-.09-.12a.08.08,0,0,1,.06-.14h.1l2.71-.07,2.63-.07A.09.09,0,0,1,135.76,308.43Z" transform="translate(-6.08 -62.55)"/><path class="cls-7" d="M114.31,269.51c-1.26,6.12,4.39,10.66,12.18,12.24s14.77-.41,16-6.52-3.91-13-11.69-14.61S115.56,263.39,114.31,269.51Z" transform="translate(-6.08 -62.55)"/><path class="cls-18" d="M130.26,275.49s-1.32,4.18-5.14,5.53" transform="translate(-6.08 -62.55)"/></svg>