<svg xmlns="http://www.w3.org/2000/svg" viewBox="0 0 198.1 355.04"><defs><style>.cls-1{isolation:isolate;}.cls-2{fill:#a7d8d6;}.cls-3{fill:#8cc6d6;}.cls-4{fill:#f1f1f1;}.cls-19,.cls-5{fill:#fff;}.cls-6{fill:#6fc3bb;}.cls-7{fill:#5caab9;}.cls-8{fill:#cbcbcb;}.cls-9{fill:#3c3d3d;}.cls-10,.cls-12,.cls-20{fill:#f29a48;}.cls-11,.cls-29{fill:none;}.cls-11,.cls-12,.cls-13,.cls-15,.cls-19,.cls-20{stroke:#0a0305;stroke-linecap:round;stroke-linejoin:round;}.cls-11,.cls-12,.cls-13,.cls-15,.cls-19{stroke-width:5px;}.cls-13{fill:#e13339;}.cls-14,.cls-15{fill:#7e4f23;}.cls-16{opacity:0.4;}.cls-17{fill:#ed7616;}.cls-17,.cls-28{opacity:0.6;}.cls-18{fill:#0a0305;}.cls-20{stroke-width:6px;}.cls-21{fill:#f5b071;stroke:#040000;stroke-width:2px;}.cls-21,.cls-22,.cls-29{stroke-miterlimit:10;}.cls-22{fill:#2b908f;stroke:#241613;}.cls-22,.cls-29{stroke-width:3px;}.cls-23{fill:#e84b27;}.cls-24{fill:#e3421a;}.cls-25{fill:#d7975b;mix-blend-mode:multiply;}.cls-26{fill:#fad8b6;}.cls-27{fill:#78291d;}.cls-28{fill:#a51f24;}.cls-29{stroke:#000;}</style></defs><g class="cls-1"><g id="레이어_1" data-name="레이어 1"><path class="cls-2" d="M269.78,303.67h-54l-16.61,63.15a2.55,2.55,0,0,0,2.47,3.21h82.24a2.55,2.55,0,0,0,2.47-3.21Z" transform="translate(-92.21 -21)"/><path class="cls-2" d="M242.8,257H206a1.4,1.4,0,0,0-1.35,1.74l11.2,44.92h54L281,258.75a1.4,1.4,0,0,0-1.36-1.74Z" transform="translate(-92.21 -21)"/><path class="cls-2" d="M242.8,210.35H206a1.4,1.4,0,0,0-1.35,1.74L215.82,257h54L281,212.09a1.4,1.4,0,0,0-1.36-1.74Z" transform="translate(-92.21 -21)"/><path class="cls-2" d="M242.8,163.69H206a1.4,1.4,0,0,0-1.35,1.74l11.2,44.92h54L281,165.43a1.4,1.4,0,0,0-1.36-1.74Z" transform="translate(-92.21 -21)"/><polygon class="cls-2" points="150.59 96.04 111.97 96.04 123.61 142.69 150.59 142.69 177.57 142.69 189.21 96.04 150.59 96.04"/><polygon class="cls-3" points="169.9 77.95 150.59 77.95 131.28 77.95 111.97 96.04 150.59 96.04 189.21 96.04 169.9 77.95"/><polygon class="cls-3" points="151.06 46.37 128.03 46.37 131.75 77.95 151.06 77.95 170.37 77.95 173.14 46.37 151.06 46.37"/><polygon class="cls-4" points="150.59 23.77 139.01 23.77 139.01 46.37 150.59 46.37 162.16 46.37 162.16 23.77 150.59 23.77"/><path class="cls-2" d="M242.8,44.77v0Z" transform="translate(-92.21 -21)"/><path class="cls-5" d="M220.72,163.69v8.76a5.29,5.29,0,0,0,5.29,5.29h7.91V163.69Z" transform="translate(-92.21 -21)"/><path class="cls-5" d="M251.68,163.69v14.05h7.91a5.29,5.29,0,0,0,5.29-5.29v-8.76Z" transform="translate(-92.21 -21)"/><path class="cls-5" d="M220.72,210.35v8.76A5.29,5.29,0,0,0,226,224.4h7.91V210.35Z" transform="translate(-92.21 -21)"/><path class="cls-5" d="M251.68,210.35V224.4h7.91a5.29,5.29,0,0,0,5.29-5.29v-8.76Z" transform="translate(-92.21 -21)"/><path class="cls-5" d="M220.72,257v8.75a5.29,5.29,0,0,0,5.29,5.3h7.91V257Z" transform="translate(-92.21 -21)"/><path class="cls-5" d="M251.68,257v14.05h7.91a5.29,5.29,0,0,0,5.29-5.3V257Z" transform="translate(-92.21 -21)"/><path class="cls-5" d="M220.72,117v8.75a5.29,5.29,0,0,0,5.29,5.29h7.91V117Z" transform="translate(-92.21 -21)"/><path class="cls-5" d="M251.68,117v14h7.91a5.29,5.29,0,0,0,5.29-5.29V117Z" transform="translate(-92.21 -21)"/><path class="cls-6" d="M269.78,303.67h-27V370h41.12a2.55,2.55,0,0,0,2.47-3.21Z" transform="translate(-92.21 -21)"/><path class="cls-6" d="M279.63,257H242.8v46.66h27L281,258.75A1.4,1.4,0,0,0,279.63,257Z" transform="translate(-92.21 -21)"/><path class="cls-6" d="M279.63,210.35H242.8V257h27L281,212.09A1.4,1.4,0,0,0,279.63,210.35Z" transform="translate(-92.21 -21)"/><path class="cls-6" d="M279.63,163.69H242.8v46.66h27L281,165.43A1.4,1.4,0,0,0,279.63,163.69Z" transform="translate(-92.21 -21)"/><polygon class="cls-6" points="150.59 96.04 150.59 142.69 150.59 142.69 177.57 142.69 189.21 96.04 150.59 96.04 150.59 96.04"/><polygon class="cls-7" points="150.59 77.95 150.59 77.95 150.59 96.04 150.59 96.04 189.21 96.04 169.9 77.95 150.59 77.95"/><polygon class="cls-7" points="150.59 46.37 150.59 77.95 151.06 77.95 170.37 77.95 173.14 46.37 151.06 46.37 150.59 46.37"/><polygon class="cls-8" points="150.59 23.77 150.59 46.37 150.59 46.37 162.16 46.37 162.16 23.77 150.59 23.77 150.59 23.77"/><path class="cls-9" d="M196.62,371.38a6.36,6.36,0,0,0,5.06,2.49h82.24a6.4,6.4,0,0,0,6.18-8l-16.36-62.2,11-44a5.24,5.24,0,0,0-5.08-6.49h-4.94l10-40.17a5.24,5.24,0,0,0-5.08-6.49h-4.94l10-40.17a5.16,5.16,0,0,0-.95-4.48,5.22,5.22,0,0,0-4.12-2h-4.94L285.14,118a3.47,3.47,0,0,0,.06-.45,2.58,2.58,0,0,0,0-.29,3.72,3.72,0,0,0-.07-1s0-.09,0-.13a4.19,4.19,0,0,0-.32-.83c-.05-.09-.11-.18-.17-.27a2,2,0,0,0-.19-.31,3.83,3.83,0,0,0-.28-.29.88.88,0,0,0-.12-.15l-17.51-16.4,3-34.3H258.21V40.94H246.63V21H239V40.94H227.39v22.6H215.94l3.94,33.54-18.32,17.16c-.05,0-.07.1-.12.15s-.19.18-.28.29a3.21,3.21,0,0,0-.19.31,1.91,1.91,0,0,0-.16.27,4.31,4.31,0,0,0-.33.84s0,.07,0,.12a3.72,3.72,0,0,0-.07,1,1.54,1.54,0,0,0,0,.3c0,.15,0,.3.05.44l10.45,41.9H206a5.23,5.23,0,0,0-5.07,6.5l10,40.16H206a5.23,5.23,0,0,0-5.07,6.5l10,40.16H206a5.23,5.23,0,0,0-5.07,6.5l11,44-16.36,62.2A6.34,6.34,0,0,0,196.62,371.38ZM235.06,48.61h15.48V63.54H235.06Zm-7.67,22.6h33.78l-2.1,23.91h-31.7l-2.81-23.91ZM225,102.79h35.58l11.13,10.41H213.88Zm30.5,18.08h5.54v4.92a1.47,1.47,0,0,1-1.46,1.46h-4.08Zm-31,0h5.54v6.38H226a1.47,1.47,0,0,1-1.46-1.46Zm-15.46,0h7.79v4.92a9.15,9.15,0,0,0,9.13,9.13h11.75v-14h10.08v14h11.75a9.14,9.14,0,0,0,9.12-9.13v-4.92h7.8l-9.72,39h-48Zm46.42,46.66h5.54v4.92a1.47,1.47,0,0,1-1.46,1.46h-4.08Zm-31,0h5.54v6.38H226a1.47,1.47,0,0,1-1.46-1.46Zm-15.46,0h7.79v4.92a9.14,9.14,0,0,0,9.13,9.12h11.75v-14h10.08v14h11.75a9.13,9.13,0,0,0,9.12-9.12v-4.92h7.8l-9.72,39h-48Zm46.42,46.66h5.54v4.92a1.47,1.47,0,0,1-1.46,1.46h-4.08Zm-31,0h5.54v6.38H226a1.47,1.47,0,0,1-1.46-1.46Zm-15.46,0h7.79v4.92a9.14,9.14,0,0,0,9.13,9.12h11.75v-14h10.08v14h11.75a9.13,9.13,0,0,0,9.12-9.12v-4.92h7.8l-9.72,39h-48Zm46.42,46.66h5.54v4.91a1.47,1.47,0,0,1-1.46,1.47h-4.08Zm-31,0h5.54v6.38H226a1.47,1.47,0,0,1-1.46-1.47Zm-15.46,0h7.79v4.91a9.14,9.14,0,0,0,9.13,9.13h11.75v-14h10.08v14h11.75a9.13,9.13,0,0,0,9.12-9.13v-4.91h7.8l-9.72,39h-48Zm9.68,46.66h48.06l15.44,58.69H203.33Z" transform="translate(-92.21 -21)"/><path class="cls-10" d="M157.45,350.17s.3,5.46,0,11.59-2.76,11.78-13.52,11.78-13.21-5.65-13.51-11.78,0-11.59,0-11.59" transform="translate(-92.21 -21)"/><path class="cls-5" d="M131.3,365H157s1.51,8.84-13.5,8.84S131.3,365,131.3,365Z" transform="translate(-92.21 -21)"/><path class="cls-11" d="M157.45,350.17s.3,5.46,0,11.59-2.76,11.78-13.52,11.78-13.21-5.65-13.51-11.78,0-11.59,0-11.59" transform="translate(-92.21 -21)"/><path class="cls-10" d="M197.42,350.17s.3,5.46,0,11.59-2.76,11.78-13.51,11.78-13.22-5.65-13.52-11.78,0-11.59,0-11.59" transform="translate(-92.21 -21)"/><path class="cls-5" d="M171.28,365H197s1.51,8.84-13.51,8.84S171.28,365,171.28,365Z" transform="translate(-92.21 -21)"/><path class="cls-11" d="M197.42,350.17s.3,5.46,0,11.59-2.76,11.78-13.51,11.78-13.22-5.65-13.52-11.78,0-11.59,0-11.59" transform="translate(-92.21 -21)"/><path class="cls-12" d="M203.31,302.27s9.08,10.07,12.92,22.07c2.7,8.41,4.24,22.92-7.74,24.48-11.13,1.45-12.77-9.44-12.77-9.44" transform="translate(-92.21 -21)"/><path class="cls-12" d="M200.57,309.23s2.23,8.19,2.23,24-13,23.9-39.09,23.9-39.1-8.13-39.1-23.9,2.23-24,2.23-24" transform="translate(-92.21 -21)"/><path class="cls-5" d="M163.71,341.34c19.4,0,23.31-7,22.83-17.28-.69-14.67-10.43-24.55-22.83-24.55s-22.15,9.88-22.84,24.55C140.4,334.35,144.3,341.34,163.71,341.34Z" transform="translate(-92.21 -21)"/><path class="cls-13" d="M163.92,185.84a8.89,8.89,0,0,1,3.56-6.75" transform="translate(-92.21 -21)"/><path class="cls-13" d="M163.92,203.81c6.29,0,23.84,5.23,24.26-4.6s-14.2-14.45-24.26-14.45-24.67,4.62-24.26,14.45S157.63,203.81,163.92,203.81Z" transform="translate(-92.21 -21)"/><path class="cls-12" d="M149.13,198.21s-2.64-13.45-15.26-10.44c-15.37,3.67-8.62,20.24-8.62,20.24" transform="translate(-92.21 -21)"/><path class="cls-12" d="M178.71,198.21s2.64-13.45,15.25-10.44c15.39,3.67,8.63,20.24,8.63,20.24" transform="translate(-92.21 -21)"/><path class="cls-10" d="M163.92,313.77c27.63,0,69.22-6.89,69.21-49.3,0-45.22-28.47-66.23-69.21-66.23s-69.19,21-69.21,66.23C94.7,306.88,136.29,313.77,163.92,313.77Z" transform="translate(-92.21 -21)"/><path class="cls-14" d="M163.92,231.19a2.49,2.49,0,0,1-2.43-1.91c-4.49-18.56-12.71-26.56-12.79-26.64a2.5,2.5,0,0,1,1.28-4.27,86.32,86.32,0,0,1,13.94-1,86.46,86.46,0,0,1,13.94,1,2.5,2.5,0,0,1,1.28,4.27c-.07.08-8.34,8.23-12.79,26.64a2.51,2.51,0,0,1-2.43,1.91Z" transform="translate(-92.21 -21)"/><path class="cls-14" d="M163.92,199.88a84.59,84.59,0,0,1,13.5,1s-8.79,8.38-13.5,27.86c-4.71-19.48-13.5-27.86-13.5-27.86a84.43,84.43,0,0,1,13.5-1m0-5a89.05,89.05,0,0,0-14.38,1,5,5,0,0,0-2.57,8.54h0a33.91,33.91,0,0,1,4.42,6,69.67,69.67,0,0,1,7.67,19.4,5,5,0,0,0,9.72,0c4.25-17.57,12-25.34,12.09-25.42a5,5,0,0,0-2.57-8.54,89.35,89.35,0,0,0-14.38-1Z" transform="translate(-92.21 -21)"/><path class="cls-11" d="M163.92,313.77c27.63,0,69.22-6.89,69.21-49.3,0-45.22-28.47-66.23-69.21-66.23s-69.19,21-69.21,66.23C94.7,306.88,136.29,313.77,163.92,313.77Z" transform="translate(-92.21 -21)"/><path class="cls-15" d="M155.88,209.67s-4-.72-4.87-6.31,5.09-12.13,13.67-5.65c0,0-.33-4.37,3.21-5.2s6.93,1.6,9,8.58" transform="translate(-92.21 -21)"/><g class="cls-16"><path class="cls-17" d="M143.36,256.09A11.07,11.07,0,1,1,132.29,245,11.07,11.07,0,0,1,143.36,256.09Z" transform="translate(-92.21 -21)"/><path class="cls-17" d="M206.61,256.09A11.07,11.07,0,1,1,195.54,245,11.06,11.06,0,0,1,206.61,256.09Z" transform="translate(-92.21 -21)"/></g><path class="cls-18" d="M154.94,247.93c0,3.23-2.2,5.85-4.92,5.85s-4.93-2.62-4.93-5.85,2.21-5.86,4.93-5.86S154.94,244.69,154.94,247.93Z" transform="translate(-92.21 -21)"/><path class="cls-18" d="M172.9,247.93c0,3.23,2.2,5.85,4.92,5.85s4.92-2.62,4.92-5.85-2.2-5.86-4.92-5.86S172.9,244.69,172.9,247.93Z" transform="translate(-92.21 -21)"/><path class="cls-19" d="M172.7,260s.12,2.37.16,3.4c.09,1.54.44,3.82-4.56,4.07l-1.86.09-1.85.1c-5,.25-4.89-2.05-5-3.6-.06-1-.18-3.38-.18-3.38" transform="translate(-92.21 -21)"/><path class="cls-11" d="M153.85,259.82s14.36,2.76,22.66-1.25" transform="translate(-92.21 -21)"/><path class="cls-11" d="M177.06,257.26s.38,1.16,1,1.49" transform="translate(-92.21 -21)"/><path class="cls-18" d="M166.74,247.93a2.9,2.9,0,1,1-2.82-2.26A2.58,2.58,0,0,1,166.74,247.93Z" transform="translate(-92.21 -21)"/><ellipse class="cls-20" cx="116.7" cy="303.39" rx="10" ry="13" transform="translate(-295.86 337.55) rotate(-78.73)"/><path class="cls-21" d="M121.1,311.68a14,14,0,0,0-1.21-4.48,7.08,7.08,0,0,0-6.56-4.49h-.18c-7.1,0-8.31,8.31-8.32,8.4l-.6-.08c0-.1,1.33-9.08,9.11-8.93s8.36,9.45,8.37,9.54Z" transform="translate(-92.21 -21)"/><path class="cls-22" d="M103.72,310.48c0-1.82,19.15-2.27,19.11.69,0,2.73.31,50.69.28,53.42s-19.83,2.49-19.8-.24S103.7,312.3,103.72,310.48Z" transform="translate(-92.21 -21)"/><path class="cls-23" d="M97.39,317.44c-3,4.51-2.92,34.72.42,40.68s27.49,4.42,29.81,1c3.24-4.75,3.4-37.45,0-41.59C123.79,312.82,100.16,313.28,97.39,317.44Z" transform="translate(-92.21 -21)"/><path class="cls-23" d="M97.39,317.44c-3,4.51-2.92,34.72.42,40.68s27.49,4.42,29.81,1c3.24-4.75,3.4-37.45,0-41.59C123.79,312.82,100.16,313.28,97.39,317.44Z" transform="translate(-92.21 -21)"/><path class="cls-24" d="M97.21,356.69a9.82,9.82,0,0,0,.41,1,62.42,62.42,0,0,0,14.57,1.86,68.41,68.41,0,0,0,16-1.74,9.45,9.45,0,0,0,.3-1A64.52,64.52,0,0,1,97.21,356.69Z" transform="translate(-92.21 -21)"/><path class="cls-24" d="M96.42,353.37c.06.35.12.69.19,1a61.8,61.8,0,0,0,15.77,2.17,67.7,67.7,0,0,0,16.6-1.87c.06-.32.11-.64.16-1A63.93,63.93,0,0,1,96.42,353.37Z" transform="translate(-92.21 -21)"/><path class="cls-24" d="M96,350.66c0,.34.08.67.13,1A60.59,60.59,0,0,0,112.41,354a67.77,67.77,0,0,0,17-2c0-.31.08-.64.11-1A63.81,63.81,0,0,1,96,350.66Z" transform="translate(-92.21 -21)"/><path class="cls-24" d="M95.65,347.27l.09,1a70.18,70.18,0,0,0,16.56,2.08,78.94,78.94,0,0,0,17.41-1.74c0-.31,0-.63.07-.95A74.14,74.14,0,0,1,95.65,347.27Z" transform="translate(-92.21 -21)"/><path class="cls-24" d="M95.43,344.08l.06.95a82.87,82.87,0,0,0,34.44.19c0-.32,0-.63,0-1A81.72,81.72,0,0,1,95.43,344.08Z" transform="translate(-92.21 -21)"/><path class="cls-24" d="M95.3,341.27c0,.31,0,.62,0,.93a98.2,98.2,0,0,0,34.71-.14l0-.93A97.85,97.85,0,0,1,95.3,341.27Z" transform="translate(-92.21 -21)"/><path class="cls-24" d="M95.22,337.85c0,.31,0,.61,0,.92a124.21,124.21,0,0,0,17.83,1.52,97.83,97.83,0,0,0,17-1.2v-.93C115.64,340.58,101.32,338.84,95.22,337.85Z" transform="translate(-92.21 -21)"/><path class="cls-24" d="M95.22,334.9c0,.31,0,.61,0,.92a164.52,164.52,0,0,0,16.8,1.07A135.47,135.47,0,0,0,130.1,336c0-.31,0-.61,0-.92A151.43,151.43,0,0,1,95.22,334.9Z" transform="translate(-92.21 -21)"/><path class="cls-24" d="M95.28,331.66c0,.3,0,.6,0,.91,3.41.39,9.29.93,16.33,1a134.47,134.47,0,0,0,18.44-1c0-.3,0-.61,0-.91A151.16,151.16,0,0,1,95.28,331.66Z" transform="translate(-92.21 -21)"/><path class="cls-24" d="M95.43,328.37c0,.3,0,.6-.05.91,3.56.28,9.59.68,16.56.77a175,175,0,0,0,17.94-.65l-.06-.9A212.13,212.13,0,0,1,95.43,328.37Z" transform="translate(-92.21 -21)"/><path class="cls-24" d="M95.64,325.66c0,.29-.06.6-.08.9,3.59.29,9.48.67,16.26.75a173.22,173.22,0,0,0,17.86-.63l-.09-.91A212.43,212.43,0,0,1,95.64,325.66Z" transform="translate(-92.21 -21)"/><path class="cls-24" d="M96,322.49c0,.29-.08.6-.12.91,3.69.17,9.6.39,16.23.47,5.54.07,11.58,0,17.23-.23,0-.31-.08-.61-.13-.91C116.92,323.3,102.78,322.8,96,322.49Z" transform="translate(-92.21 -21)"/><path class="cls-24" d="M96.53,319.7c-.07.29-.14.59-.2.91,7,0,21.08,0,32.55.29-.07-.32-.14-.63-.22-.91C117.34,319.67,103.51,319.68,96.53,319.7Z" transform="translate(-92.21 -21)"/><path class="cls-24" d="M128,318.2a3.27,3.27,0,0,0-.38-.63,2.91,2.91,0,0,0-.3-.31c-11-.42-22.8-.36-29.56-.28a2.15,2.15,0,0,0-.41.46,3.28,3.28,0,0,0-.26.46C103.9,317.81,116.49,317.73,128,318.2Z" transform="translate(-92.21 -21)"/><path class="cls-25" d="M105.23,338.08s-3.75-3.13-1.68-5.45c1.77-2,4.66,0,4.66,0s.65-4.16,3.21-4c2.13.12,2.8,3.42,2.8,3.42s3.19-2.27,4.76-.34c1.75,2.14-.56,5-.56,5s3.89,1.41,3.9,3.64c0,3.14-3.91,3.15-3.91,3.15a3.64,3.64,0,0,1,2.63,2.26c.32,1.11.73,5.71-5.38,5.86-5.73.13-5.14-4.54-5.14-4.54a6.81,6.81,0,0,1-5,4.47c-3.93.88-5.11-4.66-3.13-5.33,3.7-1.25,3.17-2.32,3.17-2.32s-4.49-.61-4.62-3.09C100.79,337.76,105.23,338.08,105.23,338.08Z" transform="translate(-92.21 -21)"/><path class="cls-26" d="M104.67,337.61s-3.75-3.12-1.68-5.45c1.77-2,4.66,0,4.66,0s.31-3.58,2.88-3.62,2.79,3.51,2.79,3.51,3.69-2.6,5.38-.78-1.07,4.85-1.07,4.85,4,1,4,3.54c0,2.78-3.74,3.35-3.74,3.35a3.16,3.16,0,0,1,2.34,2.14c.32,1.11,1,5.71-5.16,5.71-5.33,0-5.07-4.27-5.07-4.27a7.5,7.5,0,0,1-5.26,4.27c-3.93.88-4.84-4.46-2.86-5.13,3.7-1.24,3.45-2.84,3.45-2.84s-4.51-.35-4.63-2.83C100.5,337,104.67,337.61,104.67,337.61Z" transform="translate(-92.21 -21)"/><path class="cls-27" d="M116.48,345.34s.11,1.25-.36,1.64-2.19.43-2.47-.09a34.48,34.48,0,0,1-.56-6.17l4.48.17.29-1.89h-6.6l0-7.75-1.58,0,.2,7.77h-7.24l.18,1.49,5.23.15a6.49,6.49,0,0,1-5.17,6.37l.95,1.59a8.51,8.51,0,0,0,5.46-7.94l2.54.06c0,1.82.06,6.43.38,7.37s4.6.93,5.08.19c.63-.95.38-3.08.38-3.08Z" transform="translate(-92.21 -21)"/><polygon class="cls-27" points="16.33 315.8 12.95 311.57 11.63 312.79 15.29 316.82 16.33 315.8"/><polygon class="cls-27" points="24.95 312.95 23.66 311.7 20.18 315.85 21.19 316.89 24.95 312.95"/><path class="cls-28" d="M124.48,360.76c.78-27.94-1.8-45-1.8-45,.76,26.08-.18,41.07-.53,45.52C123,361.14,123.78,361,124.48,360.76Z" transform="translate(-92.21 -21)"/><path class="cls-29" d="M127.67,317.55c-.89-1.09-2.83-1.91-5.32-2.47h0l-.44-.1-.13,0-.46-.09-.13,0-.56-.09-.14,0-.54-.08h0c-9-2.09-19.75.57-22.5,2.79-1.71,1.37-2.43,22.35-1.83,27.14.35,6.43,1,11.3,2.25,13.54,3.35,5.95,27.49,4.42,29.81,1C130.87,354.39,131,321.69,127.67,317.55Z" transform="translate(-92.21 -21)"/><path class="cls-26" d="M122.32,361.48h0a.46.46,0,0,1-.43-.48c1.14-19.93,0-45.58,0-45.83a.46.46,0,1,1,.91,0c0,.25,1.15,25.94,0,45.92A.45.45,0,0,1,122.32,361.48Z" transform="translate(-92.21 -21)"/><path class="cls-26" d="M100.13,360.44a.46.46,0,0,1-.45-.41c-.23-2.54-.42-5.09-.56-7.62a324.92,324.92,0,0,1,.12-36.57.44.44,0,0,1,.48-.42.47.47,0,0,1,.43.49,312.84,312.84,0,0,0,.44,44,.46.46,0,0,1-.41.5Z" transform="translate(-92.21 -21)"/></g></g></svg>