<svg id="레이어_1" data-name="레이어 1" xmlns="http://www.w3.org/2000/svg" viewBox="0 0 266.17 383.81"><defs><style>.cls-1{fill:#86c2bb;}.cls-2{fill:#cfe9e8;}.cls-3{fill:#f6d9ac;}.cls-4{fill:#9bc1be;}.cls-5{fill:#3c3d3d;}.cls-16,.cls-6{fill:#eb7c66;}.cls-10,.cls-11,.cls-12,.cls-13,.cls-17,.cls-6,.cls-7{stroke:#0a0305;}.cls-10,.cls-11,.cls-12,.cls-13,.cls-14,.cls-17,.cls-6,.cls-7,.cls-9{stroke-linecap:round;stroke-linejoin:round;stroke-width:3px;}.cls-7{fill:#7d473f;}.cls-8{fill:#fff;}.cls-11,.cls-14,.cls-9{fill:none;}.cls-9{stroke:#91bd28;}.cls-10{fill:#acdaf1;}.cls-12{fill:#eb6953;}.cls-13{fill:#91bd28;}.cls-14{stroke:#6a3732;}.cls-15{fill:#0a0305;}.cls-17{fill:#ed7300;}.cls-18{fill:#f9c145;}.cls-19,.cls-24{fill:#f4ac26;}.cls-20{fill:#f19000;}.cls-21{fill:#fae69c;}.cls-22{fill:#f4a400;}.cls-23{fill:#311230;}.cls-24{stroke:#040000;stroke-miterlimit:10;stroke-width:4px;}</style></defs><path class="cls-1" d="M92.37,32.79h41a0,0,0,0,1,0,0V37a13.3,13.3,0,0,1-13.3,13.3h-14.4A13.3,13.3,0,0,1,92.37,37V32.79A0,0,0,0,1,92.37,32.79Z"/><path class="cls-2" d="M159.77,69.22s5.54,56.87,27.14,77.27L198,129.26s-22-17.35-26.36-63.86A15,15,0,0,0,167.33,58c-3.8-3.5-9.89.12-8.83,5.18Z" transform="translate(-50.64 -2)"/><path class="cls-1" d="M163.46,74.87h0a8.73,8.73,0,0,0,8.77-8.7l0-5a8.73,8.73,0,0,0-8.7-8.77h0a8.73,8.73,0,0,0-8.76,8.7l0,5A8.73,8.73,0,0,0,163.46,74.87Z" transform="translate(-50.64 -2)"/><rect class="cls-2" x="260.46" y="169.33" width="36.52" height="54.43" transform="translate(171.34 -141.75) rotate(45.23)"/><path class="cls-1" d="M285.53,217.59h0a8.74,8.74,0,0,0,12.35,0l3.54-3.52a8.72,8.72,0,0,0,.05-12.35h0a8.73,8.73,0,0,0-12.34-.05l-3.55,3.52A8.74,8.74,0,0,0,285.53,217.59Z" transform="translate(-50.64 -2)"/><path class="cls-2" d="M197.47,303.38l-2,20.13a11.91,11.91,0,0,0-6.86,11.07h79.84s-.25-10.82-8.55-12.33l-4-81.28Z" transform="translate(-50.64 -2)"/><path class="cls-2" d="M239.13,95.06H215v20a12.07,12.07,0,0,0,12.08,12.07h0A12.07,12.07,0,0,0,239.13,115Z" transform="translate(-50.64 -2)"/><path class="cls-1" d="M239.51,84.92a21.52,21.52,0,0,0-24.91,0,12.55,12.55,0,0,0-2.27,18.55,4.93,4.93,0,0,0,6.38,1,42,42,0,0,0,6.28-5,3,3,0,0,1,4.14,0,42.33,42.33,0,0,0,6.27,5,4.86,4.86,0,0,0,6.27-.86h0C246.62,98,245.74,89.09,239.51,84.92Z" transform="translate(-50.64 -2)"/><path class="cls-1" d="M263.26,334.58h-69.6a15.47,15.47,0,0,0-15.46,15.47v14.19H278.72V350.05A15.47,15.47,0,0,0,263.26,334.58Z" transform="translate(-50.64 -2)"/><path class="cls-1" d="M281.36,364.24H175.56a12.32,12.32,0,0,0-12.32,12.32V380H293.68v-3.47A12.32,12.32,0,0,0,281.36,364.24Z" transform="translate(-50.64 -2)"/><path class="cls-3" d="M173.81,19a49.38,49.38,0,0,1-8.38-11.7,2.17,2.17,0,0,0-3.84,0A49.38,49.38,0,0,1,153.21,19s-9.08,8.35,3,15.63h14.64C182.89,27.38,173.81,19,173.81,19Z" transform="translate(-50.64 -2)"/><path class="cls-4" d="M236.35,304.5A20.25,20.25,0,0,0,246,291.34l1-4.66a20.25,20.25,0,0,1,8.34-12.33l2.05-1.41L256,243.43l-2.77.37-55.73,59.58-2,20.13s-.1,2.22,3.8,3Z" transform="translate(-50.64 -2)"/><path class="cls-1" d="M257.5,184.78l-1,45.44a16.35,16.35,0,0,0,2,8.27l0,0a7.44,7.44,0,0,1,.88,4.21l0,.4a12.3,12.3,0,0,1-5.33,9L224.82,272l10.75-89.27Z" transform="translate(-50.64 -2)"/><path class="cls-1" d="M194.63,258.92s-2.9,31.3-5.08,50.24a3.86,3.86,0,0,0,5.85,3.74l33.54-20.4a16.47,16.47,0,0,0,7.89-13.2L240,221Z" transform="translate(-50.64 -2)"/><path class="cls-1" d="M202.22,125.57l5.27,5.16a25.71,25.71,0,0,0,18,7.34h20.29a15.29,15.29,0,0,1,15.29,15.28V182.9a9.61,9.61,0,0,1-2.61,6.57l-13.58,14.42V219A14.45,14.45,0,0,1,240,229.82l-43,37.93a5,5,0,0,1-8.35-3.77V213.44a12.77,12.77,0,0,1,2.48-7.56l3.18-4.31v-24l-8.85-21.12a10.48,10.48,0,0,1-2.52-.39,6.64,6.64,0,0,1-3.37-10.33l14.39-19.53A5.53,5.53,0,0,1,202.22,125.57Z" transform="translate(-50.64 -2)"/><path class="cls-2" d="M245.76,138.07H240l-45.79,63.5-3.18,4.31a12.77,12.77,0,0,0-2.48,7.56V264a5,5,0,0,0,8.35,3.77l43-37.93A14.45,14.45,0,0,0,244.86,219V208.55a11.75,11.75,0,0,1,3.19-8.05l10.39-11a9.61,9.61,0,0,0,2.61-6.57V153.35A15.29,15.29,0,0,0,245.76,138.07Z" transform="translate(-50.64 -2)"/><path class="cls-4" d="M171.65,65.4A15,15,0,0,0,167.33,58c-3.8-3.5-9.89.12-8.83,5.18l1.27,6.06s1,10,3.7,23.13a28.76,28.76,0,0,0,11.48-7A143.25,143.25,0,0,1,171.65,65.4Z" transform="translate(-50.64 -2)"/><path class="cls-4" d="M196.94,267.75l43-37.93A14.45,14.45,0,0,0,244.86,219V208.55a11.75,11.75,0,0,1,3.19-8.05l10.39-11a9.61,9.61,0,0,0,2.61-6.57V168.15l-21.62,21A27.76,27.76,0,0,0,231.09,207a27.81,27.81,0,0,1-8.81,18.29l-33.69,31.27V264A5,5,0,0,0,196.94,267.75Z" transform="translate(-50.64 -2)"/><path class="cls-5" d="M285.21,158.51l-20,19.83v-25a19.48,19.48,0,0,0-19.46-19.46H225.47a21.43,21.43,0,0,1-15.06-6.14l-5.26-5.16a9.74,9.74,0,0,0-7.58-2.74,9.15,9.15,0,0,0-2.21.46c-6.17-7.83-16-24.28-19.16-52.11a13.29,13.29,0,0,0,.21-2l0-5a12.77,12.77,0,0,0-1-5,14.78,14.78,0,0,0,12.73-14.59v-11H180.3a11.75,11.75,0,0,0,.91-3.44c.61-6.06-3.77-10.46-4.52-11.16a45.31,45.31,0,0,1-7.58-10.65,6.35,6.35,0,0,0-11.2,0A45.21,45.21,0,0,1,150.38,16c-.53.49-5.2,5-4.57,11.21a11.75,11.75,0,0,0,.91,3.44h-7.89v11a14.77,14.77,0,0,0,12.76,14.59,12.83,12.83,0,0,0-1,4.84l0,5A12.89,12.89,0,0,0,156.52,77c2,14.19,7.74,45.49,20.88,64.64l-1.25,1.69a11,11,0,0,0-1.53,10.09,10.59,10.59,0,0,0,7.15,6.75l.69.17,7.61,18.15v21.74l-2.36,3.21a16.82,16.82,0,0,0-3.3,10v.06h0V264a9.08,9.08,0,0,0,4.78,8c-1.05,10.78-2.54,25.81-3.79,36.65a7.84,7.84,0,0,0,6.46,8.75l-.35,3.49a16,16,0,0,0-7,11.75A19.64,19.64,0,0,0,174,350.05v10.17a16.46,16.46,0,0,0-15,16.34v7.65h138.8v-7.65a16.46,16.46,0,0,0-15-16.34V350.05a19.67,19.67,0,0,0-10.42-17.34c-.53-4.6-2.79-10.87-8.57-13.54l-3.35-67.66a16.47,16.47,0,0,0,2.95-8l0-.39a11.43,11.43,0,0,0-1.4-6.65,12.36,12.36,0,0,1-1.51-6.16l.17-7.26,11.43,11.53,12.45-12.35a12.85,12.85,0,0,0,7,2.11h.05a12.8,12.8,0,0,0,9.09-3.75l3.55-3.51A12.94,12.94,0,0,0,306.14,201l10.67-10.59ZM156.12,22a48.8,48.8,0,0,0,7.39-9.62A48.8,48.8,0,0,0,170.9,22l.08.08s2.13,2.13,1.92,4.22c-.17,1.62-1.73,3.08-3.3,4.15H157.41c-1.55-1.07-3.11-2.52-3.28-4.12C153.89,24.23,156,22.1,156.12,22Zm89.64,120.21a11.12,11.12,0,0,1,11.11,11.11V182.9a5.36,5.36,0,0,1-1.47,3.7l-2.17,2.31L245,197.64a16.33,16.33,0,0,0-2.06,2.79,16.11,16.11,0,0,0-1.43,3.2,15.91,15.91,0,0,0-.84,4.91V219a10.25,10.25,0,0,1-3.48,7.71l-3,2.68-9.42,8.3-30.57,27a.79.79,0,0,1-.91.14.78.78,0,0,1-.5-.78v-50.6a8.54,8.54,0,0,1,1.67-5l4-5.42v-.11l43.75-60.59Zm-12,116.22-.14,2.53-.56,10.44-.11.12.11-.07-.41,7.59a12.27,12.27,0,0,1-5.89,9.86l-23.36,14.21L193.78,309c.31-2.73.64-5.73,1-8.83,1-9.41,2-19.89,2.81-27.9a9.14,9.14,0,0,0,2.15-1.38l23.54-20.76,9.41-8.3,2.09-1.84ZM168.05,66.15a4.35,4.35,0,0,1-.33,1.66,4.86,4.86,0,0,1-4.22,2.88h0a4.56,4.56,0,0,1-4.54-4.57l0-5a4.56,4.56,0,0,1,4.55-4.53h0a4.56,4.56,0,0,1,4.53,4.57ZM147.18,41.66V39h32.65v2.69a6.46,6.46,0,0,1-6.45,6.45H153.63A6.47,6.47,0,0,1,147.18,41.66Zm18.1,37.21a12.59,12.59,0,0,0,3.81-1.16c4.32,25,13.6,40.26,19.93,48.11l-6.35,8.62C172.58,118.1,167.46,92.8,165.28,78.87Zm24,76-1.1-2.5h-.05l-1.08,0-1.58,0a6.88,6.88,0,0,1-1.45-.24,2.16,2.16,0,0,1-1.47-1.43,2.58,2.58,0,0,1,.33-2.32s0,0,0-.07l14.38-19.53a1.36,1.36,0,0,1,1-.55h.11a1.35,1.35,0,0,1,1,.39l2.52,2.46,2.75,2.7a29.71,29.71,0,0,0,20.9,8.52h6.41l-33.45,46.39V176.77Zm100.22,221h-122a8.15,8.15,0,0,1,8.11-7.43h105.8A8.15,8.15,0,0,1,289.47,375.85Zm-14.93-15.79H182.38v-10a11.3,11.3,0,0,1,11.27-11.29h69.62a11.3,11.3,0,0,1,11.27,11.29Zm-11.2-29.66H193.81a7.45,7.45,0,0,1,3.21-3l2.34-.94,1.18-11.77,30.57-18.6a20.66,20.66,0,0,0,9.9-16.55l.74-13.94,10.77-7.32,3.35,67.51,3.26.59C261.37,326.77,262.63,328.58,263.34,330.4Zm-9.87-93a20.57,20.57,0,0,0,1.38,3.16,3.22,3.22,0,0,1,.37,1.83l0,.39a8.08,8.08,0,0,1-3.52,6l-9.36,6.36.33-6.12.9-16.81A18.59,18.59,0,0,0,249,219V208.54a7.53,7.53,0,0,1,2.05-5.17l1.85-2,0,.9,0,.92-.27,11.6-.35,15.3A20.68,20.68,0,0,0,253.47,237.39Zm18.81-14.62-11.21-11.3.4-17.64,23.69-23.5,19.84,20-5.5,5.45a13,13,0,0,0-4.17-.76h-.05a12.82,12.82,0,0,0-9.1,3.75l-3.54,3.51a12.89,12.89,0,0,0-3.09,13.29Zm27.55-14.83a4.45,4.45,0,0,1-1.35,3.21l-3.54,3.52a4.54,4.54,0,0,1-3.21,1.32h0a4.38,4.38,0,0,1-.61-.12,4.5,4.5,0,0,1-2.57-7.67l3.54-3.51a4.54,4.54,0,0,1,3.21-1.32h0a4.52,4.52,0,0,1,3.22,1.34,4.47,4.47,0,0,1,1.2,2.62A4.38,4.38,0,0,1,299.83,207.94Z" transform="translate(-50.64 -2)"/><path class="cls-5" d="M193.84,90.14l-.14,8.35,11.29.2a17,17,0,0,0,3.69,7.49,9,9,0,0,0,1.64,1.46V115a16.26,16.26,0,0,0,32.51,0v-7.33a9.13,9.13,0,0,0,1.5-1.36,16.94,16.94,0,0,0,3.83-7.66l11.29-.2-.14-8.35-11.51.2a16.24,16.24,0,0,0-3.86-6.71L252,71.54l-6.95-4.64-8.11,12.17a26.1,26.1,0,0,0-6.19-1.89V61.35H222.4V77.18a26.1,26.1,0,0,0-6.19,1.89L208.1,66.9l-6.95,4.64,8,12.08a16.37,16.37,0,0,0-3.85,6.72ZM234.47,115a7.9,7.9,0,0,1-15.79,0v-6.22a8.8,8.8,0,0,0,1.81-.86,45.23,45.23,0,0,0,6.08-4.73,45.38,45.38,0,0,0,6.1,4.73,9.13,9.13,0,0,0,1.8.83Zm2.24-26.64a7.83,7.83,0,0,1,2.35,2.48A8.22,8.22,0,0,1,240.13,94a8.65,8.65,0,0,1-2.08,6.84.68.68,0,0,1-.88.1,38.59,38.59,0,0,1-5.63-4.49,7.14,7.14,0,0,0-9.92,0,38.85,38.85,0,0,1-5.64,4.5.79.79,0,0,1-1-.18,8.72,8.72,0,0,1-2-6.81,8.1,8.1,0,0,1,1.08-3.06,7.69,7.69,0,0,1,2.34-2.48A17.41,17.41,0,0,1,236.71,88.4Z" transform="translate(-50.64 -2)"/><path class="cls-6" d="M102.67,306.42s-13.11-3.13-28.34-17.84C64.23,278.82,62.55,270,70,264.81c7.86-5.5,11.91.68,11.91.68" transform="translate(-50.64 -2)"/><path class="cls-7" d="M112.41,301.6c-3.13,2.32-7.22,7.47-7.22,7.47s-11.67-1-25.34-12.69C69.25,287.32,68,283.17,68,283.17a36.15,36.15,0,0,1,12.52-10.48" transform="translate(-50.64 -2)"/><path class="cls-7" d="M169.06,295.78c3.89-.22,10.13-2.29,10.13-2.29s9.21,7.22,14.24,24.5c3.9,13.39,2.7,17.56,2.7,17.56a36.24,36.24,0,0,1-16.22,1.91" transform="translate(-50.64 -2)"/><path class="cls-6" d="M134,350.88s0,6-.66,19.81c-.63,13-5.2,13.62-8.06,13.62H110.65c-2.35,0-11.63-.23-11.63-9.35,0-9,8.66-9.18,8.66-9.18l2.78-17.27" transform="translate(-50.64 -2)"/><path class="cls-8" d="M108.56,360.34l-.88,5.44S99,366,99,375c0,9.12,9.28,9.35,11.63,9.35h14.67c2.86,0,7.43-.63,8.06-13.62.15-3,.26-5.62.35-7.9A125.49,125.49,0,0,1,108.56,360.34Z" transform="translate(-50.64 -2)"/><path class="cls-9" d="M108.57,364.78s5.39,3.43,25,3.09" transform="translate(-50.64 -2)"/><path class="cls-10" d="M107.68,365.78a13.84,13.84,0,0,1,3.49.53" transform="translate(-50.64 -2)"/><path class="cls-11" d="M134,350.88s0,6-.66,19.81c-.63,13-5.2,13.62-8.06,13.62H110.65c-2.35,0-11.63-.23-11.63-9.35,0-9,8.66-9.18,8.66-9.18l2.78-17.27" transform="translate(-50.64 -2)"/><path class="cls-11" d="M109,360s9.06,2.91,24.77,2.87" transform="translate(-50.64 -2)"/><path class="cls-6" d="M154.37,350.88s0,6,.66,19.81c.63,13,5.2,13.62,8.07,13.62h14.66c2.36,0,11.63-.23,11.64-9.35,0-9-8.67-9.18-8.67-9.18L178,348.51" transform="translate(-50.64 -2)"/><path class="cls-8" d="M179.86,360.34l.87,5.44s8.67.21,8.67,9.18c0,9.12-9.28,9.35-11.64,9.35H163.1c-2.87,0-7.44-.63-8.07-13.62-.14-3-.25-5.62-.34-7.9A125.69,125.69,0,0,0,179.86,360.34Z" transform="translate(-50.64 -2)"/><path class="cls-9" d="M179.85,364.78s-5.39,3.43-25,3.09" transform="translate(-50.64 -2)"/><path class="cls-10" d="M180.73,365.78a13.71,13.71,0,0,0-3.48.53" transform="translate(-50.64 -2)"/><path class="cls-11" d="M154.37,350.88s0,6,.66,19.81c.63,13,5.2,13.62,8.07,13.62h14.66c2.36,0,11.63-.23,11.64-9.35,0-9-8.67-9.18-8.67-9.18L178,348.51" transform="translate(-50.64 -2)"/><path class="cls-11" d="M179.44,360s-9.05,2.91-24.76,2.87" transform="translate(-50.64 -2)"/><path class="cls-7" d="M178.15,292.86s6.88,20.48,6.76,55.84c0,0-15.3,6.73-40.7,6.73s-40.7-6.73-40.7-6.73c-.12-35.36,6.76-55.84,6.76-55.84" transform="translate(-50.64 -2)"/><path class="cls-12" d="M130.56,300a69.24,69.24,0,0,0,0,15.77" transform="translate(-50.64 -2)"/><path class="cls-13" d="M134,315.75a3.48,3.48,0,1,1-3.48-3.47A3.48,3.48,0,0,1,134,315.75Z" transform="translate(-50.64 -2)"/><path class="cls-12" d="M157.76,300a69.24,69.24,0,0,1,0,15.77" transform="translate(-50.64 -2)"/><path class="cls-13" d="M154.28,315.75a3.48,3.48,0,1,0,3.48-3.47A3.48,3.48,0,0,0,154.28,315.75Z" transform="translate(-50.64 -2)"/><line class="cls-14" x1="61.97" y1="315.66" x2="61.74" y2="318.07"/><line class="cls-14" x1="125.17" y1="315.66" x2="125.4" y2="318.07"/><path class="cls-7" d="M117.72,326.06s-1,10.53-5.23,16.67" transform="translate(-50.64 -2)"/><path class="cls-7" d="M170.69,326.06s1,10.53,5.23,16.67" transform="translate(-50.64 -2)"/><path class="cls-6" d="M72.34,216s21.88-63.31,35.09-64.91,32.4,37.61,32.4,37.61" transform="translate(-50.64 -2)"/><path class="cls-8" d="M85.3,210.14s14.9-43.13,23.9-44.22,22.07,25.62,22.07,25.62" transform="translate(-50.64 -2)"/><path class="cls-6" d="M216.08,216S194.19,152.65,181,151.05s-32.4,37.61-32.4,37.61" transform="translate(-50.64 -2)"/><path class="cls-8" d="M203.12,210.14s-14.91-43.13-23.9-44.22-22.08,25.62-22.08,25.62" transform="translate(-50.64 -2)"/><path class="cls-7" d="M144.21,300c75.84,0,86.42-53,86.42-53-2-.24-7.57-75.14-86.42-75.14S59.76,246.74,57.8,247C57.8,247,68.37,300,144.21,300Z" transform="translate(-50.64 -2)"/><path class="cls-6" d="M144.21,300c56.29,0,67.76-35.22,68.88-44.16,1.85-14.76-20.75-54.59-68.88-54.59s-70.73,39.83-68.88,54.59C76.45,264.76,87.92,300,144.21,300Z" transform="translate(-50.64 -2)"/><path class="cls-15" d="M132.61,240.15c0,3.77-2.21,6.83-4.94,6.83s-4.94-3.06-4.94-6.83,2.21-6.83,4.94-6.83S132.61,236.38,132.61,240.15Z" transform="translate(-50.64 -2)"/><path class="cls-15" d="M155.81,240.15c0,3.77,2.21,6.83,4.94,6.83s4.94-3.06,4.94-6.83-2.21-6.83-4.94-6.83S155.81,236.38,155.81,240.15Z" transform="translate(-50.64 -2)"/><path class="cls-16" d="M170.88,234.94s-6.87,1.6-26.67,1.6-26.68-1.6-26.68-1.6,3.22-5.25,26.68-5.25S170.88,234.94,170.88,234.94Z" transform="translate(-50.64 -2)"/><path class="cls-17" d="M170.88,234.94s-6.87,1.6-26.67,1.6-26.68-1.6-26.68-1.6" transform="translate(-50.64 -2)"/><path class="cls-17" d="M144.21,247.66c1.93-.87,1.1-1.36,0-1.36S142.28,246.79,144.21,247.66Z" transform="translate(-50.64 -2)"/><line class="cls-12" x1="93.57" y1="245.73" x2="93.57" y2="249.11"/><path class="cls-11" d="M131,251.38s1,5.21,13.23-.62" transform="translate(-50.64 -2)"/><path class="cls-11" d="M157.44,251.38s-1,5.21-13.23-.62" transform="translate(-50.64 -2)"/><path class="cls-15" d="M170,245.25a1.05,1.05,0,1,1-1.05-1.05A1,1,0,0,1,170,245.25Z" transform="translate(-50.64 -2)"/><path class="cls-18" d="M78.89,270.74,59.17,273h0a14.56,14.56,0,0,0,.76-6.61l-3.57-30.58a18.07,18.07,0,0,0-4.2-9.66h0l21.24-2.48h0a29.83,29.83,0,0,0-.43,9.52l3,25.36a51.48,51.48,0,0,0,3,12.15Z" transform="translate(-50.64 -2)"/><path class="cls-19" d="M71.49,230.08l1.5-.17a28.51,28.51,0,0,1,.59-4.69l-1.1.13-1.94.23-7.58.88-10.6,1.24v0a18.11,18.11,0,0,1,4.19,9.65l.88,7.51.77.59a3.83,3.83,0,0,0,3.42-4.24l-.36-3a.76.76,0,0,1,.67-.84h0a2.22,2.22,0,0,1,2.5,1.93l3.64,31.19,9.1-1.06L74.79,262l-3.25-27.91A19.83,19.83,0,0,1,71.49,230.08Z" transform="translate(-50.64 -2)"/><path class="cls-20" d="M71.49,230.08l1.5-.17a28.51,28.51,0,0,1,.59-4.69l-1.1.13-1.94.23a32.63,32.63,0,0,1-1.33,4.77,26.61,26.61,0,0,0,.16,4l2.36,20.25a109.49,109.49,0,0,0,2.86,15.12l2.6-.3L74.79,262l-3.25-27.91A19.83,19.83,0,0,1,71.49,230.08Z" transform="translate(-50.64 -2)"/><path class="cls-21" d="M61.45,266.26a16.15,16.15,0,0,1-.21,5l1.66-.2a20.23,20.23,0,0,0,0-5l-2.08-17.84a1.5,1.5,0,0,0-1.65-1.35Z" transform="translate(-50.64 -2)"/><path class="cls-22" d="M57.87,217.11a4.54,4.54,0,0,1,8-.82,7.4,7.4,0,0,0,1.43-5.71c-.54-4.55-8-16-8-16s-4.65,12.85-4.12,17.4A7.28,7.28,0,0,0,57.87,217.11Z" transform="translate(-50.64 -2)"/><path class="cls-21" d="M59.86,215.4a2.05,2.05,0,0,1,3.6-.37,3.34,3.34,0,0,0,.64-2.58c-.24-2.06-3.62-7.23-3.62-7.23s-2.1,5.81-1.86,7.87A3.28,3.28,0,0,0,59.86,215.4Z" transform="translate(-50.64 -2)"/><path class="cls-23" d="M66,217.81h-.24a1.57,1.57,0,0,1-1.2-.66,3,3,0,0,0-5.3.55,1.53,1.53,0,0,1-1,.88,1.57,1.57,0,0,1-1.33-.26,9,9,0,0,1-3.33-6.15c-.55-4.74,3.54-18.05,4-19.55a1.53,1.53,0,0,1,2.77-.32c.8,1.35,7.84,13.36,8.39,18.1A8.79,8.79,0,0,1,67,217.26,1.53,1.53,0,0,1,66,217.81Zm-4.65-5a6.07,6.07,0,0,1,4.12,1,7.06,7.06,0,0,0,.26-3.06c-.32-2.71-3.75-9.35-6.23-13.81-1.38,4.91-3.19,12.16-2.87,14.87a6.32,6.32,0,0,0,1,2.87A6.1,6.1,0,0,1,61.36,212.81Z" transform="translate(-50.64 -2)"/><path class="cls-18" d="M52.18,226.38l1.66,14.22a2.31,2.31,0,0,0,2.54,2h0a2.29,2.29,0,0,0,2-2.54L58,237a2.29,2.29,0,0,1,2-2.54h0a2.29,2.29,0,0,0,2-2.54l-.18-1.52a2.31,2.31,0,0,1,2-2.54l8.65-1a2.74,2.74,0,0,0,2.41-3h0a2.76,2.76,0,0,0-3.58-2.3l-.26.08A41.43,41.43,0,0,1,63,223.38h0a31.18,31.18,0,0,1-6.76.05l-1.21-.12A2.76,2.76,0,0,0,52.18,226.38Z" transform="translate(-50.64 -2)"/><path class="cls-23" d="M74.4,227.82a4.27,4.27,0,0,0,.13-7.27,4.24,4.24,0,0,0-3.63-.47l-.26.08a40.44,40.44,0,0,1-6.7,1.55l-.35-3a1.53,1.53,0,1,0-3,.35l.34,3a31,31,0,0,1-4.49-.11l-1.28-.13a4.29,4.29,0,0,0-3.34,1.36,4.24,4.24,0,0,0-1.12,3.41l1.66,14.22a3.81,3.81,0,0,0,3.46,3.37l2.63,22.47a13,13,0,0,1-.69,5.91,1.53,1.53,0,0,0,1.61,2l19.73-2.3a1.51,1.51,0,0,0,1.12-.72,1.52,1.52,0,0,0,.13-1.33,49.42,49.42,0,0,1-2.87-11.79l-3-25.36A27.7,27.7,0,0,1,74.4,227.82ZM53.7,226.2a1.23,1.23,0,0,1,.32-1,1.29,1.29,0,0,1,.73-.38h.15l1.21.12a32.9,32.9,0,0,0,7.09,0,43.94,43.94,0,0,0,8.39-1.83l.25-.09a1.21,1.21,0,0,1,1,.14,1.22,1.22,0,0,1-.52,2.25l-8.64,1a3.83,3.83,0,0,0-3.35,4.24l.17,1.52a.76.76,0,0,1-.67.84,3.84,3.84,0,0,0-3.35,4.24l.36,3a.77.77,0,0,1-1.52.18Zm7.54,45.06a16.15,16.15,0,0,0,.21-5l-2.7-23.18a3.8,3.8,0,0,0,1.16-3.19l-.35-3a.76.76,0,0,1,.67-.84,3.84,3.84,0,0,0,3.35-4.24l-.18-1.51a.76.76,0,0,1,.67-.85l7.25-.85a30.24,30.24,0,0,0,.14,4.85l3,25.36a52,52,0,0,0,2.39,10.67Z" transform="translate(-50.64 -2)"/><path class="cls-21" d="M63.38,226.41a35.48,35.48,0,0,1-7.57.08l-1.17-.11a.76.76,0,1,1,.14-1.52L56,225a38.7,38.7,0,0,0,15.62-1.89L72,223a.77.77,0,1,1,.18,1.52l-.14.05A45,45,0,0,1,63.38,226.41Z" transform="translate(-50.64 -2)"/><path class="cls-21" d="M56.21,241.09a.76.76,0,0,1-.85-.67l-1.06-9.1a.77.77,0,1,1,1.52-.18l1.06,9.1A.76.76,0,0,1,56.21,241.09Z" transform="translate(-50.64 -2)"/><rect class="cls-24" x="170.48" y="288.81" width="32.7" height="46.82" transform="translate(253.78 -34.11) rotate(49.75)"/><path class="cls-6" d="M206.56,320.7c.31,1.86-2.21,3.32-3.7,5.12-4.51,5.41-9,6.66-11.72,3.07-3.45-4.49,2.27-7.8,2.27-7.8S204.92,310.67,206.56,320.7Z" transform="translate(-50.64 -2)"/></svg>