<svg id="레이어_1" data-name="레이어 1" xmlns="http://www.w3.org/2000/svg" viewBox="0 0 383.92 315.62"><defs><style>.cls-1,.cls-11{fill:#eb7c66;}.cls-1,.cls-12,.cls-2,.cls-5,.cls-6,.cls-7,.cls-8{stroke:#0a0305;}.cls-1,.cls-12,.cls-2,.cls-4,.cls-5,.cls-6,.cls-7,.cls-8,.cls-9{stroke-linecap:round;stroke-linejoin:round;stroke-width:3px;}.cls-2{fill:#7d473f;}.cls-3{fill:#fff;}.cls-4,.cls-6,.cls-9{fill:none;}.cls-4{stroke:#91bd28;}.cls-5{fill:#acdaf1;}.cls-7{fill:#eb6953;}.cls-8{fill:#91bd28;}.cls-9{stroke:#6a3732;}.cls-10{fill:#0a0305;}.cls-12{fill:#ed7300;}.cls-13{fill:#ea6268;}.cls-14{fill:#d6383e;}.cls-15{fill:#3c3d3d;}</style></defs><path class="cls-1" d="M164.84,187s-9.12,9.66-13.73,30c-3.06,13.51.33,21.71,9.23,22,9.46.29,9.46-7,9.46-7" transform="translate(-8.04 -41.44)"/><path class="cls-2" d="M175.48,185.74c-3.83-.22-10-2.26-10-2.26s-9.09,7.12-14,24.16c-3.85,13.21-2.67,17.32-2.67,17.32a35.7,35.7,0,0,0,16,1.88" transform="translate(-8.04 -41.44)"/><path class="cls-1" d="M235.15,187s9.12,9.66,13.73,30c3.06,13.51-.33,21.71-9.22,22-9.47.29-9.46-7-9.46-7" transform="translate(-8.04 -41.44)"/><path class="cls-2" d="M224.51,185.74c3.84-.22,10-2.26,10-2.26s9.09,7.12,14.05,24.16c3.84,13.21,2.66,17.32,2.66,17.32a35.7,35.7,0,0,1-16,1.88" transform="translate(-8.04 -41.44)"/><path class="cls-1" d="M190,240.09s0,5.93-.65,19.53c-.62,12.81-5.13,13.44-7.95,13.44H166.9c-2.32,0-11.47-.23-11.47-9.23,0-8.84,8.54-9,8.54-9l2.74-17" transform="translate(-8.04 -41.44)"/><path class="cls-3" d="M164.84,249.41l-.87,5.37s-8.55.21-8.54,9c0,9,9.15,9.23,11.47,9.23h14.47c2.82,0,7.33-.63,7.95-13.44.14-3,.25-5.54.34-7.79A123.68,123.68,0,0,1,164.84,249.41Z" transform="translate(-8.04 -41.44)"/><path class="cls-4" d="M164.84,253.79s5.32,3.39,24.64,3" transform="translate(-8.04 -41.44)"/><path class="cls-5" d="M164,254.78a13.65,13.65,0,0,1,3.44.52" transform="translate(-8.04 -41.44)"/><path class="cls-6" d="M190,240.09s0,5.93-.65,19.53c-.62,12.81-5.13,13.44-7.95,13.44H166.9c-2.32,0-11.47-.23-11.47-9.23,0-8.84,8.54-9,8.54-9l2.74-17" transform="translate(-8.04 -41.44)"/><path class="cls-6" d="M165.24,249s8.94,2.87,24.43,2.83" transform="translate(-8.04 -41.44)"/><path class="cls-1" d="M210,240.09s0,5.93.66,19.53c.62,12.81,5.12,13.44,7.95,13.44h14.46c2.33,0,11.48-.23,11.48-9.23,0-8.84-8.55-9-8.55-9l-2.74-17" transform="translate(-8.04 -41.44)"/><path class="cls-3" d="M235.16,249.41l.86,5.37s8.55.21,8.55,9c0,9-9.15,9.23-11.48,9.23H218.63c-2.83,0-7.33-.63-7.95-13.44-.15-3-.26-5.54-.35-7.79A123.92,123.92,0,0,0,235.16,249.41Z" transform="translate(-8.04 -41.44)"/><path class="cls-4" d="M235.15,253.79s-5.32,3.39-24.63,3" transform="translate(-8.04 -41.44)"/><path class="cls-5" d="M236,254.78a13.62,13.62,0,0,0-3.43.52" transform="translate(-8.04 -41.44)"/><path class="cls-6" d="M210,240.09s0,5.93.66,19.53c.62,12.81,5.12,13.44,7.95,13.44h14.46c2.33,0,11.48-.23,11.48-9.23,0-8.84-8.55-9-8.55-9l-2.74-17" transform="translate(-8.04 -41.44)"/><path class="cls-6" d="M234.75,249s-8.93,2.87-24.43,2.83" transform="translate(-8.04 -41.44)"/><path class="cls-2" d="M233.47,182.86s6.79,20.2,6.67,55.07c0,0-15.09,6.64-40.14,6.64s-40.14-6.64-40.14-6.64c-.12-34.87,6.67-55.07,6.67-55.07" transform="translate(-8.04 -41.44)"/><path class="cls-7" d="M186.54,189.88a68,68,0,0,0,0,15.56" transform="translate(-8.04 -41.44)"/><path class="cls-8" d="M190,205.44a3.43,3.43,0,1,1-3.43-3.43A3.43,3.43,0,0,1,190,205.44Z" transform="translate(-8.04 -41.44)"/><path class="cls-7" d="M213.36,189.88a68,68,0,0,1,0,15.56" transform="translate(-8.04 -41.44)"/><path class="cls-8" d="M209.93,205.44a3.43,3.43,0,1,0,3.43-3.43A3.44,3.44,0,0,0,209.93,205.44Z" transform="translate(-8.04 -41.44)"/><line class="cls-9" x1="160.79" y1="165.88" x2="160.56" y2="168.26"/><line class="cls-9" x1="223.13" y1="165.88" x2="223.35" y2="168.26"/><path class="cls-2" d="M173.88,215.6s-1,10.39-5.16,16.45" transform="translate(-8.04 -41.44)"/><path class="cls-2" d="M226.12,215.6s.95,10.39,5.16,16.45" transform="translate(-8.04 -41.44)"/><path class="cls-1" d="M129.12,107s21.58-62.44,34.6-64,32,37.09,32,37.09" transform="translate(-8.04 -41.44)"/><path class="cls-3" d="M141.89,101.27s14.71-42.54,23.58-43.62,21.77,25.27,21.77,25.27" transform="translate(-8.04 -41.44)"/><path class="cls-1" d="M270.88,107s-21.58-62.44-34.6-64-32,37.09-32,37.09" transform="translate(-8.04 -41.44)"/><path class="cls-3" d="M258.1,101.27s-14.7-42.54-23.57-43.62-21.78,25.27-21.78,25.27" transform="translate(-8.04 -41.44)"/><path class="cls-2" d="M200,189.88c74.8,0,85.23-52.28,85.23-52.28-1.94-.24-7.46-74.11-85.23-74.11s-83.29,73.87-85.23,74.11C114.77,137.6,125.19,189.88,200,189.88Z" transform="translate(-8.04 -41.44)"/><path class="cls-1" d="M200,189.88c55.52,0,66.83-34.73,67.94-43.56,1.83-14.55-20.47-53.84-67.94-53.84s-69.77,39.29-67.94,53.84C133.16,155.15,144.48,189.88,200,189.88Z" transform="translate(-8.04 -41.44)"/><path class="cls-10" d="M188.56,130.87c0,3.72-2.18,6.74-4.87,6.74s-4.87-3-4.87-6.74,2.17-6.74,4.87-6.74S188.56,127.15,188.56,130.87Z" transform="translate(-8.04 -41.44)"/><path class="cls-10" d="M211.44,130.87c0,3.72,2.18,6.74,4.87,6.74s4.87-3,4.87-6.74-2.18-6.74-4.87-6.74S211.44,127.15,211.44,130.87Z" transform="translate(-8.04 -41.44)"/><path class="cls-11" d="M226.31,125.73s-6.78,1.58-26.31,1.58-26.31-1.58-26.31-1.58,3.17-5.18,26.31-5.18S226.31,125.73,226.31,125.73Z" transform="translate(-8.04 -41.44)"/><path class="cls-12" d="M226.31,125.73s-6.78,1.58-26.31,1.58-26.31-1.58-26.31-1.58" transform="translate(-8.04 -41.44)"/><path class="cls-12" d="M200,138.28c1.91-.86,1.08-1.35,0-1.35S198.09,137.42,200,138.28Z" transform="translate(-8.04 -41.44)"/><line class="cls-7" x1="191.96" y1="96.91" x2="191.96" y2="100.24"/><path class="cls-6" d="M187,141.94s1,5.14,13.05-.6" transform="translate(-8.04 -41.44)"/><path class="cls-6" d="M213.05,141.94s-1,5.14-13.05-.6" transform="translate(-8.04 -41.44)"/><path class="cls-10" d="M225.43,135.9a1,1,0,1,1-1-1A1,1,0,0,1,225.43,135.9Z" transform="translate(-8.04 -41.44)"/><polygon class="cls-13" points="191.96 233.07 191.42 233.07 4.2 233.07 4.2 247.11 191.42 247.11 191.96 247.11 379.72 247.11 379.72 233.07 191.96 233.07"/><rect class="cls-14" x="59.24" y="233.07" width="60.21" height="14.04"/><rect class="cls-14" x="264.47" y="233.07" width="60.21" height="14.04"/><rect class="cls-13" x="295.06" y="160.33" width="17.2" height="192.53" transform="translate(599.28 471.75) rotate(180)"/><rect class="cls-13" x="79.7" y="118.89" width="17.2" height="192.53"/><rect class="cls-15" x="4.2" y="307.22" width="20.51" height="8.4"/><rect class="cls-15" x="359.21" y="307.22" width="20.51" height="8.4"/><polygon class="cls-15" points="237 315.62 237 307.22 191.96 307.22 146.93 307.22 146.93 315.62 191.96 315.62 237 315.62"/><path class="cls-15" d="M83.54,348.66H47.16v8.4H131.7v-8.4H109.15V292.75h181.7v55.91H268.3v8.4h84.54v-8.4H316.46V292.75H392V250.51l-3-.91c-39.12-12.08-61.51-41.91-72.54-61.77V156.12h-8.6v-8.55h-8.4v8.55h-8.61v31.61a108.35,108.35,0,0,1-37.15,37.45,105.37,105.37,0,0,1-107.39,0,108.32,108.32,0,0,1-37.16-37.46v-31.6h-8.6v-8.55H92.14v8.55h-8.6v31.77C72.52,207.73,50.17,237.5,11,249.6l-3,.91v42.24h75.5Zm25.61-64.32v-5.63h181.7v5.63Zm274.41,0h-67.1v-5.63h67.1Zm0-14H366.7V249.58a122.37,122.37,0,0,0,16.86,7.09ZM358.3,244.86v25.45H341.12V232.26A127.12,127.12,0,0,0,358.3,244.86Zm-25.58-20.55v46H316.46V204.23A147.3,147.3,0,0,0,332.72,224.31Zm-33.46-59.78h8.8V348.66h-8.8V164.53Zm-8.41,38.38v67.4H272.51V222.09A115.82,115.82,0,0,0,290.85,202.91ZM258,232.38c2.11-1.27,4.12-2.58,6.07-3.92v41.85H243.24V239.77A109.69,109.69,0,0,0,258,232.38Zm-23.19,37.93H204.2V248.14a114.3,114.3,0,0,0,30.64-5.33Zm-39,0H165.16v-27.5a114.3,114.3,0,0,0,30.64,5.33Zm-39-30.54v30.54H135.9V228.45c1.95,1.34,4,2.66,6.08,3.93A109,109,0,0,0,156.76,239.77Zm-29.27-17.68v48.22H109.15V202.9A116.25,116.25,0,0,0,127.49,222.09ZM83.54,270.31H67.28v-46a147.3,147.3,0,0,0,16.26-20.08ZM58.88,232.26v38.05H41.71V244.86A127.64,127.64,0,0,0,58.88,232.26ZM16.44,256.67a121.85,121.85,0,0,0,16.86-7.09v20.73H16.44Zm0,27.67v-5.63h67.1v5.63Zm75.5,0V164.53h8.8V348.66h-8.8V284.34Z" transform="translate(-8.04 -41.44)"/></svg>