<svg id="레이어_1" data-name="레이어 1" xmlns="http://www.w3.org/2000/svg" viewBox="0 0 362.81 357.84"><defs><style>.cls-1,.cls-8{fill:#c38855;}.cls-1,.cls-10,.cls-2,.cls-3,.cls-4,.cls-7{stroke:#0a0305;}.cls-1,.cls-10,.cls-14,.cls-2,.cls-3,.cls-4,.cls-7{stroke-linecap:round;stroke-linejoin:round;stroke-width:6px;}.cls-2{fill:#be8145;}.cls-15,.cls-3{fill:#ed7534;}.cls-4,.cls-6{fill:#00a552;}.cls-5{fill:#fff;opacity:0.7;}.cls-14,.cls-7{fill:none;}.cls-9{fill:#0a0305;}.cls-10,.cls-11{fill:#daa47c;}.cls-12{fill:#fdeedf;}.cls-13{fill:#00ce7c;}.cls-14{stroke:#daa47c;}.cls-16{fill:#c88c68;}.cls-17{fill:#fae3e1;}.cls-18{fill:#f4c6bd;}.cls-19{fill:#d7958d;}.cls-20{fill:#eaa097;}.cls-21{fill:#e1b5b3;}.cls-22{fill:#3c3d3d;}</style></defs><path class="cls-1" d="M217.67,335.08,216.79,354s-10,.25-10,10.6c0,10.54,10.71,10.81,13.44,10.81H239c7.65,0,8.08-3,8.08-15.1,0-15.95.14-23.51.14-23.51Z" transform="translate(-18.6 -21.55)"/><path class="cls-2" d="M216.79,354a15.66,15.66,0,0,1,4,.62" transform="translate(-18.6 -21.55)"/><path class="cls-2" d="M218.28,347.25" transform="translate(-18.6 -21.55)"/><path class="cls-1" d="M286.1,335.08,287,354s10,.25,10,10.6c0,10.54-10.72,10.81-13.44,10.81H264.75c-8.68,0-8.08-3-8.08-15.1,0-15.95-.13-23.51-.13-23.51Z" transform="translate(-18.6 -21.55)"/><path class="cls-2" d="M287,354a15.66,15.66,0,0,0-4,.62" transform="translate(-18.6 -21.55)"/><path class="cls-2" d="M285.5,347.25" transform="translate(-18.6 -21.55)"/><path class="cls-1" d="M292.87,289.94s7.05,9.28,7.05,27.16-16,31.88-48,31.88-48-14-48-31.88,7.05-27.16,7.05-27.16" transform="translate(-18.6 -21.55)"/><path class="cls-3" d="M296.58,292.93s-33.13,21.27-44.69,21.27-44.7-21.27-44.7-21.27" transform="translate(-18.6 -21.55)"/><path class="cls-4" d="M199.94,291.71s3.44-3.22,10.16.53c0,0-7.56,13.36-6.26,26.85C203.84,319.09,196.57,304.56,199.94,291.71Z" transform="translate(-18.6 -21.55)"/><path class="cls-3" d="M257.87,163.05c0,2.67-2.67,4.83-6,4.83s-6-2.16-6-4.83,2.68-4.82,6-4.82S257.87,160.39,257.87,163.05Z" transform="translate(-18.6 -21.55)"/><path class="cls-1" d="M221,180.53a20.25,20.25,0,1,1-20.25-20.24A20.25,20.25,0,0,1,221,180.53Z" transform="translate(-18.6 -21.55)"/><path class="cls-5" d="M210.51,180.53a9.8,9.8,0,1,1-9.8-9.79A9.8,9.8,0,0,1,210.51,180.53Z" transform="translate(-18.6 -21.55)"/><path class="cls-1" d="M282.82,180.53a20.25,20.25,0,1,0,20.24-20.24A20.24,20.24,0,0,0,282.82,180.53Z" transform="translate(-18.6 -21.55)"/><path class="cls-5" d="M293.26,180.53a9.8,9.8,0,1,0,9.8-9.79A9.8,9.8,0,0,0,293.26,180.53Z" transform="translate(-18.6 -21.55)"/><path class="cls-1" d="M251.89,298.81c32.2,0,80.67-8,80.66-57.46,0-52.7-33.18-77.19-80.66-77.19s-80.65,24.49-80.66,77.19C171.21,290.79,219.69,298.81,251.89,298.81Z" transform="translate(-18.6 -21.55)"/><path class="cls-6" d="M253.05,164.18l-1.16,0-1.16,0c-26.19.24-49.64,8.42-66.49,29.3,0,0,23.14,1.66,67.65,1.66s67.65-1.66,67.65-1.66C302.69,172.6,279.24,164.42,253.05,164.18Z" transform="translate(-18.6 -21.55)"/><path class="cls-1" d="M276,194.72s-2.23-12.12-24.06-12.12-24.07,12.12-24.07,12.12" transform="translate(-18.6 -21.55)"/><path class="cls-7" d="M253.05,164.18l-1.16,0-1.16,0c-26.19.24-49.64,8.42-66.49,29.3,0,0,23.14,1.66,67.65,1.66s67.65-1.66,67.65-1.66C302.69,172.6,279.24,164.42,253.05,164.18Z" transform="translate(-18.6 -21.55)"/><path class="cls-8" d="M237.56,191.92c1.25,3.72,4.74,8,12.84,8.12,8.41.17,8.08-3.9,8.08-3.9a15.19,15.19,0,0,0,11.72,3.74c7.33-.69,6.72-5.68,2.86-8" transform="translate(-18.6 -21.55)"/><path class="cls-7" d="M237.56,191.92c1.25,3.72,4.74,8,12.84,8.12,8.41.17,8.08-3.9,8.08-3.9a15.19,15.19,0,0,0,11.72,3.74c7.33-.69,6.72-5.68,2.86-8" transform="translate(-18.6 -21.55)"/><path class="cls-1" d="M258.6,196.5a11.17,11.17,0,0,1-1.72-3" transform="translate(-18.6 -21.55)"/><path class="cls-9" d="M230.76,238.22c0,3.36-2.27,6.08-5.08,6.08s-5.09-2.72-5.09-6.08,2.28-6.07,5.09-6.07S230.76,234.86,230.76,238.22Z" transform="translate(-18.6 -21.55)"/><path class="cls-9" d="M261.72,238.22c0,3.36,2.28,6.08,5.09,6.08s5.08-2.72,5.08-6.08-2.28-6.07-5.08-6.07S261.72,234.86,261.72,238.22Z" transform="translate(-18.6 -21.55)"/><path class="cls-5" d="M260.57,246.16c0,6.52-6.42,11.81-14.33,11.81s-14.32-5.29-14.32-11.81,6.41-11.81,14.32-11.81S260.57,239.64,260.57,246.16Z" transform="translate(-18.6 -21.55)"/><path class="cls-7" d="M243.75,250.81s6.06,1.22,8.63-2.06" transform="translate(-18.6 -21.55)"/><path class="cls-9" d="M250,242.44c0,2.15-2.24,3.88-5,3.88s-5-1.73-5-3.88,2.24-3.88,5-3.88S250,240.3,250,242.44Z" transform="translate(-18.6 -21.55)"/><line class="cls-7" x1="215.03" y1="202.49" x2="216.46" y2="203.72"/><line class="cls-7" x1="240.26" y1="202.49" x2="238.83" y2="203.72"/><polygon class="cls-10" points="184.57 312.76 221.32 322.62 215.77 252.79 179.03 242.93 184.57 312.76"/><polygon class="cls-10" points="221.32 322.62 255.92 316.2 250.37 246.38 215.77 252.79 221.32 322.62"/><polygon class="cls-11" points="255.92 316.2 227.81 329.95 222.26 260.12 250.37 246.38 255.92 316.2"/><polygon class="cls-12" points="255.26 308.1 232.74 319.2 228.92 265.49 251.43 254.39 255.26 308.1"/><polygon class="cls-13" points="254.67 302.76 241.78 308.48 238.89 286.66 253.13 281.17 254.67 302.76"/><polyline class="cls-14" points="254.42 302.31 241.84 308.96 240.41 298.14"/><polyline class="cls-14" points="251.12 260.34 242.63 263.97 243.06 267.18"/><polyline class="cls-14" points="252.54 282.48 238.62 287.74 236.3 267.06"/><polygon class="cls-7" points="255.92 316.2 227.81 329.95 222.26 260.12 250.37 246.38 255.92 316.2"/><line class="cls-14" x1="241.84" y1="308.96" x2="237.51" y2="311.05"/><path class="cls-15" d="M260.73,293.49a1.69,1.69,0,0,0,3.35-.44,1.69,1.69,0,1,0-3.35.44Z" transform="translate(-18.6 -21.55)"/><path class="cls-16" d="M212.9,298.4a2,2,0,0,0,.8.08,2.05,2.05,0,0,0,.74-.23,2,2,0,0,0,1-1.19,2,2,0,0,0-.15-1.54,2,2,0,0,0-1.19-1,2,2,0,1,0-1.18,3.87Zm-.46-2.26a1.1,1.1,0,0,1,.94-.77,1.06,1.06,0,0,1,.43.05,1.1,1.1,0,0,1,.73,1.37,1.12,1.12,0,0,1-.54.65,1.14,1.14,0,0,1-.83.08,1.09,1.09,0,0,1-.65-.54A1.07,1.07,0,0,1,212.44,296.14Z" transform="translate(-18.6 -21.55)"/><path class="cls-16" d="M217.65,312.38a6.07,6.07,0,0,1-2.83-11.7,6.54,6.54,0,0,1,.36-1.66,7.55,7.55,0,1,0,9.37,7.9,6.45,6.45,0,0,1-1.55.53A6.09,6.09,0,0,1,217.65,312.38Z" transform="translate(-18.6 -21.55)"/><path class="cls-16" d="M221.06,295a6.09,6.09,0,0,0-2.09.6.78.78,0,0,1,.12.48.76.76,0,0,1-.84.68.75.75,0,0,1-.55-.35,6.46,6.46,0,0,0-1.57,1.92,4,4,0,0,0-.28.59,6.29,6.29,0,0,0-.41,1.59,5.83,5.83,0,0,0,0,1.11c0,.1,0,.21,0,.32a6.33,6.33,0,0,0,6.94,5.64,4.49,4.49,0,0,0,.64-.1,6,6,0,0,0,.08-1.53,1.27,1.27,0,0,0,0-.2,6.15,6.15,0,0,0-.47-1.78h0l-.07-.2s0-.07,0-.1a.75.75,0,0,1,.66-.81h.13a.75.75,0,0,1,.6.41l0,.06a7.47,7.47,0,0,1,.56,1.94c0,.11,0,.22,0,.33a7.61,7.61,0,0,1,0,1.35A6.33,6.33,0,0,0,221.06,295Zm.09,3.16a.25.25,0,0,1,.27-.22.25.25,0,1,1,0,.49A.25.25,0,0,1,221.15,298.13Zm-2.22-.3a.51.51,0,0,1,.54-.45.52.52,0,0,1,.45.55.5.5,0,0,1-1-.1Zm4.72,2.19-1.08,1.2-.13.14a.17.17,0,0,1-.1,0l-2.36-.48,1.94,1s.05.05.06.08l.12,1,.06.47-.42-.67a.1.1,0,0,0-.18,0l-1,1.66a.11.11,0,0,1-.18,0l-2.88-4.19-.4-.59-.1-.15a.1.1,0,0,1,.09-.17h.12l3.22.23,3.13.23A.1.1,0,0,1,223.65,300Z" transform="translate(-18.6 -21.55)"/><path class="cls-1" d="M200.42,300.42c6-.88,10.09,4.8,11.21,12.38s-1.16,14.21-7.15,15.09-12.4-4.44-13.53-12S194.43,301.31,200.42,300.42Z" transform="translate(-18.6 -21.55)"/><path class="cls-1" d="M299.71,294s7.17,6.8,7.61,20.65c.35,11.17-7.77,19-15.13,19-13.09,0-29.38-3.26-28.31-16.36,1.54-18.71,23.38-10.68,23.38-10.68" transform="translate(-18.6 -21.55)"/><path class="cls-4" d="M290.07,293.68a8.33,8.33,0,0,1,9.5-.11s-3.15,3.83-12.2,13.07A34.92,34.92,0,0,0,290.07,293.68Z" transform="translate(-18.6 -21.55)"/><path class="cls-17" d="M356.2,188.3a54.89,54.89,0,0,0-5.43-21.77l-16.6-34.09a53.94,53.94,0,0,1-2.69-6.62l-7.91-24C319.68,90.08,312,80.39,302.06,74.71L253.39,46.92a31.82,31.82,0,0,1-8.62-7.26l-.77-.92a30.06,30.06,0,0,0-19.47-10.86L211.17,26.3a94.85,94.85,0,0,0-22.34,0l-13.35,1.58A30,30,0,0,0,156,38.75l-.77.91a32,32,0,0,1-8.62,7.26L97.94,74.71C88,80.39,80.32,90.08,76.43,101.86l-7.91,24a53.94,53.94,0,0,1-2.69,6.62l-16.6,34.09A54.89,54.89,0,0,0,43.8,188.3l-2.36,57.61V346.49H358.56V245.91Z" transform="translate(-18.6 -21.55)"/><polygon class="cls-18" points="181.4 219.51 87.36 219.51 87.36 332.56 181.4 332.56 275.45 332.56 275.45 219.51 181.4 219.51"/><polygon class="cls-18" points="181.4 139.84 162.75 139.84 162.75 196.63 181.4 196.63 200.06 196.63 200.06 139.84 181.4 139.84"/><polygon class="cls-19" points="275.45 237.81 275.45 219.51 181.4 219.51 87.36 219.51 87.36 237.81 275.45 237.81"/><polygon class="cls-18" points="87.36 196.63 87.36 125.81 134.38 88.18 134.38 196.63 87.36 196.63"/><path class="cls-20" d="M160.36,108.51l.37-15.39a2.14,2.14,0,0,0-3.43-1.75L97.07,137.06a2.18,2.18,0,0,0-.84,1.65l-.37,15.39a2.13,2.13,0,0,0,3.42,1.75l60.23-45.69A2.14,2.14,0,0,0,160.36,108.51Z" transform="translate(-18.6 -21.55)"/><path class="cls-18" d="M106,164h0Z" transform="translate(-18.6 -21.55)"/><path class="cls-18" d="M111.53,146.55h0Z" transform="translate(-18.6 -21.55)"/><polygon class="cls-18" points="181.4 219.51 118.54 219.51 118.54 237.81 181.4 237.81 244.27 237.81 244.27 219.51 181.4 219.51"/><rect class="cls-20" x="228.87" y="259.36" width="22.58" height="94.75" transform="translate(461.72 591.92) rotate(180)"/><path class="cls-18" d="M200,218.18H106.92a4.5,4.5,0,0,0-4.5,4.51v13.86a4.5,4.5,0,0,0,4.5,4.51H293.08a4.51,4.51,0,0,0,4.51-4.51V222.69a4.51,4.51,0,0,0-4.51-4.51Z" transform="translate(-18.6 -21.55)"/><polygon class="cls-18" points="181.4 317.31 152.53 317.31 152.53 332.56 181.4 332.56 210.28 332.56 210.28 317.31 181.4 317.31"/><polygon class="cls-18" points="275.45 196.63 275.45 125.81 228.43 88.18 228.43 196.63 275.45 196.63"/><path class="cls-20" d="M239.65,108.51l-.38-15.39a2.14,2.14,0,0,1,3.43-1.75l60.23,45.69a2.18,2.18,0,0,1,.84,1.65l.37,15.39a2.13,2.13,0,0,1-3.42,1.75l-60.23-45.69A2.1,2.1,0,0,1,239.65,108.51Z" transform="translate(-18.6 -21.55)"/><path class="cls-18" d="M294.05,164h0Z" transform="translate(-18.6 -21.55)"/><path class="cls-18" d="M288.47,146.55h0Z" transform="translate(-18.6 -21.55)"/><path class="cls-20" d="M200,146.55H175.19a2.67,2.67,0,0,0-2.67,2.68v9.48a2.67,2.67,0,0,0,2.67,2.68h49.62a2.67,2.67,0,0,0,2.67-2.68v-9.48a2.67,2.67,0,0,0-2.67-2.68Z" transform="translate(-18.6 -21.55)"/><path class="cls-18" d="M222.33,145.79c-3.53-4.24-20.27-25.36-22.21-46.43a.12.12,0,1,0-.24,0c-1.94,21.07-18.68,42.18-22.2,46.43a.46.46,0,0,0,.36.76H222A.47.47,0,0,0,222.33,145.79Z" transform="translate(-18.6 -21.55)"/><path class="cls-20" d="M262.79,240.8,200,215.44,137.21,240.8c-.12,0-.09.26,0,.26h125.5C262.88,241.06,262.91,240.85,262.79,240.8Z" transform="translate(-18.6 -21.55)"/><rect class="cls-20" x="131.32" y="237.81" width="21.21" height="94.75"/><path class="cls-17" d="M60.51,233.69c30.15,9.6,68.43,38.36,76.54,121.36a17.7,17.7,0,0,1-17.69,19.31H41.24a17.32,17.32,0,0,1-17.31-17.09l-1.24-95.08C22.43,242.35,41.61,227.67,60.51,233.69Z" transform="translate(-18.6 -21.55)"/><path class="cls-17" d="M60.51,233.69c30.15,9.6,68.43,38.36,76.54,121.36a17.7,17.7,0,0,1-17.69,19.31H41.24a17.32,17.32,0,0,1-17.31-17.09l-1.24-95.08C22.43,242.35,41.61,227.67,60.51,233.69Z" transform="translate(-18.6 -21.55)"/><path class="cls-17" d="M339.49,233.69c-30.15,9.6-68.43,38.36-76.54,121.36a17.7,17.7,0,0,0,17.7,19.31h78.11a17.32,17.32,0,0,0,17.31-17.09l1.24-95.08C377.57,242.35,358.4,227.67,339.49,233.69Z" transform="translate(-18.6 -21.55)"/><path class="cls-21" d="M42.41,308.1V234a29.51,29.51,0,0,0-19.72,28.21l1.24,95.08a17.32,17.32,0,0,0,17.31,17.09h78.12a17.7,17.7,0,0,0,17.69-19.31q-.35-3.54-.77-6.94H82.42A40,40,0,0,1,42.41,308.1Z" transform="translate(-18.6 -21.55)"/><path class="cls-21" d="M358.62,234.37V308.1a40,40,0,0,1-40,40H263.72q-.42,3.4-.77,6.94a17.7,17.7,0,0,0,17.7,19.31h78.11a17.32,17.32,0,0,0,17.31-17.09l1.24-95.08A29.5,29.5,0,0,0,358.62,234.37Z" transform="translate(-18.6 -21.55)"/><rect class="cls-19" x="87.36" y="142.41" width="47.02" height="12.78"/><rect class="cls-19" x="228.43" y="142.41" width="47.02" height="12.78"/><path class="cls-22" d="M367.77,234.76a34.09,34.09,0,0,0-5.71-3.37l-1.77-43.25h0a59.22,59.22,0,0,0-5.84-23.39l-16.6-34.09a48.52,48.52,0,0,1-2.48-6.11l-7.92-24c-4.22-12.77-12.51-23.22-23.36-29.41L255.42,43.37A27.86,27.86,0,0,1,247.91,37l-.78-.93A34.18,34.18,0,0,0,225,23.81l-13.35-1.58a99.77,99.77,0,0,0-23.3,0L175,23.81a34.17,34.17,0,0,0-22.14,12.31l-.77.91a27.75,27.75,0,0,1-7.51,6.34L95.91,71.16C85.07,77.35,76.77,87.8,72.55,100.58l-7.92,24a48.8,48.8,0,0,1-2.48,6.11l-16.6,34.08a59.36,59.36,0,0,0-5.84,23.41l-1.77,43.25a34.49,34.49,0,0,0-5.71,3.37A33.74,33.74,0,0,0,18.6,262.24l1.24,95.08a21.49,21.49,0,0,0,21.4,21.13h78.12a22,22,0,0,0,16.25-7.2,21.69,21.69,0,0,0,5.54-13.05h117.7a21.69,21.69,0,0,0,5.54,13.05,22,22,0,0,0,16.25,7.2h78.12a21.49,21.49,0,0,0,21.4-21.13l1.24-95.08A33.74,33.74,0,0,0,367.77,234.76ZM47.89,188.47a50.93,50.93,0,0,1,5-20.15l16.6-34.09a56.53,56.53,0,0,0,2.89-7.13l7.92-24C83.9,92.29,90.88,83.46,100,78.27l48.67-27.8a35.77,35.77,0,0,0,9.73-8.18l.77-.92A26.05,26.05,0,0,1,176,31.94l13.35-1.58a91,91,0,0,1,21.38,0L224,31.94a26.08,26.08,0,0,1,16.82,9.42l.78.93a36.09,36.09,0,0,0,9.72,8.19L300,78.27c9.09,5.19,16.07,14,19.65,24.87l7.92,24a57.48,57.48,0,0,0,2.89,7.13l16.6,34.09a51.11,51.11,0,0,1,5,20.15l1.64,40.24a32.43,32.43,0,0,0-15.51,1.08h0a96.56,96.56,0,0,0-40.11,24.76V243.47a8.57,8.57,0,0,0,3.54-6.92V222.69a8.59,8.59,0,0,0-3.54-6.92V159l.1.08a6.24,6.24,0,0,0,3.76,1.27,6.1,6.1,0,0,0,2.84-.69,6.17,6.17,0,0,0,3.39-5.69l-.37-15.39a6.25,6.25,0,0,0-2.46-4.81L245.17,88.11a6.23,6.23,0,0,0-10,5.11l.37,15.39h0a6.24,6.24,0,0,0,2.46,4.81l4.92,3.73v96.94H222.74V165.48h2.07a6.78,6.78,0,0,0,6.77-6.77v-9.48a6.77,6.77,0,0,0-6.68-6.76c-4.2-5.16-19-24.54-20.71-43.48l-.45-3.85-7.59.13L195.81,99c-1.75,19-16.49,38.3-20.71,43.48a6.77,6.77,0,0,0-6.68,6.76v9.48a6.78,6.78,0,0,0,6.77,6.77h2.07v48.61H157.07V117.15l4.92-3.74a6.19,6.19,0,0,0,2.46-4.81l.37-15.38a6.23,6.23,0,0,0-10-5.11l-60.24,45.7a6.21,6.21,0,0,0-2.45,4.8L91.77,154a6.22,6.22,0,0,0,10,5.11l.11-.08v56.74a8.59,8.59,0,0,0-3.54,6.92v13.86a8.59,8.59,0,0,0,3.54,6.92v11.08a96.67,96.67,0,0,0-40.11-24.76,32.43,32.43,0,0,0-15.51-1.08ZM259.39,350h-3.85V263.45H267v-18.3h23V264c-13.43,17.42-24.48,42.5-29.59,78.43C260,344.88,259.69,347.43,259.39,350ZM233,350V263.45h14.4V350Zm-92.35,0c-.29-2.59-.62-5.14-1-7.62-5.11-35.93-16.16-61-29.59-78.43V245.15h23v18.3h12.78V350Zm-34.1-113.47V222.69a.4.4,0,0,1,.4-.41h65.24L135.78,237H106.92A.41.41,0,0,1,106.51,236.55Zm49.92-134.82-.14,5.74-54.43,41.29-1.81,1.37.25-10.38,56.24-42.66Zm-46.38,66.32h5.3v46h-5.3Zm25.63,29.3v16.74H123.53v-46h12.15Zm8.19,16.74v-46h5v46Zm5-71.63H123.7l25.19-19.1Zm-36,8.19h36v9.21H110.05v-7Zm72.53,63.44V196.18h29.12v17.91h-7L200,211l-7.58,3.06Zm-8.83-63.44h46.78v6.64H176.61Zm8.8-8.19A117,117,0,0,0,200,116.08a117.24,117.24,0,0,0,14.59,26.38Zm29.15,23V188H185.44V165.48Zm28.9-68.39,56.24,42.66.25,10.38-1.81-1.38-54.43-41.28-.14-5.75Zm20.86,108.44V168.05h12.15v46H264.32Zm20.33,8.56v-46H290v46Zm5.3-54.23H251.11v-9.21h36l2.86,2.17Zm-13.65-17.4H251.11v-19.1Zm-25.19,25.59h5v46h-5Zm42,54.23a.4.4,0,0,1,.4.41v13.86a.41.41,0,0,1-.41.42H264.36l-36.45-14.69h65.18ZM224.78,334.77H213V272.48H187v62.29H175.22V263.45h49.56Zm-49.56-79.5h-34V245.15H258.77v10.12H175.22Zm18.78-33,6-2.43,6,2.43L242.36,237H157.64ZM154,342.4V263.45h13V350H154Zm21.21.55h49.56V350H175.22Zm-45.67,22.8a13.79,13.79,0,0,1-10.19,4.51H41.24A13.27,13.27,0,0,1,28,357.21l-1.24-95.08a25.2,25.2,0,0,1,10.33-20.79c.14-.11.29-.18.44-.28a24.82,24.82,0,0,1,8.34-3.83,24.05,24.05,0,0,1,5.9-.82,24.43,24.43,0,0,1,7.47,1.18,89.22,89.22,0,0,1,42.6,29.33,109.07,109.07,0,0,1,8.19,11.58c9.55,15.51,17.26,36.24,21.33,63.9q.54,3.72,1,7.62l.06.56c.19,1.61.38,3.21.54,4.86a13.41,13.41,0,0,1-3.43,10.31ZM372,357.21a13.28,13.28,0,0,1-13.22,13.05H280.64a13.79,13.79,0,0,1-10.19-4.51,13.4,13.4,0,0,1-3.43-10.3c.16-1.66.36-3.26.54-4.87l.06-.56q.47-3.9,1-7.62C272.69,314.74,280.4,294,290,278.5a109.07,109.07,0,0,1,8.19-11.58,89.22,89.22,0,0,1,42.6-29.33h0a24.21,24.21,0,0,1,13.38-.4,24.84,24.84,0,0,1,8.35,3.86c.14.1.29.18.44.29a25.22,25.22,0,0,1,10.32,20.79Z" transform="translate(-18.6 -21.55)"/><path class="cls-1" d="M216.05,335.77l-.89,19s-10.1.26-10.09,10.69c0,10.62,10.8,10.89,13.55,10.89h18.95c7.71,0,8.14-3,8.14-15.22,0-16.08.14-23.69.14-23.69Z" transform="translate(-18.6 -21.55)"/><path class="cls-2" d="M215.16,354.81a15.94,15.94,0,0,1,4.05.62" transform="translate(-18.6 -21.55)"/><path class="cls-2" d="M216.66,348" transform="translate(-18.6 -21.55)"/><path class="cls-1" d="M285,335.77l.89,19S296,355.07,296,365.5c0,10.62-10.81,10.89-13.55,10.89H263.5c-8.75,0-8.15-3-8.15-15.22,0-16.08-.13-23.69-.13-23.69Z" transform="translate(-18.6 -21.55)"/><path class="cls-2" d="M285.91,354.81a15.83,15.83,0,0,0-4.05.62" transform="translate(-18.6 -21.55)"/><path class="cls-2" d="M284.41,348" transform="translate(-18.6 -21.55)"/><path class="cls-1" d="M207.35,278.93s-12.46,11.17-17.49,31.83.5,33.32,14.16,33.74c14.53.44,14.52-10.75,14.52-10.75" transform="translate(-18.6 -21.55)"/><path class="cls-1" d="M293.72,278.93s12.45,11.17,17.49,31.83S310.7,344.08,297,344.5c-14.52.44-14.52-10.75-14.52-10.75" transform="translate(-18.6 -21.55)"/><path class="cls-1" d="M291.84,290.28s7.1,9.36,7.1,27.37-16.13,32.14-48.41,32.14-48.41-14.12-48.41-32.14,7.11-27.37,7.11-27.37" transform="translate(-18.6 -21.55)"/><path class="cls-3" d="M295.58,293.3s-33.4,21.43-45,21.43-45-21.43-45-21.43" transform="translate(-18.6 -21.55)"/><path class="cls-4" d="M198.18,292.07s3.47-3.26,10.23.53c0,0-7.61,13.46-6.3,27.06C202.11,319.66,194.78,305,198.18,292.07Z" transform="translate(-18.6 -21.55)"/><path class="cls-4" d="M302.89,292.07s-3.47-3.26-10.24.53c0,0,7.62,13.46,6.31,27.06C299,319.66,306.28,305,302.89,292.07Z" transform="translate(-18.6 -21.55)"/><path class="cls-1" d="M219.36,180a20.4,20.4,0,1,1-20.4-20.4A20.4,20.4,0,0,1,219.36,180Z" transform="translate(-18.6 -21.55)"/><path class="cls-5" d="M208.83,180a9.88,9.88,0,1,1-9.87-9.87A9.87,9.87,0,0,1,208.83,180Z" transform="translate(-18.6 -21.55)"/><path class="cls-1" d="M281.71,180a20.4,20.4,0,1,0,20.4-20.4A20.4,20.4,0,0,0,281.71,180Z" transform="translate(-18.6 -21.55)"/><path class="cls-5" d="M292.24,180a9.87,9.87,0,1,0,9.87-9.87A9.87,9.87,0,0,0,292.24,180Z" transform="translate(-18.6 -21.55)"/><path class="cls-1" d="M250.53,299.22c32.45,0,81.31-8.09,81.3-57.91,0-53.11-33.44-77.8-81.3-77.8s-81.27,24.69-81.29,77.8C169.22,291.13,218.08,299.22,250.53,299.22Z" transform="translate(-18.6 -21.55)"/><path class="cls-3" d="M256.57,162.4c0,2.68-2.7,4.86-6,4.86s-6-2.18-6-4.86,2.7-4.87,6-4.87S256.57,159.71,256.57,162.4Z" transform="translate(-18.6 -21.55)"/><path class="cls-6" d="M251.7,163.54q-.57,0-1.17,0l-1.17,0c-26.39.23-50,8.48-67,29.52,0,0,23.32,1.68,68.18,1.68s68.18-1.68,68.18-1.68C301.73,172,278.1,163.77,251.7,163.54Z" transform="translate(-18.6 -21.55)"/><path class="cls-1" d="M274.79,194.31s-2.25-12.21-24.26-12.21-24.25,12.21-24.25,12.21" transform="translate(-18.6 -21.55)"/><path class="cls-7" d="M251.7,163.54q-.57,0-1.17,0l-1.17,0c-26.39.23-50,8.48-67,29.52,0,0,23.32,1.68,68.18,1.68s68.18-1.68,68.18-1.68C301.73,172,278.1,163.77,251.7,163.54Z" transform="translate(-18.6 -21.55)"/><path class="cls-8" d="M236.09,191.49c1.27,3.75,4.78,8,12.94,8.19,8.48.17,8.15-3.94,8.15-3.94A15.34,15.34,0,0,0,269,199.51c7.39-.7,6.78-5.72,2.88-8.09" transform="translate(-18.6 -21.55)"/><path class="cls-7" d="M236.09,191.49c1.27,3.75,4.78,8,12.94,8.19,8.48.17,8.15-3.94,8.15-3.94A15.34,15.34,0,0,0,269,199.51c7.39-.7,6.78-5.72,2.88-8.09" transform="translate(-18.6 -21.55)"/><path class="cls-1" d="M257.3,196.1a11.16,11.16,0,0,1-1.73-3" transform="translate(-18.6 -21.55)"/><path class="cls-9" d="M234.93,233.76c0,3.38-2.29,6.13-5.12,6.13s-5.13-2.75-5.13-6.13,2.3-6.12,5.13-6.12S234.93,230.38,234.93,233.76Z" transform="translate(-18.6 -21.55)"/><path class="cls-9" d="M266.14,233.76c0,3.38,2.29,6.13,5.12,6.13s5.12-2.75,5.12-6.13-2.29-6.12-5.12-6.12S266.14,230.38,266.14,233.76Z" transform="translate(-18.6 -21.55)"/><path class="cls-5" d="M265,241.76c0,6.57-6.46,11.9-14.44,11.9s-14.44-5.33-14.44-11.9,6.47-11.9,14.44-11.9S265,235.19,265,241.76Z" transform="translate(-18.6 -21.55)"/><path class="cls-7" d="M248,246.44s6.1,1.24,8.69-2.07" transform="translate(-18.6 -21.55)"/><path class="cls-9" d="M254.29,238c0,2.16-2.26,3.91-5,3.91s-5.05-1.75-5.05-3.91,2.26-3.91,5.05-3.91S254.29,235.86,254.29,238Z" transform="translate(-18.6 -21.55)"/><line class="cls-7" x1="219.22" y1="197.92" x2="220.67" y2="199.15"/><line class="cls-7" x1="244.65" y1="197.92" x2="243.21" y2="199.15"/></svg>