<svg xmlns="http://www.w3.org/2000/svg" xmlns:xlink="http://www.w3.org/1999/xlink" width="150" height="150" viewBox="0 0 150 150">
    <defs>
        <path id="0r1nl0guwa" d="M0 0.441L149.555 0.441 149.555 148.636 0 148.636z"/>
    </defs>
    <g fill="none" fill-rule="evenodd">
        <g>
            <g>
                <g transform="translate(-569 -2201) translate(569 2201) translate(0 .923)">
                    <mask id="f3sjaj3h7b" fill="#fff">
                        <use xlink:href="#0r1nl0guwa"/>
                    </mask>
                    <path fill="#3396D3" d="M149.555 74.539c0 40.922-33.479 74.097-74.777 74.097S0 115.46 0 74.539C0 33.616 33.48.44 74.778.44c41.298 0 74.777 33.175 74.777 74.098" mask="url(#f3sjaj3h7b)"/>
                </g>
                <path fill="#FEFEFE" d="M61.096 114.546c33.157 0 51.29-27.221 51.29-50.824 0-.772-.016-1.543-.053-2.309 3.521-2.521 6.58-5.667 8.996-9.248-3.232 1.42-6.706 2.38-10.356 2.81 3.724-2.21 6.58-5.71 7.93-9.88-3.485 2.046-7.34 3.535-11.447 4.336-3.29-3.472-7.975-5.643-13.159-5.643-9.955 0-18.03 8-18.03 17.86 0 1.403.16 2.765.469 4.073-14.982-.746-28.267-7.853-37.157-18.662-1.55 2.639-2.44 5.706-2.44 8.977 0 6.198 3.18 11.669 8.02 14.87-2.956-.09-5.734-.897-8.165-2.236-.004.075-.004.15-.004.228 0 8.652 6.215 15.875 14.463 17.513-1.513.408-3.107.629-4.751.629-1.162 0-2.293-.115-3.39-.322 2.296 7.096 8.95 12.26 16.84 12.405-6.17 4.792-13.942 7.647-22.387 7.647-1.457 0-2.891-.083-4.3-.248 7.977 5.066 17.449 8.024 27.631 8.024" transform="translate(-569 -2201) translate(569 2201)"/>
            </g>
        </g>
    </g>
</svg>
