<?xml version="1.0" encoding="UTF-8"?>
<svg width="69px" height="61px" viewBox="0 0 69 61" version="1.1" xmlns="http://www.w3.org/2000/svg" xmlns:xlink="http://www.w3.org/1999/xlink">
    <title>empty-tray</title>
    <g id="Social" stroke="none" stroke-width="1" fill="none" fill-rule="evenodd">
        <g id="상황" transform="translate(-962.000000, -53.000000)" fill="#010002" fill-rule="nonzero">
            <g id="empty-tray" transform="translate(962.000000, 53.681818)">
                <path d="M68.9918043,29.3349075 L68.9986619,29.3349075 C68.9986619,26.3422841 68.0605065,23.6233699 66.535105,21.5954146 L66.5377811,21.5920716 L53.2791649,0.318181818 L15.1334217,0.318181818 L2.25682489,22.0235292 L2.26234444,22.0304242 C1.04419757,23.8306367 0.295044772,26.1183022 0.16592087,28.6149061 C0.0694124605,28.8491259 0,29.1021502 0,29.3842169 L0,57.6197223 C0,58.5589 0.609157063,59.3181818 1.35964793,59.3181818 L67.6403521,59.3181818 C68.392181,59.3181818 69,58.5591089 69,57.6197223 L69,29.3842169 C69,29.3672929 68.9918043,29.3518315 68.9918043,29.3349075 Z M16.3652838,3.71510086 L52.089452,3.71510086 L60.1829449,18.0273751 C60.0973083,18.0240321 60.015686,18.0104511 59.9287113,18.0104511 L43.6206301,18.0104511 L43.6206301,23.1020688 C43.6206301,28.8833918 38.7614233,27.6333139 37.2714807,27.6333139 L31.8412519,27.6333139 C30.351142,27.6333139 25.4921025,28.8833918 25.4921025,23.1020688 L25.4921025,18.0104511 L9.18251587,18.0104511 C9.01258078,18.0104511 8.84665991,18.0309271 8.6780629,18.0409561 L16.3652838,3.71510086 Z M66.2807041,55.9212628 L2.72046668,55.9212628 L2.72046668,29.3842169 C2.72046668,29.3672929 2.71360906,29.3520404 2.71227099,29.3349075 L2.8331992,29.3349075 C2.8331992,24.9632912 5.68145171,21.4069523 9.18234861,21.4069523 L22.7726393,21.4069523 L22.7726393,23.1018598 C22.7726393,28.9494163 26.3320769,31.0298151 31.8410846,31.0298151 L37.2713134,31.0298151 C42.7816592,31.0298151 46.3397587,28.9494163 46.3397587,23.1018598 L46.3397587,21.4069523 L59.9313875,21.4069523 C61.6810833,21.4069523 63.2678688,22.295149 64.4179413,23.7303463 L64.4206175,23.7336893 C65.5695191,25.1688865 66.2791988,27.1492038 66.2791988,29.3349075 L66.2887326,29.3349075 C66.2887326,29.3518315 66.2805369,29.367084 66.2805369,29.3842169 C66.2807041,29.3842169 66.2807041,55.9212628 66.2807041,55.9212628 Z" id="Shape"></path>
            </g>
        </g>
    </g>
</svg>