<?xml version="1.0" encoding="UTF-8"?>
<svg width="77px" height="69px" viewBox="0 0 77 69" version="1.1" xmlns="http://www.w3.org/2000/svg" xmlns:xlink="http://www.w3.org/1999/xlink">
    <title>heart</title>
    <g id="Social" stroke="none" stroke-width="1" fill="none" fill-rule="evenodd">
        <g id="ìƒí™©" transform="translate(-51.000000, -1391.000000)" fill="#000000" fill-rule="nonzero">
            <g id="heart" transform="translate(51.000000, 1391.000000)">
                <path d="M38.5,69 C37.4037934,69 36.3469468,68.6000069 35.523323,67.8733921 C32.4127045,65.1337942 29.4137039,62.5592821 26.7677688,60.2883151 L26.7542573,60.2764809 C18.9968032,53.6180153 12.2979584,47.867818 7.63702393,42.2034181 C2.42681126,35.8709824 0,29.8669434 0,23.3078843 C0,16.9352125 2.16950222,11.0560234 6.10844429,6.75254691 C10.0943833,2.39818368 15.5636673,0 21.5105591,0 C25.9553071,0 30.0258408,1.41536034 33.6087798,4.20643669 C35.4169922,5.61528823 37.0560151,7.33951909 38.5,9.35072724 C39.9445725,7.33951909 41.5830078,5.61528823 43.3918076,4.20643669 C46.9747466,1.41536034 51.0452805,0 55.4900283,0 C61.4363327,0 66.9062041,2.39818368 70.8921433,6.75254691 C74.8310852,11.0560234 77,16.9352125 77,23.3078843 C77,29.8669434 74.5737763,35.8709824 69.3635635,42.2028265 C64.7026291,47.867818 58.0043716,53.6174236 50.2480927,60.2752976 C47.597458,62.5498148 44.5937576,65.1284687 41.4760894,67.8745756 C40.6530532,68.6000069 39.5956192,69 38.5,69 L38.5,69 Z M21.5105591,4.54311742 C16.8384629,4.54311742 12.5464553,6.42119164 9.42408745,9.83178404 C6.25531006,13.2938549 4.50995632,18.0795716 4.50995632,23.3078843 C4.50995632,28.8243576 6.54551704,33.7580009 11.10952,39.3046512 C15.5207825,44.6660979 22.0821609,50.2979539 29.6792373,56.8191438 L29.6933364,56.830978 C32.3492583,59.1108205 35.3600083,61.6953916 38.4935379,64.4551076 C41.6458664,61.6900661 44.6613159,59.1013532 47.3225249,56.8179604 C54.9190139,50.2967705 61.479805,44.6660979 65.8910674,39.3046512 C70.454483,33.7580009 72.4900437,28.8243576 72.4900437,23.3078843 C72.4900437,18.0795716 70.7446899,13.2938549 67.5759126,9.83178404 C64.4541321,6.42119164 60.1615371,4.54311742 55.4900283,4.54311742 C52.0674668,4.54311742 48.925125,5.63895646 46.1505356,7.7998663 C43.6779023,9.72646047 41.9554595,12.1619215 40.9456101,13.8660343 C40.4262925,14.7423507 39.5121994,15.2654187 38.5,15.2654187 C37.4878006,15.2654187 36.5737075,14.7423507 36.0543899,13.8660343 C35.0451279,12.1619215 33.3226853,9.72646047 30.8494644,7.7998663 C28.074875,5.63895646 24.9325332,4.54311742 21.5105591,4.54311742 Z" id="Shape"></path>
            </g>
        </g>
    </g>
</svg>