<?xml version="1.0" encoding="UTF-8"?>
<svg width="77px" height="69px" viewBox="0 0 77 69" version="1.1" xmlns="http://www.w3.org/2000/svg" xmlns:xlink="http://www.w3.org/1999/xlink">
    <title>like</title>
    <g id="Social" stroke="none" stroke-width="1" fill="none" fill-rule="evenodd">
        <g id="질문-답변-후-(사진-배경-흰색)" transform="translate(-948.000000, -1839.000000)" fill="#E84E56" fill-rule="nonzero">
            <g id="like" transform="translate(948.000000, 1839.000000)">
                <path d="M56.546875,0 C52.3685723,0 48.5378223,1.34397345 45.161252,3.99467257 C41.9240938,6.53591814 39.7688457,9.77265929 38.5,12.126292 C37.2311543,9.77250664 35.0759063,6.53591814 31.838748,3.99467257 C28.4621777,1.34397345 24.6314277,0 20.453125,0 C8.79303906,0 0,9.68091372 0,22.5187301 C0,36.3880354 10.9699434,45.8772146 27.5769785,60.2424956 C30.3971035,62.682073 33.5936563,65.4472633 36.9160859,68.3964027 C37.3540234,68.7856726 37.9164844,69 38.5,69 C39.0835156,69 39.6459766,68.7856726 40.0839141,68.3965553 C43.4066445,65.446958 46.6030469,62.6819204 49.4248262,60.240969 C66.0300566,45.8772146 77,36.3880354 77,22.5187301 C77,9.68091372 68.2069609,0 56.546875,0 Z" id="Path"></path>
            </g>
        </g>
    </g>
</svg>