<svg xmlns="http://www.w3.org/2000/svg" width="20" height="18" viewBox="0 0 82 74">
  <path id="Path" d="M56.547,0A18.059,18.059,0,0,0,45.161,3.995,26.248,26.248,0,0,0,38.5,12.126a26.246,26.246,0,0,0-6.661-8.132A18.059,18.059,0,0,0,20.453,0C8.793,0,0,9.681,0,22.519,0,36.388,10.97,45.877,27.577,60.242c2.82,2.44,6.017,5.2,9.339,8.154a2.38,2.38,0,0,0,3.168,0c3.323-2.95,6.519-5.715,9.341-8.156C66.03,45.877,77,36.388,77,22.519,77,9.681,68.207,0,56.547,0Z" transform="translate(2.5 2.5)" fill="white" stroke="#000" stroke-width="5"/>
</svg>
