<?xml version="1.0" encoding="UTF-8"?>
<svg width="60px" height="64px" viewBox="0 0 60 64" version="1.1" xmlns="http://www.w3.org/2000/svg" xmlns:xlink="http://www.w3.org/1999/xlink">
    <title>Group 9</title>
    <defs>
        <polygon id="path-1" points="0.249416899 0.0124960413 12.9215734 0.0124960413 12.9215734 12.6652524 0.249416899 12.6652524"></polygon>
        <polygon id="path-3" points="0.000147239264 0.12179965 46.8586748 0.12179965 46.8586748 47.0439203 0.000147239264 47.0439203"></polygon>
    </defs>
    <g id="Social" stroke="none" stroke-width="1" fill="none" fill-rule="evenodd">
        <g id="상황" transform="translate(-87.000000, -264.000000)">
            <g id="Group" transform="translate(48.000000, 227.000000)">
                <g id="Group-2">
                    <g id="Group-9" transform="translate(39.000000, 37.000000)">
                        <g id="Group-3" transform="translate(9.202454, 0.355035)">
                            <mask id="mask-2" fill="white">
                                <use xlink:href="#path-1"></use>
                            </mask>
                            <g id="Clip-2"></g>
                            <path d="M3.41565644,5.00370898 C3.95381595,3.72801017 5.19982822,2.90437403 6.58976687,2.90437403 C7.04841718,2.90437403 7.49712883,2.99441903 7.92080982,3.17377398 C9.66706748,3.90883524 10.4893988,5.92694591 9.75357055,7.67051121 C9.39651534,8.51656671 8.73025767,9.17260888 7.87737423,9.51919027 C7.02633129,9.86577165 6.09062577,9.85658338 5.24804908,9.5004462 C4.40252761,9.14504409 3.74694479,8.47981365 3.40019632,7.63008284 C3.05381595,6.78035203 3.05933742,5.84572164 3.41565644,5.00370898 M4.12166871,12.1657783 C4.91087117,12.4976585 5.73909202,12.6652524 6.5831411,12.6652524 C7.40289571,12.6652524 8.20608589,12.5068467 8.97209816,12.1951808 C10.539092,11.5593528 11.7648589,10.3523822 12.4219141,8.7947874 C13.0782331,7.24123544 13.0885399,5.52155963 12.4495215,3.95477656 C11.8119755,2.38836103 10.602773,1.16448404 9.04682209,0.509911993 C5.8244908,-0.846276023 2.1041227,0.666847571 0.747312883,3.87906526 C-0.610233129,7.092018 0.904490798,10.8092228 4.12166871,12.1657783" id="Fill-1" fill="#00CE7C" mask="url(#mask-2)"></path>
                        </g>
                        <g id="Group-6" transform="translate(0.000000, 15.056260)">
                            <mask id="mask-4" fill="white">
                                <use xlink:href="#path-3"></use>
                            </mask>
                            <g id="Clip-5"></g>
                            <path d="M4.60579141,23.4614646 C4.60579141,14.7355525 10.532908,7.37207634 18.5754847,5.15917443 C18.9347485,3.1392261 19.626773,1.38684007 20.2422331,0.12179965 C8.81352147,1.76355896 0.000147239264,11.6019863 0.000147239264,23.4614646 C0.000147239264,36.4639632 10.5962209,47.0440673 23.6199018,47.0440673 C35.2094724,47.0440673 44.8691043,38.6647366 46.8586748,27.6579293 C45.2762209,28.2566367 43.5987975,28.6609204 41.8540123,28.8351299 C39.5265276,36.6933023 32.2359755,42.4451566 23.6199018,42.4451566 C13.1360982,42.4451566 4.60579141,33.9291044 4.60579141,23.4614646 Z" id="Fill-4" fill="#00CE7C" mask="url(#mask-4)"></path>
                        </g>
                        <path d="M46.2767853,21.0046326 L42.5122454,24.3778287 L42.0830429,24.7622658 C41.996908,24.8394472 41.8758037,24.8655419 41.7650061,24.8306265 L34.5859877,22.5710482 L40.2819387,26.4723858 C40.3688098,26.5319257 40.421816,26.6296889 40.4243926,26.7348027 L40.4994847,29.7919224 L40.5351902,31.2543268 L39.4353129,29.0517157 C39.3256196,28.8326675 39.0226748,28.8062053 38.876908,29.0035692 L35.2894233,33.8564436 C35.1469693,34.0493972 34.8517546,34.029183 34.736908,33.818588 L27.1297914,19.8616124 L26.0589939,17.8964261 L25.7843926,17.3932767 C25.6529816,17.1518091 25.8591166,16.8655027 26.1300368,16.9132817 L26.5146994,16.9812749 L36.4548221,18.7340284 L46.114454,20.4375329 C46.3842699,20.4853119 46.4807117,20.8219699 46.2767853,21.0046326 M32.2975215,12.6664653 C32.4716319,11.8307006 33.2913865,11.2941059 34.1284417,11.4679479 C34.9654969,11.6414224 35.5032883,12.4599131 35.3291779,13.2956777 C35.1554356,14.1318099 34.335681,14.6684046 33.4982577,14.4945626 C32.6612025,14.3207206 32.1237791,13.5025975 32.2975215,12.6664653 M39.1080736,14.3155752 C39.1953129,13.8976929 39.6050061,13.6293955 40.0235337,13.7161328 C40.4420613,13.80287 40.710773,14.2122991 40.6239018,14.6301814 C40.5370307,15.0480638 40.1269693,15.3163611 39.7084417,15.2296239 C39.2899141,15.1428867 39.0212025,14.7338251 39.1080736,14.3155752 M39.8659877,4.44995058 C37.4965399,4.44995058 35.2345767,4.89245745 33.1268466,5.65802375 C33.3535951,6.1181721 33.4688098,6.63749287 33.3561718,7.17813043 C33.0878282,8.4677954 31.8230429,9.29620943 30.5317546,9.02791208 C29.802184,8.87648946 29.250773,8.39318668 28.9301595,7.78161572 C26.7550675,9.22968639 24.8652515,11.0721174 23.4090552,13.2398131 C23.0358037,13.7958869 22.6916319,14.3725425 22.3754356,14.9661044 C21.5759264,16.4659969 20.967092,18.081294 20.5750675,19.7785505 C20.3177669,20.8921683 20.149546,22.0395989 20.0902822,23.2160644 C20.0733497,23.5486796 20.0648834,23.8838676 20.0648834,24.2205256 C20.0648834,35.121484 28.9481963,43.9911007 39.8659877,43.9911007 C40.5370307,43.9911007 41.1999755,43.9569203 41.8540859,43.8911323 C42.3027975,42.3765386 42.5656196,40.7836609 42.6189939,39.1382263 C42.6256196,38.9316741 42.6348221,38.7258569 42.6348221,38.517467 C42.6348221,36.5394172 42.3248834,34.6334034 41.7594847,32.8394864 C41.7587485,32.8358111 41.7602209,32.8347085 41.7591166,32.8306656 C41.6785031,32.5678812 41.5953129,32.198513 41.5953129,32.198513 C41.5813252,32.096707 41.5717546,31.9934309 41.5717546,31.887582 C41.5717546,30.6184988 42.6020613,29.5897806 43.8734724,29.5897806 C44.0170307,29.5897806 44.1572761,29.6044818 44.2938405,29.6298414 C45.0966626,29.7779562 45.7518773,30.3421158 46.0297914,31.0904081 C46.0522454,31.1580338 46.0724908,31.2263944 46.0942086,31.2936526 C46.7313865,33.2621466 47.1219387,35.3394297 47.2146994,37.4942618 C47.2294233,37.8338601 47.2408344,38.174561 47.2408344,38.517467 C47.2408344,39.9501014 47.1050061,41.3507606 46.8587485,42.7139317 C54.3355583,39.8857836 59.667092,32.6645418 59.667092,24.2205256 C59.667092,13.3199347 50.7837791,4.44995058 39.8659877,4.44995058" id="Fill-7" fill="#00CE7C"></path>
                    </g>
                </g>
            </g>
        </g>
    </g>
</svg>