<svg xmlns="http://www.w3.org/2000/svg" width="31" height="36" viewBox="0 0 31 36">
  <g id="triangle_l" transform="translate(31) rotate(90)" fill="#141414">
    <path d="M 32.52600860595703 30.5 L 3.473989963531494 30.5 C 2.930939912796021 30.5 2.444979906082153 30.21903038024902 2.174030065536499 29.74839973449707 C 1.903090000152588 29.27777099609375 1.904129981994629 28.71642112731934 2.176810026168823 28.24680137634277 L 16.70281028747559 3.229790449142456 C 16.97434043884277 2.762170553207397 17.45927047729492 2.482990503311157 18 2.482990503311157 C 18.54072952270508 2.482990503311157 19.02565956115723 2.762170553207397 19.29718971252441 3.229790449142456 L 33.82320022583008 28.24680137634277 C 34.09587860107422 28.71642112731934 34.09690856933594 29.27777099609375 33.82596969604492 29.74839973449707 C 33.55501937866211 30.21903038024902 33.06906127929688 30.5 32.52600860595703 30.5 Z" stroke="none"/>
    <path d="M 18 2.982990264892578 C 17.82690048217773 2.982990264892578 17.39612007141113 3.031499862670898 17.13521003723145 3.480859756469727 L 2.609199523925781 28.49785995483398 C 2.347171783447266 28.94914054870605 2.520618438720703 29.34827041625977 2.607349395751953 29.49892997741699 C 2.694091796875 29.64958953857422 2.952159881591797 30 3.473991394042969 30 L 32.52600860595703 30 C 33.0478401184082 30 33.305908203125 29.64958953857422 33.39263916015625 29.49892997741699 C 33.4793815612793 29.34827041625977 33.6528205871582 28.94914054870605 33.39078903198242 28.49787139892578 L 18.86478996276855 3.480859756469727 C 18.6038703918457 3.031499862670898 18.17309951782227 2.982990264892578 18 2.982990264892578 M 18 1.982990264892578 C 18.67206764221191 1.982990264892578 19.34413528442383 2.314901351928711 19.72957992553711 2.978719711303711 L 34.25558090209961 27.99573135375977 C 35.02976989746094 29.32905006408691 34.06779861450195 31 32.52600860595703 31 L 3.473991394042969 31 C 1.932201385498047 31 0.9702301025390625 29.32905006408691 1.744411468505859 27.99573135375977 L 16.27042007446289 2.978719711303711 C 16.65586471557617 2.314901351928711 17.32793235778809 1.982990264892578 18 1.982990264892578 Z" stroke="none" fill="#141414"/>
  </g>
</svg>
