<?xml version="1.0" encoding="UTF-8"?>
<svg width="194px" height="271px" viewBox="0 0 194 271" version="1.1" xmlns="http://www.w3.org/2000/svg" xmlns:xlink="http://www.w3.org/1999/xlink">
    <title>Group 65</title>
    <g id="Social" stroke="none" stroke-width="1" fill="none" fill-rule="evenodd">
        <g id="결과-모달-전체-copy-2" transform="translate(-443.000000, -2375.000000)">
            <g id="Group-65" transform="translate(445.000000, 2376.000000)">
                <g id="Group-4" transform="translate(52.000000, 219.677000)">
                    <path d="M11.3055,0.9344 L11.3055,28.9764 L14.5265,28.7054 C4.4185,28.7054 0.2425,35.7904 0.8545,42.1354 C1.4795,48.6034 6.7315,48.499501 10.1965,48.499501 L28.0375,48.499501 C39.9165,48.499501 38.4755,40.0354 38.4755,40.0354 L38.4755,0.9344" id="Fill-1" fill="#F5BF3A"></path>
                    <path d="M11.3055,0.9344 L11.3055,28.9764 L14.5265,28.7054 C4.4185,28.7054 0.2425,35.7904 0.8545,42.1354 C1.4795,48.6034 6.7315,48.499501 10.1965,48.499501 L28.0375,48.499501 C39.9165,48.499501 38.4755,40.0354 38.4755,40.0354 L38.4755,0.9344" id="Stroke-3" stroke="#080304" stroke-width="3" stroke-linecap="round" stroke-linejoin="round"></path>
                </g>
                <g id="Group-8" transform="translate(99.000000, 219.677000)">
                    <path d="M28.2078,0.9344 L28.2078,28.9764 L24.9888,28.7054 C35.1008,28.7054 39.2738,35.7904 38.6588,42.1354 C38.0358,48.6034 32.7818,48.499501 29.3228,48.499501 L11.4778,48.499501 C-0.4012,48.499501 1.0458,40.0354 1.0458,40.0354 L1.0458,0.9344" id="Fill-5" fill="#F5BF3A"></path>
                    <path d="M28.2078,0.9344 L28.2078,28.9764 L24.9888,28.7054 C35.1008,28.7054 39.2738,35.7904 38.6588,42.1354 C38.0358,48.6034 32.7818,48.499501 29.3228,48.499501 L11.4778,48.499501 C-0.4012,48.499501 1.0458,40.0354 1.0458,40.0354 L1.0458,0.9344" id="Stroke-7" stroke="#080304" stroke-width="3" stroke-linecap="round" stroke-linejoin="round"></path>
                </g>
                <g id="Group-12" transform="translate(25.000000, 162.677000)">
                    <path d="M24.5613,0.7508 C24.5613,0.7508 3.9813,14.7468 0.5943,40.6338 C-2.2217,62.1578 7.3893,72.6678 16.7473,73.5908 C25.9183,74.4948 29.7353,69.1408 30.9013,65.2078" id="Fill-9" fill="#FFFFFF"></path>
                    <path d="M24.5613,0.7508 C24.5613,0.7508 3.9813,14.7468 0.5943,40.6338 C-2.2217,62.1578 7.3893,72.6678 16.7473,73.5908 C25.9183,74.4948 29.7353,69.1408 30.9013,65.2078" id="Stroke-11" stroke="#080304" stroke-width="3" stroke-linecap="round" stroke-linejoin="round"></path>
                </g>
                <g id="Group-16" transform="translate(41.000000, 228.677000)">
                    <path d="M0.6785,0.3026 C0.6785,0.3026 2.8115,5.5206 7.8305,6.8416" id="Fill-13" fill="#FFFFFF"></path>
                    <path d="M0.6785,0.3026 C0.6785,0.3026 2.8115,5.5206 7.8305,6.8416" id="Stroke-15" stroke="#080304" stroke-width="3" stroke-linecap="round" stroke-linejoin="round"></path>
                </g>
                <g id="Group-20" transform="translate(134.000000, 162.677000)">
                    <path d="M6.952,0.7508 C6.952,0.7508 27.532,14.7468 30.917,40.6338 C33.735,62.1578 24.13,72.6678 14.772,73.5908 C5.598,74.4948 1.782,69.1408 0.614,65.2078" id="Fill-17" fill="#FFFFFF"></path>
                    <path d="M6.952,0.7508 C6.952,0.7508 27.532,14.7468 30.917,40.6338 C33.735,62.1578 24.13,72.6678 14.772,73.5908 C5.598,74.4948 1.782,69.1408 0.614,65.2078" id="Stroke-19" stroke="#080304" stroke-width="3" stroke-linecap="round" stroke-linejoin="round"></path>
                </g>
                <g id="Group-24" transform="translate(141.000000, 228.677000)">
                    <path d="M7.8387,0.3026 C7.8387,0.3026 5.7057,5.5206 0.6827,6.8416" id="Fill-21" fill="#FFFFFF"></path>
                    <path d="M7.8387,0.3026 C7.8387,0.3026 5.7057,5.5206 0.6827,6.8416" id="Stroke-23" stroke="#080304" stroke-width="3" stroke-linecap="round" stroke-linejoin="round"></path>
                </g>
                <g id="Group-28" transform="translate(43.000000, 169.677000)">
                    <path d="M96.3543,0.1532 C96.3543,0.1532 103.9343,10.9772 103.9343,31.8242 C103.9343,52.6712 86.7093,69.0042 52.2603,69.0042 C17.8073,69.0042 0.5833,52.6712 0.5833,31.8242 C0.5833,10.9772 8.1653,0.1532 8.1653,0.1532" id="Fill-25" fill="#FFFFFF"></path>
                    <path d="M96.3543,0.1532 C96.3543,0.1532 103.9343,10.9772 103.9343,31.8242 C103.9343,52.6712 86.7093,69.0042 52.2603,69.0042 C17.8073,69.0042 0.5833,52.6712 0.5833,31.8242 C0.5833,10.9772 8.1653,0.1532 8.1653,0.1532" id="Stroke-27" stroke="#080304" stroke-width="3" stroke-linecap="round" stroke-linejoin="round"></path>
                </g>
                <path d="M93.8523,174.8224 C93.8523,174.8224 99.0923,187.2944 87.5593,201.3484 C87.5593,201.3484 81.9633,195.3874 83.1663,187.2794 C84.3723,179.1694 93.8523,174.8224 93.8523,174.8224" id="Fill-29" fill="#4784B3"></path>
                <path d="M93.8523,174.8224 C93.8523,174.8224 99.0923,187.2944 87.5593,201.3484 C87.5593,201.3484 81.9633,195.3874 83.1663,187.2794 C84.3723,179.1694 93.8523,174.8224 93.8523,174.8224 Z" id="Stroke-31" stroke="#080304" stroke-width="3" stroke-linecap="round" stroke-linejoin="round"></path>
                <path d="M96.5867,174.8224 C96.5867,174.8224 91.3487,187.2944 102.8837,201.3484 C102.8837,201.3484 108.4817,195.3874 107.2747,187.2794 C106.0667,179.1694 96.5867,174.8224 96.5867,174.8224" id="Fill-33" fill="#4784B3"></path>
                <path d="M96.5867,174.8224 C96.5867,174.8224 91.3487,187.2944 102.8837,201.3484 C102.8837,201.3484 108.4817,195.3874 107.2747,187.2794 C106.0667,179.1694 96.5867,174.8224 96.5867,174.8224 Z" id="Stroke-35" stroke="#080304" stroke-width="3" stroke-linecap="round" stroke-linejoin="round"></path>
                <g id="Group-40" transform="translate(49.000000, 167.677000)">
                    <path d="M91.827,0.2284 C91.827,0.2284 84.028,18.4994 46.261,13.3484 C8.485,18.4994 0.694,0.2284 0.694,0.2284" id="Fill-37" fill="#4784B3"></path>
                    <path d="M91.827,0.2284 C91.827,0.2284 84.028,18.4994 46.261,13.3484 C8.485,18.4994 0.694,0.2284 0.694,0.2284" id="Stroke-39" stroke="#080304" stroke-width="3" stroke-linecap="round" stroke-linejoin="round"></path>
                </g>
                <path d="M101.2059,180.0089 C101.2059,182.2679 99.3739,184.0959 97.1219,184.0959 L93.3989,184.0959 C91.1419,184.0959 89.3109,182.2679 89.3109,180.0089 L89.3109,174.8029 C89.3109,172.5409 91.1419,170.7139 93.3989,170.7139 L97.1219,170.7139 C99.3739,170.7139 101.2059,172.5409 101.2059,174.8029 L101.2059,180.0089 Z" id="Fill-41" fill="#255E80"></path>
                <path d="M101.2059,180.0089 C101.2059,182.2679 99.3739,184.0959 97.1219,184.0959 L93.3989,184.0959 C91.1419,184.0959 89.3109,182.2679 89.3109,180.0089 L89.3109,174.8029 C89.3109,172.5409 91.1419,170.7139 93.3989,170.7139 L97.1219,170.7139 C99.3739,170.7139 101.2059,172.5409 101.2059,174.8029 L101.2059,180.0089 Z" id="Stroke-43" stroke="#080304" stroke-width="3" stroke-linecap="round" stroke-linejoin="round"></path>
                <path d="M96.8914,15.2345 C96.8914,15.2345 86.5804,10.2365 89.6394,0.5005" id="Stroke-45" stroke="#080304" stroke-width="3" stroke-linecap="round" stroke-linejoin="round"></path>
                <path d="M95.2605,173.296 C133.0555,173.296 189.9575,163.875 189.944502,105.844 C189.9245,43.986 150.9985,15.234 95.2605,15.234 C39.5165,15.234 0.5885,43.986 0.576494189,105.844 C0.5555,163.875 57.4615,173.296 95.2605,173.296" id="Fill-47" fill="#FFFFFF"></path>
                <path d="M189.9324,103.9952 C181.6104,88.0902 159.2724,90.7622 159.2724,90.7622 C159.2724,90.7622 156.7434,54.0262 119.8684,53.8962 C102.8914,53.8392 95.2604,66.7492 95.2604,66.7492 C95.2604,66.7492 87.6234,53.8392 70.6494,53.8962 C33.7744,54.0262 31.2454,90.7622 31.2454,90.7622 C31.2454,90.7622 8.9094,88.0902 0.5864,103.9952 C0.5864,103.9952 -5.9836,15.2342 95.2604,15.2342 C196.4984,15.2342 189.9324,103.9952 189.9324,103.9952" id="Fill-49" fill="#7C6A68"></path>
                <path d="M189.9324,103.9952 C181.6104,88.0902 159.2724,90.7622 159.2724,90.7622 C159.2724,90.7622 156.7434,54.0262 119.8684,53.8962 C102.8914,53.8392 95.2604,66.7492 95.2604,66.7492 C95.2604,66.7492 87.6234,53.8392 70.6494,53.8962 C33.7744,54.0262 31.2454,90.7622 31.2454,90.7622 C31.2454,90.7622 8.9094,88.0902 0.5864,103.9952 C0.5864,103.9952 -5.9836,15.2342 95.2604,15.2342 C196.4984,15.2342 189.9324,103.9952 189.9324,103.9952 Z" id="Stroke-51" stroke="#7C6A68" stroke-width="3" stroke-linecap="round" stroke-linejoin="round"></path>
                <path d="M95.2605,173.296 C133.0555,173.296 189.9575,163.875 189.944502,105.844 C189.9245,43.986 150.9985,15.234 95.2605,15.234 C39.5165,15.234 0.5885,43.986 0.576494189,105.844 C0.5555,163.875 57.4615,173.296 95.2605,173.296 Z" id="Stroke-53" stroke="#080304" stroke-width="3" stroke-linecap="round" stroke-linejoin="round"></path>
                <path d="M95.2605,111.3956 C103.4575,111.3956 110.1745,107.9376 110.1745,103.0016 C110.1745,98.0586 103.0635,93.1206 95.2605,93.1206 C87.4515,93.1206 80.3425,98.0586 80.3425,103.0016 C80.3425,107.9376 87.0615,111.3956 95.2605,111.3956" id="Fill-55" fill="#EDB61D"></path>
                <path d="M95.2605,111.3956 C103.4575,111.3956 110.1745,107.9376 110.1745,103.0016 C110.1745,98.0586 103.0635,93.1206 95.2605,93.1206 C87.4515,93.1206 80.3425,98.0586 80.3425,103.0016 C80.3425,107.9376 87.0615,111.3956 95.2605,111.3956 Z" id="Stroke-57" stroke="#080304" stroke-width="3" stroke-linecap="round" stroke-linejoin="round"></path>
                <path d="M103.8523,101.5167 C103.8523,101.5167 101.9753,104.7827 95.2603,104.7827 C88.5383,104.7827 86.6653,101.5167 86.6653,101.5167" id="Stroke-59" stroke="#080304" stroke-width="3" stroke-linecap="round" stroke-linejoin="round"></path>
                <path d="M79.2566,86.922 C79.2566,91.598 76.8266,95.383 73.8346,95.383 C70.8346,95.383 68.4046,91.598 68.4046,86.922 C68.4046,82.248 70.8346,78.463 73.8346,78.463 C76.8266,78.463 79.2566,82.248 79.2566,86.922" id="Fill-61" fill="#080304"></path>
                <path d="M111.2586,86.922 C111.2586,91.598 113.6866,95.383 116.6806,95.383 C119.6806,95.383 122.1086,91.598 122.1086,86.922 C122.1086,82.248 119.6806,78.463 116.6806,78.463 C113.6866,78.463 111.2586,82.248 111.2586,86.922" id="Fill-63" fill="#080304"></path>
            </g>
        </g>
    </g>
</svg>