<?xml version="1.0" encoding="UTF-8"?>
<svg width="173px" height="243px" viewBox="0 0 173 243" version="1.1" xmlns="http://www.w3.org/2000/svg" xmlns:xlink="http://www.w3.org/1999/xlink">
    <title>Group 74</title>
    <g id="Social" stroke="none" stroke-width="1" fill="none" fill-rule="evenodd">
        <g id="결과-모달-전체-copy-2" transform="translate(-455.000000, -2404.000000)">
            <g id="Group-74" transform="translate(457.000000, 2406.000000)">
                <path d="M76.8378378,210 C76.8378378,210 77.2027027,216.779266 76.8378378,224.386955 C76.472973,231.98774 73.5019305,239 60.4996264,239 C47.5057292,239 44.5262797,231.98774 44.1614149,224.386955 C43.7982314,216.779266 44.1614149,210 44.1614149,210" id="Fill-1" fill="#F4A457"></path>
                <path d="M44.2570714,228 L75.9480425,228 C75.9480425,228 77.8061674,239 59.2986265,239 C40.7927999,239 44.2570714,228 44.2570714,228" id="Fill-3" fill="#FFFFFF"></path>
                <path d="M76.8378378,210 C76.8378378,210 77.2027027,216.779266 76.8378378,224.386955 C76.472973,231.98774 73.5019305,239 60.4996264,239 C47.5057292,239 44.5262797,231.98774 44.1614149,224.386955 C43.7982314,216.779266 44.1614149,210 44.1614149,210" id="Stroke-5" stroke="#080304" stroke-width="3" stroke-linecap="round" stroke-linejoin="round"></path>
                <path d="M125.837838,210 C125.837838,210 126.202703,216.779266 125.837838,224.386955 C125.472973,231.98774 122.495205,239 109.499626,239 C96.5023664,239 93.5262797,231.98774 93.1614149,224.386955 C92.7982314,216.779266 93.1614149,210 93.1614149,210" id="Fill-7" fill="#F4A457"></path>
                <path d="M93.2567527,228 L124.947765,228 C124.947765,228 126.809522,239 108.303383,239 C89.7938162,239 93.2567527,228 93.2567527,228" id="Fill-9" fill="#FFFFFF"></path>
                <path d="M125.837838,210 C125.837838,210 126.202703,216.779266 125.837838,224.386955 C125.472973,231.98774 122.495205,239 109.499626,239 C96.5023664,239 93.5262797,231.98774 93.1614149,224.386955 C92.7982314,216.779266 93.1614149,210 93.1614149,210" id="Stroke-11" stroke="#080304" stroke-width="3" stroke-linecap="round" stroke-linejoin="round"></path>
                <g id="Group-16" transform="translate(18.000000, 151.000000)">
                    <path d="M18.4015235,0.583070588 C18.4015235,0.583070588 7.26381765,12.9336588 2.54875882,27.6468941 C-0.753829412,37.9623647 -2.65247647,55.7717765 12.0471118,57.6772471 C25.6975824,59.4564824 27.7071118,46.0960118 27.7071118,46.0960118" id="Fill-13" fill="#F4A457"></path>
                    <path d="M18.4015235,0.583070588 C18.4015235,0.583070588 7.26381765,12.9336588 2.54875882,27.6468941 C-0.753829412,37.9623647 -2.65247647,55.7717765 12.0471118,57.6772471 C25.6975824,59.4564824 27.7071118,46.0960118 27.7071118,46.0960118" id="Stroke-15" stroke="#080304" stroke-width="3" stroke-linecap="round" stroke-linejoin="round"></path>
                </g>
                <g id="Group-20" transform="translate(123.000000, 151.000000)">
                    <path d="M9.7788,0.583070588 C9.7788,0.583070588 20.9199176,12.9336588 25.6281529,27.6468941 C28.9392706,37.9623647 30.8293882,55.7717765 16.1366235,57.6772471 C2.48274118,59.4564824 0.473211765,46.0960118 0.473211765,46.0960118" id="Fill-17" fill="#F4A457"></path>
                    <path d="M9.7788,0.583070588 C9.7788,0.583070588 20.9199176,12.9336588 25.6281529,27.6468941 C28.9392706,37.9623647 30.8293882,55.7717765 16.1366235,57.6772471 C2.48274118,59.4564824 0.473211765,46.0960118 0.473211765,46.0960118" id="Stroke-19" stroke="#080304" stroke-width="3" stroke-linecap="round" stroke-linejoin="round"></path>
                </g>
                <g id="Group-24" transform="translate(36.000000, 159.000000)">
                    <path d="M93.1976,0.592628571 C93.1976,0.592628571 95.927214,10.6880571 95.927214,30.1246286 C95.927214,49.5629143 79.9817754,59.5812 48.0943018,59.5812 C16.2000211,59.5812 0.259687719,49.5629143 0.259687719,30.1246286 C0.259687719,10.6880571 2.9876,0.592628571 2.9876,0.592628571" id="Fill-21" fill="#F4A457"></path>
                    <path d="M93.1976,0.592628571 C93.1976,0.592628571 95.927214,10.6880571 95.927214,30.1246286 C95.927214,49.5629143 79.9817754,59.5812 48.0943018,59.5812 C16.2000211,59.5812 0.259687719,49.5629143 0.259687719,30.1246286 C0.259687719,10.6880571 2.9876,0.592628571 2.9876,0.592628571" id="Stroke-23" stroke="#080304" stroke-width="3" stroke-linecap="round" stroke-linejoin="round"></path>
                </g>
                <path d="M85.0029322,199 C108.755661,199 113.545712,190.473994 112.953128,177.928367 C112.115338,160.036814 100.192146,148 85.0029322,148 C69.8069074,148 57.887121,160.036814 57.0459247,177.928367 C56.4601523,190.473994 61.2433923,199 85.0029322,199" id="Fill-25" fill="#FFFFFF"></path>
                <g id="Group-30" transform="translate(84.000000, 0.000000)">
                    <path d="M0.433,8.24483333 C0.433,8.24483333 0.466333333,3.06316667 4.69466667,0.149833333" id="Fill-27" fill="#DF4342"></path>
                    <path d="M0.433,8.24483333 C0.433,8.24483333 0.466333333,3.06316667 4.69466667,0.149833333" id="Stroke-29" stroke="#080304" stroke-width="3" stroke-linecap="round" stroke-linejoin="round"></path>
                </g>
                <path d="M84.4983773,31.3015163 C92.146409,31.3015163 113.489203,37.6976107 113.989715,25.6658086 C114.488536,13.6442131 96.7338752,8 84.4983773,8 C72.2662613,8 54.5082183,13.6442131 55.0104216,25.6658086 C55.510934,37.6976107 76.8537275,31.3015163 84.4983773,31.3015163" id="Fill-31" fill="#DF4342"></path>
                <path d="M84.4983773,31.3015163 C92.146409,31.3015163 113.489203,37.6976107 113.989715,25.6658086 C114.488536,13.6442131 96.7338752,8 84.4983773,8 C72.2662613,8 54.5082183,13.6442131 55.0104216,25.6658086 C55.510934,37.6976107 76.8537275,31.3015163 84.4983773,31.3015163 Z" id="Stroke-33" stroke="#080304" stroke-width="3" stroke-linecap="round" stroke-linejoin="round"></path>
                <g id="Group-38" transform="translate(35.000000, 11.000000)">
                    <path d="M31.3716211,13.2433437 C31.3716211,13.2433437 28.1749895,-3.07309375 12.8941474,0.57528125 C-5.72648421,5.02690625 2.45372632,25.1317812 2.45372632,25.1317812" id="Fill-35" fill="#F4A457"></path>
                    <path d="M31.3716211,13.2433437 C31.3716211,13.2433437 28.1749895,-3.07309375 12.8941474,0.57528125 C-5.72648421,5.02690625 2.45372632,25.1317812 2.45372632,25.1317812" id="Stroke-37" stroke="#080304" stroke-width="3" stroke-linecap="round" stroke-linejoin="round"></path>
                </g>
                <g id="Group-42" transform="translate(102.000000, 11.000000)">
                    <path d="M0.52065,13.2433437 C0.52065,13.2433437 3.74725,-3.07309375 19.16115,0.57528125 C37.96655,5.02690625 29.70625,25.1317812 29.70625,25.1317812" id="Fill-39" fill="#F4A457"></path>
                    <path d="M0.52065,13.2433437 C0.52065,13.2433437 3.74725,-3.07309375 19.16115,0.57528125 C37.96655,5.02690625 29.70625,25.1317812 29.70625,25.1317812" id="Stroke-41" stroke="#080304" stroke-width="3" stroke-linecap="round" stroke-linejoin="round"></path>
                </g>
                <path d="M84.5,166 C118.230374,166 169.016977,157.539662 169,105.4049 C168.989807,49.8254861 134.247334,24 84.5,24 C34.7560604,24 0.0169842358,49.8254861 0,105.4049 C-0.0135824832,157.539662 50.7662285,166 84.5,166" id="Fill-43" fill="#F4A457"></path>
                <path d="M84.997142,63 C84.2202732,63 83.5442965,62.457451 83.3626908,61.6865507 C77.8708004,38.4908651 67.6218498,28.2322254 67.5175947,28.1309267 C67.0618989,27.6845256 66.8887009,27.0132071 67.0719882,26.3951134 C67.2552754,25.7770196 67.7614171,25.3151662 68.3835848,25.2001321 C68.6509487,25.1520581 75.0491861,24 84.997142,24 C94.9417349,24 101.34838,25.1520581 101.615744,25.2001321 C102.237911,25.3151662 102.745735,25.7753027 102.929022,26.3951134 C103.110628,27.0132071 102.93743,27.6845256 102.481734,28.1309267 C102.37916,28.2322254 92.1285283,38.4908651 86.6315932,61.6865507 C86.448306,62.457451 85.7723293,63 84.997142,63" id="Fill-45" fill="#7B5126"></path>
                <path d="M84.9969253,23 C74.7380572,23 68.0913222,24.1657698 67.8128086,24.2150516 C66.5466825,24.4427676 65.5146444,25.3570301 65.1438626,26.582278 C64.7747894,27.8075258 65.1284845,29.1364354 66.0597109,30.0218086 C66.1519792,30.110176 76.234854,40.0158204 81.6752664,62.3999595 C82.0460483,63.924297 83.4181121,65 84.9969253,65 C86.5740297,65 87.9478022,63.9259964 88.3185841,62.4016589 C93.8119653,39.8220918 103.840163,30.1152741 103.940974,30.0218086 C104.872201,29.1364354 105.225896,27.8075258 104.855114,26.582278 C104.484332,25.3570301 103.454003,24.4410682 102.186168,24.2150516 C101.907654,24.1657698 95.2506673,23 84.9969253,23 M84.9969253,26.3987457 C95.0661307,26.3987457 101.583007,27.5611167 101.583007,27.5611167 C101.583007,27.5611167 90.7910328,37.7896419 84.9969253,61.6012543 C79.2096524,37.7896419 68.4176786,27.5611167 68.4176786,27.5611167 C68.4176786,27.5611167 74.9243024,26.3987457 84.9969253,26.3987457" id="Fill-47" fill="#7B5126"></path>
                <path d="M84.4966041,166 C118.230375,166 169.01528,157.539662 169,105.4049 C168.986411,49.8254861 134.247335,24 84.4966041,24 C34.7526655,24 0.0169857682,49.8254861 0,105.4049 C-0.0169772527,157.539662 50.7662298,166 84.4966041,166 Z" id="Stroke-49" stroke="#080304" stroke-width="3" stroke-linecap="round" stroke-linejoin="round"></path>
                <g id="Group-54" transform="translate(68.000000, 17.000000)">
                    <path d="M6.61685,21.4596462 C6.61685,21.4596462 1.73955,20.5830308 0.66005,13.7782615 C-0.42625,6.97518462 6.88545,-0.976969231 17.37445,6.90918462 C17.37445,6.90918462 16.97325,1.58518462 21.29975,0.573184615 C25.63645,-0.433738462 29.76235,2.5278 32.32935,11.0147231" id="Fill-51" fill="#7B5126"></path>
                    <path d="M6.61685,21.4596462 C6.61685,21.4596462 1.73955,20.5830308 0.66005,13.7782615 C-0.42625,6.97518462 6.88545,-0.976969231 17.37445,6.90918462 C17.37445,6.90918462 16.97325,1.58518462 21.29975,0.573184615 C25.63645,-0.433738462 29.76235,2.5278 32.32935,11.0147231" id="Stroke-53" stroke="#080304" stroke-width="3" stroke-linecap="round" stroke-linejoin="round"></path>
                </g>
                <g id="Group-59" transform="translate(31.000000, 81.000000)" fill="#EE7F2F">
                    <path d="M28.1729194,13.7386647 C28.1729194,21.2411353 22.079629,27.3191941 14.5655968,27.3191941 C7.05156452,27.3191941 0.961693548,21.2411353 0.961693548,13.7386647 C0.961693548,6.24472353 7.05156452,0.164958824 14.5655968,0.164958824 C22.079629,0.164958824 28.1729194,6.24472353 28.1729194,13.7386647" id="Fill-55"></path>
                    <path d="M105.926484,13.7386647 C105.926484,21.2411353 99.8349032,27.3191941 92.3191613,27.3191941 C84.8085484,27.3191941 78.7152581,21.2411353 78.7152581,13.7386647 C78.7152581,6.24472353 84.8085484,0.164958824 92.3191613,0.164958824 C99.8349032,0.164958824 105.926484,6.24472353 105.926484,13.7386647" id="Fill-57"></path>
                </g>
                <path d="M74,85.0033246 C74,88.86654 71.3144956,92 68.0033908,92 C64.6855044,92 62,88.86654 62,85.0033246 C62,81.1301354 64.6855044,78 68.0033908,78 C71.3144956,78 74,81.1301354 74,85.0033246" id="Fill-60" fill="#080304"></path>
                <path d="M96,85.0033246 C96,88.86654 98.6847458,92 101.998305,92 C105.311864,92 108,88.86654 108,85.0033246 C108,81.1301354 105.311864,78 101.998305,78 C98.6847458,78 96,81.1301354 96,85.0033246" id="Fill-62" fill="#080304"></path>
                <g id="Group-67" transform="translate(79.000000, 99.000000)">
                    <path d="M16.27291,0.451485714 C16.27291,0.451485714 16.41911,3.36405714 16.47521,4.63262857 C16.57551,6.53548571 17.00731,9.34177143 10.89071,9.65891429 L8.62291,9.77034286 L6.36191,9.89034286 C0.24531,10.1989143 0.38811,7.35834286 0.29631,5.4572 C0.22831,4.18862857 0.08381,1.28462857 0.08381,1.28462857" id="Fill-64" fill="#FFFFFF"></path>
                    <path d="M16.27291,0.451485714 C16.27291,0.451485714 16.41911,3.36405714 16.47521,4.63262857 C16.57551,6.53548571 17.00731,9.34177143 10.89071,9.65891429 L8.62291,9.77034286 L6.36191,9.89034286 C0.24531,10.1989143 0.38811,7.35834286 0.29631,5.4572 C0.22831,4.18862857 0.08381,1.28462857 0.08381,1.28462857" id="Stroke-66" stroke="#080304" stroke-width="3" stroke-linecap="round" stroke-linejoin="round"></path>
                </g>
                <path d="M72,99.7298925 C72,99.7298925 89.7408385,103.522644 100,98" id="Stroke-68" stroke="#080304" stroke-width="3" stroke-linecap="round" stroke-linejoin="round"></path>
                <path d="M100.299,96 C100.299,96 100.839,97.5601504 101.701,98" id="Stroke-70" stroke="#080304" stroke-width="3" stroke-linecap="round" stroke-linejoin="round"></path>
                <path d="M88,85 C88,86.6558082 86.4333497,88 84.5,88 C82.5666503,88 81,86.6558082 81,85 C81,83.3441918 82.5666503,82 84.5,82 C86.4333497,82 88,83.3441918 88,85" id="Fill-72" fill="#080304"></path>
            </g>
        </g>
    </g>
</svg>