<?xml version="1.0" encoding="UTF-8"?>
<svg width="235px" height="317px" viewBox="0 0 235 317" version="1.1" xmlns="http://www.w3.org/2000/svg" xmlns:xlink="http://www.w3.org/1999/xlink">
    <title>Group 125</title>
    <g id="Social" stroke="none" stroke-width="1" fill="none" fill-rule="evenodd">
        <g id="결과-모달-전체-copy-2" transform="translate(-424.000000, -1479.000000)">
            <g id="Group-125" transform="translate(426.000000, 1481.000000)">
                <g id="Group-4" transform="translate(47.000000, 196.000000)">
                    <path d="M21.0678696,0.471157895 C21.0678696,0.471157895 8.61930435,13.6850526 2.32252174,41.5389474 C-1.85726087,60.0101053 2.77265217,71.2231579 14.916087,71.5932632 C27.8349565,71.9873684 27.8273913,62.0235789 27.8273913,62.0235789" id="Fill-1" fill="#E98670"></path>
                    <path d="M21.0678696,0.471157895 C21.0678696,0.471157895 8.61930435,13.6850526 2.32252174,41.5389474 C-1.85726087,60.0101053 2.77265217,71.2231579 14.916087,71.5932632 C27.8349565,71.9873684 27.8273913,62.0235789 27.8273913,62.0235789" id="Stroke-3" stroke="#080304" stroke-width="3" stroke-linecap="round" stroke-linejoin="round"></path>
                </g>
                <g id="Group-8" transform="translate(45.000000, 191.000000)">
                    <path d="M37.0228933,3.723125 C31.7586267,3.420625 23.32516,0.656875 23.32516,0.656875 C23.32516,0.656875 10.8586267,10.298125 4.06042667,33.359375 C-1.21017333,51.233125 0.406093333,56.796875 0.406093333,56.796875 C0.406093333,56.796875 10.97516,60.893125 22.34476,59.343125" id="Fill-5" fill="#784A42"></path>
                    <path d="M37.0228933,3.723125 C31.7586267,3.420625 23.32516,0.656875 23.32516,0.656875 C23.32516,0.656875 10.8586267,10.298125 4.06042667,33.359375 C-1.21017333,51.233125 0.406093333,56.796875 0.406093333,56.796875 C0.406093333,56.796875 10.97516,60.893125 22.34476,59.343125" id="Stroke-7" stroke="#080304" stroke-width="3" stroke-linecap="round" stroke-linejoin="round"></path>
                </g>
                <g id="Group-12" transform="translate(155.000000, 196.000000)">
                    <path d="M7.40523636,0.471157895 C7.40523636,0.471157895 19.9708727,13.6850526 26.3294182,41.5389474 C30.5459636,60.0101053 25.8725091,71.2231579 13.6148727,71.5932632 C0.574509091,71.9873684 0.582145449,62.0235789 0.582145449,62.0235789" id="Fill-9" fill="#E98670"></path>
                    <path d="M7.40523636,0.471157895 C7.40523636,0.471157895 19.9708727,13.6850526 26.3294182,41.5389474 C30.5459636,60.0101053 25.8725091,71.2231579 13.6148727,71.5932632 C0.574509091,71.9873684 0.582145449,62.0235789 0.582145449,62.0235789" id="Stroke-11" stroke="#080304" stroke-width="3" stroke-linecap="round" stroke-linejoin="round"></path>
                </g>
                <g id="Group-16" transform="translate(148.000000, 191.000000)">
                    <path d="M0.378606667,3.723125 C5.64287333,3.420625 14.07634,0.656875 14.07634,0.656875 C14.07634,0.656875 26.5428733,10.298125 33.3410733,33.359375 C38.6116733,51.233125 36.9928733,56.796875 36.9928733,56.796875 C36.9928733,56.796875 26.42634,60.893125 15.05674,59.343125" id="Fill-13" fill="#784A42"></path>
                    <path d="M0.378606667,3.723125 C5.64287333,3.420625 14.07634,0.656875 14.07634,0.656875 C14.07634,0.656875 26.5428733,10.298125 33.3410733,33.359375 C38.6116733,51.233125 36.9928733,56.796875 36.9928733,56.796875 C36.9928733,56.796875 26.42634,60.893125 15.05674,59.343125" id="Stroke-15" stroke="#080304" stroke-width="3" stroke-linecap="round" stroke-linejoin="round"></path>
                </g>
                <g id="Group-20" transform="translate(54.000000, 265.000000)">
                    <path d="M47.8865778,3.53114103 C47.8865778,3.53114103 47.8992,11.5947821 46.9960421,30.0979359 C46.1472,47.5230897 39.9867789,48.3711667 36.1227789,48.3711667 L16.3417263,48.3711667 C13.1623579,48.3711667 0.655831579,48.0620897 0.649514152,35.8246538 C0.644463158,23.8033205 12.3375158,23.5080641 12.3375158,23.5080641 L16.0853053,0.343628205" id="Fill-17" fill="#E98670"></path>
                    <path d="M47.8865778,3.53114103 C47.8865778,3.53114103 47.8992,11.5947821 46.9960421,30.0979359 C46.1472,47.5230897 39.9867789,48.3711667 36.1227789,48.3711667 L16.3417263,48.3711667 C13.1623579,48.3711667 0.655831579,48.0620897 0.649514152,35.8246538 C0.644463158,23.8033205 12.3375158,23.5080641 12.3375158,23.5080641 L16.0853053,0.343628205" id="Stroke-19" stroke="#080304" stroke-width="3" stroke-linecap="round" stroke-linejoin="round"></path>
                </g>
                <path d="M67.6453151,281 L66.4860372,288.257951 C66.4860372,288.257951 54.9962773,288.55052 55,300.513323 C55.0074481,312.692428 67.2965388,313 70.4206315,313 L89.8577752,313 C93.6545966,313 99.707914,312.154802 100.541998,294.814488 C100.735625,290.807299 100.883327,287.317731 101,284.272017 C83.7126093,284.123232 72.1036945,281.986481 67.6453151,281" id="Fill-21" fill="#FFFFFF"></path>
                <path d="M68,287 C68,287 75.1221597,291.408853 101,290.969172" id="Stroke-23" stroke="#A2C545" stroke-width="3" stroke-linecap="round" stroke-linejoin="round"></path>
                <g id="Group-28" transform="translate(66.000000, 287.000000)">
                    <path d="M0.92112,1.06635 C3.14952,1.06635 5.38152,1.91535 5.38152,1.91535" id="Fill-25" fill="#B8DFF6"></path>
                    <path d="M0.92112,1.06635 C3.14952,1.06635 5.38152,1.91535 5.38152,1.91535" id="Stroke-27" stroke="#080304" stroke-width="3" stroke-linecap="round" stroke-linejoin="round"></path>
                </g>
                <path d="M102,268.185685 C102,268.185685 102.012559,276.244703 101.113934,294.737247 C100.269351,312.152409 94.1398471,313 90.2952389,313 L70.6134593,313 C67.4500469,313 55.0062857,312.6911 55,300.460681 C54.9949744,288.446241 66.6293443,288.151154 66.6293443,288.151154 L70.3583251,265" id="Stroke-29" stroke="#080304" stroke-width="3" stroke-linecap="round" stroke-linejoin="round"></path>
                <path d="M68,281 C68,281 80.0694271,285.056847 101,284.999396" id="Stroke-31" stroke="#080304" stroke-width="3" stroke-linecap="round" stroke-linejoin="round"></path>
                <g id="Group-36" transform="translate(128.000000, 265.000000)">
                    <path d="M0.777959928,3.53114103 C0.777959928,3.53114103 0.765405128,11.5947821 1.66373846,30.0979359 C2.50804615,47.5230897 8.63807179,48.3711667 12.4801744,48.3711667 L32.1568154,48.3711667 C35.3192,48.3711667 47.7589179,48.0620897 47.7626888,35.8246538 C47.7677128,23.8033205 36.1371231,23.5080641 36.1371231,23.5080641 L32.4093538,0.343628205" id="Fill-33" fill="#E98670"></path>
                    <path d="M0.777959928,3.53114103 C0.777959928,3.53114103 0.765405128,11.5947821 1.66373846,30.0979359 C2.50804615,47.5230897 8.63807179,48.3711667 12.4801744,48.3711667 L32.1568154,48.3711667 C35.3192,48.3711667 47.7589179,48.0620897 47.7626888,35.8246538 C47.7677128,23.8033205 36.1371231,23.5080641 36.1371231,23.5080641 L32.4093538,0.343628205" id="Stroke-35" stroke="#080304" stroke-width="3" stroke-linecap="round" stroke-linejoin="round"></path>
                </g>
                <path d="M162.353784,281 L163.515513,288.257951 C163.515513,288.257951 175.004963,288.55052 175,300.513323 C174.996275,312.692428 162.707516,313 159.583508,313 L140.145647,313 C136.35017,313 130.294533,312.154802 129.460472,294.814488 C129.26685,290.807299 129.119152,287.317731 129,284.272017 C146.289406,284.123232 157.898008,281.986481 162.353784,281" id="Fill-37" fill="#FFFFFF"></path>
                <path d="M163,287 C163,287 155.877306,291.408853 130,290.969172" id="Stroke-39" stroke="#A2C545" stroke-width="3" stroke-linecap="round" stroke-linejoin="round"></path>
                <g id="Group-44" transform="translate(159.000000, 287.000000)">
                    <path d="M4.702125,1.06635 C2.383375,1.06635 0.058375,1.91535 0.058375,1.91535" id="Fill-41" fill="#B8DFF6"></path>
                    <path d="M4.702125,1.06635 C2.383375,1.06635 0.058375,1.91535 0.058375,1.91535" id="Stroke-43" stroke="#080304" stroke-width="3" stroke-linecap="round" stroke-linejoin="round"></path>
                </g>
                <path d="M129,268.185685 C129,268.185685 128.987441,276.244703 129.886066,294.737247 C130.730649,312.152409 136.862667,313 140.706018,313 L160.389054,313 C163.552467,313 175.996228,312.6911 176,300.460681 C176.005026,288.446241 164.370656,288.151154 164.370656,288.151154 L160.641675,265" id="Stroke-45" stroke="#080304" stroke-width="3" stroke-linecap="round" stroke-linejoin="round"></path>
                <path d="M162,281 C162,281 149.932156,285.056847 129,284.999396" id="Stroke-47" stroke="#080304" stroke-width="3" stroke-linecap="round" stroke-linejoin="round"></path>
                <g id="Group-52" transform="translate(60.000000, 191.000000)">
                    <path d="M100.0025,0.076625 C100.0025,0.076625 109.1925,27.410375 109.02625,74.592875 C109.02625,74.592875 88.60375,83.585375 54.71,83.585375 C20.8125,83.585375 0.38875,74.592875 0.38875,74.592875 C0.225,27.410375 9.41625,0.076625 9.41625,0.076625" id="Fill-49" fill="#784A42"></path>
                    <path d="M100.0025,0.076625 C100.0025,0.076625 109.1925,27.410375 109.02625,74.592875 C109.02625,74.592875 88.60375,83.585375 54.71,83.585375 C20.8125,83.585375 0.38875,74.592875 0.38875,74.592875 C0.225,27.410375 9.41625,0.076625 9.41625,0.076625" id="Stroke-51" stroke="#080304" stroke-width="3" stroke-linecap="round" stroke-linejoin="round"></path>
                </g>
                <g id="Group-56" transform="translate(95.000000, 199.000000)">
                    <path d="M1.79595,0.5865 C1.79595,0.5865 0.11145,11.9063333 1.79595,22.1093889" id="Fill-53" fill="#EC745C"></path>
                    <path d="M1.79595,0.5865 C1.79595,0.5865 0.11145,11.9063333 1.79595,22.1093889" id="Stroke-55" stroke="#080304" stroke-width="3" stroke-linecap="round" stroke-linejoin="round"></path>
                </g>
                <path d="M101,221.5 C101,223.983302 98.9870655,226 96.4975748,226 C94.0129345,226 92,223.983302 92,221.5 C92,219.016698 94.0129345,217 96.4975748,217 C98.9870655,217 101,219.016698 101,221.5" id="Fill-57" fill="#A2C545"></path>
                <path d="M101,221.5 C101,223.983302 98.9870655,226 96.4975748,226 C94.0129345,226 92,223.983302 92,221.5 C92,219.016698 94.0129345,217 96.4975748,217 C98.9870655,217 101,219.016698 101,221.5 Z" id="Stroke-59" stroke="#080304" stroke-width="3" stroke-linecap="round" stroke-linejoin="round"></path>
                <g id="Group-64" transform="translate(133.000000, 199.000000)">
                    <path d="M0.84875,0.5865 C0.84875,0.5865 2.53325,11.9063333 0.84875,22.1093889" id="Fill-61" fill="#EC745C"></path>
                    <path d="M0.84875,0.5865 C0.84875,0.5865 2.53325,11.9063333 0.84875,22.1093889" id="Stroke-63" stroke="#080304" stroke-width="3" stroke-linecap="round" stroke-linejoin="round"></path>
                </g>
                <path d="M129,221.5 C129,223.983302 131.012392,226 133.501212,226 C135.985183,226 138,223.983302 138,221.5 C138,219.016698 135.985183,217 133.501212,217 C131.012392,217 129,219.016698 129,221.5" id="Fill-65" fill="#A2C545"></path>
                <path d="M129,221.5 C129,223.983302 131.012392,226 133.501212,226 C135.985183,226 138,223.983302 138,221.5 C138,219.016698 135.985183,217 133.501212,217 C131.012392,217 129,219.016698 129,221.5 Z" id="Stroke-67" stroke="#080304" stroke-width="3" stroke-linecap="round" stroke-linejoin="round"></path>
                <line x1="72.623" y1="224" x2="72.377" y2="227" id="Stroke-69" stroke="#663B35" stroke-width="3" stroke-linecap="round" stroke-linejoin="round"></line>
                <line x1="157.378" y1="224" x2="157.622" y2="227" id="Stroke-71" stroke="#663B35" stroke-width="3" stroke-linecap="round" stroke-linejoin="round"></line>
                <g id="Group-76" transform="translate(73.000000, 235.000000)">
                    <path d="M7.3421,0.387284211 C7.3421,0.387284211 6.01652857,14.5851789 0.157528571,22.8727579" id="Fill-73" fill="#784A42"></path>
                    <path d="M7.3421,0.387284211 C7.3421,0.387284211 6.01652857,14.5851789 0.157528571,22.8727579" id="Stroke-75" stroke="#080304" stroke-width="3" stroke-linecap="round" stroke-linejoin="round"></path>
                </g>
                <g id="Group-80" transform="translate(150.000000, 235.000000)">
                    <path d="M0.0548,0.387284211 C0.0548,0.387284211 1.42946667,14.5851789 7.5028,22.8727579" id="Fill-77" fill="#784A42"></path>
                    <path d="M0.0548,0.387284211 C0.0548,0.387284211 1.42946667,14.5851789 7.5028,22.8727579" id="Stroke-79" stroke="#080304" stroke-width="3" stroke-linecap="round" stroke-linejoin="round"></path>
                </g>
                <g id="Group-84" transform="translate(19.000000, 0.000000)">
                    <path d="M0.0413863014,87.6906171 C0.0413863014,87.6906171 29.1626329,2.70524571 46.7393452,0.554274286 C64.3110712,-1.59292571 89.8683589,51.0348457 89.8683589,51.0348457" id="Fill-81" fill="#E98670"></path>
                    <path d="M0.0413863014,87.6906171 C0.0413863014,87.6906171 29.1626329,2.70524571 46.7393452,0.554274286 C64.3110712,-1.59292571 89.8683589,51.0348457 89.8683589,51.0348457" id="Stroke-83" stroke="#080304" stroke-width="3" stroke-linecap="round" stroke-linejoin="round"></path>
                </g>
                <path d="M37,80 C37,80 56.7791494,22.4955099 68.7102583,21.0433826 C80.6450949,19.5887581 98,55.1977159 98,55.1977159" id="Fill-85" fill="#FFFFFF"></path>
                <g id="Group-90" transform="translate(121.000000, 0.000000)">
                    <path d="M90.3767123,87.6906171 C90.3767123,87.6906171 61.2504795,2.70524571 43.6787534,0.554274286 C26.1070274,-1.59292571 0.549739726,51.0348457 0.549739726,51.0348457" id="Fill-87" fill="#E98670"></path>
                    <path d="M90.3767123,87.6906171 C90.3767123,87.6906171 61.2504795,2.70524571 43.6787534,0.554274286 C26.1070274,-1.59292571 0.549739726,51.0348457 0.549739726,51.0348457" id="Stroke-89" stroke="#080304" stroke-width="3" stroke-linecap="round" stroke-linejoin="round"></path>
                </g>
                <path d="M194,80 C194,80 174.225821,22.4955099 162.294712,21.0433826 C150.35739,19.5887581 133,55.1977159 133,55.1977159" id="Fill-91" fill="#FFFFFF"></path>
                <path d="M115.495619,200 C216.865982,200 231,128.8565 231,128.8565 C228.369979,128.532166 220.893007,28 115.495619,28 C10.1007343,28 2.6312732,128.532166 0,128.8565 C0,128.8565 14.1290108,200 115.495619,200" id="Fill-93" fill="#784A42"></path>
                <path d="M115.495619,200 C216.865982,200 231,128.8565 231,128.8565 C228.369979,128.532166 220.893007,28 115.495619,28 C10.1007343,28 2.6312732,128.532166 0,128.8565 C0,128.8565 14.1290108,200 115.495619,200 Z" id="Stroke-95" stroke="#080304" stroke-width="3" stroke-linecap="round" stroke-linejoin="round"></path>
                <path d="M115.497352,200 C190.970632,200 206.35612,152.926535 207.859257,140.970694 C210.340625,121.240426 180.029254,68 115.497352,68 C50.972984,68 20.6616128,121.240426 23.1404697,140.970694 C24.6436063,152.926535 40.0290947,200 115.497352,200" id="Fill-97" fill="#E98670"></path>
                <path d="M115.497352,200 C190.970632,200 206.35612,152.926535 207.859257,140.970694 C210.340625,121.240426 180.029254,68 115.497352,68 C50.972984,68 20.6616128,121.240426 23.1404697,140.970694 C24.6436063,152.926535 40.0290947,200 115.497352,200 Z" id="Stroke-99" stroke="#080304" stroke-width="3" stroke-linecap="round" stroke-linejoin="round"></path>
                <path d="M100,119.998766 C100,124.97258 97.0917971,129 93.5018492,129 C89.9082029,129 87,124.97258 87,119.998766 C87,115.029888 89.9082029,111 93.5018492,111 C97.0917971,111 100,115.029888 100,119.998766" id="Fill-101" fill="#080304"></path>
                <path d="M131,119.998766 C131,124.97258 133.908203,129 137.500616,129 C141.091797,129 144,124.97258 144,119.998766 C144,115.029888 141.091797,111 137.500616,111 C133.908203,111 131,115.029888 131,119.998766" id="Fill-103" fill="#080304"></path>
                <path d="M151,112.894874 C151,112.894874 141.854389,115 115.504362,115 C89.150596,115 80,112.894874 80,112.894874 C80,112.894874 84.2824091,106 115.504362,106 C146.720084,106 151,112.894874 151,112.894874" id="Fill-105" fill="#E98670"></path>
                <g id="Group-110" transform="translate(79.000000, 113.000000)">
                    <path d="M72.0536431,0.0219 C72.0536431,0.0219 62.8178845,2.5884 36.2081259,2.5884 C9.59459138,2.5884 0.353798276,0.0219 0.353798276,0.0219" id="Fill-107" fill="#EE7C1A"></path>
                    <path d="M72.0536431,0.0219 C72.0536431,0.0219 62.8178845,2.5884 36.2081259,2.5884 C9.59459138,2.5884 0.353798276,0.0219 0.353798276,0.0219" id="Stroke-109" stroke="#080304" stroke-width="3" stroke-linecap="round" stroke-linejoin="round"></path>
                </g>
                <path d="M115.501924,130 C118.003718,128.723639 116.923205,128 115.501924,128 C114.073368,128 112.996493,128.723639 115.501924,130" id="Fill-111" fill="#EE7C1A"></path>
                <path d="M115.501924,130 C118.003718,128.723639 116.923205,128 115.501924,128 C114.073368,128 112.996493,128.723639 115.501924,130 Z" id="Stroke-113" stroke="#080304" stroke-width="3" stroke-linecap="round" stroke-linejoin="round"></path>
                <g id="Group-118" transform="translate(114.000000, 130.000000)">
                    <line x1="1.1514" y1="0.80736" x2="1.1514" y2="5.13816" id="Fill-115" fill="#EC745C"></line>
                    <line x1="1.1514" y1="0.80736" x2="1.1514" y2="5.13816" id="Stroke-117" stroke="#080304" stroke-width="3" stroke-linecap="round" stroke-linejoin="round"></line>
                </g>
                <path d="M97,134.891147 C97,134.891147 98.403921,142.44688 115,134" id="Stroke-119" stroke="#080304" stroke-width="3" stroke-linecap="round" stroke-linejoin="round"></path>
                <path d="M133,134.891147 C133,134.891147 131.59823,142.44688 115,134" id="Stroke-121" stroke="#080304" stroke-width="3" stroke-linecap="round" stroke-linejoin="round"></path>
                <path d="M150,126.502671 C150,127.329475 149.329475,128 148.497329,128 C147.667854,128 147,127.329475 147,126.502671 C147,125.675868 147.667854,125 148.497329,125 C149.329475,125 150,125.675868 150,126.502671" id="Fill-123" fill="#080304"></path>
            </g>
        </g>
    </g>
</svg>