<?xml version="1.0" encoding="UTF-8"?>
<svg width="225px" height="301px" viewBox="0 0 225 301" version="1.1" xmlns="http://www.w3.org/2000/svg" xmlns:xlink="http://www.w3.org/1999/xlink">
    <title>Group 91</title>
    <g id="Social" stroke="none" stroke-width="1" fill="none" fill-rule="evenodd">
        <g id="결과-모달-전체-copy-2" transform="translate(-427.000000, -1496.000000)">
            <g id="Group-91" transform="translate(429.000000, 1498.000000)">
                <path d="M63.8052395,242 L62.6074335,267.782355 C62.6074335,267.782355 48.9911969,268.129421 49,282.253014 C49.0088117,296.638565 63.5685407,297 67.2709504,297 L92.8355227,297 C103.232655,297 103.819448,292.904843 103.819448,276.390474 C103.819448,254.621483 104,244.308983 104,244.308983 L63.8052395,242 Z" id="Fill-1" fill="#C28E5F"></path>
                <path d="M63.8052395,242 L62.6074335,267.782355 C62.6074335,267.782355 48.9911969,268.129421 49,282.253014 C49.0088117,296.638565 63.5685407,297 67.2709504,297 L92.8355227,297 C103.232655,297 103.819448,292.904843 103.819448,276.390474 C103.819448,254.621483 104,244.308983 104,244.308983 L63.8052395,242 Z" id="Stroke-3" stroke="#080304" stroke-width="3" stroke-linecap="round" stroke-linejoin="round"></path>
                <g id="Group-8" transform="translate(61.000000, 267.000000)">
                    <path d="M0.883516667,1.0664 C3.77685,1.0664 6.67368333,1.8284 6.67368333,1.8284" id="Fill-5" fill="#BD8750"></path>
                    <path d="M0.883516667,1.0664 C3.77685,1.0664 6.67368333,1.8284 6.67368333,1.8284" id="Stroke-7" stroke="#080304" stroke-width="3" stroke-linecap="round" stroke-linejoin="round"></path>
                </g>
                <path d="M157.192773,242 L158.390651,267.782355 C158.390651,267.782355 172.004403,268.129421 172,282.253014 C171.993393,296.638565 157.429486,297 153.729055,297 L128.160744,297 C116.361425,297 117.173957,292.904843 117.173957,276.390474 C117.173957,254.621483 117,244.308983 117,244.308983 L157.192773,242 Z" id="Fill-9" fill="#C28E5F"></path>
                <path d="M157.192773,242 L158.390651,267.782355 C158.390651,267.782355 172.004403,268.129421 172,282.253014 C171.993393,296.638565 157.429486,297 153.729055,297 L128.160744,297 C116.361425,297 117.173957,292.904843 117.173957,276.390474 C117.173957,254.621483 117,244.308983 117,244.308983 L157.192773,242 Z" id="Stroke-11" stroke="#080304" stroke-width="3" stroke-linecap="round" stroke-linejoin="round"></path>
                <g id="Group-16" transform="translate(152.000000, 267.000000)">
                    <path d="M6.34095,1.0664 C3.44761667,1.0664 0.553116667,1.8284 0.553116667,1.8284" id="Fill-13" fill="#BD8750"></path>
                    <path d="M6.34095,1.0664 C3.44761667,1.0664 0.553116667,1.8284 0.553116667,1.8284" id="Stroke-15" stroke="#080304" stroke-width="3" stroke-linecap="round" stroke-linejoin="round"></path>
                </g>
                <g id="Group-20" transform="translate(25.000000, 165.000000)">
                    <path d="M26.7335526,0.115 C26.7335526,0.115 9.86723684,15.3138889 3.04776316,43.4372222 C-3.77171053,71.555 3.73523684,88.7961111 22.2262895,89.365 C41.9021842,89.9705556 41.8933421,74.7427778 41.8933421,74.7427778" id="Fill-17" fill="#C28E5F"></path>
                    <path d="M26.7335526,0.115 C26.7335526,0.115 9.86723684,15.3138889 3.04776316,43.4372222 C-3.77171053,71.555 3.73523684,88.7961111 22.2262895,89.365 C41.9021842,89.9705556 41.8933421,74.7427778 41.8933421,74.7427778" id="Stroke-19" stroke="#080304" stroke-width="3" stroke-linecap="round" stroke-linejoin="round"></path>
                </g>
                <g id="Group-24" transform="translate(153.000000, 165.000000)">
                    <path d="M15.4796526,0.115 C15.4796526,0.115 32.3459684,15.3138889 39.1676526,43.4372222 C45.9871263,71.555 38.4768632,88.7961111 19.9847053,89.365 C0.309915789,89.9705556 0.320968414,74.7427778 0.320968414,74.7427778" id="Fill-21" fill="#C28E5F"></path>
                    <path d="M15.4796526,0.115 C15.4796526,0.115 32.3459684,15.3138889 39.1676526,43.4372222 C45.9871263,71.555 38.4768632,88.7961111 19.9847053,89.365 C0.309915789,89.9705556 0.320968414,74.7427778 0.320968414,74.7427778" id="Stroke-23" stroke="#080304" stroke-width="3" stroke-linecap="round" stroke-linejoin="round"></path>
                </g>
                <g id="Group-28" transform="translate(43.000000, 180.000000)">
                    <path d="M122.695493,0.00754520548 C122.695493,0.00754520548 132.343534,12.7267644 132.343534,37.2165041 C132.343534,61.7073534 110.432893,80.8988055 66.6060675,80.8988055 C22.7836758,80.8988055 0.8708175,61.7073534 0.8708175,37.2165041 C0.8708175,12.7267644 10.5210758,0.00754520548 10.5210758,0.00754520548" id="Fill-25" fill="#C28E5F"></path>
                    <path d="M122.695493,0.00754520548 C122.695493,0.00754520548 132.343534,12.7267644 132.343534,37.2165041 C132.343534,61.7073534 110.432893,80.8988055 66.6060675,80.8988055 C22.7836758,80.8988055 0.8708175,61.7073534 0.8708175,37.2165041 C0.8708175,12.7267644 10.5210758,0.00754520548 10.5210758,0.00754520548" id="Stroke-27" stroke="#080304" stroke-width="3" stroke-linecap="round" stroke-linejoin="round"></path>
                </g>
                <g id="Group-32" transform="translate(49.000000, 184.000000)">
                    <path d="M122.208061,0.779 C122.208061,0.779 76.9082036,29.9601111 61.1059536,29.9601111 C45.3048107,29.9601111 0.00495357143,0.779 0.00495357143,0.779" id="Fill-29" fill="#EE7F43"></path>
                    <path d="M122.208061,0.779 C122.208061,0.779 76.9082036,29.9601111 61.1059536,29.9601111 C45.3048107,29.9601111 0.00495357143,0.779 0.00495357143,0.779" id="Stroke-31" stroke="#080304" stroke-width="3" stroke-linecap="round" stroke-linejoin="round"></path>
                </g>
                <path d="M39.2129114,182.756727 C39.2129114,182.756727 43.8855874,178.364213 53,183.470635 C53,183.470635 42.7407873,201.644426 44.5003264,220 C44.5003264,220 34.6326112,200.22873 39.2129114,182.756727" id="Fill-33" fill="#1FAD5D"></path>
                <path d="M39.2129114,182.756727 C39.2129114,182.756727 43.8855874,178.364213 53,183.470635 C53,183.470635 42.7407873,201.644426 44.5003264,220 C44.5003264,220 34.6326112,200.22873 39.2129114,182.756727 Z" id="Stroke-35" stroke="#080304" stroke-width="3" stroke-linecap="round" stroke-linejoin="round"></path>
                <path d="M180.787737,182.756727 C180.787737,182.756727 176.114487,178.364213 167,183.470635 C167,183.470635 177.261357,201.644426 175.499817,220 C175.499817,220 185.366422,200.22873 180.787737,182.756727" id="Fill-37" fill="#1FAD5D"></path>
                <path d="M180.787737,182.756727 C180.787737,182.756727 176.114487,178.364213 167,183.470635 C167,183.470635 177.261357,201.644426 175.499817,220 C175.499817,220 185.366422,200.22873 180.787737,182.756727 Z" id="Stroke-39" stroke="#080304" stroke-width="3" stroke-linecap="round" stroke-linejoin="round"></path>
                <path d="M67,29.9966393 C67,45.4635727 54.6876838,58 39.5005501,58 C24.3145166,58 12,45.4635727 12,29.9966393 C12,14.5341868 24.3145166,2 39.5005501,2 C54.6876838,2 67,14.5341868 67,29.9966393" id="Fill-41" fill="#C28E5F"></path>
                <path d="M67,29.9966393 C67,45.4635727 54.6876838,58 39.5005501,58 C24.3145166,58 12,45.4635727 12,29.9966393 C12,14.5341868 24.3145166,2 39.5005501,2 C54.6876838,2 67,14.5341868 67,29.9966393 Z" id="Stroke-43" stroke="#080304" stroke-width="3" stroke-linecap="round" stroke-linejoin="round"></path>
                <path d="M53,30.4977675 C53,37.9554738 46.9533749,44 39.499442,44 C32.0488571,44 26,37.9554738 26,30.4977675 C26,23.04341 32.0488571,17 39.499442,17 C46.9533749,17 53,23.04341 53,30.4977675" id="Fill-45" fill="#FFFFFF"></path>
                <path d="M153,29.9966393 C153,45.4635727 165.310855,58 180.5,58 C195.689145,58 208,45.4635727 208,29.9966393 C208,14.5341868 195.689145,2 180.5,2 C165.310855,2 153,14.5341868 153,29.9966393" id="Fill-47" fill="#C28E5F"></path>
                <path d="M153,29.9966393 C153,45.4635727 165.310855,58 180.5,58 C195.689145,58 208,45.4635727 208,29.9966393 C208,14.5341868 195.689145,2 180.5,2 C165.310855,2 153,14.5341868 153,29.9966393 Z" id="Stroke-49" stroke="#080304" stroke-width="3" stroke-linecap="round" stroke-linejoin="round"></path>
                <path d="M167,30.4977675 C167,37.9554738 173.044393,44 180.499442,44 C187.951143,44 194,37.9554738 194,30.4977675 C194,23.04341 187.951143,17 180.499442,17 C173.044393,17 167,23.04341 167,30.4977675" id="Fill-51" fill="#FFFFFF"></path>
                <path d="M110.497227,193 C154.607359,193 221.018857,181.975551 221,114.053018 C220.980026,41.6508285 175.555178,8 110.497227,8 C45.4481528,8 0.0255238362,41.6508285 0,114.053018 C-0.0232926479,181.975551 66.3893151,193 110.497227,193" id="Fill-53" fill="#C28E5F"></path>
                <path d="M110.497227,193 C154.607359,193 221.018857,181.975551 221,114.053018 C220.980026,41.6508285 175.555178,8 110.497227,8 C45.4481528,8 0.0255238362,41.6508285 0,114.053018 C-0.0232926479,181.975551 66.3893151,193 110.497227,193 Z" id="Stroke-55" stroke="#080304" stroke-width="3" stroke-linecap="round" stroke-linejoin="round"></path>
                <path d="M118,6.50218157 C118,10.0897802 114.419073,13 109.997295,13 C105.582009,13 102,10.0897802 102,6.50218157 C102,2.91240141 105.582009,0 109.997295,0 C114.419073,0 118,2.91240141 118,6.50218157" id="Fill-57" fill="#EE7F43"></path>
                <path d="M118,6.50218157 C118,10.0897802 114.419073,13 109.997295,13 C105.582009,13 102,10.0897802 102,6.50218157 C102,2.91240141 105.582009,0 109.997295,0 C114.419073,0 118,2.91240141 118,6.50218157 Z" id="Stroke-59" stroke="#080304" stroke-width="3" stroke-linecap="round" stroke-linejoin="round"></path>
                <path d="M112.08574,7.03259449 C111.561958,7.00899158 111.03264,7 110.497785,7 C109.968467,7 109.438042,7.00899158 108.910938,7.03259449 C73.1011289,7.35741544 41.041948,18.7182811 18,47.6880391 C18,47.6880391 49.6405988,50 110.497785,50 C171.359401,50 203,47.6880391 203,47.6880391 C179.959159,18.7182811 147.897764,7.35741544 112.08574,7.03259449" id="Fill-61" fill="#1FAD5D"></path>
                <g id="Group-66" transform="translate(76.000000, 32.000000)">
                    <path d="M66.7944217,17.359425 C66.7944217,17.359425 63.7168883,0.5238 33.6059717,0.5238 C3.49952167,0.5238 0.421988333,17.359425 0.421988333,17.359425" id="Fill-63" fill="#C28E5F"></path>
                    <path d="M66.7944217,17.359425 C66.7944217,17.359425 63.7168883,0.5238 33.6059717,0.5238 C3.49952167,0.5238 0.421988333,17.359425 0.421988333,17.359425" id="Stroke-65" stroke="#080304" stroke-width="3" stroke-linecap="round" stroke-linejoin="round"></path>
                </g>
                <path d="M112.08574,7.03259449 C111.561958,7.00899158 111.03264,7 110.497785,7 C109.968467,7 109.438042,7.00899158 108.910938,7.03259449 C73.1011289,7.35741544 41.041948,18.7182811 18,47.6880391 C18,47.6880391 49.6405988,50 110.497785,50 C171.359401,50 203,47.6880391 203,47.6880391 C179.959159,18.7182811 147.897764,7.35741544 112.08574,7.03259449 Z" id="Stroke-67" stroke="#080304" stroke-width="3" stroke-linecap="round" stroke-linejoin="round"></path>
                <g id="Group-72" transform="translate(90.000000, 45.000000)">
                    <path d="M0.45016875,1.057875 C2.15610625,6.03254167 6.90733542,11.6962083 17.9556271,11.9215417 C29.4235021,12.1479583 28.9752104,6.69770833 28.9752104,6.69770833 C28.9752104,6.69770833 34.9465438,12.6332917 44.9469813,11.7005417 C54.9452104,10.7732083 54.1170854,4.10420833 48.8457938,0.965791667" id="Fill-69" fill="#C28E5F"></path>
                    <path d="M0.45016875,1.057875 C2.15610625,6.03254167 6.90733542,11.6962083 17.9556271,11.9215417 C29.4235021,12.1479583 28.9752104,6.69770833 28.9752104,6.69770833 C28.9752104,6.69770833 34.9465438,12.6332917 44.9469813,11.7005417 C54.9452104,10.7732083 54.1170854,4.10420833 48.8457938,0.965791667" id="Stroke-71" stroke="#080304" stroke-width="3" stroke-linecap="round" stroke-linejoin="round"></path>
                </g>
                <g id="Group-76" transform="translate(117.000000, 48.000000)">
                    <path d="M2.3882,4.55 C2.3882,4.55 0.7592,2.102 0.2632,0.0764" id="Fill-73" fill="#C28E5F"></path>
                    <path d="M2.3882,4.55 C2.3882,4.55 0.7592,2.102 0.2632,0.0764" id="Stroke-75" stroke="#080304" stroke-width="3" stroke-linecap="round" stroke-linejoin="round"></path>
                </g>
                <path d="M89,103.499434 C89,108.192136 85.8694336,112 82.006134,112 C78.137258,112 75,108.192136 75,103.499434 C75,98.8021993 78.137258,95 82.006134,95 C85.8694336,95 89,98.8021993 89,103.499434" id="Fill-77" fill="#080304"></path>
                <path d="M131,103.499434 C131,108.192136 134.132298,112 137.999442,112 C141.867702,112 145,108.192136 145,103.499434 C145,98.8021993 141.867702,95 137.999442,95 C134.132298,95 131,98.8021993 131,103.499434" id="Fill-79" fill="#080304"></path>
                <path d="M130,113.997806 C130,122.835002 121.271602,130 110.498346,130 C99.7306029,130 91,122.835002 91,113.997806 C91,105.158414 99.7306029,98 110.498346,98 C121.271602,98 130,105.158414 130,113.997806" id="Fill-81" fill="#FFFFFF"></path>
                <path d="M107,120.705222 C107,120.705222 115.423878,122.317705 119,118" id="Stroke-83" stroke="#080304" stroke-width="3" stroke-linecap="round" stroke-linejoin="round"></path>
                <path d="M115,109.501723 C115,112.540244 111.865486,115 108.001699,115 C104.133382,115 101,112.540244 101,109.501723 C101,106.465497 104.133382,104 108.001699,104 C111.865486,104 115,106.465497 115,109.501723" id="Fill-85" fill="#080304"></path>
                <line x1="93" y1="84" x2="95" y2="86" id="Stroke-87" stroke="#080304" stroke-width="3" stroke-linecap="round" stroke-linejoin="round"></line>
                <line x1="127" y1="84" x2="125" y2="86" id="Stroke-89" stroke="#080304" stroke-width="3" stroke-linecap="round" stroke-linejoin="round"></line>
            </g>
        </g>
    </g>
</svg>