<?xml version="1.0" encoding="UTF-8"?>
<svg width="346px" height="346px" viewBox="0 0 346 346" version="1.1" xmlns="http://www.w3.org/2000/svg" xmlns:xlink="http://www.w3.org/1999/xlink">
    <title>Group 10</title>
    <defs>
        <linearGradient x1="17.4251817%" y1="15.9912563%" x2="85.2049388%" y2="115.895899%" id="linearGradient-1">
            <stop stop-color="#CB40B0" offset="0%"></stop>
            <stop stop-color="#E7657B" offset="54.547614%"></stop>
            <stop stop-color="#F47D4F" offset="100%"></stop>
        </linearGradient>
        <path d="M164.511205,0.208386364 C161.684227,0.347310606 158.861182,0.55569697 156.043379,0.832234848 L156.043379,0.832234848 C153.225576,1.11139394 150.415636,1.45739394 147.614871,1.87285606 L147.614871,1.87285606 C144.815417,2.28831818 142.026447,2.77193182 139.249273,3.32369697 L139.249273,3.32369697 C136.472098,3.87677273 133.710652,4.49668939 130.964932,5.18475758 L130.964932,5.18475758 C128.217902,5.87282576 125.48922,6.62773485 122.781508,7.44948485 L122.781508,7.44948485 C120.071174,8.27123485 117.383121,9.15982576 114.717348,10.113947 L114.717348,10.113947 C112.051576,11.0667576 109.410705,12.0850985 106.796045,13.1689697 L106.796045,13.1689697 C104.180076,14.2528409 101.591629,15.3996212 99.0333258,16.6106212 L99.0333258,16.6106212 C96.4737121,17.8203106 93.9442424,19.0929091 91.4475379,20.4271061 L91.4475379,20.4271061 C88.9521439,21.7626136 86.4895152,23.1584091 84.0609621,24.6131818 L84.0609621,24.6131818 C81.6310985,26.0692652 79.240553,27.5830152 76.8867045,29.1557424 L76.8867045,29.1557424 C74.5315455,30.7297803 72.2170152,32.3588636 69.9431136,34.0456136 L69.9431136,34.0456136 C67.6692121,35.7323636 65.4385606,37.4728485 63.2498485,39.2696894 L63.2498485,39.2696894 C61.0611364,41.0652197 58.9182955,42.9144848 56.8200152,44.8161742 L56.8200152,44.8161742 C54.7230455,46.716553 52.671947,48.6680455 50.6706515,50.6706515 L50.6706515,50.6706515 C48.6680455,52.671947 46.716553,54.7230455 44.8161742,56.8213258 L44.8161742,56.8213258 C42.9144848,58.9182955 41.0652197,61.0611364 39.2696894,63.2498485 L39.2696894,63.2498485 C37.4728485,65.4385606 35.7323636,67.6705227 34.0456136,69.9444242 L34.0456136,69.9444242 C32.3588636,72.2183258 30.7284697,74.5315455 29.1557424,76.8867045 L29.1557424,76.8867045 C27.5830152,79.240553 26.0679545,81.6310985 24.6118712,84.0596515 L24.6118712,84.0596515 C23.1570985,86.4882045 21.7626136,88.9521439 20.4271061,91.4488485 L20.4271061,91.4488485 C19.0929091,93.945553 17.8203106,96.4737121 16.6106212,99.0333258 L16.6106212,99.0333258 C15.3983106,101.592939 14.2528409,104.180076 13.1689697,106.796045 L13.1689697,106.796045 C12.0850985,109.412015 11.0667576,112.051576 10.1126364,114.717348 L10.1126364,114.717348 C9.15851515,117.383121 8.27123485,120.071174 7.44948485,122.781508 L7.44948485,122.781508 C6.62773485,125.49053 5.87282576,128.217902 5.18344697,130.964932 L5.18344697,130.964932 C4.49668939,133.710652 3.87546212,136.472098 3.32369697,139.250583 L3.32369697,139.250583 C2.77193182,142.026447 2.28831818,144.815417 1.87154545,147.614871 L1.87154545,147.614871 C1.45608333,150.416947 1.11008333,153.225576 0.832234848,156.043379 L0.832234848,156.043379 C0.55569697,158.861182 0.347310606,161.684227 0.208386364,164.511205 L0.208386364,164.511205 C0.0694621212,167.339492 0,170.169091 0,173 L0,173 C0,175.830909 0.0694621212,178.660508 0.208386364,181.488795 L0.208386364,181.488795 C0.347310606,184.317083 0.55569697,187.140129 0.832234848,189.957932 L0.832234848,189.957932 C1.11008333,192.774424 1.45608333,195.584364 1.87154545,198.383818 L1.87154545,198.383818 C2.28831818,201.185894 2.77193182,203.973553 3.32369697,206.750727 L3.32369697,206.750727 C3.87546212,209.527902 4.49668939,212.289348 5.18344697,215.035068 L5.18344697,215.035068 C5.87282576,217.782098 6.62773485,220.50947 7.44948485,223.219803 L7.44948485,223.219803 C8.27123485,225.928826 9.15851515,228.615568 10.1126364,231.281341 L10.1126364,231.281341 C11.0667576,233.947114 12.0850985,236.587985 13.1689697,239.205265 L13.1689697,239.205265 C14.2528409,241.819924 15.3983106,244.407061 16.6106212,246.966674 L16.6106212,246.966674 C17.8203106,249.526288 19.0929091,252.054447 20.4271061,254.551152 L20.4271061,254.551152 C21.7626136,257.049167 23.1570985,259.511795 24.6118712,261.940348 L24.6118712,261.940348 C26.0679545,264.367591 27.5830152,266.760758 29.1557424,269.113295 L29.1557424,269.113295 C30.7284697,271.467144 32.3588636,273.781674 34.0456136,276.055576 L34.0456136,276.055576 C35.7323636,278.330788 37.4728485,280.561439 39.2696894,282.750152 L39.2696894,282.750152 C41.0652197,284.937553 42.9144848,287.083015 44.8161742,289.179985 L44.8161742,289.179985 C46.716553,291.278265 48.6680455,293.328053 50.6706515,295.329348 L50.6706515,295.329348 C52.671947,297.331955 54.7230455,299.283447 56.8200152,301.185136 L56.8200152,301.185136 C58.9182955,303.086826 61.0611364,304.93478 63.2498485,306.731621 L63.2498485,306.731621 C65.4385606,308.525841 67.6692121,310.268947 69.9431136,311.955697 L69.9431136,311.955697 C72.2170152,313.642447 74.5315455,315.27153 76.8867045,316.844258 L76.8867045,316.844258 C79.240553,318.416985 81.6310985,319.932045 84.0609621,321.386818 L84.0609621,321.386818 C86.4895152,322.842902 88.9521439,324.238697 91.4475379,325.571583 L91.4475379,325.571583 C93.9442424,326.907091 96.4737121,328.179689 99.0333258,329.390689 L99.0333258,329.390689 C101.591629,330.600379 104.180076,331.74847 106.796045,332.83103 L106.796045,332.83103 C109.410705,333.914902 112.051576,334.933242 114.717348,335.887364 L114.717348,335.887364 C117.383121,336.840174 120.071174,337.728765 122.781508,338.550515 L122.781508,338.550515 C125.48922,339.372265 128.217902,340.127174 130.964932,340.815242 L130.964932,340.815242 C133.710652,341.503311 136.472098,342.123227 139.249273,342.674992 L139.249273,342.674992 C142.026447,343.228068 144.815417,343.712992 147.614871,344.127144 L147.614871,344.127144 C150.415636,344.542606 153.225576,344.889917 156.043379,345.166455 L156.043379,345.166455 C158.861182,345.445614 161.684227,345.652689 164.511205,345.791614 L164.511205,345.791614 C167.338182,345.930538 170.16778,346 173,346 L173,346 C175.830909,346 178.660508,345.930538 181.488795,345.791614 L181.488795,345.791614 C184.317083,345.652689 187.140129,345.445614 189.956621,345.166455 L189.956621,345.166455 C192.774424,344.889917 195.584364,344.542606 198.383818,344.127144 L198.383818,344.127144 C201.184583,343.712992 203.973553,343.228068 206.750727,342.674992 L206.750727,342.674992 C209.527902,342.123227 212.288038,341.503311 215.036379,340.815242 L215.036379,340.815242 C217.782098,340.127174 220.50947,339.372265 223.219803,338.550515 L223.219803,338.550515 C225.928826,337.728765 228.615568,336.840174 231.281341,335.887364 L231.281341,335.887364 C233.947114,334.933242 236.587985,333.914902 239.205265,332.83103 L239.205265,332.83103 C241.819924,331.74847 244.407061,330.600379 246.966674,329.390689 L246.966674,329.390689 C249.527598,328.179689 252.054447,326.907091 254.551152,325.571583 L254.551152,325.571583 C257.049167,324.238697 259.510485,322.842902 261.939038,321.386818 L261.939038,321.386818 C264.367591,319.932045 266.759447,318.416985 269.113295,316.844258 L269.113295,316.844258 C271.467144,315.27153 273.781674,313.642447 276.055576,311.955697 L276.055576,311.955697 C278.330788,310.268947 280.560129,308.525841 282.750152,306.731621 L282.750152,306.731621 C284.937553,304.93478 287.081705,303.086826 289.179985,301.185136 L289.179985,301.185136 C291.276955,299.283447 293.326742,297.331955 295.329348,295.329348 L295.329348,295.329348 C297.331955,293.328053 299.282136,291.278265 301.183826,289.179985 L301.183826,289.179985 C303.085515,287.083015 304.93478,284.937553 306.730311,282.750152 L306.730311,282.750152 C308.527152,280.561439 310.267636,278.330788 311.954386,276.055576 L311.954386,276.055576 C313.641136,273.781674 315.27153,271.467144 316.844258,269.113295 L316.844258,269.113295 C318.416985,266.760758 319.932045,264.367591 321.386818,261.940348 L321.386818,261.940348 C322.842902,259.511795 324.237386,257.049167 325.571583,254.551152 L325.571583,254.551152 C326.907091,252.054447 328.178379,249.526288 329.390689,246.966674 L329.390689,246.966674 C330.600379,244.407061 331.747159,241.819924 332.83103,239.205265 L332.83103,239.205265 C333.913591,236.587985 334.933242,233.947114 335.887364,231.281341 L335.887364,231.281341 C336.840174,228.615568 337.728765,225.928826 338.550515,223.219803 L338.550515,223.219803 C339.372265,220.50947 340.128485,217.782098 340.815242,215.035068 L340.815242,215.035068 C341.503311,212.289348 342.123227,209.527902 342.676303,206.750727 L342.676303,206.750727 C343.228068,203.973553 343.712992,201.185894 344.127144,198.383818 L344.127144,198.383818 C344.542606,195.584364 344.889917,192.774424 345.166455,189.957932 L345.166455,189.957932 C345.444303,187.140129 345.652689,184.317083 345.791614,181.488795 L345.791614,181.488795 C345.930538,178.660508 346,175.830909 346,173 L346,173 C346,170.169091 345.930538,167.339492 345.791614,164.511205 L345.791614,164.511205 C345.652689,161.684227 345.444303,158.861182 345.166455,156.043379 L345.166455,156.043379 C344.889917,153.225576 344.542606,150.416947 344.127144,147.614871 L344.127144,147.614871 C343.712992,144.815417 343.228068,142.026447 342.676303,139.250583 L342.676303,139.250583 C342.123227,136.472098 341.503311,133.710652 340.815242,130.964932 L340.815242,130.964932 C340.128485,128.217902 339.372265,125.49053 338.550515,122.781508 L338.550515,122.781508 C337.728765,120.071174 336.840174,117.383121 335.887364,114.717348 L335.887364,114.717348 C334.933242,112.051576 333.913591,109.412015 332.83103,106.796045 L332.83103,106.796045 C331.747159,104.180076 330.600379,101.592939 329.390689,99.0333258 L329.390689,99.0333258 C328.178379,96.4737121 326.907091,93.945553 325.571583,91.4488485 L325.571583,91.4488485 C324.237386,88.9521439 322.842902,86.4882045 321.386818,84.0596515 L321.386818,84.0596515 C319.932045,81.6310985 318.416985,79.240553 316.844258,76.8867045 L316.844258,76.8867045 C315.27153,74.5315455 313.641136,72.2183258 311.954386,69.9444242 L311.954386,69.9444242 C310.267636,67.6705227 308.527152,65.4385606 306.730311,63.2498485 L306.730311,63.2498485 C304.93478,61.0611364 303.085515,58.9182955 301.183826,56.8213258 L301.183826,56.8213258 C299.282136,54.7230455 297.331955,52.671947 295.329348,50.6706515 L295.329348,50.6706515 C293.326742,48.6680455 291.276955,46.716553 289.179985,44.8161742 L289.179985,44.8161742 C287.081705,42.9144848 284.937553,41.0652197 282.750152,39.2696894 L282.750152,39.2696894 C280.560129,37.4728485 278.330788,35.7323636 276.055576,34.0456136 L276.055576,34.0456136 C273.781674,32.3588636 271.467144,30.7297803 269.113295,29.1557424 L269.113295,29.1557424 C266.759447,27.5830152 264.367591,26.0692652 261.939038,24.6131818 L261.939038,24.6131818 C259.510485,23.1584091 257.049167,21.7626136 254.551152,20.4271061 L254.551152,20.4271061 C252.054447,19.0929091 249.527598,17.8203106 246.966674,16.6106212 L246.966674,16.6106212 C244.407061,15.3996212 241.819924,14.2528409 239.205265,13.1689697 L239.205265,13.1689697 C236.587985,12.0850985 233.947114,11.0667576 231.281341,10.113947 L231.281341,10.113947 C228.615568,9.15982576 225.928826,8.27123485 223.219803,7.44948485 L223.219803,7.44948485 C220.50947,6.62773485 217.782098,5.87282576 215.036379,5.18475758 L215.036379,5.18475758 C212.288038,4.49668939 209.527902,3.87677273 206.750727,3.32369697 L206.750727,3.32369697 C203.973553,2.77193182 201.184583,2.28831818 198.383818,1.87285606 L198.383818,1.87285606 C195.584364,1.45739394 192.774424,1.11139394 189.956621,0.832234848 L189.956621,0.832234848 C187.140129,0.55569697 184.317083,0.347310606 181.488795,0.208386364 L181.488795,0.208386364 C178.660508,0.0694621212 175.830909,0 173,0 L173,0 C170.16778,0 167.338182,0.0694621212 164.511205,0.208386364" id="path-2"></path>
    </defs>
    <g id="Social" stroke="none" stroke-width="1" fill="none" fill-rule="evenodd">
        <g id="Group-10">
            <mask id="mask-3" fill="white">
                <use xlink:href="#path-2"></use>
            </mask>
            <use id="Mask-Copy-2" fill-opacity="0.5" fill="url(#linearGradient-1)" xlink:href="#path-2"></use>
            <g id="Group-65-Copy-2" mask="url(#mask-3)">
                <g transform="translate(43.000000, 68.000000)">
                    <g id="Group-4" stroke="none" stroke-width="1" fill="none" fill-rule="evenodd" transform="translate(33.000000, 224.000000)">
                        <path d="M33.4080627,0.369427771 C33.4080627,0.369427771 5.7567512,19.3482193 1.20635468,54.4534614 C-2.57797647,83.6427371 10.3356967,97.8932373 22.9099538,99.1465386 C35.2352,100.369428 40.3629211,93.1089236 41.9299451,87.7755902" id="Fill-1" fill="#FFFFFF"></path>
                        <path d="M33.4080627,0.369427771 C33.4080627,0.369427771 5.7567512,19.3482193 1.20635468,54.4534614 C-2.57797647,83.6427371 10.3356967,97.8932373 22.9099538,99.1465386 C35.2352,100.369428 40.3629211,93.1089236 41.9299451,87.7755902" id="Stroke-3" stroke="#080304" stroke-width="3" stroke-linecap="round" stroke-linejoin="round"></path>
                    </g>
                    <g id="Group-12" stroke="none" stroke-width="1" fill="none" fill-rule="evenodd" transform="translate(184.000000, 224.000000)">
                        <path d="M8.70967146,0.369427771 C8.70967146,0.369427771 36.3641551,19.3482193 40.9145516,54.4534614 C44.6988828,83.6427371 31.7947259,97.8932373 19.2172967,99.1465386 C6.88887843,100.369428 1.7611573,93.1089236 0.194133333,87.7755902" id="Fill-9" fill="#FFFFFF"></path>
                        <path d="M8.70967146,0.369427771 C8.70967146,0.369427771 36.3641551,19.3482193 40.9145516,54.4534614 C44.6988828,83.6427371 31.7947259,97.8932373 19.2172967,99.1465386 C6.88887843,100.369428 1.7611573,93.1089236 0.194133333,87.7755902" id="Stroke-11" stroke="#080304" stroke-width="3" stroke-linecap="round" stroke-linejoin="round"></path>
                    </g>
                    <g id="Group-28" stroke="none" stroke-width="1" fill="none" fill-rule="evenodd" transform="translate(58.000000, 232.000000)">
                        <path d="M130.926905,0.289186441 C130.926905,0.289186441 141.289677,15.0544407 141.289677,43.4932542 C141.289677,71.9288475 117.740268,94.2103729 70.6462909,94.2103729 C23.5474727,94.2103729 -0.00193636364,71.9288475 -0.00193636364,43.4932542 C-0.00193636364,15.0544407 10.3672909,0.289186441 10.3672909,0.289186441" id="Fill-25" fill="#FFFFFF"></path>
                        <path d="M130.926905,0.289186441 C130.926905,0.289186441 141.289677,15.0544407 141.289677,43.4932542 C141.289677,71.9288475 117.740268,94.2103729 70.6462909,94.2103729 C23.5474727,94.2103729 -0.00193636364,71.9288475 -0.00193636364,43.4932542 C-0.00193636364,15.0544407 10.3672909,0.289186441 10.3672909,0.289186441" id="Stroke-27" stroke="#080304" stroke-width="3" stroke-linecap="round" stroke-linejoin="round"></path>
                    </g>
                    <path d="M127.322328,239 C127.322328,239 134.721497,256.396075 118.441991,276 C118.441991,276 110.541324,267.683932 112.239084,256.374672 C113.945175,245.062119 127.322328,239 127.322328,239" id="Fill-29" stroke="none" fill="#4784B3" fill-rule="evenodd"></path>
                    <path d="M127.322328,239 C127.322328,239 134.721497,256.396075 118.441991,276 C118.441991,276 110.541324,267.683932 112.239084,256.374672 C113.945175,245.062119 127.322328,239 127.322328,239 Z" id="Stroke-31" stroke="#080304" stroke-width="3" fill="none" stroke-linecap="round" stroke-linejoin="round"></path>
                    <path d="M131.673282,239 C131.673282,239 124.283964,256.396075 140.561786,276 C140.561786,276 148.460828,267.683932 146.760085,256.374672 C145.054346,245.062119 131.673282,239 131.673282,239" id="Fill-33" stroke="none" fill="#4784B3" fill-rule="evenodd"></path>
                    <path d="M131.673282,239 C131.673282,239 124.283964,256.396075 140.561786,276 C140.561786,276 148.460828,267.683932 146.760085,256.374672 C145.054346,245.062119 131.673282,239 131.673282,239 Z" id="Stroke-35" stroke="#080304" stroke-width="3" fill="none" stroke-linecap="round" stroke-linejoin="round"></path>
                    <g id="Group-40" stroke="none" stroke-width="1" fill="none" fill-rule="evenodd" transform="translate(66.000000, 229.000000)">
                        <path d="M124.850584,0.0481605351 C124.850584,0.0481605351 114.195741,25.9327759 62.5671897,18.6351171 C10.9370246,25.9327759 0.285409087,0.0481605351 0.285409087,0.0481605351" id="Fill-37" fill="#4784B3"></path>
                        <path d="M124.850584,0.0481605351 C124.850584,0.0481605351 114.195741,25.9327759 62.5671897,18.6351171 C10.9370246,25.9327759 0.285409087,0.0481605351 0.285409087,0.0481605351" id="Stroke-39" stroke="#080304" stroke-width="3" stroke-linecap="round" stroke-linejoin="round"></path>
                    </g>
                    <path d="M137,247.196772 C137,250.404216 134.537118,253 131.507344,253 L126.499008,253 C123.462882,253 121,250.404216 121,247.196772 L121,239.80658 C121,236.595784 123.462882,234 126.499008,234 L131.507344,234 C134.537118,234 137,236.595784 137,239.80658 L137,247.196772 Z" id="Fill-41" stroke="none" fill="#255E80" fill-rule="evenodd"></path>
                    <path d="M137,247.196772 C137,250.404216 134.537118,253 131.507344,253 L126.499008,253 C123.462882,253 121,250.404216 121,247.196772 L121,239.80658 C121,236.595784 123.462882,234 126.499008,234 L131.507344,234 C134.537118,234 137,236.595784 137,239.80658 L137,247.196772 Z" id="Stroke-43" stroke="#080304" stroke-width="3" fill="none" stroke-linecap="round" stroke-linejoin="round"></path>
                    <path d="M129.498387,237 C181.19119,237 259.019369,224.068286 259,144.395637 C258.974166,59.4708979 205.734777,20 129.498387,20 C53.2587689,20 0.0161511669,59.4708979 0,144.395637 C-0.0274373922,224.068286 77.8039708,237 129.498387,237" id="Fill-45" stroke="none" fill="#FFFFFF" fill-rule="evenodd"></path>
                    <path d="M258.881623,143 C247.510767,121.138091 216.98093,124.811216 216.98093,124.811216 C216.98093,124.811216 213.525635,74.3187228 163.131885,74.1418807 C139.933661,74.0623828 129.501639,91.8050055 129.501639,91.8050055 C129.501639,91.8050055 119.06639,74.0623828 95.8681663,74.1418807 C45.4744164,74.3187228 42.0191215,124.811216 42.0191215,124.811216 C42.0191215,124.811216 11.4925106,121.138091 0.118428347,143 C0.118428347,143 -8.85856327,21 129.501639,21 C267.857002,21 258.881623,143 258.881623,143" id="Fill-47" stroke="none" fill="#7C6A68" fill-rule="evenodd"></path>
                    <path d="M258.881623,143 C247.510767,121.138091 216.98093,124.811216 216.98093,124.811216 C216.98093,124.811216 213.525635,74.3187228 163.131885,74.1418807 C139.933661,74.0623828 129.501639,91.8050055 129.501639,91.8050055 C129.501639,91.8050055 119.06639,74.0623828 95.8681663,74.1418807 C45.4744164,74.3187228 42.0191215,124.811216 42.0191215,124.811216 C42.0191215,124.811216 11.4925106,121.138091 0.118428347,143 C0.118428347,143 -8.85856327,21 129.501639,21 C267.857002,21 258.881623,143 258.881623,143 Z" id="Stroke-49" stroke="#7C6A68" stroke-width="3" fill="none" stroke-linecap="round" stroke-linejoin="round"></path>
                    <path d="M129.498387,237 C181.19119,237 259.019369,224.068286 259,144.395637 C258.974166,59.4708979 205.734777,20 129.498387,20 C53.2587689,20 0.0161511669,59.4708979 0,144.395637 C-0.0274373922,224.068286 77.8039708,237 129.498387,237 Z" id="Stroke-51" stroke="#080304" stroke-width="3" fill="none" stroke-linecap="round" stroke-linejoin="round"></path>
                    <path d="M132,20 C132,20 117.497654,13.2174331 121.796552,0" id="Stroke-53" stroke="#080304" stroke-width="3" fill="none" stroke-linecap="round" stroke-linejoin="round"></path>
                    <path d="M129,152 C139.994698,152 149,147.266081 149,140.515564 C149,133.753746 139.462926,127 129,127 C118.533908,127 109,133.753746 109,140.515564 C109,147.266081 118.005302,152 129,152" id="Fill-55" stroke="none" fill="#EDB61D" fill-rule="evenodd"></path>
                    <path d="M129,152 C139.994698,152 149,147.266081 149,140.515564 C149,133.753746 139.462926,127 129,127 C118.533908,127 109,133.753746 109,140.515564 C109,147.266081 118.005302,152 129,152 Z" id="Stroke-57" stroke="#080304" stroke-width="3" fill="none" stroke-linecap="round" stroke-linejoin="round"></path>
                    <path d="M142,140 C142,140 139.379661,144 130.00412,144 C120.620339,144 118,140 118,140" id="Stroke-59" stroke="#080304" stroke-width="3" fill="none" stroke-linecap="round" stroke-linejoin="round"></path>
                    <path d="M108,117.498395 C108,123.854123 104.643642,129 100.507343,129 C96.3579898,129 93,123.854123 93,117.498395 C93,111.142668 96.3579898,106 100.507343,106 C104.643642,106 108,111.142668 108,117.498395" id="Fill-61" stroke="none" fill="#080304" fill-rule="evenodd"></path>
                    <path d="M151,117.498395 C151,123.854123 154.357088,129 158.497552,129 C162.647808,129 166,123.854123 166,117.498395 C166,111.142668 162.647808,106 158.497552,106 C154.357088,106 151,111.142668 151,117.498395" id="Fill-63" stroke="none" fill="#080304" fill-rule="evenodd"></path>
                </g>
            </g>
        </g>
    </g>
</svg>