<?xml version="1.0" encoding="UTF-8"?>
<svg width="346px" height="346px" viewBox="0 0 346 346" version="1.1" xmlns="http://www.w3.org/2000/svg" xmlns:xlink="http://www.w3.org/1999/xlink">
    <title>Group 65 Copy + Group 74 Mask</title>
    <defs>
        <linearGradient x1="17.4251817%" y1="15.9912563%" x2="85.2049388%" y2="115.895899%" id="linearGradient-1">
            <stop stop-color="#CB40B0" offset="0%"></stop>
            <stop stop-color="#E7657B" offset="54.547614%"></stop>
            <stop stop-color="#F47D4F" offset="100%"></stop>
        </linearGradient>
        <path d="M164.511205,0.208386364 C161.684227,0.347310606 158.861182,0.55569697 156.043379,0.832234848 L156.043379,0.832234848 C153.225576,1.11139394 150.415636,1.45739394 147.614871,1.87285606 L147.614871,1.87285606 C144.815417,2.28831818 142.026447,2.77193182 139.249273,3.32369697 L139.249273,3.32369697 C136.472098,3.87677273 133.710652,4.49668939 130.964932,5.18475758 L130.964932,5.18475758 C128.217902,5.87282576 125.48922,6.62773485 122.781508,7.44948485 L122.781508,7.44948485 C120.071174,8.27123485 117.383121,9.15982576 114.717348,10.113947 L114.717348,10.113947 C112.051576,11.0667576 109.410705,12.0850985 106.796045,13.1689697 L106.796045,13.1689697 C104.180076,14.2528409 101.591629,15.3996212 99.0333258,16.6106212 L99.0333258,16.6106212 C96.4737121,17.8203106 93.9442424,19.0929091 91.4475379,20.4271061 L91.4475379,20.4271061 C88.9521439,21.7626136 86.4895152,23.1584091 84.0609621,24.6131818 L84.0609621,24.6131818 C81.6310985,26.0692652 79.240553,27.5830152 76.8867045,29.1557424 L76.8867045,29.1557424 C74.5315455,30.7297803 72.2170152,32.3588636 69.9431136,34.0456136 L69.9431136,34.0456136 C67.6692121,35.7323636 65.4385606,37.4728485 63.2498485,39.2696894 L63.2498485,39.2696894 C61.0611364,41.0652197 58.9182955,42.9144848 56.8200152,44.8161742 L56.8200152,44.8161742 C54.7230455,46.716553 52.671947,48.6680455 50.6706515,50.6706515 L50.6706515,50.6706515 C48.6680455,52.671947 46.716553,54.7230455 44.8161742,56.8213258 L44.8161742,56.8213258 C42.9144848,58.9182955 41.0652197,61.0611364 39.2696894,63.2498485 L39.2696894,63.2498485 C37.4728485,65.4385606 35.7323636,67.6705227 34.0456136,69.9444242 L34.0456136,69.9444242 C32.3588636,72.2183258 30.7284697,74.5315455 29.1557424,76.8867045 L29.1557424,76.8867045 C27.5830152,79.240553 26.0679545,81.6310985 24.6118712,84.0596515 L24.6118712,84.0596515 C23.1570985,86.4882045 21.7626136,88.9521439 20.4271061,91.4488485 L20.4271061,91.4488485 C19.0929091,93.945553 17.8203106,96.4737121 16.6106212,99.0333258 L16.6106212,99.0333258 C15.3983106,101.592939 14.2528409,104.180076 13.1689697,106.796045 L13.1689697,106.796045 C12.0850985,109.412015 11.0667576,112.051576 10.1126364,114.717348 L10.1126364,114.717348 C9.15851515,117.383121 8.27123485,120.071174 7.44948485,122.781508 L7.44948485,122.781508 C6.62773485,125.49053 5.87282576,128.217902 5.18344697,130.964932 L5.18344697,130.964932 C4.49668939,133.710652 3.87546212,136.472098 3.32369697,139.250583 L3.32369697,139.250583 C2.77193182,142.026447 2.28831818,144.815417 1.87154545,147.614871 L1.87154545,147.614871 C1.45608333,150.416947 1.11008333,153.225576 0.832234848,156.043379 L0.832234848,156.043379 C0.55569697,158.861182 0.347310606,161.684227 0.208386364,164.511205 L0.208386364,164.511205 C0.0694621212,167.339492 0,170.169091 0,173 L0,173 C0,175.830909 0.0694621212,178.660508 0.208386364,181.488795 L0.208386364,181.488795 C0.347310606,184.317083 0.55569697,187.140129 0.832234848,189.957932 L0.832234848,189.957932 C1.11008333,192.774424 1.45608333,195.584364 1.87154545,198.383818 L1.87154545,198.383818 C2.28831818,201.185894 2.77193182,203.973553 3.32369697,206.750727 L3.32369697,206.750727 C3.87546212,209.527902 4.49668939,212.289348 5.18344697,215.035068 L5.18344697,215.035068 C5.87282576,217.782098 6.62773485,220.50947 7.44948485,223.219803 L7.44948485,223.219803 C8.27123485,225.928826 9.15851515,228.615568 10.1126364,231.281341 L10.1126364,231.281341 C11.0667576,233.947114 12.0850985,236.587985 13.1689697,239.205265 L13.1689697,239.205265 C14.2528409,241.819924 15.3983106,244.407061 16.6106212,246.966674 L16.6106212,246.966674 C17.8203106,249.526288 19.0929091,252.054447 20.4271061,254.551152 L20.4271061,254.551152 C21.7626136,257.049167 23.1570985,259.511795 24.6118712,261.940348 L24.6118712,261.940348 C26.0679545,264.367591 27.5830152,266.760758 29.1557424,269.113295 L29.1557424,269.113295 C30.7284697,271.467144 32.3588636,273.781674 34.0456136,276.055576 L34.0456136,276.055576 C35.7323636,278.330788 37.4728485,280.561439 39.2696894,282.750152 L39.2696894,282.750152 C41.0652197,284.937553 42.9144848,287.083015 44.8161742,289.179985 L44.8161742,289.179985 C46.716553,291.278265 48.6680455,293.328053 50.6706515,295.329348 L50.6706515,295.329348 C52.671947,297.331955 54.7230455,299.283447 56.8200152,301.185136 L56.8200152,301.185136 C58.9182955,303.086826 61.0611364,304.93478 63.2498485,306.731621 L63.2498485,306.731621 C65.4385606,308.525841 67.6692121,310.268947 69.9431136,311.955697 L69.9431136,311.955697 C72.2170152,313.642447 74.5315455,315.27153 76.8867045,316.844258 L76.8867045,316.844258 C79.240553,318.416985 81.6310985,319.932045 84.0609621,321.386818 L84.0609621,321.386818 C86.4895152,322.842902 88.9521439,324.238697 91.4475379,325.571583 L91.4475379,325.571583 C93.9442424,326.907091 96.4737121,328.179689 99.0333258,329.390689 L99.0333258,329.390689 C101.591629,330.600379 104.180076,331.74847 106.796045,332.83103 L106.796045,332.83103 C109.410705,333.914902 112.051576,334.933242 114.717348,335.887364 L114.717348,335.887364 C117.383121,336.840174 120.071174,337.728765 122.781508,338.550515 L122.781508,338.550515 C125.48922,339.372265 128.217902,340.127174 130.964932,340.815242 L130.964932,340.815242 C133.710652,341.503311 136.472098,342.123227 139.249273,342.674992 L139.249273,342.674992 C142.026447,343.228068 144.815417,343.712992 147.614871,344.127144 L147.614871,344.127144 C150.415636,344.542606 153.225576,344.889917 156.043379,345.166455 L156.043379,345.166455 C158.861182,345.445614 161.684227,345.652689 164.511205,345.791614 L164.511205,345.791614 C167.338182,345.930538 170.16778,346 173,346 L173,346 C175.830909,346 178.660508,345.930538 181.488795,345.791614 L181.488795,345.791614 C184.317083,345.652689 187.140129,345.445614 189.956621,345.166455 L189.956621,345.166455 C192.774424,344.889917 195.584364,344.542606 198.383818,344.127144 L198.383818,344.127144 C201.184583,343.712992 203.973553,343.228068 206.750727,342.674992 L206.750727,342.674992 C209.527902,342.123227 212.288038,341.503311 215.036379,340.815242 L215.036379,340.815242 C217.782098,340.127174 220.50947,339.372265 223.219803,338.550515 L223.219803,338.550515 C225.928826,337.728765 228.615568,336.840174 231.281341,335.887364 L231.281341,335.887364 C233.947114,334.933242 236.587985,333.914902 239.205265,332.83103 L239.205265,332.83103 C241.819924,331.74847 244.407061,330.600379 246.966674,329.390689 L246.966674,329.390689 C249.527598,328.179689 252.054447,326.907091 254.551152,325.571583 L254.551152,325.571583 C257.049167,324.238697 259.510485,322.842902 261.939038,321.386818 L261.939038,321.386818 C264.367591,319.932045 266.759447,318.416985 269.113295,316.844258 L269.113295,316.844258 C271.467144,315.27153 273.781674,313.642447 276.055576,311.955697 L276.055576,311.955697 C278.330788,310.268947 280.560129,308.525841 282.750152,306.731621 L282.750152,306.731621 C284.937553,304.93478 287.081705,303.086826 289.179985,301.185136 L289.179985,301.185136 C291.276955,299.283447 293.326742,297.331955 295.329348,295.329348 L295.329348,295.329348 C297.331955,293.328053 299.282136,291.278265 301.183826,289.179985 L301.183826,289.179985 C303.085515,287.083015 304.93478,284.937553 306.730311,282.750152 L306.730311,282.750152 C308.527152,280.561439 310.267636,278.330788 311.954386,276.055576 L311.954386,276.055576 C313.641136,273.781674 315.27153,271.467144 316.844258,269.113295 L316.844258,269.113295 C318.416985,266.760758 319.932045,264.367591 321.386818,261.940348 L321.386818,261.940348 C322.842902,259.511795 324.237386,257.049167 325.571583,254.551152 L325.571583,254.551152 C326.907091,252.054447 328.178379,249.526288 329.390689,246.966674 L329.390689,246.966674 C330.600379,244.407061 331.747159,241.819924 332.83103,239.205265 L332.83103,239.205265 C333.913591,236.587985 334.933242,233.947114 335.887364,231.281341 L335.887364,231.281341 C336.840174,228.615568 337.728765,225.928826 338.550515,223.219803 L338.550515,223.219803 C339.372265,220.50947 340.128485,217.782098 340.815242,215.035068 L340.815242,215.035068 C341.503311,212.289348 342.123227,209.527902 342.676303,206.750727 L342.676303,206.750727 C343.228068,203.973553 343.712992,201.185894 344.127144,198.383818 L344.127144,198.383818 C344.542606,195.584364 344.889917,192.774424 345.166455,189.957932 L345.166455,189.957932 C345.444303,187.140129 345.652689,184.317083 345.791614,181.488795 L345.791614,181.488795 C345.930538,178.660508 346,175.830909 346,173 L346,173 C346,170.169091 345.930538,167.339492 345.791614,164.511205 L345.791614,164.511205 C345.652689,161.684227 345.444303,158.861182 345.166455,156.043379 L345.166455,156.043379 C344.889917,153.225576 344.542606,150.416947 344.127144,147.614871 L344.127144,147.614871 C343.712992,144.815417 343.228068,142.026447 342.676303,139.250583 L342.676303,139.250583 C342.123227,136.472098 341.503311,133.710652 340.815242,130.964932 L340.815242,130.964932 C340.128485,128.217902 339.372265,125.49053 338.550515,122.781508 L338.550515,122.781508 C337.728765,120.071174 336.840174,117.383121 335.887364,114.717348 L335.887364,114.717348 C334.933242,112.051576 333.913591,109.412015 332.83103,106.796045 L332.83103,106.796045 C331.747159,104.180076 330.600379,101.592939 329.390689,99.0333258 L329.390689,99.0333258 C328.178379,96.4737121 326.907091,93.945553 325.571583,91.4488485 L325.571583,91.4488485 C324.237386,88.9521439 322.842902,86.4882045 321.386818,84.0596515 L321.386818,84.0596515 C319.932045,81.6310985 318.416985,79.240553 316.844258,76.8867045 L316.844258,76.8867045 C315.27153,74.5315455 313.641136,72.2183258 311.954386,69.9444242 L311.954386,69.9444242 C310.267636,67.6705227 308.527152,65.4385606 306.730311,63.2498485 L306.730311,63.2498485 C304.93478,61.0611364 303.085515,58.9182955 301.183826,56.8213258 L301.183826,56.8213258 C299.282136,54.7230455 297.331955,52.671947 295.329348,50.6706515 L295.329348,50.6706515 C293.326742,48.6680455 291.276955,46.716553 289.179985,44.8161742 L289.179985,44.8161742 C287.081705,42.9144848 284.937553,41.0652197 282.750152,39.2696894 L282.750152,39.2696894 C280.560129,37.4728485 278.330788,35.7323636 276.055576,34.0456136 L276.055576,34.0456136 C273.781674,32.3588636 271.467144,30.7297803 269.113295,29.1557424 L269.113295,29.1557424 C266.759447,27.5830152 264.367591,26.0692652 261.939038,24.6131818 L261.939038,24.6131818 C259.510485,23.1584091 257.049167,21.7626136 254.551152,20.4271061 L254.551152,20.4271061 C252.054447,19.0929091 249.527598,17.8203106 246.966674,16.6106212 L246.966674,16.6106212 C244.407061,15.3996212 241.819924,14.2528409 239.205265,13.1689697 L239.205265,13.1689697 C236.587985,12.0850985 233.947114,11.0667576 231.281341,10.113947 L231.281341,10.113947 C228.615568,9.15982576 225.928826,8.27123485 223.219803,7.44948485 L223.219803,7.44948485 C220.50947,6.62773485 217.782098,5.87282576 215.036379,5.18475758 L215.036379,5.18475758 C212.288038,4.49668939 209.527902,3.87677273 206.750727,3.32369697 L206.750727,3.32369697 C203.973553,2.77193182 201.184583,2.28831818 198.383818,1.87285606 L198.383818,1.87285606 C195.584364,1.45739394 192.774424,1.11139394 189.956621,0.832234848 L189.956621,0.832234848 C187.140129,0.55569697 184.317083,0.347310606 181.488795,0.208386364 L181.488795,0.208386364 C178.660508,0.0694621212 175.830909,0 173,0 L173,0 C170.16778,0 167.338182,0.0694621212 164.511205,0.208386364" id="path-2"></path>
    </defs>
    <g id="Social" stroke="none" stroke-width="1" fill="none" fill-rule="evenodd">
        <g id="Group-65-Copy-+-Group-74-Mask">
            <mask id="mask-3" fill="white">
                <use xlink:href="#path-2"></use>
            </mask>
            <use id="Mask" fill-opacity="0.5" fill="url(#linearGradient-1)" xlink:href="#path-2"></use>
            <g id="Group-74" mask="url(#mask-3)">
                <g transform="translate(72.000000, 130.000000)">
                    <g id="Group-16" stroke="none" stroke-width="1" fill="none" fill-rule="evenodd" transform="translate(21.000000, 179.000000)">
                        <path d="M22.2087353,0.693652941 C22.2087353,0.693652941 8.76667647,15.3865941 3.07608824,32.8902706 C-0.909794118,45.1621235 -3.20126471,66.3491824 14.5396176,68.6160353 C31.0143235,70.7327118 33.4396176,54.8383588 33.4396176,54.8383588" id="Fill-13" fill="#F4A457"></path>
                        <path d="M22.2087353,0.693652941 C22.2087353,0.693652941 8.76667647,15.3865941 3.07608824,32.8902706 C-0.909794118,45.1621235 -3.20126471,66.3491824 14.5396176,68.6160353 C31.0143235,70.7327118 33.4396176,54.8383588 33.4396176,54.8383588" id="Stroke-15" stroke="#080304" stroke-width="3" stroke-linecap="round" stroke-linejoin="round"></path>
                    </g>
                    <g id="Group-20" stroke="none" stroke-width="1" fill="none" fill-rule="evenodd" transform="translate(147.000000, 179.000000)">
                        <path d="M11.802,0.693652941 C11.802,0.693652941 25.2481765,15.3865941 30.9305294,32.8902706 C34.9267059,45.1621235 37.2078824,66.3491824 19.4752353,68.6160353 C2.99641176,70.7327118 0.571117647,54.8383588 0.571117647,54.8383588" id="Fill-17" fill="#F4A457"></path>
                        <path d="M11.802,0.693652941 C11.802,0.693652941 25.2481765,15.3865941 30.9305294,32.8902706 C34.9267059,45.1621235 37.2078824,66.3491824 19.4752353,68.6160353 C2.99641176,70.7327118 0.571117647,54.8383588 0.571117647,54.8383588" id="Stroke-19" stroke="#080304" stroke-width="3" stroke-linecap="round" stroke-linejoin="round"></path>
                    </g>
                    <g id="Group-24" stroke="none" stroke-width="1" fill="none" fill-rule="evenodd" transform="translate(43.000000, 189.000000)">
                        <path d="M111.4528,0.701277143 C111.4528,0.701277143 114.717081,12.6475343 114.717081,35.6474771 C114.717081,58.6494486 95.6483088,70.50442 57.5148351,70.50442 C19.3732211,70.50442 0.310554386,58.6494486 0.310554386,35.6474771 C0.310554386,12.6475343 3.5728,0.701277143 3.5728,0.701277143" id="Fill-21" fill="#F4A457"></path>
                        <path d="M111.4528,0.701277143 C111.4528,0.701277143 114.717081,12.6475343 114.717081,35.6474771 C114.717081,58.6494486 95.6483088,70.50442 57.5148351,70.50442 C19.3732211,70.50442 0.310554386,58.6494486 0.310554386,35.6474771 C0.310554386,12.6475343 3.5728,0.701277143 3.5728,0.701277143" id="Stroke-23" stroke="#080304" stroke-width="3" stroke-linecap="round" stroke-linejoin="round"></path>
                    </g>
                    <path d="M101.503508,237 C129.921951,237 135.652906,226.802228 134.943922,211.796674 C133.941565,190.396974 119.676317,176 101.503508,176 C83.3225499,176 69.0613769,190.396974 68.0549456,211.796674 C67.3541108,226.802228 73.0769158,237 101.503508,237" id="Fill-25" stroke="none" fill="#FFFFFF" fill-rule="evenodd"></path>
                    <g id="Group-30" stroke="none" stroke-width="1" fill="none" fill-rule="evenodd" transform="translate(101.000000, 0.000000)">
                        <path d="M0.5196,10.0938 C0.5196,10.0938 0.5596,3.8758 5.6336,0.3798" id="Fill-27" fill="#DF4342"></path>
                        <path d="M0.5196,10.0938 C0.5196,10.0938 0.5596,3.8758 5.6336,0.3798" id="Stroke-29" stroke="#080304" stroke-width="3" stroke-linecap="round" stroke-linejoin="round"></path>
                    </g>
                    <path d="M101.498047,35.9618196 C110.701611,35.9618196 136.385312,43.6371329 136.987623,29.1989704 C137.5879,14.7730557 116.222121,8 101.498047,8 C86.7780432,8 65.4081949,14.7730557 66.0125412,29.1989704 C66.6148527,43.6371329 92.2985535,35.9618196 101.498047,35.9618196" id="Fill-31" stroke="none" fill="#DF4342" fill-rule="evenodd"></path>
                    <path d="M101.498047,35.9618196 C110.701611,35.9618196 136.385312,43.6371329 136.987623,29.1989704 C137.5879,14.7730557 116.222121,8 101.498047,8 C86.7780432,8 65.4081949,14.7730557 66.0125412,29.1989704 C66.6148527,43.6371329 92.2985535,35.9618196 101.498047,35.9618196 Z" id="Stroke-33" stroke="#080304" stroke-width="3" fill="none" stroke-linecap="round" stroke-linejoin="round"></path>
                    <g id="Group-38" stroke="none" stroke-width="1" fill="none" fill-rule="evenodd" transform="translate(41.000000, 12.000000)">
                        <path d="M38.2341632,15.881 C38.2341632,15.881 34.3382684,-3.457 15.7147421,0.867 C-6.97915263,6.143 2.99047895,29.971 2.99047895,29.971" id="Fill-35" fill="#F4A457"></path>
                        <path d="M38.2341632,15.881 C38.2341632,15.881 34.3382684,-3.457 15.7147421,0.867 C-6.97915263,6.143 2.99047895,29.971 2.99047895,29.971" id="Stroke-37" stroke="#080304" stroke-width="3" stroke-linecap="round" stroke-linejoin="round"></path>
                    </g>
                    <g id="Group-42" stroke="none" stroke-width="1" fill="none" fill-rule="evenodd" transform="translate(122.000000, 12.000000)">
                        <path d="M0.833725,15.881 C0.833725,15.881 4.724625,-3.457 23.311975,0.867 C45.989075,6.143 36.028125,29.971 36.028125,29.971" id="Fill-39" fill="#F4A457"></path>
                        <path d="M0.833725,15.881 C0.833725,15.881 4.724625,-3.457 23.311975,0.867 C45.989075,6.143 36.028125,29.971 36.028125,29.971" id="Stroke-41" stroke="#080304" stroke-width="3" stroke-linecap="round" stroke-linejoin="round"></path>
                    </g>
                    <path d="M101,196 C141.316778,196 202.020292,185.990586 202,124.310022 C201.987816,58.5540962 160.461311,28 101,28 C41.5427467,28 0.0203006843,58.5540962 0,124.310022 C-0.016234684,185.990586 60.6791607,196 101,196" id="Fill-43" stroke="none" fill="#F4A457" fill-rule="evenodd"></path>
                    <path d="M101.496586,74 C100.56866,74 99.7612431,73.3600704 99.5443252,72.4508034 C92.9845671,45.0917896 80.7427651,32.9918556 80.6182381,32.8723751 C80.0739349,32.3458508 79.8670594,31.5540392 80.0859858,30.8250055 C80.3049123,30.0959718 80.9094705,29.5512217 81.6526151,29.4155404 C81.9719665,29.3588378 89.6143056,28 101.496586,28 C113.37485,28 121.027232,29.3588378 121.346583,29.4155404 C122.089728,29.5512217 122.696294,30.0939467 122.915221,30.8250055 C123.132139,31.5540392 122.925263,32.3458508 122.38096,32.8723751 C122.258442,32.9918556 110.014631,45.0917896 103.448847,72.4508034 C103.229921,73.3600704 102.422504,74 101.496586,74" id="Fill-45" stroke="none" fill="#7B5126" fill-rule="evenodd"></path>
                    <path d="M100.99631,26 C88.6856686,26 80.7095866,27.3878212 80.3753703,27.44649 C78.856019,27.7175804 77.6175733,28.8059883 77.1726351,30.2646166 C76.7297472,31.723245 77.1541814,33.3052802 78.2716531,34.359296 C78.382375,34.4644952 90.4818248,46.256929 97.0103197,72.9047137 C97.455258,74.7194012 99.1017345,76 100.99631,76 C102.888836,76 104.537363,74.7214242 104.982301,72.9067368 C111.574358,46.0262998 123.608195,34.4705644 123.729169,34.359296 C124.846641,33.3052802 125.271075,31.723245 124.826137,30.2646166 C124.381199,28.8059883 123.144803,27.7155574 121.623402,27.44649 C121.289185,27.3878212 113.300801,26 100.99631,26 M100.99631,30.0461258 C113.079357,30.0461258 120.899608,31.4299009 120.899608,31.4299009 C120.899608,31.4299009 107.949239,43.6067166 100.99631,71.9538742 C94.0515829,43.6067166 81.1012143,31.4299009 81.1012143,31.4299009 C81.1012143,31.4299009 88.9091629,30.0461258 100.99631,30.0461258" id="Fill-47" stroke="none" fill="#7B5126" fill-rule="evenodd"></path>
                    <path d="M100.995941,196 C141.316779,196 202.018264,185.990586 202,124.310022 C201.983758,58.5540962 160.461312,28 100.995941,28 C41.5386889,28 0.0203025159,58.5540962 0,124.310022 C-0.0202923376,185.990586 60.6791623,196 100.995941,196 Z" id="Stroke-49" stroke="#080304" stroke-width="3" fill="none" stroke-linecap="round" stroke-linejoin="round"></path>
                    <g id="Group-54" stroke="none" stroke-width="1" fill="none" fill-rule="evenodd" transform="translate(81.000000, 19.000000)">
                        <path d="M8.185025,25.3614 C8.185025,25.3614 2.303575,24.3254 1.001825,16.2834 C-0.308125,8.2434 8.508925,-1.1546 21.157425,8.1654 C21.157425,8.1654 20.673625,1.8734 25.890875,0.6774 C31.120425,-0.5126 36.095775,2.9874 39.191275,13.0174" id="Fill-51" fill="#7B5126"></path>
                        <path d="M8.185025,25.3614 C8.185025,25.3614 2.303575,24.3254 1.001825,16.2834 C-0.308125,8.2434 8.508925,-1.1546 21.157425,8.1654 C21.157425,8.1654 20.673625,1.8734 25.890875,0.6774 C31.120425,-0.5126 36.095775,2.9874 39.191275,13.0174" id="Stroke-53" stroke="#080304" stroke-width="3" stroke-linecap="round" stroke-linejoin="round"></path>
                    </g>
                    <g id="Group-59" stroke="none" stroke-width="1" fill="none" fill-rule="evenodd" transform="translate(38.000000, 96.000000)">
                        <path d="M32.4885645,16.1074 C32.4885645,24.9034 25.2455968,32.0294 16.3138226,32.0294 C7.38204839,32.0294 0.143145161,24.9034 0.143145161,16.1074 C0.143145161,7.3214 7.38204839,0.1934 16.3138226,0.1934 C25.2455968,0.1934 32.4885645,7.3214 32.4885645,16.1074" id="Fill-55" fill="#EE7F2F"></path>
                        <path d="M124.912613,16.1074 C124.912613,24.9034 117.671677,32.0294 108.737871,32.0294 C99.8101613,32.0294 92.5671935,24.9034 92.5671935,16.1074 C92.5671935,7.3214 99.8101613,0.1934 108.737871,0.1934 C117.671677,0.1934 124.912613,7.3214 124.912613,16.1074" id="Fill-57" fill="#EE7F2F"></path>
                    </g>
                    <path d="M88,100.504037 C88,105.195084 84.8669116,109 81.0039559,109 C77.1330884,109 74,105.195084 74,100.504037 C74,95.8008787 77.1330884,92 81.0039559,92 C84.8669116,92 88,95.8008787 88,100.504037" id="Fill-60" stroke="none" fill="#080304" fill-rule="evenodd"></path>
                    <path d="M114,100.504037 C114,105.195084 117.132203,109 120.998023,109 C124.863842,109 128,105.195084 128,100.504037 C128,95.8008787 124.863842,92 120.998023,92 C117.132203,92 114,95.8008787 114,100.504037" id="Fill-62" stroke="none" fill="#080304" fill-rule="evenodd"></path>
                    <g id="Group-67" stroke="none" stroke-width="1" fill="none" fill-rule="evenodd" transform="translate(95.000000, 117.000000)">
                        <path d="M19.1446,0.6934 C19.1446,0.6934 19.3166,4.0914 19.3826,5.5714 C19.5006,7.7914 20.0086,11.0654 12.8126,11.4354 L10.1446,11.5654 L7.4846,11.7054 C0.2886,12.0654 0.4566,8.7514 0.3486,6.5334 C0.2686,5.0534 0.0986,1.6654 0.0986,1.6654" id="Fill-64" fill="#FFFFFF"></path>
                        <path d="M19.1446,0.6934 C19.1446,0.6934 19.3166,4.0914 19.3826,5.5714 C19.5006,7.7914 20.0086,11.0654 12.8126,11.4354 L10.1446,11.5654 L7.4846,11.7054 C0.2886,12.0654 0.4566,8.7514 0.3486,6.5334 C0.2686,5.0534 0.0986,1.6654 0.0986,1.6654" id="Stroke-66" stroke="#080304" stroke-width="3" stroke-linecap="round" stroke-linejoin="round"></path>
                    </g>
                    <path d="M86,117.729892 C86,117.729892 106.908845,121.522644 119,116" id="Stroke-68" stroke="#080304" stroke-width="3" fill="none" stroke-linecap="round" stroke-linejoin="round"></path>
                    <path d="M120.299,114 C120.299,114 120.839,115.56015 121.701,116" id="Stroke-70" stroke="#080304" stroke-width="3" fill="none" stroke-linecap="round" stroke-linejoin="round"></path>
                    <path d="M105,100.5 C105,102.431776 103.209543,104 101,104 C98.7904575,104 97,102.431776 97,100.5 C97,98.5682237 98.7904575,97 101,97 C103.209543,97 105,98.5682237 105,100.5" id="Fill-72" stroke="none" fill="#080304" fill-rule="evenodd"></path>
                </g>
            </g>
        </g>
    </g>
</svg>