<?xml version="1.0" encoding="UTF-8"?>
<svg width="346px" height="346px" viewBox="0 0 346 346" version="1.1" xmlns="http://www.w3.org/2000/svg" xmlns:xlink="http://www.w3.org/1999/xlink">
    <title>Group 65 + Group 125 Mask</title>
    <defs>
        <linearGradient x1="17.4251817%" y1="15.9912563%" x2="85.2049388%" y2="115.895899%" id="linearGradient-1">
            <stop stop-color="#CB40B0" offset="0%"></stop>
            <stop stop-color="#E7657B" offset="54.547614%"></stop>
            <stop stop-color="#F47D4F" offset="100%"></stop>
        </linearGradient>
        <path d="M164.511205,0.208386364 C161.684227,0.347310606 158.861182,0.55569697 156.043379,0.832234848 L156.043379,0.832234848 C153.225576,1.11139394 150.415636,1.45739394 147.614871,1.87285606 L147.614871,1.87285606 C144.815417,2.28831818 142.026447,2.77193182 139.249273,3.32369697 L139.249273,3.32369697 C136.472098,3.87677273 133.710652,4.49668939 130.964932,5.18475758 L130.964932,5.18475758 C128.217902,5.87282576 125.48922,6.62773485 122.781508,7.44948485 L122.781508,7.44948485 C120.071174,8.27123485 117.383121,9.15982576 114.717348,10.113947 L114.717348,10.113947 C112.051576,11.0667576 109.410705,12.0850985 106.796045,13.1689697 L106.796045,13.1689697 C104.180076,14.2528409 101.591629,15.3996212 99.0333258,16.6106212 L99.0333258,16.6106212 C96.4737121,17.8203106 93.9442424,19.0929091 91.4475379,20.4271061 L91.4475379,20.4271061 C88.9521439,21.7626136 86.4895152,23.1584091 84.0609621,24.6131818 L84.0609621,24.6131818 C81.6310985,26.0692652 79.240553,27.5830152 76.8867045,29.1557424 L76.8867045,29.1557424 C74.5315455,30.7297803 72.2170152,32.3588636 69.9431136,34.0456136 L69.9431136,34.0456136 C67.6692121,35.7323636 65.4385606,37.4728485 63.2498485,39.2696894 L63.2498485,39.2696894 C61.0611364,41.0652197 58.9182955,42.9144848 56.8200152,44.8161742 L56.8200152,44.8161742 C54.7230455,46.716553 52.671947,48.6680455 50.6706515,50.6706515 L50.6706515,50.6706515 C48.6680455,52.671947 46.716553,54.7230455 44.8161742,56.8213258 L44.8161742,56.8213258 C42.9144848,58.9182955 41.0652197,61.0611364 39.2696894,63.2498485 L39.2696894,63.2498485 C37.4728485,65.4385606 35.7323636,67.6705227 34.0456136,69.9444242 L34.0456136,69.9444242 C32.3588636,72.2183258 30.7284697,74.5315455 29.1557424,76.8867045 L29.1557424,76.8867045 C27.5830152,79.240553 26.0679545,81.6310985 24.6118712,84.0596515 L24.6118712,84.0596515 C23.1570985,86.4882045 21.7626136,88.9521439 20.4271061,91.4488485 L20.4271061,91.4488485 C19.0929091,93.945553 17.8203106,96.4737121 16.6106212,99.0333258 L16.6106212,99.0333258 C15.3983106,101.592939 14.2528409,104.180076 13.1689697,106.796045 L13.1689697,106.796045 C12.0850985,109.412015 11.0667576,112.051576 10.1126364,114.717348 L10.1126364,114.717348 C9.15851515,117.383121 8.27123485,120.071174 7.44948485,122.781508 L7.44948485,122.781508 C6.62773485,125.49053 5.87282576,128.217902 5.18344697,130.964932 L5.18344697,130.964932 C4.49668939,133.710652 3.87546212,136.472098 3.32369697,139.250583 L3.32369697,139.250583 C2.77193182,142.026447 2.28831818,144.815417 1.87154545,147.614871 L1.87154545,147.614871 C1.45608333,150.416947 1.11008333,153.225576 0.832234848,156.043379 L0.832234848,156.043379 C0.55569697,158.861182 0.347310606,161.684227 0.208386364,164.511205 L0.208386364,164.511205 C0.0694621212,167.339492 0,170.169091 0,173 L0,173 C0,175.830909 0.0694621212,178.660508 0.208386364,181.488795 L0.208386364,181.488795 C0.347310606,184.317083 0.55569697,187.140129 0.832234848,189.957932 L0.832234848,189.957932 C1.11008333,192.774424 1.45608333,195.584364 1.87154545,198.383818 L1.87154545,198.383818 C2.28831818,201.185894 2.77193182,203.973553 3.32369697,206.750727 L3.32369697,206.750727 C3.87546212,209.527902 4.49668939,212.289348 5.18344697,215.035068 L5.18344697,215.035068 C5.87282576,217.782098 6.62773485,220.50947 7.44948485,223.219803 L7.44948485,223.219803 C8.27123485,225.928826 9.15851515,228.615568 10.1126364,231.281341 L10.1126364,231.281341 C11.0667576,233.947114 12.0850985,236.587985 13.1689697,239.205265 L13.1689697,239.205265 C14.2528409,241.819924 15.3983106,244.407061 16.6106212,246.966674 L16.6106212,246.966674 C17.8203106,249.526288 19.0929091,252.054447 20.4271061,254.551152 L20.4271061,254.551152 C21.7626136,257.049167 23.1570985,259.511795 24.6118712,261.940348 L24.6118712,261.940348 C26.0679545,264.367591 27.5830152,266.760758 29.1557424,269.113295 L29.1557424,269.113295 C30.7284697,271.467144 32.3588636,273.781674 34.0456136,276.055576 L34.0456136,276.055576 C35.7323636,278.330788 37.4728485,280.561439 39.2696894,282.750152 L39.2696894,282.750152 C41.0652197,284.937553 42.9144848,287.083015 44.8161742,289.179985 L44.8161742,289.179985 C46.716553,291.278265 48.6680455,293.328053 50.6706515,295.329348 L50.6706515,295.329348 C52.671947,297.331955 54.7230455,299.283447 56.8200152,301.185136 L56.8200152,301.185136 C58.9182955,303.086826 61.0611364,304.93478 63.2498485,306.731621 L63.2498485,306.731621 C65.4385606,308.525841 67.6692121,310.268947 69.9431136,311.955697 L69.9431136,311.955697 C72.2170152,313.642447 74.5315455,315.27153 76.8867045,316.844258 L76.8867045,316.844258 C79.240553,318.416985 81.6310985,319.932045 84.0609621,321.386818 L84.0609621,321.386818 C86.4895152,322.842902 88.9521439,324.238697 91.4475379,325.571583 L91.4475379,325.571583 C93.9442424,326.907091 96.4737121,328.179689 99.0333258,329.390689 L99.0333258,329.390689 C101.591629,330.600379 104.180076,331.74847 106.796045,332.83103 L106.796045,332.83103 C109.410705,333.914902 112.051576,334.933242 114.717348,335.887364 L114.717348,335.887364 C117.383121,336.840174 120.071174,337.728765 122.781508,338.550515 L122.781508,338.550515 C125.48922,339.372265 128.217902,340.127174 130.964932,340.815242 L130.964932,340.815242 C133.710652,341.503311 136.472098,342.123227 139.249273,342.674992 L139.249273,342.674992 C142.026447,343.228068 144.815417,343.712992 147.614871,344.127144 L147.614871,344.127144 C150.415636,344.542606 153.225576,344.889917 156.043379,345.166455 L156.043379,345.166455 C158.861182,345.445614 161.684227,345.652689 164.511205,345.791614 L164.511205,345.791614 C167.338182,345.930538 170.16778,346 173,346 L173,346 C175.830909,346 178.660508,345.930538 181.488795,345.791614 L181.488795,345.791614 C184.317083,345.652689 187.140129,345.445614 189.956621,345.166455 L189.956621,345.166455 C192.774424,344.889917 195.584364,344.542606 198.383818,344.127144 L198.383818,344.127144 C201.184583,343.712992 203.973553,343.228068 206.750727,342.674992 L206.750727,342.674992 C209.527902,342.123227 212.288038,341.503311 215.036379,340.815242 L215.036379,340.815242 C217.782098,340.127174 220.50947,339.372265 223.219803,338.550515 L223.219803,338.550515 C225.928826,337.728765 228.615568,336.840174 231.281341,335.887364 L231.281341,335.887364 C233.947114,334.933242 236.587985,333.914902 239.205265,332.83103 L239.205265,332.83103 C241.819924,331.74847 244.407061,330.600379 246.966674,329.390689 L246.966674,329.390689 C249.527598,328.179689 252.054447,326.907091 254.551152,325.571583 L254.551152,325.571583 C257.049167,324.238697 259.510485,322.842902 261.939038,321.386818 L261.939038,321.386818 C264.367591,319.932045 266.759447,318.416985 269.113295,316.844258 L269.113295,316.844258 C271.467144,315.27153 273.781674,313.642447 276.055576,311.955697 L276.055576,311.955697 C278.330788,310.268947 280.560129,308.525841 282.750152,306.731621 L282.750152,306.731621 C284.937553,304.93478 287.081705,303.086826 289.179985,301.185136 L289.179985,301.185136 C291.276955,299.283447 293.326742,297.331955 295.329348,295.329348 L295.329348,295.329348 C297.331955,293.328053 299.282136,291.278265 301.183826,289.179985 L301.183826,289.179985 C303.085515,287.083015 304.93478,284.937553 306.730311,282.750152 L306.730311,282.750152 C308.527152,280.561439 310.267636,278.330788 311.954386,276.055576 L311.954386,276.055576 C313.641136,273.781674 315.27153,271.467144 316.844258,269.113295 L316.844258,269.113295 C318.416985,266.760758 319.932045,264.367591 321.386818,261.940348 L321.386818,261.940348 C322.842902,259.511795 324.237386,257.049167 325.571583,254.551152 L325.571583,254.551152 C326.907091,252.054447 328.178379,249.526288 329.390689,246.966674 L329.390689,246.966674 C330.600379,244.407061 331.747159,241.819924 332.83103,239.205265 L332.83103,239.205265 C333.913591,236.587985 334.933242,233.947114 335.887364,231.281341 L335.887364,231.281341 C336.840174,228.615568 337.728765,225.928826 338.550515,223.219803 L338.550515,223.219803 C339.372265,220.50947 340.128485,217.782098 340.815242,215.035068 L340.815242,215.035068 C341.503311,212.289348 342.123227,209.527902 342.676303,206.750727 L342.676303,206.750727 C343.228068,203.973553 343.712992,201.185894 344.127144,198.383818 L344.127144,198.383818 C344.542606,195.584364 344.889917,192.774424 345.166455,189.957932 L345.166455,189.957932 C345.444303,187.140129 345.652689,184.317083 345.791614,181.488795 L345.791614,181.488795 C345.930538,178.660508 346,175.830909 346,173 L346,173 C346,170.169091 345.930538,167.339492 345.791614,164.511205 L345.791614,164.511205 C345.652689,161.684227 345.444303,158.861182 345.166455,156.043379 L345.166455,156.043379 C344.889917,153.225576 344.542606,150.416947 344.127144,147.614871 L344.127144,147.614871 C343.712992,144.815417 343.228068,142.026447 342.676303,139.250583 L342.676303,139.250583 C342.123227,136.472098 341.503311,133.710652 340.815242,130.964932 L340.815242,130.964932 C340.128485,128.217902 339.372265,125.49053 338.550515,122.781508 L338.550515,122.781508 C337.728765,120.071174 336.840174,117.383121 335.887364,114.717348 L335.887364,114.717348 C334.933242,112.051576 333.913591,109.412015 332.83103,106.796045 L332.83103,106.796045 C331.747159,104.180076 330.600379,101.592939 329.390689,99.0333258 L329.390689,99.0333258 C328.178379,96.4737121 326.907091,93.945553 325.571583,91.4488485 L325.571583,91.4488485 C324.237386,88.9521439 322.842902,86.4882045 321.386818,84.0596515 L321.386818,84.0596515 C319.932045,81.6310985 318.416985,79.240553 316.844258,76.8867045 L316.844258,76.8867045 C315.27153,74.5315455 313.641136,72.2183258 311.954386,69.9444242 L311.954386,69.9444242 C310.267636,67.6705227 308.527152,65.4385606 306.730311,63.2498485 L306.730311,63.2498485 C304.93478,61.0611364 303.085515,58.9182955 301.183826,56.8213258 L301.183826,56.8213258 C299.282136,54.7230455 297.331955,52.671947 295.329348,50.6706515 L295.329348,50.6706515 C293.326742,48.6680455 291.276955,46.716553 289.179985,44.8161742 L289.179985,44.8161742 C287.081705,42.9144848 284.937553,41.0652197 282.750152,39.2696894 L282.750152,39.2696894 C280.560129,37.4728485 278.330788,35.7323636 276.055576,34.0456136 L276.055576,34.0456136 C273.781674,32.3588636 271.467144,30.7297803 269.113295,29.1557424 L269.113295,29.1557424 C266.759447,27.5830152 264.367591,26.0692652 261.939038,24.6131818 L261.939038,24.6131818 C259.510485,23.1584091 257.049167,21.7626136 254.551152,20.4271061 L254.551152,20.4271061 C252.054447,19.0929091 249.527598,17.8203106 246.966674,16.6106212 L246.966674,16.6106212 C244.407061,15.3996212 241.819924,14.2528409 239.205265,13.1689697 L239.205265,13.1689697 C236.587985,12.0850985 233.947114,11.0667576 231.281341,10.113947 L231.281341,10.113947 C228.615568,9.15982576 225.928826,8.27123485 223.219803,7.44948485 L223.219803,7.44948485 C220.50947,6.62773485 217.782098,5.87282576 215.036379,5.18475758 L215.036379,5.18475758 C212.288038,4.49668939 209.527902,3.87677273 206.750727,3.32369697 L206.750727,3.32369697 C203.973553,2.77193182 201.184583,2.28831818 198.383818,1.87285606 L198.383818,1.87285606 C195.584364,1.45739394 192.774424,1.11139394 189.956621,0.832234848 L189.956621,0.832234848 C187.140129,0.55569697 184.317083,0.347310606 181.488795,0.208386364 L181.488795,0.208386364 C178.660508,0.0694621212 175.830909,0 173,0 L173,0 C170.16778,0 167.338182,0.0694621212 164.511205,0.208386364" id="path-2"></path>
    </defs>
    <g id="Social" stroke="none" stroke-width="1" fill="none" fill-rule="evenodd">
        <g id="Group-65-+-Group-125-Mask">
            <mask id="mask-3" fill="white">
                <use xlink:href="#path-2"></use>
            </mask>
            <use id="Mask" fill-opacity="0.5" fill="url(#linearGradient-1)" xlink:href="#path-2"></use>
            <g id="Group-125" mask="url(#mask-3)">
                <g transform="translate(30.000000, 62.000000)">
                    <g id="Group-4" stroke="none" stroke-width="1" fill="none" fill-rule="evenodd" transform="translate(59.000000, 242.000000)">
                        <path d="M25.1532174,0.575859649 C25.1532174,0.575859649 9.69982609,16.7261754 1.88313043,50.7698246 C-3.30556522,73.3456842 2.44191304,87.0505263 17.5165217,87.5028772 C33.5537391,87.9845614 33.5443478,75.8065965 33.5443478,75.8065965" id="Fill-1" fill="#E98670"></path>
                        <path d="M25.1532174,0.575859649 C25.1532174,0.575859649 9.69982609,16.7261754 1.88313043,50.7698246 C-3.30556522,73.3456842 2.44191304,87.0505263 17.5165217,87.5028772 C33.5537391,87.9845614 33.5443478,75.8065965 33.5443478,75.8065965" id="Stroke-3" stroke="#080304" stroke-width="3" stroke-linecap="round" stroke-linejoin="round"></path>
                    </g>
                    <g id="Group-8" stroke="none" stroke-width="1" fill="none" fill-rule="evenodd" transform="translate(57.000000, 236.000000)">
                        <path d="M44.8171867,4.59185417 C38.4446533,4.21877083 28.23572,0.810145833 28.23572,0.810145833 C28.23572,0.810145833 13.1446533,12.7010208 4.91525333,41.1432292 C-1.46494667,63.1875208 0.491586667,70.0494792 0.491586667,70.0494792 C0.491586667,70.0494792 13.28572,75.1015208 27.04892,73.1898542" id="Fill-5" fill="#784A42"></path>
                        <path d="M44.8171867,4.59185417 C38.4446533,4.21877083 28.23572,0.810145833 28.23572,0.810145833 C28.23572,0.810145833 13.1446533,12.7010208 4.91525333,41.1432292 C-1.46494667,63.1875208 0.491586667,70.0494792 0.491586667,70.0494792 C0.491586667,70.0494792 13.28572,75.1015208 27.04892,73.1898542" id="Stroke-7" stroke="#080304" stroke-width="3" stroke-linecap="round" stroke-linejoin="round"></path>
                    </g>
                    <g id="Group-12" stroke="none" stroke-width="1" fill="none" fill-rule="evenodd" transform="translate(193.000000, 242.000000)">
                        <path d="M8.99207273,0.575859649 C8.99207273,0.575859649 24.2503455,16.7261754 31.9714364,50.7698246 C37.0915273,73.3456842 31.4166182,87.0505263 16.5323455,87.5028772 C0.697618182,87.9845614 0.706890903,75.8065965 0.706890903,75.8065965" id="Fill-9" fill="#E98670"></path>
                        <path d="M8.99207273,0.575859649 C8.99207273,0.575859649 24.2503455,16.7261754 31.9714364,50.7698246 C37.0915273,73.3456842 31.4166182,87.0505263 16.5323455,87.5028772 C0.697618182,87.9845614 0.706890903,75.8065965 0.706890903,75.8065965" id="Stroke-11" stroke="#080304" stroke-width="3" stroke-linecap="round" stroke-linejoin="round"></path>
                    </g>
                    <g id="Group-16" stroke="none" stroke-width="1" fill="none" fill-rule="evenodd" transform="translate(183.000000, 236.000000)">
                        <path d="M0.458313333,4.59185417 C6.83084667,4.21877083 17.03978,0.810145833 17.03978,0.810145833 C17.03978,0.810145833 32.1308467,12.7010208 40.3602467,41.1432292 C46.7404467,63.1875208 44.7808467,70.0494792 44.7808467,70.0494792 C44.7808467,70.0494792 31.98978,75.1015208 18.22658,73.1898542" id="Fill-13" fill="#784A42"></path>
                        <path d="M0.458313333,4.59185417 C6.83084667,4.21877083 17.03978,0.810145833 17.03978,0.810145833 C17.03978,0.810145833 32.1308467,12.7010208 40.3602467,41.1432292 C46.7404467,63.1875208 44.7808467,70.0494792 44.7808467,70.0494792 C44.7808467,70.0494792 31.98978,75.1015208 18.22658,73.1898542" id="Stroke-15" stroke="#080304" stroke-width="3" stroke-linecap="round" stroke-linejoin="round"></path>
                    </g>
                    <g id="Group-52" stroke="none" stroke-width="1" fill="none" fill-rule="evenodd" transform="translate(75.000000, 235.000000)">
                        <path d="M123.639455,0.329948529 C123.639455,0.329948529 135.001636,34.0951691 134.796091,92.3794338 C134.796091,92.3794338 109.546455,103.487816 67.6414545,103.487816 C25.7318182,103.487816 0.480636364,92.3794338 0.480636364,92.3794338 C0.278181818,34.0951691 11.6419091,0.329948529 11.6419091,0.329948529" id="Fill-49" fill="#784A42"></path>
                        <path d="M123.639455,0.329948529 C123.639455,0.329948529 135.001636,34.0951691 134.796091,92.3794338 C134.796091,92.3794338 109.546455,103.487816 67.6414545,103.487816 C25.7318182,103.487816 0.480636364,92.3794338 0.480636364,92.3794338 C0.278181818,34.0951691 11.6419091,0.329948529 11.6419091,0.329948529" id="Stroke-51" stroke="#080304" stroke-width="3" stroke-linecap="round" stroke-linejoin="round"></path>
                    </g>
                    <g id="Group-56" stroke="none" stroke-width="1" fill="none" fill-rule="evenodd" transform="translate(118.000000, 247.000000)">
                        <path d="M1.79595,0.714 C1.79595,0.714 0.11145,14.4946667 1.79595,26.9157778" id="Fill-53" fill="#EC745C"></path>
                        <path d="M1.79595,0.714 C1.79595,0.714 0.11145,14.4946667 1.79595,26.9157778" id="Stroke-55" stroke="#080304" stroke-width="3" stroke-linecap="round" stroke-linejoin="round"></path>
                    </g>
                    <path d="M126,273 C126,276.311069 123.539747,279 120.497036,279 C117.460253,279 115,276.311069 115,273 C115,269.688931 117.460253,267 120.497036,267 C123.539747,267 126,269.688931 126,273" id="Fill-57" stroke="none" fill="#A2C545" fill-rule="evenodd"></path>
                    <path d="M126,273 C126,276.311069 123.539747,279 120.497036,279 C117.460253,279 115,276.311069 115,273 C115,269.688931 117.460253,267 120.497036,267 C123.539747,267 126,269.688931 126,273 Z" id="Stroke-59" stroke="#080304" stroke-width="3" fill="none" stroke-linecap="round" stroke-linejoin="round"></path>
                    <g id="Group-64" stroke="none" stroke-width="1" fill="none" fill-rule="evenodd" transform="translate(164.000000, 247.000000)">
                        <path d="M0.84875,0.714 C0.84875,0.714 2.53325,14.4946667 0.84875,26.9157778" id="Fill-61" fill="#EC745C"></path>
                        <path d="M0.84875,0.714 C0.84875,0.714 2.53325,14.4946667 0.84875,26.9157778" id="Stroke-63" stroke="#080304" stroke-width="3" stroke-linecap="round" stroke-linejoin="round"></path>
                    </g>
                    <path d="M160,273 C160,276.311069 162.459591,279 165.501482,279 C168.537446,279 171,276.311069 171,273 C171,269.688931 168.537446,267 165.501482,267 C162.459591,267 160,269.688931 160,273" id="Fill-65" stroke="none" fill="#A2C545" fill-rule="evenodd"></path>
                    <path d="M160,273 C160,276.311069 162.459591,279 165.501482,279 C168.537446,279 171,276.311069 171,273 C171,269.688931 168.537446,267 165.501482,267 C162.459591,267 160,269.688931 160,273 Z" id="Stroke-67" stroke="#080304" stroke-width="3" fill="none" stroke-linecap="round" stroke-linejoin="round"></path>
                    <line x1="90.246" y1="277" x2="89.754" y2="281" id="Stroke-69" stroke="#663B35" stroke-width="3" fill="none" stroke-linecap="round" stroke-linejoin="round"></line>
                    <line x1="194.756" y1="277" x2="195.244" y2="281" id="Stroke-71" stroke="#663B35" stroke-width="3" fill="none" stroke-linecap="round" stroke-linejoin="round"></line>
                    <g id="Group-84" stroke="none" stroke-width="1" fill="none" fill-rule="evenodd" transform="translate(24.000000, 0.000000)">
                        <path d="M0.0513917808,107.620303 C0.0513917808,107.620303 36.2129397,3.32007429 58.0389671,0.680245714 C79.8588027,-1.95495429 111.594775,62.6336743 111.594775,62.6336743" id="Fill-81" fill="#E98670"></path>
                        <path d="M0.0513917808,107.620303 C0.0513917808,107.620303 36.2129397,3.32007429 58.0389671,0.680245714 C79.8588027,-1.95495429 111.594775,62.6336743 111.594775,62.6336743" id="Stroke-83" stroke="#080304" stroke-width="3" stroke-linecap="round" stroke-linejoin="round"></path>
                    </g>
                    <path d="M45,99 C45,99 69.6428746,27.8503766 84.5078628,26.0536768 C99.3774953,24.2538871 121,68.3124282 121,68.3124282" id="Fill-85" stroke="none" fill="#FFFFFF" fill-rule="evenodd"></path>
                    <g id="Group-90" stroke="none" stroke-width="1" fill="none" fill-rule="evenodd" transform="translate(149.000000, 0.000000)">
                        <path d="M112.226027,107.620303 C112.226027,107.620303 76.0582877,3.32007429 54.2384521,0.680245714 C32.4186164,-1.95495429 0.682643836,62.6336743 0.682643836,62.6336743" id="Fill-87" fill="#E98670"></path>
                        <path d="M112.226027,107.620303 C112.226027,107.620303 76.0582877,3.32007429 54.2384521,0.680245714 C32.4186164,-1.95495429 0.682643836,62.6336743 0.682643836,62.6336743" id="Stroke-89" stroke="#080304" stroke-width="3" stroke-linecap="round" stroke-linejoin="round"></path>
                    </g>
                    <path d="M240,99 C240,99 215.363318,27.8503766 200.49833,26.0536768 C185.625601,24.2538871 164,68.3124282 164,68.3124282" id="Fill-91" stroke="none" fill="#FFFFFF" fill-rule="evenodd"></path>
                    <path d="M142.994576,247 C268.50074,247 286,159.3115 286,159.3115 C282.743783,158.911739 273.48658,35 142.994576,35 C12.505671,35 3.25776682,158.911739 0,159.3115 C0,159.3115 17.4930609,247 142.994576,247" id="Fill-93" stroke="none" fill="#784A42" fill-rule="evenodd"></path>
                    <path d="M142.994576,247 C268.50074,247 286,159.3115 286,159.3115 C282.743783,158.911739 273.48658,35 142.994576,35 C12.505671,35 3.25776682,158.911739 0,159.3115 C0,159.3115 17.4930609,247 142.994576,247 Z" id="Stroke-95" stroke="#080304" stroke-width="3" fill="none" stroke-linecap="round" stroke-linejoin="round"></path>
                    <path d="M142.996736,247 C236.012454,247 254.974029,188.871403 256.826543,174.107751 C259.884662,149.743859 222.527945,84 142.996736,84 C63.4748127,84 26.1180958,149.743859 29.1731194,174.107751 C31.0256337,188.871403 49.9872086,247 142.996736,247" id="Fill-97" stroke="none" fill="#E98670" fill-rule="evenodd"></path>
                    <path d="M142.996736,247 C236.012454,247 254.974029,188.871403 256.826543,174.107751 C259.884662,149.743859 222.527945,84 142.996736,84 C63.4748127,84 26.1180958,149.743859 29.1731194,174.107751 C31.0256337,188.871403 49.9872086,247 142.996736,247 Z" id="Stroke-99" stroke="#080304" stroke-width="3" fill="none" stroke-linecap="round" stroke-linejoin="round"></path>
                    <path d="M123,148.498423 C123,154.853852 119.420673,160 115.002276,160 C110.579327,160 107,154.853852 107,148.498423 C107,142.149301 110.579327,137 115.002276,137 C119.420673,137 123,142.149301 123,148.498423" id="Fill-101" stroke="none" fill="#080304" fill-rule="evenodd"></path>
                    <path d="M162,148.498423 C162,154.853852 165.579327,160 170.000759,160 C174.420673,160 178,154.853852 178,148.498423 C178,142.149301 174.420673,137 170.000759,137 C165.579327,137 162,142.149301 162,148.498423" id="Fill-103" stroke="none" fill="#080304" fill-rule="evenodd"></path>
                    <path d="M187,139.427068 C187,139.427068 175.664595,142 143.005407,142 C110.341584,142 99,139.427068 99,139.427068 C99,139.427068 104.307775,131 143.005407,131 C181.695315,131 187,139.427068 187,139.427068" id="Fill-105" stroke="none" fill="#E98670" fill-rule="evenodd"></path>
                    <g id="Group-110" stroke="none" stroke-width="1" fill="none" fill-rule="evenodd" transform="translate(98.000000, 140.000000)">
                        <path d="M88.8332586,0.0219 C88.8332586,0.0219 77.4467069,2.5884 44.6401552,2.5884 C11.8289483,2.5884 0.436189655,0.0219 0.436189655,0.0219" id="Fill-107" fill="#EE7C1A"></path>
                        <path d="M88.8332586,0.0219 C88.8332586,0.0219 77.4467069,2.5884 44.6401552,2.5884 C11.8289483,2.5884 0.436189655,0.0219 0.436189655,0.0219" id="Stroke-109" stroke="#080304" stroke-width="3" stroke-linecap="round" stroke-linejoin="round"></path>
                    </g>
                    <path d="M143.002566,161 C146.33829,159.723639 144.897606,159 143.002566,159 C141.097823,159 139.661991,159.723639 143.002566,161" id="Fill-111" stroke="none" fill="#EE7C1A" fill-rule="evenodd"></path>
                    <path d="M143.002566,161 C146.33829,159.723639 144.897606,159 143.002566,159 C141.097823,159 139.661991,159.723639 143.002566,161 Z" id="Stroke-113" stroke="#080304" stroke-width="3" fill="none" stroke-linecap="round" stroke-linejoin="round"></path>
                    <g id="Group-118" stroke="none" stroke-width="1" fill="none" fill-rule="evenodd" transform="translate(141.000000, 161.000000)">
                        <line x1="1.1514" y1="0.07648" x2="1.1514" y2="5.85088" id="Fill-115" fill="#EC745C"></line>
                        <line x1="1.1514" y1="0.07648" x2="1.1514" y2="5.85088" id="Stroke-117" stroke="#080304" stroke-width="3" stroke-linecap="round" stroke-linejoin="round"></line>
                    </g>
                    <path d="M121,167.113934 C121,167.113934 122.715903,176.558599 143,166" id="Stroke-119" stroke="#080304" stroke-width="3" fill="none" stroke-linecap="round" stroke-linejoin="round"></path>
                    <path d="M165,167.113934 C165,167.113934 163.286726,176.558599 143,166" id="Stroke-121" stroke="#080304" stroke-width="3" fill="none" stroke-linecap="round" stroke-linejoin="round"></path>
                    <path d="M185,156.502671 C185,157.329475 184.329475,158 183.497329,158 C182.667854,158 182,157.329475 182,156.502671 C182,155.675868 182.667854,155 183.497329,155 C184.329475,155 185,155.675868 185,156.502671" id="Fill-123" stroke="none" fill="#080304" fill-rule="evenodd"></path>
                </g>
            </g>
        </g>
    </g>
</svg>