<?xml version="1.0" encoding="UTF-8"?>
<svg width="346px" height="346px" viewBox="0 0 346 346" version="1.1" xmlns="http://www.w3.org/2000/svg" xmlns:xlink="http://www.w3.org/1999/xlink">
    <title>Group 91 Copy 3</title>
    <defs>
        <linearGradient x1="17.4251817%" y1="15.9912563%" x2="85.2049388%" y2="115.895899%" id="linearGradient-1">
            <stop stop-color="#CB40B0" offset="0%"></stop>
            <stop stop-color="#E7657B" offset="54.547614%"></stop>
            <stop stop-color="#F47D4F" offset="100%"></stop>
        </linearGradient>
        <path d="M164.511205,0.208386364 C161.684227,0.347310606 158.861182,0.55569697 156.043379,0.832234848 L156.043379,0.832234848 C153.225576,1.11139394 150.415636,1.45739394 147.614871,1.87285606 L147.614871,1.87285606 C144.815417,2.28831818 142.026447,2.77193182 139.249273,3.32369697 L139.249273,3.32369697 C136.472098,3.87677273 133.710652,4.49668939 130.964932,5.18475758 L130.964932,5.18475758 C128.217902,5.87282576 125.48922,6.62773485 122.781508,7.44948485 L122.781508,7.44948485 C120.071174,8.27123485 117.383121,9.15982576 114.717348,10.113947 L114.717348,10.113947 C112.051576,11.0667576 109.410705,12.0850985 106.796045,13.1689697 L106.796045,13.1689697 C104.180076,14.2528409 101.591629,15.3996212 99.0333258,16.6106212 L99.0333258,16.6106212 C96.4737121,17.8203106 93.9442424,19.0929091 91.4475379,20.4271061 L91.4475379,20.4271061 C88.9521439,21.7626136 86.4895152,23.1584091 84.0609621,24.6131818 L84.0609621,24.6131818 C81.6310985,26.0692652 79.240553,27.5830152 76.8867045,29.1557424 L76.8867045,29.1557424 C74.5315455,30.7297803 72.2170152,32.3588636 69.9431136,34.0456136 L69.9431136,34.0456136 C67.6692121,35.7323636 65.4385606,37.4728485 63.2498485,39.2696894 L63.2498485,39.2696894 C61.0611364,41.0652197 58.9182955,42.9144848 56.8200152,44.8161742 L56.8200152,44.8161742 C54.7230455,46.716553 52.671947,48.6680455 50.6706515,50.6706515 L50.6706515,50.6706515 C48.6680455,52.671947 46.716553,54.7230455 44.8161742,56.8213258 L44.8161742,56.8213258 C42.9144848,58.9182955 41.0652197,61.0611364 39.2696894,63.2498485 L39.2696894,63.2498485 C37.4728485,65.4385606 35.7323636,67.6705227 34.0456136,69.9444242 L34.0456136,69.9444242 C32.3588636,72.2183258 30.7284697,74.5315455 29.1557424,76.8867045 L29.1557424,76.8867045 C27.5830152,79.240553 26.0679545,81.6310985 24.6118712,84.0596515 L24.6118712,84.0596515 C23.1570985,86.4882045 21.7626136,88.9521439 20.4271061,91.4488485 L20.4271061,91.4488485 C19.0929091,93.945553 17.8203106,96.4737121 16.6106212,99.0333258 L16.6106212,99.0333258 C15.3983106,101.592939 14.2528409,104.180076 13.1689697,106.796045 L13.1689697,106.796045 C12.0850985,109.412015 11.0667576,112.051576 10.1126364,114.717348 L10.1126364,114.717348 C9.15851515,117.383121 8.27123485,120.071174 7.44948485,122.781508 L7.44948485,122.781508 C6.62773485,125.49053 5.87282576,128.217902 5.18344697,130.964932 L5.18344697,130.964932 C4.49668939,133.710652 3.87546212,136.472098 3.32369697,139.250583 L3.32369697,139.250583 C2.77193182,142.026447 2.28831818,144.815417 1.87154545,147.614871 L1.87154545,147.614871 C1.45608333,150.416947 1.11008333,153.225576 0.832234848,156.043379 L0.832234848,156.043379 C0.55569697,158.861182 0.347310606,161.684227 0.208386364,164.511205 L0.208386364,164.511205 C0.0694621212,167.339492 0,170.169091 0,173 L0,173 C0,175.830909 0.0694621212,178.660508 0.208386364,181.488795 L0.208386364,181.488795 C0.347310606,184.317083 0.55569697,187.140129 0.832234848,189.957932 L0.832234848,189.957932 C1.11008333,192.774424 1.45608333,195.584364 1.87154545,198.383818 L1.87154545,198.383818 C2.28831818,201.185894 2.77193182,203.973553 3.32369697,206.750727 L3.32369697,206.750727 C3.87546212,209.527902 4.49668939,212.289348 5.18344697,215.035068 L5.18344697,215.035068 C5.87282576,217.782098 6.62773485,220.50947 7.44948485,223.219803 L7.44948485,223.219803 C8.27123485,225.928826 9.15851515,228.615568 10.1126364,231.281341 L10.1126364,231.281341 C11.0667576,233.947114 12.0850985,236.587985 13.1689697,239.205265 L13.1689697,239.205265 C14.2528409,241.819924 15.3983106,244.407061 16.6106212,246.966674 L16.6106212,246.966674 C17.8203106,249.526288 19.0929091,252.054447 20.4271061,254.551152 L20.4271061,254.551152 C21.7626136,257.049167 23.1570985,259.511795 24.6118712,261.940348 L24.6118712,261.940348 C26.0679545,264.367591 27.5830152,266.760758 29.1557424,269.113295 L29.1557424,269.113295 C30.7284697,271.467144 32.3588636,273.781674 34.0456136,276.055576 L34.0456136,276.055576 C35.7323636,278.330788 37.4728485,280.561439 39.2696894,282.750152 L39.2696894,282.750152 C41.0652197,284.937553 42.9144848,287.083015 44.8161742,289.179985 L44.8161742,289.179985 C46.716553,291.278265 48.6680455,293.328053 50.6706515,295.329348 L50.6706515,295.329348 C52.671947,297.331955 54.7230455,299.283447 56.8200152,301.185136 L56.8200152,301.185136 C58.9182955,303.086826 61.0611364,304.93478 63.2498485,306.731621 L63.2498485,306.731621 C65.4385606,308.525841 67.6692121,310.268947 69.9431136,311.955697 L69.9431136,311.955697 C72.2170152,313.642447 74.5315455,315.27153 76.8867045,316.844258 L76.8867045,316.844258 C79.240553,318.416985 81.6310985,319.932045 84.0609621,321.386818 L84.0609621,321.386818 C86.4895152,322.842902 88.9521439,324.238697 91.4475379,325.571583 L91.4475379,325.571583 C93.9442424,326.907091 96.4737121,328.179689 99.0333258,329.390689 L99.0333258,329.390689 C101.591629,330.600379 104.180076,331.74847 106.796045,332.83103 L106.796045,332.83103 C109.410705,333.914902 112.051576,334.933242 114.717348,335.887364 L114.717348,335.887364 C117.383121,336.840174 120.071174,337.728765 122.781508,338.550515 L122.781508,338.550515 C125.48922,339.372265 128.217902,340.127174 130.964932,340.815242 L130.964932,340.815242 C133.710652,341.503311 136.472098,342.123227 139.249273,342.674992 L139.249273,342.674992 C142.026447,343.228068 144.815417,343.712992 147.614871,344.127144 L147.614871,344.127144 C150.415636,344.542606 153.225576,344.889917 156.043379,345.166455 L156.043379,345.166455 C158.861182,345.445614 161.684227,345.652689 164.511205,345.791614 L164.511205,345.791614 C167.338182,345.930538 170.16778,346 173,346 L173,346 C175.830909,346 178.660508,345.930538 181.488795,345.791614 L181.488795,345.791614 C184.317083,345.652689 187.140129,345.445614 189.956621,345.166455 L189.956621,345.166455 C192.774424,344.889917 195.584364,344.542606 198.383818,344.127144 L198.383818,344.127144 C201.184583,343.712992 203.973553,343.228068 206.750727,342.674992 L206.750727,342.674992 C209.527902,342.123227 212.288038,341.503311 215.036379,340.815242 L215.036379,340.815242 C217.782098,340.127174 220.50947,339.372265 223.219803,338.550515 L223.219803,338.550515 C225.928826,337.728765 228.615568,336.840174 231.281341,335.887364 L231.281341,335.887364 C233.947114,334.933242 236.587985,333.914902 239.205265,332.83103 L239.205265,332.83103 C241.819924,331.74847 244.407061,330.600379 246.966674,329.390689 L246.966674,329.390689 C249.527598,328.179689 252.054447,326.907091 254.551152,325.571583 L254.551152,325.571583 C257.049167,324.238697 259.510485,322.842902 261.939038,321.386818 L261.939038,321.386818 C264.367591,319.932045 266.759447,318.416985 269.113295,316.844258 L269.113295,316.844258 C271.467144,315.27153 273.781674,313.642447 276.055576,311.955697 L276.055576,311.955697 C278.330788,310.268947 280.560129,308.525841 282.750152,306.731621 L282.750152,306.731621 C284.937553,304.93478 287.081705,303.086826 289.179985,301.185136 L289.179985,301.185136 C291.276955,299.283447 293.326742,297.331955 295.329348,295.329348 L295.329348,295.329348 C297.331955,293.328053 299.282136,291.278265 301.183826,289.179985 L301.183826,289.179985 C303.085515,287.083015 304.93478,284.937553 306.730311,282.750152 L306.730311,282.750152 C308.527152,280.561439 310.267636,278.330788 311.954386,276.055576 L311.954386,276.055576 C313.641136,273.781674 315.27153,271.467144 316.844258,269.113295 L316.844258,269.113295 C318.416985,266.760758 319.932045,264.367591 321.386818,261.940348 L321.386818,261.940348 C322.842902,259.511795 324.237386,257.049167 325.571583,254.551152 L325.571583,254.551152 C326.907091,252.054447 328.178379,249.526288 329.390689,246.966674 L329.390689,246.966674 C330.600379,244.407061 331.747159,241.819924 332.83103,239.205265 L332.83103,239.205265 C333.913591,236.587985 334.933242,233.947114 335.887364,231.281341 L335.887364,231.281341 C336.840174,228.615568 337.728765,225.928826 338.550515,223.219803 L338.550515,223.219803 C339.372265,220.50947 340.128485,217.782098 340.815242,215.035068 L340.815242,215.035068 C341.503311,212.289348 342.123227,209.527902 342.676303,206.750727 L342.676303,206.750727 C343.228068,203.973553 343.712992,201.185894 344.127144,198.383818 L344.127144,198.383818 C344.542606,195.584364 344.889917,192.774424 345.166455,189.957932 L345.166455,189.957932 C345.444303,187.140129 345.652689,184.317083 345.791614,181.488795 L345.791614,181.488795 C345.930538,178.660508 346,175.830909 346,173 L346,173 C346,170.169091 345.930538,167.339492 345.791614,164.511205 L345.791614,164.511205 C345.652689,161.684227 345.444303,158.861182 345.166455,156.043379 L345.166455,156.043379 C344.889917,153.225576 344.542606,150.416947 344.127144,147.614871 L344.127144,147.614871 C343.712992,144.815417 343.228068,142.026447 342.676303,139.250583 L342.676303,139.250583 C342.123227,136.472098 341.503311,133.710652 340.815242,130.964932 L340.815242,130.964932 C340.128485,128.217902 339.372265,125.49053 338.550515,122.781508 L338.550515,122.781508 C337.728765,120.071174 336.840174,117.383121 335.887364,114.717348 L335.887364,114.717348 C334.933242,112.051576 333.913591,109.412015 332.83103,106.796045 L332.83103,106.796045 C331.747159,104.180076 330.600379,101.592939 329.390689,99.0333258 L329.390689,99.0333258 C328.178379,96.4737121 326.907091,93.945553 325.571583,91.4488485 L325.571583,91.4488485 C324.237386,88.9521439 322.842902,86.4882045 321.386818,84.0596515 L321.386818,84.0596515 C319.932045,81.6310985 318.416985,79.240553 316.844258,76.8867045 L316.844258,76.8867045 C315.27153,74.5315455 313.641136,72.2183258 311.954386,69.9444242 L311.954386,69.9444242 C310.267636,67.6705227 308.527152,65.4385606 306.730311,63.2498485 L306.730311,63.2498485 C304.93478,61.0611364 303.085515,58.9182955 301.183826,56.8213258 L301.183826,56.8213258 C299.282136,54.7230455 297.331955,52.671947 295.329348,50.6706515 L295.329348,50.6706515 C293.326742,48.6680455 291.276955,46.716553 289.179985,44.8161742 L289.179985,44.8161742 C287.081705,42.9144848 284.937553,41.0652197 282.750152,39.2696894 L282.750152,39.2696894 C280.560129,37.4728485 278.330788,35.7323636 276.055576,34.0456136 L276.055576,34.0456136 C273.781674,32.3588636 271.467144,30.7297803 269.113295,29.1557424 L269.113295,29.1557424 C266.759447,27.5830152 264.367591,26.0692652 261.939038,24.6131818 L261.939038,24.6131818 C259.510485,23.1584091 257.049167,21.7626136 254.551152,20.4271061 L254.551152,20.4271061 C252.054447,19.0929091 249.527598,17.8203106 246.966674,16.6106212 L246.966674,16.6106212 C244.407061,15.3996212 241.819924,14.2528409 239.205265,13.1689697 L239.205265,13.1689697 C236.587985,12.0850985 233.947114,11.0667576 231.281341,10.113947 L231.281341,10.113947 C228.615568,9.15982576 225.928826,8.27123485 223.219803,7.44948485 L223.219803,7.44948485 C220.50947,6.62773485 217.782098,5.87282576 215.036379,5.18475758 L215.036379,5.18475758 C212.288038,4.49668939 209.527902,3.87677273 206.750727,3.32369697 L206.750727,3.32369697 C203.973553,2.77193182 201.184583,2.28831818 198.383818,1.87285606 L198.383818,1.87285606 C195.584364,1.45739394 192.774424,1.11139394 189.956621,0.832234848 L189.956621,0.832234848 C187.140129,0.55569697 184.317083,0.347310606 181.488795,0.208386364 L181.488795,0.208386364 C178.660508,0.0694621212 175.830909,0 173,0 L173,0 C170.16778,0 167.338182,0.0694621212 164.511205,0.208386364" id="path-2"></path>
    </defs>
    <g id="Social" stroke="none" stroke-width="1" fill="none" fill-rule="evenodd">
        <g id="Group-91-Copy-3">
            <mask id="mask-3" fill="white">
                <use xlink:href="#path-2"></use>
            </mask>
            <use id="Mask" fill-opacity="0.5" fill="url(#linearGradient-1)" xlink:href="#path-2"></use>
            <g id="Group-91-Copy" mask="url(#mask-3)">
                <g transform="translate(37.000000, 66.000000)">
                    <g id="Group-20" stroke="none" stroke-width="1" fill="none" fill-rule="evenodd" transform="translate(31.299838, 220.481928)">
                        <path d="M31.3305799,0.242769671 C31.3305799,0.242769671 11.6933629,1.50988531 3.22275629,36.120705 C-5.25271387,70.7266822 4.07386988,91.9496585 27.0523156,92.650204 C51.5027825,93.3943317 51.4946766,74.6523195 51.4946766,74.6523195" id="Fill-17" fill="#C28E5F"></path>
                        <path d="M31.3305799,0.242769671 C31.3305799,0.242769671 11.6933629,1.50988531 3.22275629,36.120705 C-5.25271387,70.7266822 4.07386988,91.9496585 27.0523156,92.650204 C51.5027825,93.3943317 51.4946766,74.6523195 51.4946766,74.6523195" id="Stroke-19" stroke="#080304" stroke-width="3" stroke-linecap="round" stroke-linejoin="round"></path>
                    </g>
                    <g id="Group-24" stroke="none" stroke-width="1" fill="none" fill-rule="evenodd" transform="translate(185.153971, 220.481928)">
                        <path d="M20.1781478,0.242769671 C20.1781478,0.242769671 39.7487956,1.50988531 48.1939186,36.120705 C56.6406574,70.7266822 47.3408432,91.9496585 24.441909,92.650204 C0.0743279853,93.3943317 0.0856376918,74.6523195 0.0856376918,74.6523195" id="Fill-21" fill="#C28E5F"></path>
                        <path d="M20.1781478,0.242769671 C20.1781478,0.242769671 39.7487956,1.50988531 48.1939186,36.120705 C56.6406574,70.7266822 47.3408432,91.9496585 24.441909,92.650204 C0.0743279853,93.3943317 0.0856376918,74.6523195 0.0856376918,74.6523195" id="Stroke-23" stroke="#080304" stroke-width="3" stroke-linecap="round" stroke-linejoin="round"></path>
                    </g>
                    <g id="Group-28" stroke="none" stroke-width="1" fill="none" fill-rule="evenodd" transform="translate(54.664506, 221.363855)">
                        <path d="M150.12638,0.204879631 C150.12638,0.204879631 161.984701,15.8800281 161.984701,46.0695018 C161.984701,76.2589755 135.059545,99.9194246 81.2092346,99.9194246 C27.3621387,99.9194246 0.433768385,76.2589755 0.433768385,46.0695018 C0.433768385,15.8800281 12.2920891,0.204879631 12.2920891,0.204879631" id="Fill-25" fill="#C28E5F"></path>
                        <path d="M150.12638,0.204879631 C150.12638,0.204879631 161.984701,15.8800281 161.984701,46.0695018 C161.984701,76.2589755 135.059545,99.9194246 81.2092346,99.9194246 C27.3621387,99.9194246 0.433768385,76.2589755 0.433768385,46.0695018 C0.433768385,15.8800281 12.2920891,0.204879631 12.2920891,0.204879631" id="Stroke-27" stroke="#080304" stroke-width="3" stroke-linecap="round" stroke-linejoin="round"></path>
                    </g>
                    <g id="Group-32" stroke="none" stroke-width="1" fill="none" fill-rule="evenodd" transform="translate(59.954619, 227.096386)">
                        <path d="M150.760954,0.405500258 C150.760954,0.405500258 94.9465217,35.9406745 75.4776441,35.9406745 C56.0087665,35.9406745 0.197554688,0.405500258 0.197554688,0.405500258" id="Fill-29" fill="#EE7F43"></path>
                        <path d="M150.760954,0.405500258 C150.760954,0.405500258 94.9465217,35.9406745 75.4776441,35.9406745 C56.0087665,35.9406745 0.197554688,0.405500258 0.197554688,0.405500258" id="Stroke-31" stroke="#080304" stroke-width="3" stroke-linecap="round" stroke-linejoin="round"></path>
                    </g>
                    <path d="M48.6672682,224.450649 C48.6672682,224.450649 54.4345567,218.935735 65.6855754,225.349944 C65.6855754,225.349944 53.019969,248.153845 55.1939164,271.192771 C55.1939164,271.192771 43.0137235,246.379737 48.6672682,224.450649" id="Fill-33" stroke="none" fill="#1FAD5D" fill-rule="evenodd"></path>
                    <path d="M48.6672682,224.450649 C48.6672682,224.450649 54.4345567,218.935735 65.6855754,225.349944 C65.6855754,225.349944 53.019969,248.153845 55.1939164,271.192771 C55.1939164,271.192771 43.0137235,246.379737 48.6672682,224.450649 Z" id="Stroke-35" stroke="#080304" stroke-width="3" fill="none" stroke-linecap="round" stroke-linejoin="round"></path>
                    <path d="M223.332458,224.450649 C223.332458,224.450649 217.562058,218.935735 206.314425,225.349944 C206.314425,225.349944 218.976623,248.153845 216.809119,271.192771 C216.809119,271.192771 228.985911,246.379737 223.332458,224.450649" id="Fill-37" stroke="none" fill="#1FAD5D" fill-rule="evenodd"></path>
                    <path d="M223.332458,224.450649 C223.332458,224.450649 217.562058,218.935735 206.314425,225.349944 C206.314425,225.349944 218.976623,248.153845 216.809119,271.192771 C216.809119,271.192771 228.985911,246.379737 223.332458,224.450649 Z" id="Stroke-39" stroke="#080304" stroke-width="3" fill="none" stroke-linecap="round" stroke-linejoin="round"></path>
                    <path d="M84.2009724,37.699182 C84.2009724,56.5762811 68.9059594,71.8771084 50.0356564,71.8771084 C31.1701936,71.8771084 15.8703404,56.5762811 15.8703404,37.699182 C15.8703404,18.8253105 31.1701936,3.52771084 50.0356564,3.52771084 C68.9059594,3.52771084 84.2009724,18.8253105 84.2009724,37.699182" id="Fill-41" stroke="none" fill="#C28E5F" fill-rule="evenodd"></path>
                    <path d="M84.2009724,37.699182 C84.2009724,56.5762811 68.9059594,71.8771084 50.0356564,71.8771084 C31.1701936,71.8771084 15.8703404,56.5762811 15.8703404,37.699182 C15.8703404,18.8253105 31.1701936,3.52771084 50.0356564,3.52771084 C68.9059594,3.52771084 84.2009724,18.8253105 84.2009724,37.699182 Z" id="Stroke-43" stroke="#080304" stroke-width="3" fill="none" stroke-linecap="round" stroke-linejoin="round"></path>
                    <path d="M66.5672609,37.4811315 C66.5672609,46.4945179 59.2608951,53.7975904 50.254486,53.7975904 C41.2512605,53.7975904 33.9448947,46.4945179 33.9448947,37.4811315 C33.9448947,28.47093 41.2512605,21.1662651 50.254486,21.1662651 C59.2608951,21.1662651 66.5672609,28.47093 66.5672609,37.4811315" id="Fill-45" stroke="none" fill="#FFFFFF" fill-rule="evenodd"></path>
                    <path d="M187.799028,37.699182 C187.799028,56.5762811 203.094041,71.8771084 221.964344,71.8771084 C240.83626,71.8771084 256.12966,56.5762811 256.12966,37.699182 C256.12966,18.8253105 240.83626,3.52771084 221.964344,3.52771084 C203.094041,3.52771084 187.799028,18.8253105 187.799028,37.699182" id="Fill-47" stroke="none" fill="#C28E5F" fill-rule="evenodd"></path>
                    <path d="M187.799028,37.699182 C187.799028,56.5762811 203.094041,71.8771084 221.964344,71.8771084 C240.83626,71.8771084 256.12966,56.5762811 256.12966,37.699182 C256.12966,18.8253105 240.83626,3.52771084 221.964344,3.52771084 C203.094041,3.52771084 187.799028,18.8253105 187.799028,37.699182 Z" id="Stroke-49" stroke="#080304" stroke-width="3" fill="none" stroke-linecap="round" stroke-linejoin="round"></path>
                    <path d="M205.432739,37.4811315 C205.432739,46.4945179 212.738392,53.7975904 221.743922,53.7975904 C230.749452,53.7975904 238.055105,46.4945179 238.055105,37.4811315 C238.055105,28.47093 230.749452,21.1662651 221.743922,21.1662651 C212.738392,21.1662651 205.432739,28.47093 205.432739,37.4811315" id="Fill-51" stroke="none" fill="#FFFFFF" fill-rule="evenodd"></path>
                    <path d="M136,237.238554 C190.291042,237.238554 272.025782,223.730207 272,140.514283 C271.977429,51.809739 216.069777,10.5831325 136,10.5831325 C55.9366703,10.5831325 0.0322416081,51.809739 0,140.514283 C-0.0257823052,223.730207 81.712182,237.238554 136,237.238554" id="Fill-53" stroke="none" fill="#C28E5F" fill-rule="evenodd"></path>
                    <path d="M136,237.238554 C190.291042,237.238554 272.025782,223.730207 272,140.514283 C271.977429,51.809739 216.069777,10.5831325 136,10.5831325 C55.9366703,10.5831325 0.0322416081,51.809739 0,140.514283 C-0.0257823052,223.730207 81.712182,237.238554 136,237.238554 Z" id="Stroke-55" stroke="#080304" stroke-width="3" fill="none" stroke-linecap="round" stroke-linejoin="round"></path>
                    <path d="M110.65154,127.881114 C110.65154,133.478774 106.709535,138.021687 101.842147,138.021687 C96.9664661,138.021687 93.0178282,133.478774 93.0178282,127.881114 C93.0178282,122.27388 96.9664661,117.737349 101.842147,117.737349 C106.709535,117.737349 110.65154,122.27388 110.65154,127.881114" id="Fill-57" stroke="none" fill="#080304" fill-rule="evenodd"></path>
                    <path d="M162.230146,127.881114 C162.230146,133.478774 166.173983,138.021687 171.046173,138.021687 C175.92002,138.021687 179.863857,133.478774 179.863857,127.881114 C179.863857,122.27388 175.92002,117.737349 171.046173,117.737349 C166.173983,117.737349 162.230146,122.27388 162.230146,127.881114" id="Fill-59" stroke="none" fill="#080304" fill-rule="evenodd"></path>
                    <path d="M160.466775,141.545382 C160.466775,152.509069 149.514475,161.392771 135.999184,161.392771 C122.485525,161.392771 111.533225,152.509069 111.533225,141.545382 C111.533225,130.58812 122.485525,121.706024 135.999184,121.706024 C149.514475,121.706024 160.466775,130.58812 160.466775,141.545382" id="Fill-61" stroke="none" fill="#FFFFFF" fill-rule="evenodd"></path>
                    <path d="M132.252836,149.492609 C132.252836,149.492609 142.153506,151.868087 146.359806,145.518072" id="Stroke-63" stroke="#080304" stroke-width="3" fill="none" stroke-linecap="round" stroke-linejoin="round"></path>
                    <path d="M141.510535,134.938201 C141.510535,138.593516 137.761203,141.549398 133.138521,141.549398 C128.50784,141.549398 124.758509,138.593516 124.758509,134.938201 C124.758509,131.286146 128.50784,128.320482 133.138521,128.320482 C137.761203,128.320482 141.510535,131.286146 141.510535,134.938201" id="Fill-65" stroke="none" fill="#080304" fill-rule="evenodd"></path>
                    <line x1="115.059968" y1="103.626506" x2="117.705024" y2="106.272289" id="Stroke-67" stroke="#080304" stroke-width="3" fill="none" stroke-linecap="round" stroke-linejoin="round"></line>
                    <line x1="156.940032" y1="103.626506" x2="154.294976" y2="106.272289" id="Stroke-69" stroke="#080304" stroke-width="3" fill="none" stroke-linecap="round" stroke-linejoin="round"></line>
                    <path d="M145.918963,7.94049415 C145.918963,12.3211311 141.380728,15.8746988 135.77715,15.8746988 C130.180048,15.8746988 125.640194,12.3211311 125.640194,7.94049415 C125.640194,3.55356768 130.180048,0 135.77715,0 C141.380728,0 145.918963,3.55356768 145.918963,7.94049415" id="Fill-71" stroke="none" fill="#EE7F43" fill-rule="evenodd"></path>
                    <path d="M145.918963,7.94049415 C145.918963,12.3211311 141.380728,15.8746988 135.77715,15.8746988 C130.180048,15.8746988 125.640194,12.3211311 125.640194,7.94049415 C125.640194,3.55356768 130.180048,0 135.77715,0 C141.380728,0 145.918963,3.55356768 145.918963,7.94049415 Z" id="Stroke-73" stroke="#080304" stroke-width="3" fill="none" stroke-linecap="round" stroke-linejoin="round"></path>
                    <path d="M137.954088,10.6219895 C137.306751,10.5928468 136.654583,10.5831325 135.997585,10.5831325 C135.343807,10.5831325 134.693249,10.5928468 134.041081,10.6219895 C89.925556,11.0170352 50.4267344,24.884111 22.0421394,60.239083 C22.0421394,60.239083 61.0224475,63.0578313 135.997585,63.0578313 C210.977553,63.0578313 249.957861,60.239083 249.957861,60.239083 C221.573266,24.884111 182.072834,11.0170352 137.954088,10.6219895" id="Fill-75" stroke="none" fill="#1FAD5D" fill-rule="evenodd"></path>
                    <g id="Group-80" stroke="none" stroke-width="1" fill="none" fill-rule="evenodd" transform="translate(95.222042, 41.009639)">
                        <path d="M81.6308077,20.0866818 C81.6308077,20.0866818 77.8524548,0.187022395 40.8718668,0.187022395 C3.8945165,0.187022395 0.116163657,20.0866818 0.116163657,20.0866818" id="Fill-77" fill="#C28E5F"></path>
                        <path d="M81.6308077,20.0866818 C81.6308077,20.0866818 77.8524548,0.187022395 40.8718668,0.187022395 C3.8945165,0.187022395 0.116163657,20.0866818 0.116163657,20.0866818" id="Stroke-79" stroke="#080304" stroke-width="3" stroke-linecap="round" stroke-linejoin="round"></path>
                    </g>
                    <path d="M137.954088,10.6219895 C137.306751,10.5928468 136.654583,10.5831325 135.997585,10.5831325 C135.343807,10.5831325 134.693249,10.5928468 134.041081,10.6219895 C89.925556,11.0170352 50.4267344,24.884111 22.0421394,60.239083 C22.0421394,60.239083 61.0224475,63.0578313 135.997585,63.0578313 C210.977553,63.0578313 249.957861,60.239083 249.957861,60.239083 C221.573266,24.884111 182.072834,11.0170352 137.954088,10.6219895 Z" id="Stroke-81" stroke="#080304" stroke-width="3" fill="none" stroke-linecap="round" stroke-linejoin="round"></path>
                    <g id="Group-86" stroke="none" stroke-width="1" fill="none" fill-rule="evenodd" transform="translate(111.533225, 56.884337)">
                        <path d="M0.278809139,0.366904505 C2.38473798,6.51629716 8.25044965,13.5143724 21.8883097,13.7909449 C36.0458146,14.0738391 35.4939936,7.33653226 35.4939936,7.33653226 C35.4939936,7.33653226 42.8623314,14.6712358 55.2051015,13.5191136 C67.5478716,12.3748936 66.526279,4.13145174 60.0186532,0.25153425" id="Fill-83" fill="#C28E5F"></path>
                        <path d="M0.278809139,0.366904505 C2.38473798,6.51629716 8.25044965,13.5143724 21.8883097,13.7909449 C36.0458146,14.0738391 35.4939936,7.33653226 35.4939936,7.33653226 C35.4939936,7.33653226 42.8623314,14.6712358 55.2051015,13.5191136 C67.5478716,12.3748936 66.526279,4.13145174 60.0186532,0.25153425" id="Stroke-85" stroke="#080304" stroke-width="3" stroke-linecap="round" stroke-linejoin="round"></path>
                    </g>
                    <g id="Group-90" stroke="none" stroke-width="1" fill="none" fill-rule="evenodd" transform="translate(144.596434, 59.530120)">
                        <path d="M3.35798768,5.72892524 C3.35798768,5.72892524 0.926298865,2.7952809 0.18215624,0.370949819" id="Fill-87" fill="#C28E5F"></path>
                        <path d="M3.35798768,5.72892524 C3.35798768,5.72892524 0.926298865,2.7952809 0.18215624,0.370949819" id="Stroke-89" stroke="#080304" stroke-width="3" stroke-linecap="round" stroke-linejoin="round"></path>
                    </g>
                </g>
            </g>
        </g>
    </g>
</svg>